<svg width="29" height="40" viewBox="0 0 29 40" fill="none" xmlns="http://www.w3.org/2000/svg">
<path fill-rule="evenodd" clip-rule="evenodd" d="M14.4865 0C6.49858 0 0 6.49859 0 14.4864C0 24.3995 12.964 38.9525 13.5159 39.5672C14.0343 40.1446 14.9395 40.1436 15.457 39.5672C16.009 38.9525 28.9729 24.3995 28.9729 14.4864C28.9728 6.49858 22.4743 0 14.4865 0H14.4865ZM14.4865 21.7749C10.4676 21.7749 7.19801 18.5053 7.19801 14.4864C7.19801 10.4675 10.4677 7.19796 14.4865 7.19796C18.5053 7.19796 21.7748 10.4676 21.7748 14.4865C21.7748 18.5054 18.5053 21.7749 14.4865 21.7749Z" fill="#1C3947"/>
</svg>
