<svg width="31" height="38" viewBox="0 0 31 38" fill="none" xmlns="http://www.w3.org/2000/svg">
<path fill-rule="evenodd" clip-rule="evenodd" d="M20.6819 13.7676C20.1904 13.7676 19.792 14.166 19.792 14.6575V31.4771C19.792 31.9683 20.1904 32.367 20.6819 32.367C21.1735 32.367 21.5719 31.9683 21.5719 31.4771V14.6575C21.5719 14.166 21.1735 13.7676 20.6819 13.7676Z" fill="#FF4343"/>
<path fill-rule="evenodd" clip-rule="evenodd" d="M10.1809 13.7676C9.68939 13.7676 9.29102 14.166 9.29102 14.6575V31.4771C9.29102 31.9683 9.6894 32.367 10.1809 32.367C10.6725 32.367 11.0709 31.9683 11.0709 31.4771V14.6575C11.0709 14.166 10.6725 13.7676 10.1809 13.7676Z" fill="#FF4343"/>
<path fill-rule="evenodd" clip-rule="evenodd" d="M2.52754 11.313V33.2389C2.52754 34.5349 3.00275 35.7519 3.83288 36.6251C4.65919 37.5008 5.80914 37.9979 7.01263 38H23.8503C25.0541 37.9979 26.2041 37.5008 27.0301 36.6251C27.8602 35.7519 28.3354 34.5349 28.3354 33.2389V11.313C29.9856 10.875 31.0549 9.28075 30.8341 7.58745C30.6131 5.89451 29.1708 4.6281 27.4632 4.62775H22.9069V3.51534C22.9121 2.57988 22.5422 1.6816 21.88 1.02076C21.2177 0.360267 20.3181 -0.007523 19.3826 0.000116995H11.4803C10.5449 -0.007533 9.64521 0.360257 8.98298 1.02076C8.32075 1.6816 7.95087 2.57987 7.95608 3.51534V4.62775H3.39973C1.69218 4.6281 0.249879 5.89451 0.0287888 7.58745C-0.191951 9.28074 0.877349 10.875 2.52753 11.313H2.52754ZM23.8503 36.2202H7.01267C5.4911 36.2202 4.30744 34.9131 4.30744 33.2389V11.3912H26.5556V33.2389C26.5556 34.9131 25.3719 36.2202 23.8504 36.2202H23.8503ZM9.73594 3.51536C9.73003 3.05197 9.91219 2.60596 10.241 2.27885C10.5695 1.95173 11.0166 1.77201 11.4803 1.78H19.3826C19.8463 1.772 20.2934 1.95173 20.6219 2.27885C20.9507 2.60562 21.1329 3.05197 21.127 3.51536V4.62777H9.73593L9.73594 3.51536ZM3.39973 6.40762H27.4632C28.3479 6.40762 29.065 7.12478 29.065 8.00949C29.065 8.8942 28.3479 9.61136 27.4632 9.61136H3.39973C2.51502 9.61136 1.79786 8.8942 1.79786 8.00949C1.79786 7.12478 2.51502 6.40762 3.39973 6.40762Z" fill="#FF4343"/>
<path fill-rule="evenodd" clip-rule="evenodd" d="M15.4309 13.7676C14.9394 13.7676 14.541 14.166 14.541 14.6575V31.4771C14.541 31.9683 14.9394 32.367 15.4309 32.367C15.9225 32.367 16.3209 31.9683 16.3209 31.4771V14.6575C16.3209 14.166 15.9225 13.7676 15.4309 13.7676Z" fill="#FF4343"/>
</svg>
