<svg width="101" height="18" viewBox="0 0 101 18" fill="none" xmlns="http://www.w3.org/2000/svg">
<path d="M31.8629 6.05035L38.4282 6.61368L33.4479 10.9285L34.9406 17.3459L29.2983 13.9431L23.656 17.3468L25.1488 10.9294L20.1684 6.61368L26.7337 6.05035L29.2983 0L31.8629 6.05035Z" fill="#DB4437"/>
<path d="M52.0318 6.05035L58.5971 6.61368L53.6168 10.9285L55.1095 17.3459L49.4672 13.9431L43.825 17.3468L45.3177 10.9294L40.3374 6.61368L46.9027 6.05035L49.4672 0L52.0318 6.05035Z" fill="#DB4437"/>
<path d="M94.4347 6.05035L101 6.61368L96.0197 10.9285L97.5124 17.3459L91.8702 13.9431L86.2279 17.3468L87.7206 10.9294L82.7403 6.61368L89.3056 6.05035L91.8701 0L94.4347 6.05035Z" fill="#CFCFCF"/>
<path d="M11.6945 6.05035L18.2597 6.61368L13.2794 10.9285L14.7721 17.3459L9.12987 13.9431L3.48761 17.3468L4.98037 10.9294L0 6.61368L6.5653 6.05035L9.12986 0L11.6945 6.05035Z" fill="#DB4437"/>
<path fill-rule="evenodd" clip-rule="evenodd" d="M79.887 6.61368L73.3218 6.05035L70.7572 0L68.1926 6.05035L61.6273 6.61368L66.6077 10.9294L65.1149 17.3468L70.7572 13.9431L76.3994 17.3459L74.9067 10.9285L79.887 6.61368ZM70.7572 3.73867V12.2304L74.1936 14.3029L73.2843 10.3944L76.3172 7.76677L72.3184 7.42349L70.7572 3.73867Z" fill="#DB4437"/>
</svg>
