<svg width="424" height="122" viewBox="0 0 424 122" fill="none" xmlns="http://www.w3.org/2000/svg">
<path fill-rule="evenodd" clip-rule="evenodd" d="M27.4347 121.999C26.9966 121.999 26.5661 121.968 26.1447 121.908H0L18.4347 103.423V9C18.4347 4.0293 22.464 0 27.4347 0H415C419.971 0 424 4.0293 424 9V112.999C424 117.97 419.971 121.999 415 121.999H27.4347Z" fill="#EAECF2"/>
<path d="M56.64 48V40.248H49.68V48H47.4V31.464H49.68V38.376H56.64V31.464H58.92V48H56.64ZM65.8005 35.352V48H63.5925V35.352H65.8005ZM64.6725 29.28C65.1365 29.28 65.5125 29.424 65.8005 29.712C66.0885 30 66.2325 30.36 66.2325 30.792C66.2325 31.224 66.0885 31.584 65.8005 31.872C65.5125 32.144 65.1365 32.28 64.6725 32.28C64.2245 32.28 63.8565 32.144 63.5685 31.872C63.2805 31.584 63.1365 31.224 63.1365 30.792C63.1365 30.36 63.2805 30 63.5685 29.712C63.8565 29.424 64.2245 29.28 64.6725 29.28ZM79.4775 45.696C79.4775 47.328 79.1175 48.552 78.3975 49.368C77.6935 50.184 76.6135 50.824 75.1575 51.288L74.5575 49.632C75.2935 49.344 75.8455 49.032 76.2135 48.696C76.5815 48.36 76.8375 47.952 76.9815 47.472C77.1255 46.992 77.1975 46.368 77.1975 45.6V31.464H79.4775V45.696ZM88.782 35.064C90.558 35.064 91.934 35.656 92.91 36.84C93.902 38.024 94.398 39.632 94.398 41.664C94.398 42.976 94.174 44.136 93.726 45.144C93.278 46.136 92.63 46.912 91.782 47.472C90.934 48.016 89.926 48.288 88.758 48.288C86.982 48.288 85.598 47.696 84.606 46.512C83.614 45.328 83.118 43.72 83.118 41.688C83.118 40.376 83.342 39.224 83.79 38.232C84.238 37.224 84.886 36.448 85.734 35.904C86.582 35.344 87.598 35.064 88.782 35.064ZM88.782 36.84C86.59 36.84 85.494 38.456 85.494 41.688C85.494 44.904 86.582 46.512 88.758 46.512C90.934 46.512 92.022 44.896 92.022 41.664C92.022 38.448 90.942 36.84 88.782 36.84ZM103.998 35.064C105.15 35.064 106.046 35.408 106.686 36.096C107.342 36.784 107.67 37.728 107.67 38.928V48H105.462V39.24C105.462 38.344 105.286 37.712 104.934 37.344C104.598 36.976 104.102 36.792 103.446 36.792C102.79 36.792 102.206 36.984 101.694 37.368C101.182 37.752 100.702 38.296 100.254 39V48H98.0456V30.288L100.254 30.048V37.104C101.246 35.744 102.494 35.064 103.998 35.064ZM118.06 35.064C119.212 35.064 120.108 35.408 120.748 36.096C121.404 36.784 121.732 37.728 121.732 38.928V48H119.524V39.24C119.524 38.344 119.356 37.712 119.02 37.344C118.684 36.976 118.188 36.792 117.532 36.792C116.86 36.792 116.268 36.984 115.756 37.368C115.244 37.752 114.764 38.304 114.316 39.024V48H112.108V35.352H114.004L114.196 37.224C114.644 36.552 115.196 36.024 115.852 35.64C116.524 35.256 117.26 35.064 118.06 35.064ZM127.971 31.464L127.731 42.48H125.787L125.523 31.464H127.971ZM126.771 44.952C127.251 44.952 127.651 45.112 127.971 45.432C128.291 45.752 128.451 46.144 128.451 46.608C128.451 47.072 128.291 47.472 127.971 47.808C127.651 48.128 127.251 48.288 126.771 48.288C126.307 48.288 125.915 48.128 125.595 47.808C125.275 47.472 125.115 47.072 125.115 46.608C125.115 46.144 125.275 45.752 125.595 45.432C125.915 45.112 126.307 44.952 126.771 44.952ZM149.111 31.464L143.783 41.64V48H141.479V41.664L136.151 31.464H138.671L142.703 39.648L146.735 31.464H149.111ZM159.652 41.304C159.652 41.672 159.636 42.048 159.604 42.432H151.54C151.636 43.824 151.988 44.848 152.596 45.504C153.204 46.16 153.988 46.488 154.948 46.488C155.556 46.488 156.116 46.4 156.628 46.224C157.14 46.048 157.676 45.768 158.236 45.384L159.196 46.704C157.852 47.76 156.38 48.288 154.78 48.288C153.02 48.288 151.644 47.712 150.652 46.56C149.676 45.408 149.188 43.824 149.188 41.808C149.188 40.496 149.396 39.336 149.812 38.328C150.244 37.304 150.852 36.504 151.636 35.928C152.436 35.352 153.372 35.064 154.444 35.064C156.124 35.064 157.412 35.616 158.308 36.72C159.204 37.824 159.652 39.352 159.652 41.304ZM157.468 40.656C157.468 39.408 157.22 38.456 156.724 37.8C156.228 37.144 155.484 36.816 154.492 36.816C152.684 36.816 151.7 38.144 151.54 40.8H157.468V40.656ZM166.61 35.064C167.474 35.064 168.25 35.184 168.938 35.424C169.626 35.664 170.282 36.024 170.906 36.504L169.97 37.896C169.394 37.528 168.842 37.256 168.314 37.08C167.802 36.904 167.258 36.816 166.682 36.816C165.962 36.816 165.394 36.968 164.978 37.272C164.562 37.56 164.354 37.96 164.354 38.472C164.354 38.984 164.546 39.384 164.93 39.672C165.33 39.96 166.042 40.24 167.066 40.512C168.474 40.864 169.522 41.344 170.21 41.952C170.914 42.56 171.266 43.392 171.266 44.448C171.266 45.696 170.778 46.648 169.802 47.304C168.842 47.96 167.666 48.288 166.274 48.288C164.354 48.288 162.762 47.736 161.498 46.632L162.674 45.288C163.746 46.104 164.93 46.512 166.226 46.512C167.058 46.512 167.714 46.344 168.194 46.008C168.69 45.656 168.938 45.184 168.938 44.592C168.938 44.16 168.85 43.816 168.674 43.56C168.498 43.288 168.194 43.056 167.762 42.864C167.33 42.656 166.698 42.44 165.866 42.216C164.522 41.864 163.546 41.392 162.938 40.8C162.346 40.208 162.05 39.456 162.05 38.544C162.05 37.888 162.242 37.296 162.626 36.768C163.026 36.224 163.57 35.808 164.258 35.52C164.962 35.216 165.746 35.064 166.61 35.064ZM195.181 35.352L192.301 48H189.301L187.093 37.344L184.813 48H181.885L178.933 35.352H181.141L183.421 46.464L185.917 35.352H188.389L190.765 46.464L193.069 35.352H195.181ZM200.144 35.352V48H197.936V35.352H200.144ZM199.016 29.28C199.48 29.28 199.856 29.424 200.144 29.712C200.432 30 200.576 30.36 200.576 30.792C200.576 31.224 200.432 31.584 200.144 31.872C199.856 32.144 199.48 32.28 199.016 32.28C198.568 32.28 198.2 32.144 197.912 31.872C197.624 31.584 197.48 31.224 197.48 30.792C197.48 30.36 197.624 30 197.912 29.712C198.2 29.424 198.568 29.28 199.016 29.28ZM211.094 47.424C210.262 48 209.318 48.288 208.262 48.288C207.19 48.288 206.35 47.984 205.742 47.376C205.15 46.752 204.854 45.856 204.854 44.688V37.056H202.646V35.352H204.854V32.496L207.062 32.232V35.352H210.062L209.822 37.056H207.062V44.592C207.062 45.248 207.174 45.728 207.398 46.032C207.638 46.32 208.03 46.464 208.574 46.464C209.07 46.464 209.63 46.296 210.254 45.96L211.094 47.424ZM219.334 35.064C220.486 35.064 221.382 35.408 222.022 36.096C222.678 36.784 223.006 37.728 223.006 38.928V48H220.798V39.24C220.798 38.344 220.622 37.712 220.27 37.344C219.934 36.976 219.438 36.792 218.782 36.792C218.126 36.792 217.542 36.984 217.03 37.368C216.518 37.752 216.038 38.296 215.59 39V48H213.382V30.288L215.59 30.048V37.104C216.582 35.744 217.83 35.064 219.334 35.064ZM239.604 35.064C241.22 35.064 242.404 35.64 243.156 36.792C243.908 37.944 244.284 39.568 244.284 41.664C244.284 43.648 243.852 45.248 242.988 46.464C242.124 47.68 240.9 48.288 239.316 48.288C237.908 48.288 236.804 47.808 236.004 46.848V52.848L233.796 53.112V35.352H235.692L235.86 37.056C236.324 36.416 236.884 35.928 237.54 35.592C238.196 35.24 238.884 35.064 239.604 35.064ZM238.788 46.488C240.868 46.488 241.908 44.88 241.908 41.664C241.908 38.432 240.956 36.816 239.052 36.816C238.428 36.816 237.86 37 237.348 37.368C236.836 37.736 236.388 38.208 236.004 38.784V44.952C236.324 45.448 236.724 45.832 237.204 46.104C237.684 46.36 238.212 46.488 238.788 46.488ZM250.566 48.288C249.75 48.288 249.102 48.048 248.622 47.568C248.158 47.072 247.926 46.384 247.926 45.504V30.264L250.134 30V45.456C250.134 45.808 250.19 46.064 250.302 46.224C250.43 46.384 250.638 46.464 250.926 46.464C251.23 46.464 251.502 46.416 251.742 46.32L252.318 47.856C251.79 48.144 251.206 48.288 250.566 48.288ZM264.512 41.304C264.512 41.672 264.496 42.048 264.464 42.432H256.4C256.496 43.824 256.848 44.848 257.456 45.504C258.064 46.16 258.848 46.488 259.808 46.488C260.416 46.488 260.976 46.4 261.488 46.224C262 46.048 262.536 45.768 263.096 45.384L264.056 46.704C262.712 47.76 261.24 48.288 259.64 48.288C257.88 48.288 256.504 47.712 255.512 46.56C254.536 45.408 254.048 43.824 254.048 41.808C254.048 40.496 254.256 39.336 254.672 38.328C255.104 37.304 255.712 36.504 256.496 35.928C257.296 35.352 258.232 35.064 259.304 35.064C260.984 35.064 262.272 35.616 263.168 36.72C264.064 37.824 264.512 39.352 264.512 41.304ZM262.328 40.656C262.328 39.408 262.08 38.456 261.584 37.8C261.088 37.144 260.344 36.816 259.352 36.816C257.544 36.816 256.56 38.144 256.4 40.8H262.328V40.656ZM276.323 45.048C276.323 45.56 276.411 45.944 276.587 46.2C276.763 46.44 277.027 46.624 277.379 46.752L276.875 48.288C276.219 48.208 275.691 48.024 275.291 47.736C274.891 47.448 274.595 47 274.403 46.392C273.555 47.656 272.299 48.288 270.635 48.288C269.387 48.288 268.403 47.936 267.683 47.232C266.963 46.528 266.603 45.608 266.603 44.472C266.603 43.128 267.083 42.096 268.043 41.376C269.019 40.656 270.395 40.296 272.171 40.296H274.115V39.36C274.115 38.464 273.899 37.824 273.467 37.44C273.035 37.056 272.371 36.864 271.475 36.864C270.547 36.864 269.411 37.088 268.067 37.536L267.515 35.928C269.083 35.352 270.539 35.064 271.883 35.064C273.371 35.064 274.483 35.432 275.219 36.168C275.955 36.888 276.323 37.92 276.323 39.264V45.048ZM271.139 46.632C272.403 46.632 273.395 45.976 274.115 44.664V41.76H272.459C270.123 41.76 268.955 42.624 268.955 44.352C268.955 45.104 269.139 45.672 269.507 46.056C269.875 46.44 270.419 46.632 271.139 46.632ZM284.056 35.064C284.92 35.064 285.696 35.184 286.384 35.424C287.072 35.664 287.728 36.024 288.352 36.504L287.416 37.896C286.84 37.528 286.288 37.256 285.76 37.08C285.248 36.904 284.704 36.816 284.128 36.816C283.408 36.816 282.84 36.968 282.424 37.272C282.008 37.56 281.8 37.96 281.8 38.472C281.8 38.984 281.992 39.384 282.376 39.672C282.776 39.96 283.488 40.24 284.512 40.512C285.92 40.864 286.968 41.344 287.656 41.952C288.36 42.56 288.712 43.392 288.712 44.448C288.712 45.696 288.224 46.648 287.248 47.304C286.288 47.96 285.112 48.288 283.72 48.288C281.8 48.288 280.208 47.736 278.944 46.632L280.12 45.288C281.192 46.104 282.376 46.512 283.672 46.512C284.504 46.512 285.16 46.344 285.64 46.008C286.136 45.656 286.384 45.184 286.384 44.592C286.384 44.16 286.296 43.816 286.12 43.56C285.944 43.288 285.64 43.056 285.208 42.864C284.776 42.656 284.144 42.44 283.312 42.216C281.968 41.864 280.992 41.392 280.384 40.8C279.792 40.208 279.496 39.456 279.496 38.544C279.496 37.888 279.688 37.296 280.072 36.768C280.472 36.224 281.016 35.808 281.704 35.52C282.408 35.216 283.192 35.064 284.056 35.064ZM301.235 48H299.339L299.171 46.032C298.691 46.816 298.139 47.392 297.515 47.76C296.891 48.112 296.131 48.288 295.235 48.288C294.131 48.288 293.267 47.952 292.643 47.28C292.019 46.608 291.707 45.656 291.707 44.424V35.352H293.915V44.184C293.915 45.048 294.067 45.664 294.371 46.032C294.675 46.384 295.171 46.56 295.859 46.56C297.091 46.56 298.147 45.832 299.027 44.376V35.352H301.235V48ZM311.292 35.064C311.74 35.064 312.156 35.112 312.54 35.208L312.132 37.368C311.748 37.272 311.38 37.224 311.028 37.224C310.244 37.224 309.612 37.512 309.132 38.088C308.652 38.664 308.276 39.56 308.004 40.776V48H305.796V35.352H307.692L307.908 37.92C308.244 36.976 308.7 36.264 309.276 35.784C309.852 35.304 310.524 35.064 311.292 35.064ZM323.879 41.304C323.879 41.672 323.863 42.048 323.831 42.432H315.767C315.863 43.824 316.215 44.848 316.823 45.504C317.431 46.16 318.215 46.488 319.175 46.488C319.783 46.488 320.343 46.4 320.855 46.224C321.367 46.048 321.903 45.768 322.463 45.384L323.423 46.704C322.079 47.76 320.607 48.288 319.007 48.288C317.247 48.288 315.871 47.712 314.879 46.56C313.903 45.408 313.415 43.824 313.415 41.808C313.415 40.496 313.623 39.336 314.039 38.328C314.471 37.304 315.079 36.504 315.863 35.928C316.663 35.352 317.599 35.064 318.671 35.064C320.351 35.064 321.639 35.616 322.535 36.72C323.431 37.824 323.879 39.352 323.879 41.304ZM321.695 40.656C321.695 39.408 321.447 38.456 320.951 37.8C320.455 37.144 319.711 36.816 318.719 36.816C316.911 36.816 315.927 38.144 315.767 40.8H321.695V40.656ZM329.205 31.464L328.965 42.48H327.021L326.757 31.464H329.205ZM328.005 44.952C328.485 44.952 328.885 45.112 329.205 45.432C329.525 45.752 329.685 46.144 329.685 46.608C329.685 47.072 329.525 47.472 329.205 47.808C328.885 48.128 328.485 48.288 328.005 48.288C327.541 48.288 327.149 48.128 326.829 47.808C326.509 47.472 326.349 47.072 326.349 46.608C326.349 46.144 326.509 45.752 326.829 45.432C327.149 45.112 327.541 44.952 328.005 44.952ZM343.122 31.464C345.618 31.464 347.618 32.048 349.122 33.216C350.642 34.368 351.402 36.512 351.402 39.648C351.402 42.704 350.642 44.864 349.122 46.128C347.618 47.376 345.786 48 343.626 48H339.666V31.464H343.122ZM341.946 33.288V46.2H343.794C345.33 46.2 346.578 45.728 347.538 44.784C348.498 43.84 348.978 42.128 348.978 39.648C348.978 37.904 348.73 36.568 348.234 35.64C347.738 34.696 347.106 34.072 346.338 33.768C345.57 33.448 344.666 33.288 343.626 33.288H341.946ZM359.743 35.064C361.519 35.064 362.895 35.656 363.871 36.84C364.863 38.024 365.359 39.632 365.359 41.664C365.359 42.976 365.135 44.136 364.687 45.144C364.239 46.136 363.591 46.912 362.743 47.472C361.895 48.016 360.887 48.288 359.719 48.288C357.943 48.288 356.559 47.696 355.567 46.512C354.575 45.328 354.079 43.72 354.079 41.688C354.079 40.376 354.303 39.224 354.751 38.232C355.199 37.224 355.847 36.448 356.695 35.904C357.543 35.344 358.559 35.064 359.743 35.064ZM359.743 36.84C357.551 36.84 356.455 38.456 356.455 41.688C356.455 44.904 357.543 46.512 359.719 46.512C361.895 46.512 362.983 44.896 362.983 41.664C362.983 38.448 361.903 36.84 359.743 36.84ZM52.344 84.072C51.848 85.544 51.152 86.704 50.256 87.552C49.376 88.416 48.112 88.936 46.464 89.112L46.224 87.384C47.056 87.24 47.72 87.032 48.216 86.76C48.712 86.488 49.104 86.136 49.392 85.704C49.696 85.288 49.976 84.72 50.232 84H49.488L45.24 71.352H47.592L50.976 82.392L54.288 71.352H56.568L52.344 84.072ZM63.7508 71.064C65.5268 71.064 66.9028 71.656 67.8788 72.84C68.8708 74.024 69.3668 75.632 69.3668 77.664C69.3668 78.976 69.1428 80.136 68.6948 81.144C68.2468 82.136 67.5988 82.912 66.7508 83.472C65.9028 84.016 64.8948 84.288 63.7268 84.288C61.9508 84.288 60.5668 83.696 59.5748 82.512C58.5828 81.328 58.0868 79.72 58.0868 77.688C58.0868 76.376 58.3108 75.224 58.7588 74.232C59.2068 73.224 59.8548 72.448 60.7028 71.904C61.5508 71.344 62.5668 71.064 63.7508 71.064ZM63.7508 72.84C61.5588 72.84 60.4628 74.456 60.4628 77.688C60.4628 80.904 61.5508 82.512 63.7268 82.512C65.9028 82.512 66.9908 80.896 66.9908 77.664C66.9908 74.448 65.9108 72.84 63.7508 72.84ZM82.4224 84H80.5264L80.3584 82.032C79.8784 82.816 79.3264 83.392 78.7024 83.76C78.0784 84.112 77.3184 84.288 76.4224 84.288C75.3184 84.288 74.4544 83.952 73.8304 83.28C73.2064 82.608 72.8944 81.656 72.8944 80.424V71.352H75.1024V80.184C75.1024 81.048 75.2544 81.664 75.5584 82.032C75.8624 82.384 76.3584 82.56 77.0464 82.56C78.2784 82.56 79.3344 81.832 80.2144 80.376V71.352H82.4224V84ZM99.1427 71.064C100.759 71.064 101.943 71.64 102.695 72.792C103.447 73.944 103.823 75.568 103.823 77.664C103.823 79.648 103.391 81.248 102.527 82.464C101.663 83.68 100.439 84.288 98.8547 84.288C97.4467 84.288 96.3427 83.808 95.5427 82.848V88.848L93.3347 89.112V71.352H95.2307L95.3987 73.056C95.8627 72.416 96.4227 71.928 97.0787 71.592C97.7347 71.24 98.4227 71.064 99.1427 71.064ZM98.3267 82.488C100.407 82.488 101.447 80.88 101.447 77.664C101.447 74.432 100.495 72.816 98.5907 72.816C97.9667 72.816 97.3987 73 96.8867 73.368C96.3747 73.736 95.9267 74.208 95.5427 74.784V80.952C95.8627 81.448 96.2627 81.832 96.7427 82.104C97.2227 82.36 97.7507 82.488 98.3267 82.488ZM113.081 71.064C113.529 71.064 113.945 71.112 114.329 71.208L113.921 73.368C113.537 73.272 113.169 73.224 112.817 73.224C112.033 73.224 111.401 73.512 110.921 74.088C110.441 74.664 110.065 75.56 109.793 76.776V84H107.585V71.352H109.481L109.697 73.92C110.033 72.976 110.489 72.264 111.065 71.784C111.641 71.304 112.313 71.064 113.081 71.064ZM125.668 77.304C125.668 77.672 125.652 78.048 125.62 78.432H117.556C117.652 79.824 118.004 80.848 118.612 81.504C119.22 82.16 120.004 82.488 120.964 82.488C121.572 82.488 122.132 82.4 122.644 82.224C123.156 82.048 123.692 81.768 124.252 81.384L125.212 82.704C123.868 83.76 122.396 84.288 120.796 84.288C119.036 84.288 117.66 83.712 116.668 82.56C115.692 81.408 115.204 79.824 115.204 77.808C115.204 76.496 115.412 75.336 115.828 74.328C116.26 73.304 116.868 72.504 117.652 71.928C118.452 71.352 119.388 71.064 120.46 71.064C122.14 71.064 123.428 71.616 124.324 72.72C125.22 73.824 125.668 75.352 125.668 77.304ZM123.484 76.656C123.484 75.408 123.236 74.456 122.74 73.8C122.244 73.144 121.5 72.816 120.508 72.816C118.7 72.816 117.716 74.144 117.556 76.8H123.484V76.656ZM133.49 67.776C132.818 67.776 132.338 67.928 132.05 68.232C131.762 68.52 131.618 68.976 131.618 69.6V71.352H134.69L134.45 73.056H131.618V84H129.41V73.056H127.154V71.352H129.41V69.624C129.41 68.536 129.754 67.664 130.442 67.008C131.146 66.336 132.122 66 133.37 66C133.946 66 134.458 66.056 134.906 66.168C135.37 66.264 135.866 66.424 136.394 66.648L135.698 68.256C134.978 67.936 134.242 67.776 133.49 67.776ZM146.551 77.304C146.551 77.672 146.535 78.048 146.503 78.432H138.439C138.535 79.824 138.887 80.848 139.495 81.504C140.103 82.16 140.887 82.488 141.847 82.488C142.455 82.488 143.015 82.4 143.527 82.224C144.039 82.048 144.575 81.768 145.135 81.384L146.095 82.704C144.751 83.76 143.279 84.288 141.679 84.288C139.919 84.288 138.543 83.712 137.551 82.56C136.575 81.408 136.087 79.824 136.087 77.808C136.087 76.496 136.295 75.336 136.711 74.328C137.143 73.304 137.751 72.504 138.535 71.928C139.335 71.352 140.271 71.064 141.343 71.064C143.023 71.064 144.311 71.616 145.207 72.72C146.103 73.824 146.551 75.352 146.551 77.304ZM144.367 76.656C144.367 75.408 144.119 74.456 143.623 73.8C143.127 73.144 142.383 72.816 141.391 72.816C139.583 72.816 138.599 74.144 138.439 76.8H144.367V76.656ZM155.573 71.064C156.021 71.064 156.437 71.112 156.821 71.208L156.413 73.368C156.029 73.272 155.661 73.224 155.309 73.224C154.525 73.224 153.893 73.512 153.413 74.088C152.933 74.664 152.557 75.56 152.285 76.776V84H150.077V71.352H151.973L152.189 73.92C152.525 72.976 152.981 72.264 153.557 71.784C154.133 71.304 154.805 71.064 155.573 71.064ZM174.206 81.048C174.206 81.56 174.294 81.944 174.47 82.2C174.646 82.44 174.91 82.624 175.262 82.752L174.758 84.288C174.102 84.208 173.574 84.024 173.174 83.736C172.774 83.448 172.478 83 172.286 82.392C171.438 83.656 170.182 84.288 168.518 84.288C167.27 84.288 166.286 83.936 165.566 83.232C164.846 82.528 164.486 81.608 164.486 80.472C164.486 79.128 164.966 78.096 165.926 77.376C166.902 76.656 168.278 76.296 170.054 76.296H171.998V75.36C171.998 74.464 171.782 73.824 171.35 73.44C170.918 73.056 170.254 72.864 169.358 72.864C168.43 72.864 167.294 73.088 165.95 73.536L165.398 71.928C166.966 71.352 168.422 71.064 169.766 71.064C171.254 71.064 172.366 71.432 173.102 72.168C173.838 72.888 174.206 73.92 174.206 75.264V81.048ZM169.022 82.632C170.286 82.632 171.278 81.976 171.998 80.664V77.76H170.342C168.006 77.76 166.838 78.624 166.838 80.352C166.838 81.104 167.022 81.672 167.39 82.056C167.758 82.44 168.302 82.632 169.022 82.632ZM185.125 83.424C184.293 84 183.349 84.288 182.293 84.288C181.221 84.288 180.381 83.984 179.773 83.376C179.181 82.752 178.885 81.856 178.885 80.688V73.056H176.677V71.352H178.885V68.496L181.093 68.232V71.352H184.093L183.853 73.056H181.093V80.592C181.093 81.248 181.205 81.728 181.429 82.032C181.669 82.32 182.061 82.464 182.605 82.464C183.101 82.464 183.661 82.296 184.285 81.96L185.125 83.424ZM208.212 71.352L205.332 84H202.332L200.124 73.344L197.844 84H194.916L191.964 71.352H194.172L196.452 82.464L198.948 71.352H201.42L203.796 82.464L206.1 71.352H208.212ZM216.92 71.064C218.072 71.064 218.968 71.408 219.608 72.096C220.264 72.784 220.592 73.728 220.592 74.928V84H218.384V75.24C218.384 74.344 218.208 73.712 217.856 73.344C217.52 72.976 217.024 72.792 216.368 72.792C215.712 72.792 215.128 72.984 214.616 73.368C214.104 73.752 213.624 74.296 213.176 75V84H210.968V66.288L213.176 66.048V73.104C214.168 71.744 215.416 71.064 216.92 71.064ZM233.55 81.048C233.55 81.56 233.638 81.944 233.814 82.2C233.99 82.44 234.254 82.624 234.606 82.752L234.102 84.288C233.446 84.208 232.918 84.024 232.518 83.736C232.118 83.448 231.822 83 231.63 82.392C230.782 83.656 229.526 84.288 227.862 84.288C226.614 84.288 225.63 83.936 224.91 83.232C224.19 82.528 223.83 81.608 223.83 80.472C223.83 79.128 224.31 78.096 225.27 77.376C226.246 76.656 227.622 76.296 229.398 76.296H231.342V75.36C231.342 74.464 231.126 73.824 230.694 73.44C230.262 73.056 229.598 72.864 228.702 72.864C227.774 72.864 226.638 73.088 225.294 73.536L224.742 71.928C226.31 71.352 227.766 71.064 229.11 71.064C230.598 71.064 231.71 71.432 232.446 72.168C233.182 72.888 233.55 73.92 233.55 75.264V81.048ZM228.366 82.632C229.63 82.632 230.622 81.976 231.342 80.664V77.76H229.686C227.35 77.76 226.182 78.624 226.182 80.352C226.182 81.104 226.366 81.672 226.734 82.056C227.102 82.44 227.646 82.632 228.366 82.632ZM244.469 83.424C243.637 84 242.693 84.288 241.637 84.288C240.565 84.288 239.725 83.984 239.117 83.376C238.525 82.752 238.229 81.856 238.229 80.688V73.056H236.021V71.352H238.229V68.496L240.437 68.232V71.352H243.437L243.197 73.056H240.437V80.592C240.437 81.248 240.549 81.728 240.773 82.032C241.013 82.32 241.405 82.464 241.949 82.464C242.445 82.464 243.005 82.296 243.629 81.96L244.469 83.424ZM259.492 83.424C258.66 84 257.716 84.288 256.66 84.288C255.588 84.288 254.748 83.984 254.14 83.376C253.548 82.752 253.252 81.856 253.252 80.688V73.056H251.044V71.352H253.252V68.496L255.46 68.232V71.352H258.46L258.22 73.056H255.46V80.592C255.46 81.248 255.572 81.728 255.796 82.032C256.036 82.32 256.428 82.464 256.972 82.464C257.468 82.464 258.028 82.296 258.652 81.96L259.492 83.424ZM263.988 71.352V84H261.78V71.352H263.988ZM262.86 65.28C263.324 65.28 263.7 65.424 263.988 65.712C264.276 66 264.42 66.36 264.42 66.792C264.42 67.224 264.276 67.584 263.988 67.872C263.7 68.144 263.324 68.28 262.86 68.28C262.412 68.28 262.044 68.144 261.756 67.872C261.468 67.584 261.324 67.224 261.324 66.792C261.324 66.36 261.468 66 261.756 65.712C262.044 65.424 262.412 65.28 262.86 65.28ZM281.249 71.064C282.289 71.064 283.121 71.416 283.745 72.12C284.369 72.808 284.681 73.744 284.681 74.928V84H282.473V75.24C282.473 73.608 281.881 72.792 280.697 72.792C280.073 72.792 279.545 72.976 279.113 73.344C278.681 73.696 278.217 74.256 277.721 75.024V84H275.513V75.24C275.513 73.608 274.921 72.792 273.737 72.792C273.097 72.792 272.561 72.976 272.129 73.344C271.697 73.712 271.241 74.272 270.761 75.024V84H268.553V71.352H270.449L270.641 73.2C271.585 71.776 272.801 71.064 274.289 71.064C275.073 71.064 275.737 71.264 276.281 71.664C276.841 72.064 277.241 72.624 277.481 73.344C277.977 72.608 278.521 72.048 279.113 71.664C279.721 71.264 280.433 71.064 281.249 71.064ZM298.684 77.304C298.684 77.672 298.668 78.048 298.636 78.432H290.572C290.668 79.824 291.02 80.848 291.628 81.504C292.236 82.16 293.02 82.488 293.98 82.488C294.588 82.488 295.148 82.4 295.66 82.224C296.172 82.048 296.708 81.768 297.268 81.384L298.228 82.704C296.884 83.76 295.412 84.288 293.812 84.288C292.052 84.288 290.676 83.712 289.684 82.56C288.708 81.408 288.22 79.824 288.22 77.808C288.22 76.496 288.428 75.336 288.844 74.328C289.276 73.304 289.884 72.504 290.668 71.928C291.468 71.352 292.404 71.064 293.476 71.064C295.156 71.064 296.444 71.616 297.34 72.72C298.236 73.824 298.684 75.352 298.684 77.304ZM296.5 76.656C296.5 75.408 296.252 74.456 295.756 73.8C295.26 73.144 294.516 72.816 293.524 72.816C291.716 72.816 290.732 74.144 290.572 76.8H296.5V76.656ZM304.681 67.176C305.641 67.176 306.465 67.352 307.153 67.704C307.857 68.04 308.385 68.496 308.737 69.072C309.089 69.648 309.265 70.264 309.265 70.92C309.265 71.544 309.153 72.08 308.929 72.528C308.721 72.96 308.465 73.312 308.161 73.584C307.857 73.856 307.449 74.176 306.937 74.544C306.265 75.008 305.761 75.44 305.425 75.84C305.089 76.224 304.921 76.744 304.921 77.4V78.48H302.737V77.28C302.737 76.592 302.849 76.008 303.073 75.528C303.313 75.048 303.593 74.664 303.913 74.376C304.233 74.088 304.657 73.76 305.185 73.392C305.793 72.992 306.241 72.632 306.529 72.312C306.817 71.992 306.961 71.576 306.961 71.064C306.961 70.408 306.745 69.904 306.313 69.552C305.881 69.184 305.289 69 304.537 69C303.257 69 302.145 69.576 301.201 70.728L299.689 69.552C301.033 67.968 302.697 67.176 304.681 67.176ZM303.889 80.952C304.369 80.952 304.769 81.112 305.089 81.432C305.409 81.752 305.569 82.144 305.569 82.608C305.569 83.072 305.409 83.472 305.089 83.808C304.769 84.128 304.369 84.288 303.889 84.288C303.425 84.288 303.033 84.128 302.713 83.808C302.393 83.472 302.233 83.072 302.233 82.608C302.233 82.144 302.393 81.752 302.713 81.432C303.033 81.112 303.425 80.952 303.889 80.952Z" fill="#63697B"/>
<mask id="mask0_0_7078" style="mask-type:luminance" maskUnits="userSpaceOnUse" x="45" y="29" width="321" height="61">
<path d="M56.64 48V40.248H49.68V48H47.4V31.464H49.68V38.376H56.64V31.464H58.92V48H56.64ZM65.8005 35.352V48H63.5925V35.352H65.8005ZM64.6725 29.28C65.1365 29.28 65.5125 29.424 65.8005 29.712C66.0885 30 66.2325 30.36 66.2325 30.792C66.2325 31.224 66.0885 31.584 65.8005 31.872C65.5125 32.144 65.1365 32.28 64.6725 32.28C64.2245 32.28 63.8565 32.144 63.5685 31.872C63.2805 31.584 63.1365 31.224 63.1365 30.792C63.1365 30.36 63.2805 30 63.5685 29.712C63.8565 29.424 64.2245 29.28 64.6725 29.28ZM79.4775 45.696C79.4775 47.328 79.1175 48.552 78.3975 49.368C77.6935 50.184 76.6135 50.824 75.1575 51.288L74.5575 49.632C75.2935 49.344 75.8455 49.032 76.2135 48.696C76.5815 48.36 76.8375 47.952 76.9815 47.472C77.1255 46.992 77.1975 46.368 77.1975 45.6V31.464H79.4775V45.696ZM88.782 35.064C90.558 35.064 91.934 35.656 92.91 36.84C93.902 38.024 94.398 39.632 94.398 41.664C94.398 42.976 94.174 44.136 93.726 45.144C93.278 46.136 92.63 46.912 91.782 47.472C90.934 48.016 89.926 48.288 88.758 48.288C86.982 48.288 85.598 47.696 84.606 46.512C83.614 45.328 83.118 43.72 83.118 41.688C83.118 40.376 83.342 39.224 83.79 38.232C84.238 37.224 84.886 36.448 85.734 35.904C86.582 35.344 87.598 35.064 88.782 35.064ZM88.782 36.84C86.59 36.84 85.494 38.456 85.494 41.688C85.494 44.904 86.582 46.512 88.758 46.512C90.934 46.512 92.022 44.896 92.022 41.664C92.022 38.448 90.942 36.84 88.782 36.84ZM103.998 35.064C105.15 35.064 106.046 35.408 106.686 36.096C107.342 36.784 107.67 37.728 107.67 38.928V48H105.462V39.24C105.462 38.344 105.286 37.712 104.934 37.344C104.598 36.976 104.102 36.792 103.446 36.792C102.79 36.792 102.206 36.984 101.694 37.368C101.182 37.752 100.702 38.296 100.254 39V48H98.0456V30.288L100.254 30.048V37.104C101.246 35.744 102.494 35.064 103.998 35.064ZM118.06 35.064C119.212 35.064 120.108 35.408 120.748 36.096C121.404 36.784 121.732 37.728 121.732 38.928V48H119.524V39.24C119.524 38.344 119.356 37.712 119.02 37.344C118.684 36.976 118.188 36.792 117.532 36.792C116.86 36.792 116.268 36.984 115.756 37.368C115.244 37.752 114.764 38.304 114.316 39.024V48H112.108V35.352H114.004L114.196 37.224C114.644 36.552 115.196 36.024 115.852 35.64C116.524 35.256 117.26 35.064 118.06 35.064ZM127.971 31.464L127.731 42.48H125.787L125.523 31.464H127.971ZM126.771 44.952C127.251 44.952 127.651 45.112 127.971 45.432C128.291 45.752 128.451 46.144 128.451 46.608C128.451 47.072 128.291 47.472 127.971 47.808C127.651 48.128 127.251 48.288 126.771 48.288C126.307 48.288 125.915 48.128 125.595 47.808C125.275 47.472 125.115 47.072 125.115 46.608C125.115 46.144 125.275 45.752 125.595 45.432C125.915 45.112 126.307 44.952 126.771 44.952ZM149.111 31.464L143.783 41.64V48H141.479V41.664L136.151 31.464H138.671L142.703 39.648L146.735 31.464H149.111ZM159.652 41.304C159.652 41.672 159.636 42.048 159.604 42.432H151.54C151.636 43.824 151.988 44.848 152.596 45.504C153.204 46.16 153.988 46.488 154.948 46.488C155.556 46.488 156.116 46.4 156.628 46.224C157.14 46.048 157.676 45.768 158.236 45.384L159.196 46.704C157.852 47.76 156.38 48.288 154.78 48.288C153.02 48.288 151.644 47.712 150.652 46.56C149.676 45.408 149.188 43.824 149.188 41.808C149.188 40.496 149.396 39.336 149.812 38.328C150.244 37.304 150.852 36.504 151.636 35.928C152.436 35.352 153.372 35.064 154.444 35.064C156.124 35.064 157.412 35.616 158.308 36.72C159.204 37.824 159.652 39.352 159.652 41.304ZM157.468 40.656C157.468 39.408 157.22 38.456 156.724 37.8C156.228 37.144 155.484 36.816 154.492 36.816C152.684 36.816 151.7 38.144 151.54 40.8H157.468V40.656ZM166.61 35.064C167.474 35.064 168.25 35.184 168.938 35.424C169.626 35.664 170.282 36.024 170.906 36.504L169.97 37.896C169.394 37.528 168.842 37.256 168.314 37.08C167.802 36.904 167.258 36.816 166.682 36.816C165.962 36.816 165.394 36.968 164.978 37.272C164.562 37.56 164.354 37.96 164.354 38.472C164.354 38.984 164.546 39.384 164.93 39.672C165.33 39.96 166.042 40.24 167.066 40.512C168.474 40.864 169.522 41.344 170.21 41.952C170.914 42.56 171.266 43.392 171.266 44.448C171.266 45.696 170.778 46.648 169.802 47.304C168.842 47.96 167.666 48.288 166.274 48.288C164.354 48.288 162.762 47.736 161.498 46.632L162.674 45.288C163.746 46.104 164.93 46.512 166.226 46.512C167.058 46.512 167.714 46.344 168.194 46.008C168.69 45.656 168.938 45.184 168.938 44.592C168.938 44.16 168.85 43.816 168.674 43.56C168.498 43.288 168.194 43.056 167.762 42.864C167.33 42.656 166.698 42.44 165.866 42.216C164.522 41.864 163.546 41.392 162.938 40.8C162.346 40.208 162.05 39.456 162.05 38.544C162.05 37.888 162.242 37.296 162.626 36.768C163.026 36.224 163.57 35.808 164.258 35.52C164.962 35.216 165.746 35.064 166.61 35.064ZM195.181 35.352L192.301 48H189.301L187.093 37.344L184.813 48H181.885L178.933 35.352H181.141L183.421 46.464L185.917 35.352H188.389L190.765 46.464L193.069 35.352H195.181ZM200.144 35.352V48H197.936V35.352H200.144ZM199.016 29.28C199.48 29.28 199.856 29.424 200.144 29.712C200.432 30 200.576 30.36 200.576 30.792C200.576 31.224 200.432 31.584 200.144 31.872C199.856 32.144 199.48 32.28 199.016 32.28C198.568 32.28 198.2 32.144 197.912 31.872C197.624 31.584 197.48 31.224 197.48 30.792C197.48 30.36 197.624 30 197.912 29.712C198.2 29.424 198.568 29.28 199.016 29.28ZM211.094 47.424C210.262 48 209.318 48.288 208.262 48.288C207.19 48.288 206.35 47.984 205.742 47.376C205.15 46.752 204.854 45.856 204.854 44.688V37.056H202.646V35.352H204.854V32.496L207.062 32.232V35.352H210.062L209.822 37.056H207.062V44.592C207.062 45.248 207.174 45.728 207.398 46.032C207.638 46.32 208.03 46.464 208.574 46.464C209.07 46.464 209.63 46.296 210.254 45.96L211.094 47.424ZM219.334 35.064C220.486 35.064 221.382 35.408 222.022 36.096C222.678 36.784 223.006 37.728 223.006 38.928V48H220.798V39.24C220.798 38.344 220.622 37.712 220.27 37.344C219.934 36.976 219.438 36.792 218.782 36.792C218.126 36.792 217.542 36.984 217.03 37.368C216.518 37.752 216.038 38.296 215.59 39V48H213.382V30.288L215.59 30.048V37.104C216.582 35.744 217.83 35.064 219.334 35.064ZM239.604 35.064C241.22 35.064 242.404 35.64 243.156 36.792C243.908 37.944 244.284 39.568 244.284 41.664C244.284 43.648 243.852 45.248 242.988 46.464C242.124 47.68 240.9 48.288 239.316 48.288C237.908 48.288 236.804 47.808 236.004 46.848V52.848L233.796 53.112V35.352H235.692L235.86 37.056C236.324 36.416 236.884 35.928 237.54 35.592C238.196 35.24 238.884 35.064 239.604 35.064ZM238.788 46.488C240.868 46.488 241.908 44.88 241.908 41.664C241.908 38.432 240.956 36.816 239.052 36.816C238.428 36.816 237.86 37 237.348 37.368C236.836 37.736 236.388 38.208 236.004 38.784V44.952C236.324 45.448 236.724 45.832 237.204 46.104C237.684 46.36 238.212 46.488 238.788 46.488ZM250.566 48.288C249.75 48.288 249.102 48.048 248.622 47.568C248.158 47.072 247.926 46.384 247.926 45.504V30.264L250.134 30V45.456C250.134 45.808 250.19 46.064 250.302 46.224C250.43 46.384 250.638 46.464 250.926 46.464C251.23 46.464 251.502 46.416 251.742 46.32L252.318 47.856C251.79 48.144 251.206 48.288 250.566 48.288ZM264.512 41.304C264.512 41.672 264.496 42.048 264.464 42.432H256.4C256.496 43.824 256.848 44.848 257.456 45.504C258.064 46.16 258.848 46.488 259.808 46.488C260.416 46.488 260.976 46.4 261.488 46.224C262 46.048 262.536 45.768 263.096 45.384L264.056 46.704C262.712 47.76 261.24 48.288 259.64 48.288C257.88 48.288 256.504 47.712 255.512 46.56C254.536 45.408 254.048 43.824 254.048 41.808C254.048 40.496 254.256 39.336 254.672 38.328C255.104 37.304 255.712 36.504 256.496 35.928C257.296 35.352 258.232 35.064 259.304 35.064C260.984 35.064 262.272 35.616 263.168 36.72C264.064 37.824 264.512 39.352 264.512 41.304ZM262.328 40.656C262.328 39.408 262.08 38.456 261.584 37.8C261.088 37.144 260.344 36.816 259.352 36.816C257.544 36.816 256.56 38.144 256.4 40.8H262.328V40.656ZM276.323 45.048C276.323 45.56 276.411 45.944 276.587 46.2C276.763 46.44 277.027 46.624 277.379 46.752L276.875 48.288C276.219 48.208 275.691 48.024 275.291 47.736C274.891 47.448 274.595 47 274.403 46.392C273.555 47.656 272.299 48.288 270.635 48.288C269.387 48.288 268.403 47.936 267.683 47.232C266.963 46.528 266.603 45.608 266.603 44.472C266.603 43.128 267.083 42.096 268.043 41.376C269.019 40.656 270.395 40.296 272.171 40.296H274.115V39.36C274.115 38.464 273.899 37.824 273.467 37.44C273.035 37.056 272.371 36.864 271.475 36.864C270.547 36.864 269.411 37.088 268.067 37.536L267.515 35.928C269.083 35.352 270.539 35.064 271.883 35.064C273.371 35.064 274.483 35.432 275.219 36.168C275.955 36.888 276.323 37.92 276.323 39.264V45.048ZM271.139 46.632C272.403 46.632 273.395 45.976 274.115 44.664V41.76H272.459C270.123 41.76 268.955 42.624 268.955 44.352C268.955 45.104 269.139 45.672 269.507 46.056C269.875 46.44 270.419 46.632 271.139 46.632ZM284.056 35.064C284.92 35.064 285.696 35.184 286.384 35.424C287.072 35.664 287.728 36.024 288.352 36.504L287.416 37.896C286.84 37.528 286.288 37.256 285.76 37.08C285.248 36.904 284.704 36.816 284.128 36.816C283.408 36.816 282.84 36.968 282.424 37.272C282.008 37.56 281.8 37.96 281.8 38.472C281.8 38.984 281.992 39.384 282.376 39.672C282.776 39.96 283.488 40.24 284.512 40.512C285.92 40.864 286.968 41.344 287.656 41.952C288.36 42.56 288.712 43.392 288.712 44.448C288.712 45.696 288.224 46.648 287.248 47.304C286.288 47.96 285.112 48.288 283.72 48.288C281.8 48.288 280.208 47.736 278.944 46.632L280.12 45.288C281.192 46.104 282.376 46.512 283.672 46.512C284.504 46.512 285.16 46.344 285.64 46.008C286.136 45.656 286.384 45.184 286.384 44.592C286.384 44.16 286.296 43.816 286.12 43.56C285.944 43.288 285.64 43.056 285.208 42.864C284.776 42.656 284.144 42.44 283.312 42.216C281.968 41.864 280.992 41.392 280.384 40.8C279.792 40.208 279.496 39.456 279.496 38.544C279.496 37.888 279.688 37.296 280.072 36.768C280.472 36.224 281.016 35.808 281.704 35.52C282.408 35.216 283.192 35.064 284.056 35.064ZM301.235 48H299.339L299.171 46.032C298.691 46.816 298.139 47.392 297.515 47.76C296.891 48.112 296.131 48.288 295.235 48.288C294.131 48.288 293.267 47.952 292.643 47.28C292.019 46.608 291.707 45.656 291.707 44.424V35.352H293.915V44.184C293.915 45.048 294.067 45.664 294.371 46.032C294.675 46.384 295.171 46.56 295.859 46.56C297.091 46.56 298.147 45.832 299.027 44.376V35.352H301.235V48ZM311.292 35.064C311.74 35.064 312.156 35.112 312.54 35.208L312.132 37.368C311.748 37.272 311.38 37.224 311.028 37.224C310.244 37.224 309.612 37.512 309.132 38.088C308.652 38.664 308.276 39.56 308.004 40.776V48H305.796V35.352H307.692L307.908 37.92C308.244 36.976 308.7 36.264 309.276 35.784C309.852 35.304 310.524 35.064 311.292 35.064ZM323.879 41.304C323.879 41.672 323.863 42.048 323.831 42.432H315.767C315.863 43.824 316.215 44.848 316.823 45.504C317.431 46.16 318.215 46.488 319.175 46.488C319.783 46.488 320.343 46.4 320.855 46.224C321.367 46.048 321.903 45.768 322.463 45.384L323.423 46.704C322.079 47.76 320.607 48.288 319.007 48.288C317.247 48.288 315.871 47.712 314.879 46.56C313.903 45.408 313.415 43.824 313.415 41.808C313.415 40.496 313.623 39.336 314.039 38.328C314.471 37.304 315.079 36.504 315.863 35.928C316.663 35.352 317.599 35.064 318.671 35.064C320.351 35.064 321.639 35.616 322.535 36.72C323.431 37.824 323.879 39.352 323.879 41.304ZM321.695 40.656C321.695 39.408 321.447 38.456 320.951 37.8C320.455 37.144 319.711 36.816 318.719 36.816C316.911 36.816 315.927 38.144 315.767 40.8H321.695V40.656ZM329.205 31.464L328.965 42.48H327.021L326.757 31.464H329.205ZM328.005 44.952C328.485 44.952 328.885 45.112 329.205 45.432C329.525 45.752 329.685 46.144 329.685 46.608C329.685 47.072 329.525 47.472 329.205 47.808C328.885 48.128 328.485 48.288 328.005 48.288C327.541 48.288 327.149 48.128 326.829 47.808C326.509 47.472 326.349 47.072 326.349 46.608C326.349 46.144 326.509 45.752 326.829 45.432C327.149 45.112 327.541 44.952 328.005 44.952ZM343.122 31.464C345.618 31.464 347.618 32.048 349.122 33.216C350.642 34.368 351.402 36.512 351.402 39.648C351.402 42.704 350.642 44.864 349.122 46.128C347.618 47.376 345.786 48 343.626 48H339.666V31.464H343.122ZM341.946 33.288V46.2H343.794C345.33 46.2 346.578 45.728 347.538 44.784C348.498 43.84 348.978 42.128 348.978 39.648C348.978 37.904 348.73 36.568 348.234 35.64C347.738 34.696 347.106 34.072 346.338 33.768C345.57 33.448 344.666 33.288 343.626 33.288H341.946ZM359.743 35.064C361.519 35.064 362.895 35.656 363.871 36.84C364.863 38.024 365.359 39.632 365.359 41.664C365.359 42.976 365.135 44.136 364.687 45.144C364.239 46.136 363.591 46.912 362.743 47.472C361.895 48.016 360.887 48.288 359.719 48.288C357.943 48.288 356.559 47.696 355.567 46.512C354.575 45.328 354.079 43.72 354.079 41.688C354.079 40.376 354.303 39.224 354.751 38.232C355.199 37.224 355.847 36.448 356.695 35.904C357.543 35.344 358.559 35.064 359.743 35.064ZM359.743 36.84C357.551 36.84 356.455 38.456 356.455 41.688C356.455 44.904 357.543 46.512 359.719 46.512C361.895 46.512 362.983 44.896 362.983 41.664C362.983 38.448 361.903 36.84 359.743 36.84ZM52.344 84.072C51.848 85.544 51.152 86.704 50.256 87.552C49.376 88.416 48.112 88.936 46.464 89.112L46.224 87.384C47.056 87.24 47.72 87.032 48.216 86.76C48.712 86.488 49.104 86.136 49.392 85.704C49.696 85.288 49.976 84.72 50.232 84H49.488L45.24 71.352H47.592L50.976 82.392L54.288 71.352H56.568L52.344 84.072ZM63.7508 71.064C65.5268 71.064 66.9028 71.656 67.8788 72.84C68.8708 74.024 69.3668 75.632 69.3668 77.664C69.3668 78.976 69.1428 80.136 68.6948 81.144C68.2468 82.136 67.5988 82.912 66.7508 83.472C65.9028 84.016 64.8948 84.288 63.7268 84.288C61.9508 84.288 60.5668 83.696 59.5748 82.512C58.5828 81.328 58.0868 79.72 58.0868 77.688C58.0868 76.376 58.3108 75.224 58.7588 74.232C59.2068 73.224 59.8548 72.448 60.7028 71.904C61.5508 71.344 62.5668 71.064 63.7508 71.064ZM63.7508 72.84C61.5588 72.84 60.4628 74.456 60.4628 77.688C60.4628 80.904 61.5508 82.512 63.7268 82.512C65.9028 82.512 66.9908 80.896 66.9908 77.664C66.9908 74.448 65.9108 72.84 63.7508 72.84ZM82.4224 84H80.5264L80.3584 82.032C79.8784 82.816 79.3264 83.392 78.7024 83.76C78.0784 84.112 77.3184 84.288 76.4224 84.288C75.3184 84.288 74.4544 83.952 73.8304 83.28C73.2064 82.608 72.8944 81.656 72.8944 80.424V71.352H75.1024V80.184C75.1024 81.048 75.2544 81.664 75.5584 82.032C75.8624 82.384 76.3584 82.56 77.0464 82.56C78.2784 82.56 79.3344 81.832 80.2144 80.376V71.352H82.4224V84ZM99.1427 71.064C100.759 71.064 101.943 71.64 102.695 72.792C103.447 73.944 103.823 75.568 103.823 77.664C103.823 79.648 103.391 81.248 102.527 82.464C101.663 83.68 100.439 84.288 98.8547 84.288C97.4467 84.288 96.3427 83.808 95.5427 82.848V88.848L93.3347 89.112V71.352H95.2307L95.3987 73.056C95.8627 72.416 96.4227 71.928 97.0787 71.592C97.7347 71.24 98.4227 71.064 99.1427 71.064ZM98.3267 82.488C100.407 82.488 101.447 80.88 101.447 77.664C101.447 74.432 100.495 72.816 98.5907 72.816C97.9667 72.816 97.3987 73 96.8867 73.368C96.3747 73.736 95.9267 74.208 95.5427 74.784V80.952C95.8627 81.448 96.2627 81.832 96.7427 82.104C97.2227 82.36 97.7507 82.488 98.3267 82.488ZM113.081 71.064C113.529 71.064 113.945 71.112 114.329 71.208L113.921 73.368C113.537 73.272 113.169 73.224 112.817 73.224C112.033 73.224 111.401 73.512 110.921 74.088C110.441 74.664 110.065 75.56 109.793 76.776V84H107.585V71.352H109.481L109.697 73.92C110.033 72.976 110.489 72.264 111.065 71.784C111.641 71.304 112.313 71.064 113.081 71.064ZM125.668 77.304C125.668 77.672 125.652 78.048 125.62 78.432H117.556C117.652 79.824 118.004 80.848 118.612 81.504C119.22 82.16 120.004 82.488 120.964 82.488C121.572 82.488 122.132 82.4 122.644 82.224C123.156 82.048 123.692 81.768 124.252 81.384L125.212 82.704C123.868 83.76 122.396 84.288 120.796 84.288C119.036 84.288 117.66 83.712 116.668 82.56C115.692 81.408 115.204 79.824 115.204 77.808C115.204 76.496 115.412 75.336 115.828 74.328C116.26 73.304 116.868 72.504 117.652 71.928C118.452 71.352 119.388 71.064 120.46 71.064C122.14 71.064 123.428 71.616 124.324 72.72C125.22 73.824 125.668 75.352 125.668 77.304ZM123.484 76.656C123.484 75.408 123.236 74.456 122.74 73.8C122.244 73.144 121.5 72.816 120.508 72.816C118.7 72.816 117.716 74.144 117.556 76.8H123.484V76.656ZM133.49 67.776C132.818 67.776 132.338 67.928 132.05 68.232C131.762 68.52 131.618 68.976 131.618 69.6V71.352H134.69L134.45 73.056H131.618V84H129.41V73.056H127.154V71.352H129.41V69.624C129.41 68.536 129.754 67.664 130.442 67.008C131.146 66.336 132.122 66 133.37 66C133.946 66 134.458 66.056 134.906 66.168C135.37 66.264 135.866 66.424 136.394 66.648L135.698 68.256C134.978 67.936 134.242 67.776 133.49 67.776ZM146.551 77.304C146.551 77.672 146.535 78.048 146.503 78.432H138.439C138.535 79.824 138.887 80.848 139.495 81.504C140.103 82.16 140.887 82.488 141.847 82.488C142.455 82.488 143.015 82.4 143.527 82.224C144.039 82.048 144.575 81.768 145.135 81.384L146.095 82.704C144.751 83.76 143.279 84.288 141.679 84.288C139.919 84.288 138.543 83.712 137.551 82.56C136.575 81.408 136.087 79.824 136.087 77.808C136.087 76.496 136.295 75.336 136.711 74.328C137.143 73.304 137.751 72.504 138.535 71.928C139.335 71.352 140.271 71.064 141.343 71.064C143.023 71.064 144.311 71.616 145.207 72.72C146.103 73.824 146.551 75.352 146.551 77.304ZM144.367 76.656C144.367 75.408 144.119 74.456 143.623 73.8C143.127 73.144 142.383 72.816 141.391 72.816C139.583 72.816 138.599 74.144 138.439 76.8H144.367V76.656ZM155.573 71.064C156.021 71.064 156.437 71.112 156.821 71.208L156.413 73.368C156.029 73.272 155.661 73.224 155.309 73.224C154.525 73.224 153.893 73.512 153.413 74.088C152.933 74.664 152.557 75.56 152.285 76.776V84H150.077V71.352H151.973L152.189 73.92C152.525 72.976 152.981 72.264 153.557 71.784C154.133 71.304 154.805 71.064 155.573 71.064ZM174.206 81.048C174.206 81.56 174.294 81.944 174.47 82.2C174.646 82.44 174.91 82.624 175.262 82.752L174.758 84.288C174.102 84.208 173.574 84.024 173.174 83.736C172.774 83.448 172.478 83 172.286 82.392C171.438 83.656 170.182 84.288 168.518 84.288C167.27 84.288 166.286 83.936 165.566 83.232C164.846 82.528 164.486 81.608 164.486 80.472C164.486 79.128 164.966 78.096 165.926 77.376C166.902 76.656 168.278 76.296 170.054 76.296H171.998V75.36C171.998 74.464 171.782 73.824 171.35 73.44C170.918 73.056 170.254 72.864 169.358 72.864C168.43 72.864 167.294 73.088 165.95 73.536L165.398 71.928C166.966 71.352 168.422 71.064 169.766 71.064C171.254 71.064 172.366 71.432 173.102 72.168C173.838 72.888 174.206 73.92 174.206 75.264V81.048ZM169.022 82.632C170.286 82.632 171.278 81.976 171.998 80.664V77.76H170.342C168.006 77.76 166.838 78.624 166.838 80.352C166.838 81.104 167.022 81.672 167.39 82.056C167.758 82.44 168.302 82.632 169.022 82.632ZM185.125 83.424C184.293 84 183.349 84.288 182.293 84.288C181.221 84.288 180.381 83.984 179.773 83.376C179.181 82.752 178.885 81.856 178.885 80.688V73.056H176.677V71.352H178.885V68.496L181.093 68.232V71.352H184.093L183.853 73.056H181.093V80.592C181.093 81.248 181.205 81.728 181.429 82.032C181.669 82.32 182.061 82.464 182.605 82.464C183.101 82.464 183.661 82.296 184.285 81.96L185.125 83.424ZM208.212 71.352L205.332 84H202.332L200.124 73.344L197.844 84H194.916L191.964 71.352H194.172L196.452 82.464L198.948 71.352H201.42L203.796 82.464L206.1 71.352H208.212ZM216.92 71.064C218.072 71.064 218.968 71.408 219.608 72.096C220.264 72.784 220.592 73.728 220.592 74.928V84H218.384V75.24C218.384 74.344 218.208 73.712 217.856 73.344C217.52 72.976 217.024 72.792 216.368 72.792C215.712 72.792 215.128 72.984 214.616 73.368C214.104 73.752 213.624 74.296 213.176 75V84H210.968V66.288L213.176 66.048V73.104C214.168 71.744 215.416 71.064 216.92 71.064ZM233.55 81.048C233.55 81.56 233.638 81.944 233.814 82.2C233.99 82.44 234.254 82.624 234.606 82.752L234.102 84.288C233.446 84.208 232.918 84.024 232.518 83.736C232.118 83.448 231.822 83 231.63 82.392C230.782 83.656 229.526 84.288 227.862 84.288C226.614 84.288 225.63 83.936 224.91 83.232C224.19 82.528 223.83 81.608 223.83 80.472C223.83 79.128 224.31 78.096 225.27 77.376C226.246 76.656 227.622 76.296 229.398 76.296H231.342V75.36C231.342 74.464 231.126 73.824 230.694 73.44C230.262 73.056 229.598 72.864 228.702 72.864C227.774 72.864 226.638 73.088 225.294 73.536L224.742 71.928C226.31 71.352 227.766 71.064 229.11 71.064C230.598 71.064 231.71 71.432 232.446 72.168C233.182 72.888 233.55 73.92 233.55 75.264V81.048ZM228.366 82.632C229.63 82.632 230.622 81.976 231.342 80.664V77.76H229.686C227.35 77.76 226.182 78.624 226.182 80.352C226.182 81.104 226.366 81.672 226.734 82.056C227.102 82.44 227.646 82.632 228.366 82.632ZM244.469 83.424C243.637 84 242.693 84.288 241.637 84.288C240.565 84.288 239.725 83.984 239.117 83.376C238.525 82.752 238.229 81.856 238.229 80.688V73.056H236.021V71.352H238.229V68.496L240.437 68.232V71.352H243.437L243.197 73.056H240.437V80.592C240.437 81.248 240.549 81.728 240.773 82.032C241.013 82.32 241.405 82.464 241.949 82.464C242.445 82.464 243.005 82.296 243.629 81.96L244.469 83.424ZM259.492 83.424C258.66 84 257.716 84.288 256.66 84.288C255.588 84.288 254.748 83.984 254.14 83.376C253.548 82.752 253.252 81.856 253.252 80.688V73.056H251.044V71.352H253.252V68.496L255.46 68.232V71.352H258.46L258.22 73.056H255.46V80.592C255.46 81.248 255.572 81.728 255.796 82.032C256.036 82.32 256.428 82.464 256.972 82.464C257.468 82.464 258.028 82.296 258.652 81.96L259.492 83.424ZM263.988 71.352V84H261.78V71.352H263.988ZM262.86 65.28C263.324 65.28 263.7 65.424 263.988 65.712C264.276 66 264.42 66.36 264.42 66.792C264.42 67.224 264.276 67.584 263.988 67.872C263.7 68.144 263.324 68.28 262.86 68.28C262.412 68.28 262.044 68.144 261.756 67.872C261.468 67.584 261.324 67.224 261.324 66.792C261.324 66.36 261.468 66 261.756 65.712C262.044 65.424 262.412 65.28 262.86 65.28ZM281.249 71.064C282.289 71.064 283.121 71.416 283.745 72.12C284.369 72.808 284.681 73.744 284.681 74.928V84H282.473V75.24C282.473 73.608 281.881 72.792 280.697 72.792C280.073 72.792 279.545 72.976 279.113 73.344C278.681 73.696 278.217 74.256 277.721 75.024V84H275.513V75.24C275.513 73.608 274.921 72.792 273.737 72.792C273.097 72.792 272.561 72.976 272.129 73.344C271.697 73.712 271.241 74.272 270.761 75.024V84H268.553V71.352H270.449L270.641 73.2C271.585 71.776 272.801 71.064 274.289 71.064C275.073 71.064 275.737 71.264 276.281 71.664C276.841 72.064 277.241 72.624 277.481 73.344C277.977 72.608 278.521 72.048 279.113 71.664C279.721 71.264 280.433 71.064 281.249 71.064ZM298.684 77.304C298.684 77.672 298.668 78.048 298.636 78.432H290.572C290.668 79.824 291.02 80.848 291.628 81.504C292.236 82.16 293.02 82.488 293.98 82.488C294.588 82.488 295.148 82.4 295.66 82.224C296.172 82.048 296.708 81.768 297.268 81.384L298.228 82.704C296.884 83.76 295.412 84.288 293.812 84.288C292.052 84.288 290.676 83.712 289.684 82.56C288.708 81.408 288.22 79.824 288.22 77.808C288.22 76.496 288.428 75.336 288.844 74.328C289.276 73.304 289.884 72.504 290.668 71.928C291.468 71.352 292.404 71.064 293.476 71.064C295.156 71.064 296.444 71.616 297.34 72.72C298.236 73.824 298.684 75.352 298.684 77.304ZM296.5 76.656C296.5 75.408 296.252 74.456 295.756 73.8C295.26 73.144 294.516 72.816 293.524 72.816C291.716 72.816 290.732 74.144 290.572 76.8H296.5V76.656ZM304.681 67.176C305.641 67.176 306.465 67.352 307.153 67.704C307.857 68.04 308.385 68.496 308.737 69.072C309.089 69.648 309.265 70.264 309.265 70.92C309.265 71.544 309.153 72.08 308.929 72.528C308.721 72.96 308.465 73.312 308.161 73.584C307.857 73.856 307.449 74.176 306.937 74.544C306.265 75.008 305.761 75.44 305.425 75.84C305.089 76.224 304.921 76.744 304.921 77.4V78.48H302.737V77.28C302.737 76.592 302.849 76.008 303.073 75.528C303.313 75.048 303.593 74.664 303.913 74.376C304.233 74.088 304.657 73.76 305.185 73.392C305.793 72.992 306.241 72.632 306.529 72.312C306.817 71.992 306.961 71.576 306.961 71.064C306.961 70.408 306.745 69.904 306.313 69.552C305.881 69.184 305.289 69 304.537 69C303.257 69 302.145 69.576 301.201 70.728L299.689 69.552C301.033 67.968 302.697 67.176 304.681 67.176ZM303.889 80.952C304.369 80.952 304.769 81.112 305.089 81.432C305.409 81.752 305.569 82.144 305.569 82.608C305.569 83.072 305.409 83.472 305.089 83.808C304.769 84.128 304.369 84.288 303.889 84.288C303.425 84.288 303.033 84.128 302.713 83.808C302.393 83.472 302.233 83.072 302.233 82.608C302.233 82.144 302.393 81.752 302.713 81.432C303.033 81.112 303.425 80.952 303.889 80.952Z" fill="white"/>
</mask>
<g mask="url(#mask0_0_7078)">
</g>
</svg>
