<svg width="85" height="75" viewBox="0 0 85 75" fill="none" xmlns="http://www.w3.org/2000/svg">
<path fill-rule="evenodd" clip-rule="evenodd" d="M31.9233 30.1456C35.137 30.1456 37.7422 27.5403 37.7422 24.3266C37.7422 21.1129 35.137 18.5076 31.9233 18.5076C28.7095 18.5076 26.1043 21.1129 26.1043 24.3266C26.1043 27.5403 28.7095 30.1456 31.9233 30.1456Z" fill="#1C3947"/>
<path fill-rule="evenodd" clip-rule="evenodd" d="M79.6877 45.7437C76.9399 43.1575 73.4646 41.4603 69.6661 40.9753V11.3955C69.6661 8.24356 68.373 5.4149 66.3526 3.31359C64.2513 1.21229 61.4226 0 58.2706 0H11.3955C8.24355 0 5.41489 1.29311 3.31358 3.31359C1.21228 5.41489 0 8.24356 0 11.3955V48.6532V52.1284V59.6446C0 62.7965 1.29311 65.6252 3.31359 67.7265C5.41489 69.8278 8.24356 71.0401 11.3955 71.0401H56.7351C59.7254 73.4647 63.4431 75.0002 67.5649 75.0002C72.3332 75.0002 76.6166 73.0606 79.6877 69.9894C82.7589 66.9183 84.6985 62.6349 84.6985 57.8666C84.6985 53.0982 82.7589 48.8148 79.6877 45.7437L79.6877 45.7437ZM4.28341 11.3955C4.28341 9.45586 5.0916 7.67783 6.3847 6.46554C7.67782 5.17243 9.45583 4.36424 11.3955 4.36424H58.2706C60.2103 4.36424 61.9883 5.17244 63.2814 6.46554C64.5745 7.75865 65.3827 9.53667 65.3827 11.4763V36.6919L53.4215 24.7307C52.6133 23.9225 51.2393 23.8417 50.3503 24.7307L32.3277 42.8342L20.124 30.5496C19.3158 29.7415 17.9418 29.6606 17.0528 30.5496L4.2834 43.4807L4.28341 11.3955ZM11.3147 66.9183V66.7567C9.37501 66.7567 7.597 65.9485 6.30389 64.6554C5.0916 63.3623 4.28341 61.5842 4.28341 59.6446V52.1284V49.623L18.5884 35.2372L30.7921 47.4409C31.6003 48.2491 32.9742 48.2491 33.8632 47.4409L51.8859 29.3374L63.6855 41.2178C63.443 41.2986 63.2006 41.3794 62.9581 41.4602C62.6349 41.5411 62.3116 41.6219 61.9075 41.7835C61.5842 41.8643 61.2609 42.026 60.9377 42.1068C60.6952 42.1876 60.5336 42.2684 60.2911 42.4301C59.9678 42.5917 59.7254 42.6725 59.4829 42.8342C59.0788 43.0766 58.6747 43.3191 58.2706 43.5616C58.0282 43.7232 57.8665 43.804 57.6241 43.9657C57.4624 44.0465 57.3816 44.1273 57.22 44.2081C56.4926 44.693 55.846 45.2588 55.2803 45.9053C52.2092 48.9764 50.2695 53.2599 50.2695 58.0282C50.2695 59.2405 50.4312 60.3719 50.6736 61.5842C50.7544 61.9075 50.8352 62.15 50.9161 62.4733C51.1585 63.2814 51.401 64.0896 51.7243 64.8978V64.9786C52.0475 65.6252 52.3708 66.3526 52.7749 66.9183H11.3147ZM76.5358 66.9183C74.192 69.2621 71.0401 70.636 67.484 70.636C64.0896 70.636 60.9377 69.2621 58.6747 67.08C58.3514 66.7567 58.0282 66.3526 57.7049 66.0293C57.4624 65.7868 57.22 65.4636 56.9775 65.2211C56.6542 64.817 56.4118 64.3321 56.1693 63.8472C56.0077 63.5239 55.8461 63.2814 55.6844 62.9582C55.5228 62.5541 55.3611 62.0692 55.2803 61.5842C55.1995 61.261 55.0379 60.8569 54.957 60.5336C54.7954 59.7254 54.7146 58.8364 54.7146 57.9474C54.7146 54.3913 56.1693 51.2394 58.4323 48.8956C60.6952 46.5519 63.928 45.1779 67.484 45.1779C71.0401 45.1779 74.192 46.6327 76.5358 48.8956C78.8795 51.2394 80.2534 54.3913 80.2534 57.9474C80.2535 61.4226 78.7987 64.5745 76.5358 66.9183L76.5358 66.9183Z" fill="#1C3947"/>
<path fill-rule="evenodd" clip-rule="evenodd" d="M69.0198 49.2183C68.8582 49.0566 68.6157 48.895 68.2925 48.7334C68.05 48.6526 67.8076 48.5717 67.5651 48.5717C67.4842 48.5717 67.4842 48.5717 67.4842 48.5717C67.4035 48.5717 67.4035 48.5717 67.4035 48.5717C67.161 48.5717 66.9185 48.6526 66.6761 48.7334C66.4336 48.8142 66.1911 48.9758 65.9487 49.2183L60.9379 54.2291C60.1297 55.0373 60.1297 56.4112 60.9379 57.3002C61.7461 58.1084 63.12 58.1084 64.0091 57.3002L65.3021 56.0071V64.8972C65.3021 66.1095 66.272 67.0793 67.4842 67.0793C68.6966 67.0793 69.6664 66.1095 69.6664 64.8972V56.0071L70.9595 57.3002C71.7677 58.1084 73.1416 58.1084 74.0306 57.3002C74.8388 56.492 74.8388 55.1181 74.0306 54.2291L69.0198 49.2183Z" fill="#1C3947"/>
</svg>
