<svg width="19" height="20" viewBox="0 0 19 20" fill="none" xmlns="http://www.w3.org/2000/svg">
<g opacity="0.5">
<path fill-rule="evenodd" clip-rule="evenodd" d="M15.6819 0H2.92176L0.294915 4.11029H18.3087L15.6819 0Z" fill="black"/>
<path fill-rule="evenodd" clip-rule="evenodd" d="M0 5.41491V6.86622C0 8.41818 1.26263 9.6808 2.81458 9.6808C3.68272 9.6808 4.46032 9.28578 4.97699 8.66591C5.49366 9.28573 6.27126 9.6808 7.1394 9.6808C8.00753 9.6808 8.78514 9.28578 9.3018 8.66591C9.81855 9.28573 10.5961 9.6808 11.4642 9.6808C12.3323 9.6808 13.11 9.28578 13.6266 8.66591C14.1434 9.28573 14.9209 9.6808 15.789 9.6808C17.3409 9.6808 18.6036 8.41818 18.6036 6.86622V5.41491H0Z" fill="black"/>
<path fill-rule="evenodd" clip-rule="evenodd" d="M15.7886 10.9853C15.0143 10.9853 14.2686 10.7691 13.6262 10.3718C12.9836 10.7691 12.238 10.9853 11.4637 10.9853C10.6895 10.9853 9.94378 10.7691 9.30134 10.3718C8.65889 10.7691 7.91321 10.9853 7.13893 10.9853C6.36465 10.9853 5.61897 10.7691 4.97652 10.3718C4.334 10.7691 3.5884 10.9853 2.81411 10.9853C2.33116 10.9853 1.8675 10.9015 1.43649 10.7481V20H9.63809V12.6089H14.7649V20H17.2533V10.716C16.7978 10.8898 16.3042 10.9853 15.7886 10.9853V10.9853ZM7.40295 16.087H3.9248V12.6088H7.40295V16.087Z" fill="black"/>
</g>
</svg>
