<svg width="685" height="376" viewBox="0 0 685 376" fill="none" xmlns="http://www.w3.org/2000/svg">
<g filter="url(#filter0_d_0_3715)">
<path fill-rule="evenodd" clip-rule="evenodd" d="M12 43C12 24.2223 27.2223 9 46 9H639C657.778 9 673 24.2223 673 43V327C673 345.778 657.778 361 639 361H46C27.2223 361 12 345.778 12 327V43Z" fill="url(#paint0_linear_0_3715)"/>
</g>
<g opacity="0.14">
<mask id="mask0_0_3715" style="mask-type:luminance" maskUnits="userSpaceOnUse" x="12" y="9" width="661" height="352">
<path fill-rule="evenodd" clip-rule="evenodd" d="M12 43C12 24.2223 27.2223 9 46 9H639C657.778 9 673 24.2223 673 43V327C673 345.778 657.778 361 639 361H46C27.2223 361 12 345.778 12 327V43Z" fill="white"/>
</mask>
<g mask="url(#mask0_0_3715)">
<path fill-rule="evenodd" clip-rule="evenodd" d="M135.5 421C218.067 421 285 364.364 285 294.5C285 224.636 218.067 168 135.5 168C52.9334 168 -14 224.636 -14 294.5C-14 364.364 52.9334 421 135.5 421Z" fill="white"/>
<path fill-rule="evenodd" clip-rule="evenodd" d="M117.5 438C200.067 438 267 381.364 267 311.5C267 241.636 200.067 185 117.5 185C34.9334 185 -32 241.636 -32 311.5C-32 381.364 34.9334 438 117.5 438Z" fill="#FFF280"/>
</g>
</g>
<g opacity="0.22">
<mask id="mask1_0_3715" style="mask-type:luminance" maskUnits="userSpaceOnUse" x="12" y="9" width="661" height="352">
<path fill-rule="evenodd" clip-rule="evenodd" d="M12 43C12 24.2223 27.2223 9 46 9H639C657.778 9 673 24.2223 673 43V327C673 345.778 657.778 361 639 361H46C27.2223 361 12 345.778 12 327V43Z" fill="white"/>
</mask>
<g mask="url(#mask1_0_3715)">
<path fill-rule="evenodd" clip-rule="evenodd" d="M549.5 202C632.067 202 699 145.364 699 75.5C699 5.63598 632.067 -51 549.5 -51C466.933 -51 400 5.63598 400 75.5C400 145.364 466.933 202 549.5 202Z" fill="white"/>
<path fill-rule="evenodd" clip-rule="evenodd" d="M567.5 185C650.067 185 717 128.364 717 58.5C717 -11.364 650.067 -68 567.5 -68C484.933 -68 418 -11.364 418 58.5C418 128.364 484.933 185 567.5 185Z" fill="#FFF280"/>
</g>
</g>
<g opacity="0.2">
<path fill-rule="evenodd" clip-rule="evenodd" d="M514.438 162.78C485.008 162.78 461.149 154.765 461.149 146.543V165.476C461.165 173.692 485.016 181.724 514.438 181.724C543.86 181.724 567.711 173.692 567.727 165.476V146.543C567.727 154.764 543.868 162.78 514.438 162.78Z" fill="#E4AF18"/>
<path fill-rule="evenodd" clip-rule="evenodd" d="M508.289 133.013C478.859 133.013 455 124.997 455 116.775V135.708C455.016 143.924 478.867 151.956 508.289 151.956C537.711 151.956 561.562 143.924 561.578 135.708V116.775C561.578 124.997 537.719 133.013 508.289 133.013Z" fill="#F4BF1A"/>
<path fill-rule="evenodd" clip-rule="evenodd" d="M520.586 103.243C491.156 103.243 467.297 95.2274 467.297 87.0059V105.939C467.313 114.155 491.164 122.187 520.586 122.187C550.008 122.187 573.859 114.155 573.875 105.939V87.0059C573.875 95.2274 550.016 103.243 520.586 103.243Z" fill="#E4AF18"/>
<path fill-rule="evenodd" clip-rule="evenodd" d="M561.578 54.883C561.578 63.1018 537.719 70.7686 508.289 70.7686C478.859 70.7686 455 63.1018 455 54.883C455 46.6614 478.859 41 508.289 41C537.719 41 561.578 46.6614 561.578 54.883Z" fill="#FFD949"/>
<path fill-rule="evenodd" clip-rule="evenodd" d="M508.289 70.7687C478.859 70.7687 455 62.7528 455 54.5312V73.4641C455.016 81.6802 478.867 89.7123 508.289 89.7123C537.711 89.7123 561.562 81.6802 561.578 73.4641V54.5312C561.578 62.7528 537.719 70.7687 508.289 70.7687Z" fill="#F4BF1A"/>
<path fill-rule="evenodd" clip-rule="evenodd" d="M463.198 62.8496V81.7797C464.444 82.3859 465.809 82.9704 467.297 83.5279V64.5951C465.809 64.0376 464.444 63.4531 463.198 62.8496" fill="#DCA815"/>
<path fill-rule="evenodd" clip-rule="evenodd" d="M549.281 64.5951V83.5279C550.769 82.9704 552.134 82.3859 553.38 81.7797V62.8496C552.134 63.4558 550.769 64.0376 549.281 64.5951Z" fill="#DCA815"/>
<path fill-rule="evenodd" clip-rule="evenodd" d="M473.446 66.5596V85.4951C474.758 85.855 476.125 86.196 477.545 86.518V67.5825C476.125 67.2605 474.758 66.9195 473.446 66.5596" fill="#DCA815"/>
<path fill-rule="evenodd" clip-rule="evenodd" d="M539.033 67.5825V86.5207C540.454 86.196 541.821 85.855 543.132 85.4951V66.5596C541.821 66.9195 540.454 67.2605 539.033 67.5825" fill="#DCA815"/>
<path fill-rule="evenodd" clip-rule="evenodd" d="M483.694 68.79V87.7283C485.03 87.9556 486.393 88.1667 487.793 88.3561V69.4179C486.393 69.2284 485.03 69.0147 483.694 68.79Z" fill="#DCA815"/>
<path fill-rule="evenodd" clip-rule="evenodd" d="M528.785 69.4206V88.3588C530.185 88.1667 531.548 87.9556 532.884 87.731V68.79C531.548 69.0201 530.185 69.2312 528.785 69.4206" fill="#DCA815"/>
<path fill-rule="evenodd" clip-rule="evenodd" d="M493.942 70.1162V89.0571C495.288 89.1816 496.653 89.2926 498.041 89.3819V70.4383C496.653 70.349 495.288 70.2407 493.942 70.1162" fill="#DCA815"/>
<path fill-rule="evenodd" clip-rule="evenodd" d="M518.537 70.4383V89.3819C519.925 89.2926 521.29 89.1816 522.636 89.0571V70.1162C521.29 70.2407 519.925 70.349 518.537 70.4383" fill="#DCA815"/>
<path fill-rule="evenodd" clip-rule="evenodd" d="M508.29 70.7682C507.603 70.7682 506.921 70.7601 506.24 70.752V89.6956C506.921 89.7037 507.603 89.7118 508.29 89.7118C508.976 89.7118 509.659 89.7037 510.339 89.6956V70.752C509.659 70.7601 508.976 70.7682 508.29 70.7682Z" fill="#DCA815"/>
<path fill-rule="evenodd" clip-rule="evenodd" d="M475.496 95.3252V114.255C476.742 114.862 478.107 115.446 479.595 116.004V97.0707C478.107 96.5132 476.742 95.9287 475.496 95.3252" fill="#C49214"/>
<path fill-rule="evenodd" clip-rule="evenodd" d="M561.578 97.0707V116.004C563.066 115.446 564.431 114.861 565.677 114.255V95.3252C564.431 95.9314 563.066 96.5132 561.578 97.0707Z" fill="#C49214"/>
<path fill-rule="evenodd" clip-rule="evenodd" d="M485.744 99.0352V117.971C487.056 118.331 488.423 118.672 489.843 118.994V100.058C488.423 99.7361 487.056 99.3951 485.744 99.0352Z" fill="#C49214"/>
<path fill-rule="evenodd" clip-rule="evenodd" d="M551.33 100.058V118.996C552.75 118.672 554.118 118.331 555.429 117.971V99.0352C554.118 99.3951 552.75 99.7361 551.33 100.058Z" fill="#C49214"/>
<path fill-rule="evenodd" clip-rule="evenodd" d="M495.992 101.268V120.206C497.329 120.433 498.691 120.644 500.091 120.834V101.895C498.691 101.703 497.329 101.492 495.992 101.268Z" fill="#C49214"/>
<path fill-rule="evenodd" clip-rule="evenodd" d="M541.082 101.893V120.834C542.482 120.641 543.845 120.43 545.181 120.206V101.268C543.845 101.495 542.482 101.706 541.082 101.893Z" fill="#C49214"/>
<path fill-rule="evenodd" clip-rule="evenodd" d="M506.24 102.591V121.532C507.587 121.656 508.952 121.767 510.339 121.856V102.913C508.952 102.824 507.587 102.715 506.24 102.591" fill="#C49214"/>
<path fill-rule="evenodd" clip-rule="evenodd" d="M530.835 102.913V121.856C532.223 121.767 533.588 121.656 534.934 121.532V102.591C533.588 102.715 532.223 102.824 530.835 102.913Z" fill="#C49214"/>
<path fill-rule="evenodd" clip-rule="evenodd" d="M520.587 103.243C519.9 103.243 519.218 103.235 518.537 103.227V122.17C519.218 122.178 519.9 122.186 520.587 122.186C521.273 122.186 521.956 122.178 522.636 122.17V103.227C521.956 103.235 521.273 103.243 520.587 103.243Z" fill="#C49214"/>
<path fill-rule="evenodd" clip-rule="evenodd" d="M463.198 125.093V144.023C464.444 144.629 465.809 145.211 467.297 145.771V126.838C465.809 126.281 464.444 125.696 463.198 125.093" fill="#DCA815"/>
<path fill-rule="evenodd" clip-rule="evenodd" d="M549.281 126.838V145.771C550.769 145.214 552.134 144.629 553.38 144.023V125.093C552.134 125.699 550.769 126.281 549.281 126.838Z" fill="#DCA815"/>
<path fill-rule="evenodd" clip-rule="evenodd" d="M473.446 128.804V147.739C474.758 148.099 476.125 148.44 477.545 148.762V129.827C476.125 129.505 474.758 129.164 473.446 128.804Z" fill="#DCA815"/>
<path fill-rule="evenodd" clip-rule="evenodd" d="M539.033 129.827V148.765C540.454 148.44 541.821 148.099 543.132 147.739V128.804C541.821 129.164 540.454 129.505 539.033 129.827" fill="#DCA815"/>
<path fill-rule="evenodd" clip-rule="evenodd" d="M483.694 131.036V149.974C485.03 150.202 486.393 150.413 487.793 150.602V131.664C486.393 131.472 485.03 131.261 483.694 131.036Z" fill="#DCA815"/>
<path fill-rule="evenodd" clip-rule="evenodd" d="M528.785 131.661V150.602C530.185 150.41 531.548 150.199 532.884 149.974V131.036C531.548 131.263 530.185 131.475 528.785 131.661" fill="#DCA815"/>
<path fill-rule="evenodd" clip-rule="evenodd" d="M493.942 132.36V151.301C495.288 151.426 496.653 151.537 498.041 151.626V132.682C496.653 132.593 495.288 132.485 493.942 132.36Z" fill="#DCA815"/>
<path fill-rule="evenodd" clip-rule="evenodd" d="M518.537 132.682V151.626C519.925 151.537 521.29 151.426 522.636 151.301V132.36C521.29 132.485 519.925 132.593 518.537 132.682" fill="#DCA815"/>
<path fill-rule="evenodd" clip-rule="evenodd" d="M508.29 133.012C507.603 133.012 506.921 133.004 506.24 132.996V151.94C506.921 151.948 507.603 151.956 508.29 151.956C508.976 151.956 509.659 151.948 510.339 151.94V132.996C509.659 133.004 508.976 133.012 508.29 133.012Z" fill="#DCA815"/>
<path fill-rule="evenodd" clip-rule="evenodd" d="M469.347 154.862V173.792C470.593 174.399 471.958 174.98 473.446 175.541V156.608C471.958 156.05 470.593 155.466 469.347 154.862" fill="#C49214"/>
<path fill-rule="evenodd" clip-rule="evenodd" d="M555.429 156.608V175.541C556.917 174.983 558.282 174.399 559.528 173.792V154.862C558.282 155.468 556.917 156.05 555.429 156.608Z" fill="#C49214"/>
<path fill-rule="evenodd" clip-rule="evenodd" d="M479.595 158.572V177.508C480.907 177.868 482.274 178.209 483.694 178.531V159.595C482.274 159.273 480.907 158.932 479.595 158.572" fill="#C49214"/>
<path fill-rule="evenodd" clip-rule="evenodd" d="M545.182 159.595V178.533C546.602 178.209 547.97 177.868 549.281 177.508V158.572C547.97 158.932 546.602 159.273 545.182 159.595" fill="#C49214"/>
<path fill-rule="evenodd" clip-rule="evenodd" d="M489.843 160.805V179.743C491.179 179.97 492.542 180.181 493.942 180.371V161.433C492.542 161.24 491.179 161.029 489.843 160.805Z" fill="#C49214"/>
<path fill-rule="evenodd" clip-rule="evenodd" d="M534.934 161.43V180.371C536.334 180.179 537.697 179.968 539.033 179.743V160.805C537.697 161.032 536.334 161.243 534.934 161.43" fill="#C49214"/>
<path fill-rule="evenodd" clip-rule="evenodd" d="M500.091 162.128V181.069C501.437 181.193 502.802 181.304 504.19 181.394V162.45C502.802 162.361 501.437 162.252 500.091 162.128" fill="#C49214"/>
<path fill-rule="evenodd" clip-rule="evenodd" d="M524.686 162.45V181.394C526.074 181.304 527.439 181.193 528.785 181.069V162.128C527.439 162.252 526.074 162.361 524.686 162.45" fill="#C49214"/>
<path fill-rule="evenodd" clip-rule="evenodd" d="M514.438 162.78C513.751 162.78 513.069 162.772 512.388 162.764V181.707C513.069 181.715 513.751 181.724 514.438 181.724C515.124 181.724 515.807 181.715 516.487 181.707V162.764C515.807 162.772 515.124 162.78 514.438 162.78Z" fill="#C49214"/>
<path fill-rule="evenodd" clip-rule="evenodd" d="M559.963 139.431C554.143 146.191 533.218 151.955 508.289 151.955C488.798 151.955 471.76 148.429 462.469 143.66C461.614 144.683 461.149 145.766 461.149 146.894C461.149 155.116 485.008 162.78 514.438 162.78C543.87 162.78 567.727 155.116 567.727 146.894C567.727 144.061 564.888 141.528 559.963 139.431" fill="#FCC62D"/>
<path fill-rule="evenodd" clip-rule="evenodd" d="M520.587 122.187C493.505 122.187 471.159 115.381 467.761 107.89C459.81 110.268 455 113.437 455 117.126C455 125.345 478.859 133.012 508.289 133.012C537.719 133.012 561.578 125.345 561.578 117.126C561.578 116.763 561.517 116.409 561.425 116.057C551.65 119.689 536.987 122.187 520.587 122.187Z" fill="#FFD949"/>
<path fill-rule="evenodd" clip-rule="evenodd" d="M559.514 77.667C553.137 84.2161 532.625 89.7124 508.289 89.7124C492.572 89.7124 478.449 87.4176 468.695 84.0293C467.791 85.0848 467.297 86.1943 467.297 87.358C467.297 95.5795 491.156 103.244 520.586 103.244C550.016 103.244 573.875 95.5796 573.875 87.358C573.875 83.4286 568.417 80.0864 559.514 77.667" fill="#FCC62D"/>
<path fill-rule="evenodd" clip-rule="evenodd" d="M598.04 182C579.555 182 564.571 164.875 564.571 143.75C564.571 122.625 579.555 105.5 598.04 105.5C616.524 105.5 631.508 122.625 631.508 143.75C631.508 164.875 616.524 182 598.04 182Z" fill="#FFD949"/>
<path fill-rule="evenodd" clip-rule="evenodd" d="M564.571 143.75C564.571 124.212 577.392 108.106 593.942 105.795C592.598 105.608 591.232 105.5 589.844 105.5C571.359 105.5 556.375 122.625 556.375 143.75C556.375 164.875 571.359 182 589.844 182C591.232 182 592.598 181.892 593.942 181.705C577.392 179.394 564.571 163.288 564.571 143.75" fill="#F4BF1A"/>
<path fill-rule="evenodd" clip-rule="evenodd" d="M564.569 145.116H556.375C556.402 146.036 556.454 146.947 556.538 147.848H564.738C564.653 146.947 564.597 146.036 564.569 145.116Z" fill="#DCA815"/>
<path fill-rule="evenodd" clip-rule="evenodd" d="M564.881 138.286H556.69C556.577 139.186 556.495 140.099 556.439 141.018H564.634C564.691 140.099 564.768 139.186 564.881 138.286Z" fill="#DCA815"/>
<path fill-rule="evenodd" clip-rule="evenodd" d="M565.32 151.946H557.122C557.3 152.87 557.505 153.781 557.738 154.678H565.933C565.701 153.781 565.497 152.87 565.32 151.946Z" fill="#DCA815"/>
<path fill-rule="evenodd" clip-rule="evenodd" d="M567.231 158.777H559.029C559.377 159.709 559.762 160.617 560.172 161.509H568.37C567.96 160.619 567.579 159.708 567.231 158.777" fill="#DCA815"/>
<path fill-rule="evenodd" clip-rule="evenodd" d="M566.309 131.455H558.123C557.856 132.353 557.608 133.261 557.4 134.187H565.606C565.814 133.264 566.044 132.35 566.309 131.455" fill="#DCA815"/>
<path fill-rule="evenodd" clip-rule="evenodd" d="M569.03 124.625H560.833C560.383 125.514 559.958 126.424 559.57 127.357H567.772C568.16 126.425 568.579 125.514 569.03 124.625Z" fill="#DCA815"/>
<path fill-rule="evenodd" clip-rule="evenodd" d="M574.605 116.429H566.399C565.622 117.298 564.883 118.209 564.183 119.161H572.386C573.087 118.209 573.828 117.298 574.605 116.429" fill="#DCA815"/>
<path fill-rule="evenodd" clip-rule="evenodd" d="M582.959 109.598H574.745C573.349 110.404 572.01 111.316 570.734 112.33H578.943C580.22 111.316 581.561 110.404 582.959 109.598" fill="#DCA815"/>
<path fill-rule="evenodd" clip-rule="evenodd" d="M571.428 166.973H563.227C563.861 167.919 564.53 168.831 565.238 169.705H573.444C572.736 168.831 572.063 167.919 571.428 166.973" fill="#DCA815"/>
<path fill-rule="evenodd" clip-rule="evenodd" d="M569.123 173.804C570.22 174.791 571.369 175.708 572.571 176.536H580.787C579.579 175.707 578.418 174.795 577.317 173.804H569.123Z" fill="#DCA815"/>
</g>
<defs>
<filter id="filter0_d_0_3715" x="0" y="0" width="685" height="376" filterUnits="userSpaceOnUse" color-interpolation-filters="sRGB">
<feFlood flood-opacity="0" result="BackgroundImageFix"/>
<feColorMatrix in="SourceAlpha" type="matrix" values="0 0 0 0 0 0 0 0 0 0 0 0 0 0 0 0 0 0 127 0" result="hardAlpha"/>
<feOffset dy="3"/>
<feGaussianBlur stdDeviation="6"/>
<feColorMatrix type="matrix" values="0 0 0 0 0 0 0 0 0 0 0 0 0 0 0 0 0 0 0.160784 0"/>
<feBlend mode="normal" in2="BackgroundImageFix" result="effect1_dropShadow_0_3715"/>
<feBlend mode="normal" in="SourceGraphic" in2="effect1_dropShadow_0_3715" result="shape"/>
</filter>
<linearGradient id="paint0_linear_0_3715" x1="342.5" y1="9" x2="342.5" y2="361" gradientUnits="userSpaceOnUse">
<stop stop-color="#50E988"/>
<stop offset="1" stop-color="#038815"/>
</linearGradient>
</defs>
</svg>
