<svg width="40" height="32" viewBox="0 0 40 32" fill="none" xmlns="http://www.w3.org/2000/svg">
<path fill-rule="evenodd" clip-rule="evenodd" d="M1e-05 27.7778C1e-05 29.6181 1.49307 31.1111 3.33334 31.1111H36.6667C38.507 31.1111 40 29.6181 40 27.7778V15.5556H0L1e-05 27.7778ZM13.3333 23.0556C13.3333 22.5972 13.7083 22.2222 14.1667 22.2222H23.6111C24.0694 22.2222 24.4444 22.5972 24.4444 23.0556V25.8333C24.4444 26.2917 24.0694 26.6667 23.6111 26.6667H14.1667C13.7083 26.6667 13.3333 26.2917 13.3333 25.8333V23.0556ZM4.44445 23.0556C4.44445 22.5972 4.81945 22.2222 5.27778 22.2222H10.2778C10.7361 22.2222 11.1111 22.5972 11.1111 23.0556V25.8333C11.1111 26.2917 10.7361 26.6667 10.2778 26.6667H5.27778C4.81945 26.6667 4.44445 26.2917 4.44445 25.8333V23.0556ZM40 3.33333V6.66666H1e-05V3.33333C1e-05 1.49305 1.49307 0 3.33334 0H36.6667C38.507 0 40 1.49306 40 3.33333H40Z" fill="#1C3947"/>
</svg>
