<svg width="410" height="14" viewBox="0 0 410 14" fill="none" xmlns="http://www.w3.org/2000/svg">
<path opacity="0.84" d="M5.46436 13.436C4.44241 13.436 3.58276 13.2617 2.88543 12.913C2.18809 12.5523 1.62902 12.0714 1.20822 11.4703C0.78741 10.8571 0.480823 10.1658 0.288455 9.3963C0.0960864 8.62683 -9.77898e-05 7.83331 -9.77898e-05 7.01574V0.541348H1.62301V7.01574C1.62301 7.64094 1.68312 8.25411 1.80335 8.85526C1.93561 9.44439 2.14601 9.97341 2.43456 10.4423C2.72312 10.9112 3.11386 11.2839 3.60681 11.5604C4.09975 11.837 4.71293 11.9752 5.44633 11.9752C6.19176 11.9752 6.81094 11.837 7.30389 11.5604C7.79683 11.2719 8.18758 10.8932 8.47613 10.4243C8.76468 9.94335 8.96907 9.40832 9.0893 8.8192C9.22156 8.23007 9.28768 7.62892 9.28768 7.01574V0.541348H10.9108V7.01574C10.9108 7.8814 10.8086 8.70498 10.6042 9.48647C10.4118 10.2559 10.0992 10.9352 9.66641 11.5244C9.23358 12.1135 8.6685 12.5824 7.97116 12.9311C7.28585 13.2677 6.45025 13.436 5.46436 13.436ZM16.5409 13.5262C15.7594 13.5262 15.026 13.4 14.3407 13.1475C13.6554 12.883 13.0663 12.4922 12.5733 11.9752L13.1865 10.8571C13.7276 11.3621 14.2686 11.7228 14.8096 11.9392C15.3507 12.1556 15.9037 12.2638 16.4688 12.2638C17.118 12.2638 17.6471 12.1436 18.0558 11.9031C18.4646 11.6506 18.669 11.2839 18.669 10.803C18.669 10.4543 18.5608 10.1958 18.3444 10.0275C18.14 9.85919 17.8454 9.72092 17.4607 9.61271C17.076 9.49248 16.6191 9.36023 16.0901 9.21596C15.4408 9.02359 14.8938 8.8192 14.4489 8.60278C14.0041 8.38637 13.6674 8.11585 13.439 7.79123C13.2106 7.46661 13.0963 7.05782 13.0963 6.56488C13.0963 5.96373 13.2526 5.45876 13.5652 5.04998C13.8778 4.62917 14.3047 4.31056 14.8457 4.09415C15.3988 3.87774 16.024 3.76953 16.7213 3.76953C17.4186 3.76953 18.0498 3.87774 18.6149 4.09415C19.18 4.31056 19.6669 4.62917 20.0757 5.04998L19.3543 6.15009C18.9816 5.76535 18.5728 5.48281 18.128 5.30246C17.6831 5.1101 17.1842 5.01391 16.6311 5.01391C16.3065 5.01391 15.9879 5.05599 15.6753 5.14015C15.3627 5.21229 15.1042 5.35056 14.8998 5.55495C14.6954 5.74732 14.5932 6.02384 14.5932 6.38454C14.5932 6.68511 14.6714 6.92557 14.8277 7.10592C14.996 7.27424 15.2364 7.41851 15.549 7.53874C15.8737 7.65897 16.2644 7.79123 16.7213 7.9355C17.4306 8.1399 18.0438 8.34429 18.5608 8.54868C19.0898 8.75307 19.4986 9.01758 19.7872 9.3422C20.0757 9.66682 20.22 10.1177 20.22 10.6948C20.22 11.5845 19.8833 12.2818 19.2101 12.7868C18.5368 13.2797 17.6471 13.5262 16.5409 13.5262ZM26.2847 13.5262C25.5753 13.5262 24.9261 13.4 24.3369 13.1475C23.7598 12.883 23.2549 12.5283 22.822 12.0834C22.4012 11.6266 22.0706 11.1036 21.8301 10.5144C21.6017 9.92531 21.4875 9.30012 21.4875 8.63885C21.4875 7.74915 21.6919 6.93759 22.1006 6.20419C22.5094 5.47079 23.0745 4.88166 23.7959 4.43681C24.5293 3.99195 25.3649 3.76953 26.3027 3.76953C27.2525 3.76953 28.0761 3.99797 28.7734 4.45484C29.4828 4.89969 30.0298 5.48882 30.4146 6.22222C30.8113 6.94361 31.0097 7.7251 31.0097 8.56671C31.0097 8.68694 31.0037 8.80717 30.9917 8.9274C30.9917 9.03561 30.9857 9.11977 30.9736 9.17989H23.1647C23.2128 9.79306 23.3811 10.3401 23.6697 10.821C23.9702 11.2899 24.355 11.6626 24.8239 11.9392C25.2928 12.2037 25.7977 12.3359 26.3388 12.3359C26.9159 12.3359 27.4569 12.1917 27.9619 11.9031C28.4789 11.6145 28.8335 11.2358 29.0259 10.7669L30.3965 11.1456C30.1921 11.6025 29.8856 12.0113 29.4768 12.372C29.08 12.7327 28.6051 13.0152 28.052 13.2196C27.511 13.424 26.9219 13.5262 26.2847 13.5262ZM23.1106 8.07978H29.5309C29.4828 7.46661 29.3084 6.92557 29.0079 6.45667C28.7073 5.98778 28.3226 5.62107 27.8537 5.35657C27.3848 5.09206 26.8678 4.95981 26.3027 4.95981C25.7496 4.95981 25.2387 5.09206 24.7698 5.35657C24.3009 5.62107 23.9161 5.98778 23.6156 6.45667C23.327 6.92557 23.1587 7.46661 23.1106 8.07978ZM37.7514 5.3205C36.9579 5.33252 36.2545 5.53691 35.6413 5.93367C35.0402 6.31841 34.6134 6.85343 34.3609 7.53874V13.3459H32.7738V3.93184H34.2527V6.11402C34.5773 5.46477 35.0041 4.94177 35.5331 4.54501C36.0742 4.13623 36.6392 3.90779 37.2284 3.8597C37.3486 3.8597 37.4508 3.8597 37.535 3.8597C37.6191 3.8597 37.6913 3.86571 37.7514 3.87774V5.3205ZM54.7481 3.93184H56.281L52.2773 13.3459H50.8887L49.0672 8.90937L47.2637 13.3459H45.8751L41.8714 3.93184H43.3863L46.6325 11.7769L48.1474 7.91747L46.5604 3.94987H47.9491L49.0672 6.94361L50.1853 3.94987H51.574L50.005 7.91747L51.5199 11.7769L54.7481 3.93184ZM57.7651 13.3459V3.93184H59.3521V13.3459H57.7651ZM57.7651 2.16446V0.180658H59.3521V2.16446H57.7651ZM61.9575 0.180658H63.5446V10.9112C63.5446 11.4282 63.6167 11.7468 63.761 11.867C63.9052 11.9873 64.0796 12.0474 64.284 12.0474C64.5365 12.0474 64.7769 12.0233 65.0054 11.9752C65.2338 11.9151 65.4262 11.855 65.5825 11.7949L65.8349 13.0934C65.5704 13.2016 65.2578 13.2918 64.8971 13.3639C64.5365 13.436 64.2178 13.4721 63.9413 13.4721C63.3281 13.4721 62.8412 13.2978 62.4805 12.9491C62.1318 12.6004 61.9575 12.1135 61.9575 11.4883V0.180658ZM67.1178 0.180658H68.7048V10.9112C68.7048 11.4282 68.777 11.7468 68.9212 11.867C69.0655 11.9873 69.2398 12.0474 69.4442 12.0474C69.6967 12.0474 69.9372 12.0233 70.1656 11.9752C70.3941 11.9151 70.5864 11.855 70.7427 11.7949L70.9952 13.0934C70.7307 13.2016 70.4181 13.2918 70.0574 13.3639C69.6967 13.436 69.3781 13.4721 69.1016 13.4721C68.4884 13.4721 68.0015 13.2978 67.6408 12.9491C67.2921 12.6004 67.1178 12.1135 67.1178 11.4883V0.180658ZM81.0907 13.5262C80.3573 13.5262 79.6901 13.3459 79.0889 12.9852C78.4878 12.6245 78.0128 12.1556 77.6642 11.5785V13.3459H76.2575V0.180658H77.8445V5.80743C78.2413 5.19426 78.7282 4.70131 79.3053 4.3286C79.8824 3.95589 80.5557 3.76953 81.3252 3.76953C81.9744 3.76953 82.5575 3.90779 83.0745 4.18432C83.5915 4.44883 84.0304 4.81553 84.3911 5.28443C84.7638 5.7413 85.0463 6.2643 85.2387 6.85343C85.4431 7.43054 85.5453 8.0377 85.5453 8.67492C85.5453 9.33619 85.431 9.96138 85.2026 10.5505C84.9862 11.1276 84.6736 11.6446 84.2648 12.1015C83.856 12.5463 83.3811 12.895 82.8401 13.1475C82.3111 13.4 81.728 13.5262 81.0907 13.5262ZM80.694 12.1556C81.1629 12.1556 81.5957 12.0594 81.9925 11.867C82.3892 11.6747 82.7319 11.4162 83.0204 11.0915C83.309 10.7669 83.5314 10.3942 83.6877 9.97341C83.844 9.5526 83.9222 9.11977 83.9222 8.67492C83.9222 8.06175 83.7899 7.48464 83.5254 6.94361C83.2729 6.40257 82.9122 5.96974 82.4433 5.64512C81.9865 5.30847 81.4514 5.14015 80.8383 5.14015C80.3934 5.14015 79.9786 5.24235 79.5939 5.44674C79.2091 5.65113 78.8665 5.92165 78.5659 6.25829C78.2774 6.58291 78.0369 6.94361 77.8445 7.34036V10.0636C77.9046 10.3642 78.0309 10.6407 78.2232 10.8932C78.4156 11.1456 78.6501 11.3681 78.9266 11.5604C79.2031 11.7408 79.4917 11.8851 79.7923 11.9933C80.1049 12.1015 80.4054 12.1556 80.694 12.1556ZM91.6598 13.5262C90.9505 13.5262 90.3012 13.4 89.7121 13.1475C89.135 12.883 88.63 12.5283 88.1972 12.0834C87.7764 11.6266 87.4457 11.1036 87.2053 10.5144C86.9769 9.92531 86.8626 9.30012 86.8626 8.63885C86.8626 7.74915 87.067 6.93759 87.4758 6.20419C87.8846 5.47079 88.4497 4.88166 89.1711 4.43681C89.9045 3.99195 90.7401 3.76953 91.6778 3.76953C92.6277 3.76953 93.4512 3.99797 94.1486 4.45484C94.8579 4.89969 95.405 5.48882 95.7897 6.22222C96.1865 6.94361 96.3849 7.7251 96.3849 8.56671C96.3849 8.68694 96.3788 8.80717 96.3668 8.9274C96.3668 9.03561 96.3608 9.11977 96.3488 9.17989H88.5398C88.5879 9.79306 88.7563 10.3401 89.0448 10.821C89.3454 11.2899 89.7301 11.6626 90.199 11.9392C90.6679 12.2037 91.1729 12.3359 91.7139 12.3359C92.291 12.3359 92.8321 12.1917 93.337 11.9031C93.854 11.6145 94.2087 11.2358 94.4011 10.7669L95.7717 11.1456C95.5673 11.6025 95.2607 12.0113 94.8519 12.372C94.4552 12.7327 93.9803 13.0152 93.4272 13.2196C92.8862 13.424 92.297 13.5262 91.6598 13.5262ZM88.4857 8.07978H94.906C94.8579 7.46661 94.6836 6.92557 94.383 6.45667C94.0825 5.98778 93.6977 5.62107 93.2288 5.35657C92.7599 5.09206 92.2429 4.95981 91.6778 4.95981C91.1248 4.95981 90.6138 5.09206 90.1449 5.35657C89.676 5.62107 89.2913 5.98778 88.9907 6.45667C88.7022 6.92557 88.5338 7.46661 88.4857 8.07978ZM101.971 10.6226C101.971 10.0215 102.139 9.50451 102.476 9.07168C102.825 8.62683 103.3 8.28417 103.901 8.04371C104.502 7.80325 105.199 7.68302 105.993 7.68302C106.414 7.68302 106.858 7.71909 107.327 7.79123C107.796 7.85134 108.211 7.94753 108.572 8.07978V7.39447C108.572 6.67309 108.355 6.10801 107.922 5.69922C107.49 5.27842 106.876 5.06801 106.083 5.06801C105.566 5.06801 105.067 5.1642 104.586 5.35657C104.117 5.53691 103.618 5.80142 103.089 6.15009L102.512 5.03195C103.125 4.61114 103.738 4.29854 104.352 4.09415C104.965 3.87774 105.602 3.76953 106.263 3.76953C107.466 3.76953 108.415 4.10617 109.113 4.77946C109.81 5.44073 110.159 6.3665 110.159 7.55678V11.5424C110.159 11.7348 110.195 11.8791 110.267 11.9752C110.351 12.0594 110.483 12.1075 110.664 12.1195V13.3459C110.507 13.3699 110.369 13.3879 110.249 13.4C110.141 13.412 110.051 13.418 109.978 13.418C109.606 13.418 109.323 13.3158 109.131 13.1114C108.95 12.907 108.848 12.6906 108.824 12.4622L108.788 11.867C108.379 12.396 107.844 12.8048 107.183 13.0934C106.522 13.3819 105.867 13.5262 105.217 13.5262C104.592 13.5262 104.033 13.4 103.54 13.1475C103.047 12.883 102.662 12.5343 102.386 12.1015C102.109 11.6566 101.971 11.1637 101.971 10.6226ZM108.103 11.2899C108.247 11.1216 108.361 10.9533 108.445 10.785C108.53 10.6046 108.572 10.4543 108.572 10.3341V9.16185C108.199 9.01758 107.808 8.90937 107.399 8.83723C106.991 8.75307 106.588 8.71099 106.191 8.71099C105.386 8.71099 104.73 8.8733 104.225 9.19792C103.732 9.51052 103.486 9.94335 103.486 10.4964C103.486 10.797 103.564 11.0915 103.72 11.3801C103.889 11.6566 104.129 11.8851 104.442 12.0654C104.766 12.2458 105.163 12.3359 105.632 12.3359C106.125 12.3359 106.594 12.2397 107.039 12.0474C107.484 11.843 107.838 11.5905 108.103 11.2899ZM117.53 13.5262C116.796 13.5262 116.129 13.3459 115.528 12.9852C114.927 12.6245 114.452 12.1556 114.103 11.5785V13.3459H112.696V0.180658H114.283V5.80743C114.68 5.19426 115.167 4.70131 115.744 4.3286C116.321 3.95589 116.995 3.76953 117.764 3.76953C118.413 3.76953 118.996 3.90779 119.513 4.18432C120.03 4.44883 120.469 4.81553 120.83 5.28443C121.203 5.7413 121.485 6.2643 121.678 6.85343C121.882 7.43054 121.984 8.0377 121.984 8.67492C121.984 9.33619 121.87 9.96138 121.642 10.5505C121.425 11.1276 121.112 11.6446 120.704 12.1015C120.295 12.5463 119.82 12.895 119.279 13.1475C118.75 13.4 118.167 13.5262 117.53 13.5262ZM117.133 12.1556C117.602 12.1556 118.035 12.0594 118.431 11.867C118.828 11.6747 119.171 11.4162 119.459 11.0915C119.748 10.7669 119.97 10.3942 120.127 9.97341C120.283 9.5526 120.361 9.11977 120.361 8.67492C120.361 8.06175 120.229 7.48464 119.964 6.94361C119.712 6.40257 119.351 5.96974 118.882 5.64512C118.425 5.30847 117.89 5.14015 117.277 5.14015C116.832 5.14015 116.418 5.24235 116.033 5.44674C115.648 5.65113 115.305 5.92165 115.005 6.25829C114.716 6.58291 114.476 6.94361 114.283 7.34036V10.0636C114.344 10.3642 114.47 10.6407 114.662 10.8932C114.855 11.1456 115.089 11.3681 115.365 11.5604C115.642 11.7408 115.931 11.8851 116.231 11.9933C116.544 12.1015 116.844 12.1556 117.133 12.1556ZM123.969 0.180658H125.556V10.9112C125.556 11.4282 125.628 11.7468 125.772 11.867C125.917 11.9873 126.091 12.0474 126.295 12.0474C126.548 12.0474 126.788 12.0233 127.017 11.9752C127.245 11.9151 127.437 11.855 127.594 11.7949L127.846 13.0934C127.582 13.2016 127.269 13.2918 126.908 13.3639C126.548 13.436 126.229 13.4721 125.953 13.4721C125.339 13.4721 124.853 13.2978 124.492 12.9491C124.143 12.6004 123.969 12.1135 123.969 11.4883V0.180658ZM133.259 13.5262C132.55 13.5262 131.9 13.4 131.311 13.1475C130.734 12.883 130.229 12.5283 129.796 12.0834C129.376 11.6266 129.045 11.1036 128.804 10.5144C128.576 9.92531 128.462 9.30012 128.462 8.63885C128.462 7.74915 128.666 6.93759 129.075 6.20419C129.484 5.47079 130.049 4.88166 130.77 4.43681C131.504 3.99195 132.339 3.76953 133.277 3.76953C134.227 3.76953 135.05 3.99797 135.748 4.45484C136.457 4.89969 137.004 5.48882 137.389 6.22222C137.786 6.94361 137.984 7.7251 137.984 8.56671C137.984 8.68694 137.978 8.80717 137.966 8.9274C137.966 9.03561 137.96 9.11977 137.948 9.17989H130.139C130.187 9.79306 130.355 10.3401 130.644 10.821C130.945 11.2899 131.329 11.6626 131.798 11.9392C132.267 12.2037 132.772 12.3359 133.313 12.3359C133.89 12.3359 134.431 12.1917 134.936 11.9031C135.453 11.6145 135.808 11.2358 136 10.7669L137.371 11.1456C137.166 11.6025 136.86 12.0113 136.451 12.372C136.054 12.7327 135.579 13.0152 135.026 13.2196C134.485 13.424 133.896 13.5262 133.259 13.5262ZM130.085 8.07978H136.505C136.457 7.46661 136.283 6.92557 135.982 6.45667C135.682 5.98778 135.297 5.62107 134.828 5.35657C134.359 5.09206 133.842 4.95981 133.277 4.95981C132.724 4.95981 132.213 5.09206 131.744 5.35657C131.275 5.62107 130.89 5.98778 130.59 6.45667C130.301 6.92557 130.133 7.46661 130.085 8.07978ZM149.179 12.877C149.047 12.9371 148.866 13.0152 148.638 13.1114C148.409 13.2076 148.145 13.2918 147.844 13.3639C147.544 13.436 147.225 13.4721 146.889 13.4721C146.504 13.4721 146.149 13.406 145.825 13.2737C145.5 13.1294 145.241 12.913 145.049 12.6245C144.857 12.3239 144.761 11.9512 144.761 11.5063V5.17622H143.48V3.93184H144.761V0.793832H146.348V3.93184H148.458V5.17622H146.348V11.0194C146.372 11.3561 146.486 11.6085 146.69 11.7769C146.895 11.9332 147.135 12.0113 147.412 12.0113C147.724 12.0113 148.013 11.9572 148.277 11.849C148.542 11.7408 148.716 11.6626 148.8 11.6145L149.179 12.877ZM154.638 13.5262C153.929 13.5262 153.286 13.4 152.709 13.1475C152.132 12.883 151.633 12.5283 151.212 12.0834C150.791 11.6266 150.467 11.1036 150.238 10.5144C150.01 9.92531 149.895 9.30613 149.895 8.65689C149.895 7.99562 150.01 7.37042 150.238 6.78129C150.467 6.19217 150.791 5.67518 151.212 5.23033C151.633 4.77345 152.132 4.41877 152.709 4.16629C153.298 3.90178 153.941 3.76953 154.638 3.76953C155.348 3.76953 155.991 3.90178 156.568 4.16629C157.145 4.41877 157.644 4.77345 158.065 5.23033C158.498 5.67518 158.829 6.19217 159.057 6.78129C159.285 7.37042 159.4 7.99562 159.4 8.65689C159.4 9.30613 159.285 9.92531 159.057 10.5144C158.829 11.1036 158.504 11.6266 158.083 12.0834C157.662 12.5283 157.157 12.883 156.568 13.1475C155.991 13.4 155.348 13.5262 154.638 13.5262ZM151.519 8.67492C151.519 9.32416 151.657 9.91329 151.933 10.4423C152.222 10.9713 152.601 11.3921 153.069 11.7047C153.538 12.0053 154.061 12.1556 154.638 12.1556C155.216 12.1556 155.739 11.9993 156.207 11.6867C156.688 11.3741 157.067 10.9533 157.344 10.4243C157.632 9.88323 157.777 9.28809 157.777 8.63885C157.777 7.98961 157.632 7.40048 157.344 6.87147C157.067 6.34245 156.688 5.92165 156.207 5.60905C155.739 5.29645 155.216 5.14015 154.638 5.14015C154.061 5.14015 153.538 5.30246 153.069 5.62708C152.601 5.93968 152.222 6.36049 151.933 6.8895C151.657 7.41851 151.519 8.01365 151.519 8.67492ZM170.05 13.5262C169.341 13.5262 168.692 13.4 168.102 13.1475C167.525 12.883 167.02 12.5283 166.587 12.0834C166.167 11.6266 165.836 11.1036 165.596 10.5144C165.367 9.92531 165.253 9.30012 165.253 8.63885C165.253 7.74915 165.457 6.93759 165.866 6.20419C166.275 5.47079 166.84 4.88166 167.561 4.43681C168.295 3.99195 169.13 3.76953 170.068 3.76953C171.018 3.76953 171.842 3.99797 172.539 4.45484C173.248 4.89969 173.795 5.48882 174.18 6.22222C174.577 6.94361 174.775 7.7251 174.775 8.56671C174.775 8.68694 174.769 8.80717 174.757 8.9274C174.757 9.03561 174.751 9.11977 174.739 9.17989H166.93C166.978 9.79306 167.147 10.3401 167.435 10.821C167.736 11.2899 168.12 11.6626 168.589 11.9392C169.058 12.2037 169.563 12.3359 170.104 12.3359C170.681 12.3359 171.222 12.1917 171.727 11.9031C172.244 11.6145 172.599 11.2358 172.791 10.7669L174.162 11.1456C173.958 11.6025 173.651 12.0113 173.242 12.372C172.845 12.7327 172.371 13.0152 171.818 13.2196C171.276 13.424 170.687 13.5262 170.05 13.5262ZM166.876 8.07978H173.296C173.248 7.46661 173.074 6.92557 172.773 6.45667C172.473 5.98778 172.088 5.62107 171.619 5.35657C171.15 5.09206 170.633 4.95981 170.068 4.95981C169.515 4.95981 169.004 5.09206 168.535 5.35657C168.066 5.62107 167.682 5.98778 167.381 6.45667C167.092 6.92557 166.924 7.46661 166.876 8.07978ZM184.709 13.3459H183.122V8.07978C183.122 7.08187 182.966 6.35448 182.653 5.8976C182.352 5.4287 181.89 5.19426 181.264 5.19426C180.832 5.19426 180.399 5.30246 179.966 5.51888C179.545 5.73529 179.166 6.02986 178.83 6.40257C178.505 6.76326 178.271 7.18407 178.126 7.66499V13.3459H176.539V3.93184H177.982V5.95171C178.235 5.50685 178.559 5.12212 178.956 4.7975C179.353 4.47287 179.804 4.22039 180.309 4.04005C180.813 3.8597 181.343 3.76953 181.896 3.76953C182.437 3.76953 182.887 3.87172 183.248 4.07612C183.621 4.26848 183.909 4.54501 184.114 4.9057C184.33 5.25437 184.481 5.66917 184.565 6.15009C184.661 6.63101 184.709 7.15401 184.709 7.71909V13.3459ZM192.154 5.3205C191.361 5.33252 190.658 5.53691 190.044 5.93367C189.443 6.31841 189.016 6.85343 188.764 7.53874V13.3459H187.177V3.93184H188.656V6.11402C188.98 5.46477 189.407 4.94177 189.936 4.54501C190.477 4.13623 191.042 3.90779 191.631 3.8597C191.752 3.8597 191.854 3.8597 191.938 3.8597C192.022 3.8597 192.094 3.86571 192.154 3.87774V5.3205ZM197.611 13.5262C196.902 13.5262 196.259 13.4 195.682 13.1475C195.105 12.883 194.606 12.5283 194.185 12.0834C193.764 11.6266 193.439 11.1036 193.211 10.5144C192.983 9.92531 192.868 9.30613 192.868 8.65689C192.868 7.99562 192.983 7.37042 193.211 6.78129C193.439 6.19217 193.764 5.67518 194.185 5.23033C194.606 4.77345 195.105 4.41877 195.682 4.16629C196.271 3.90178 196.914 3.76953 197.611 3.76953C198.321 3.76953 198.964 3.90178 199.541 4.16629C200.118 4.41877 200.617 4.77345 201.038 5.23033C201.471 5.67518 201.801 6.19217 202.03 6.78129C202.258 7.37042 202.373 7.99562 202.373 8.65689C202.373 9.30613 202.258 9.92531 202.03 10.5144C201.801 11.1036 201.477 11.6266 201.056 12.0834C200.635 12.5283 200.13 12.883 199.541 13.1475C198.964 13.4 198.321 13.5262 197.611 13.5262ZM194.491 8.67492C194.491 9.32416 194.63 9.91329 194.906 10.4423C195.195 10.9713 195.573 11.3921 196.042 11.7047C196.511 12.0053 197.034 12.1556 197.611 12.1556C198.188 12.1556 198.711 11.9993 199.18 11.6867C199.661 11.3741 200.04 10.9533 200.317 10.4243C200.605 9.88323 200.749 9.28809 200.749 8.63885C200.749 7.98961 200.605 7.40048 200.317 6.87147C200.04 6.34245 199.661 5.92165 199.18 5.60905C198.711 5.29645 198.188 5.14015 197.611 5.14015C197.034 5.14015 196.511 5.30246 196.042 5.62708C195.573 5.93968 195.195 6.36049 194.906 6.8895C194.63 7.41851 194.491 8.01365 194.491 8.67492ZM204.332 0.180658H205.919V10.9112C205.919 11.4282 205.991 11.7468 206.135 11.867C206.279 11.9873 206.454 12.0474 206.658 12.0474C206.911 12.0474 207.151 12.0233 207.379 11.9752C207.608 11.9151 207.8 11.855 207.957 11.7949L208.209 13.0934C207.945 13.2016 207.632 13.2918 207.271 13.3639C206.911 13.436 206.592 13.4721 206.315 13.4721C205.702 13.4721 205.215 13.2978 204.855 12.9491C204.506 12.6004 204.332 12.1135 204.332 11.4883V0.180658ZM209.492 0.180658H211.079V10.9112C211.079 11.4282 211.151 11.7468 211.295 11.867C211.44 11.9873 211.614 12.0474 211.818 12.0474C212.071 12.0474 212.311 12.0233 212.54 11.9752C212.768 11.9151 212.961 11.855 213.117 11.7949L213.369 13.0934C213.105 13.2016 212.792 13.2918 212.432 13.3639C212.071 13.436 211.752 13.4721 211.476 13.4721C210.863 13.4721 210.376 13.2978 210.015 12.9491C209.666 12.6004 209.492 12.1135 209.492 11.4883V0.180658ZM218.782 13.5262C218.073 13.5262 217.423 13.4 216.834 13.1475C216.257 12.883 215.752 12.5283 215.319 12.0834C214.899 11.6266 214.568 11.1036 214.328 10.5144C214.099 9.92531 213.985 9.30012 213.985 8.63885C213.985 7.74915 214.189 6.93759 214.598 6.20419C215.007 5.47079 215.572 4.88166 216.293 4.43681C217.027 3.99195 217.862 3.76953 218.8 3.76953C219.75 3.76953 220.574 3.99797 221.271 4.45484C221.98 4.89969 222.527 5.48882 222.912 6.22222C223.309 6.94361 223.507 7.7251 223.507 8.56671C223.507 8.68694 223.501 8.80717 223.489 8.9274C223.489 9.03561 223.483 9.11977 223.471 9.17989H215.662C215.71 9.79306 215.879 10.3401 216.167 10.821C216.468 11.2899 216.852 11.6626 217.321 11.9392C217.79 12.2037 218.295 12.3359 218.836 12.3359C219.413 12.3359 219.954 12.1917 220.459 11.9031C220.976 11.6145 221.331 11.2358 221.523 10.7669L222.894 11.1456C222.69 11.6025 222.383 12.0113 221.974 12.372C221.577 12.7327 221.103 13.0152 220.549 13.2196C220.008 13.424 219.419 13.5262 218.782 13.5262ZM215.608 8.07978H222.028C221.98 7.46661 221.806 6.92557 221.505 6.45667C221.205 5.98778 220.82 5.62107 220.351 5.35657C219.882 5.09206 219.365 4.95981 218.8 4.95981C218.247 4.95981 217.736 5.09206 217.267 5.35657C216.798 5.62107 216.414 5.98778 216.113 6.45667C215.824 6.92557 215.656 7.46661 215.608 8.07978ZM224.658 8.65689C224.658 7.76718 224.838 6.95563 225.199 6.22222C225.572 5.4768 226.077 4.88166 226.714 4.43681C227.363 3.99195 228.103 3.76953 228.932 3.76953C229.69 3.76953 230.369 3.96791 230.97 4.36467C231.571 4.76143 232.04 5.24235 232.377 5.80743V0.180658H233.964V11.5424C233.964 11.7348 234 11.8791 234.072 11.9752C234.156 12.0594 234.289 12.1075 234.469 12.1195V13.3459C234.168 13.394 233.934 13.418 233.766 13.418C233.453 13.418 233.176 13.3098 232.936 13.0934C232.708 12.877 232.593 12.6365 232.593 12.372V11.5785C232.221 12.1796 231.722 12.6545 231.096 13.0032C230.471 13.3519 229.822 13.5262 229.149 13.5262C228.499 13.5262 227.898 13.4 227.345 13.1475C226.804 12.883 226.329 12.5223 225.921 12.0654C225.524 11.6085 225.211 11.0915 224.983 10.5144C224.766 9.92531 224.658 9.30613 224.658 8.65689ZM232.377 10.0455V7.34036C232.233 6.93158 231.998 6.56488 231.674 6.24026C231.349 5.90361 230.982 5.63911 230.573 5.44674C230.177 5.24235 229.78 5.14015 229.383 5.14015C228.914 5.14015 228.487 5.24235 228.103 5.44674C227.73 5.63911 227.405 5.90361 227.129 6.24026C226.864 6.56488 226.66 6.93759 226.516 7.3584C226.371 7.7792 226.299 8.21805 226.299 8.67492C226.299 9.14382 226.377 9.58867 226.534 10.0095C226.702 10.4303 226.93 10.803 227.219 11.1276C227.52 11.4522 227.862 11.7047 228.247 11.8851C228.644 12.0654 229.071 12.1556 229.527 12.1556C229.816 12.1556 230.111 12.1015 230.411 11.9933C230.724 11.8851 231.018 11.7348 231.295 11.5424C231.571 11.35 231.806 11.1276 231.998 10.8751C232.191 10.6106 232.317 10.3341 232.377 10.0455ZM240.435 10.6226C240.435 10.0215 240.604 9.50451 240.94 9.07168C241.289 8.62683 241.764 8.28417 242.365 8.04371C242.966 7.80325 243.664 7.68302 244.457 7.68302C244.878 7.68302 245.323 7.71909 245.792 7.79123C246.261 7.85134 246.675 7.94753 247.036 8.07978V7.39447C247.036 6.67309 246.82 6.10801 246.387 5.69922C245.954 5.27842 245.341 5.06801 244.547 5.06801C244.03 5.06801 243.531 5.1642 243.05 5.35657C242.581 5.53691 242.083 5.80142 241.553 6.15009L240.976 5.03195C241.59 4.61114 242.203 4.29854 242.816 4.09415C243.429 3.87774 244.066 3.76953 244.728 3.76953C245.93 3.76953 246.88 4.10617 247.577 4.77946C248.274 5.44073 248.623 6.3665 248.623 7.55678V11.5424C248.623 11.7348 248.659 11.8791 248.731 11.9752C248.815 12.0594 248.948 12.1075 249.128 12.1195V13.3459C248.972 13.3699 248.833 13.3879 248.713 13.4C248.605 13.412 248.515 13.418 248.443 13.418C248.07 13.418 247.787 13.3158 247.595 13.1114C247.415 12.907 247.313 12.6906 247.288 12.4622L247.252 11.867C246.844 12.396 246.309 12.8048 245.647 13.0934C244.986 13.3819 244.331 13.5262 243.682 13.5262C243.056 13.5262 242.497 13.4 242.004 13.1475C241.511 12.883 241.127 12.5343 240.85 12.1015C240.574 11.6566 240.435 11.1637 240.435 10.6226ZM246.567 11.2899C246.711 11.1216 246.826 10.9533 246.91 10.785C246.994 10.6046 247.036 10.4543 247.036 10.3341V9.16185C246.663 9.01758 246.273 8.90937 245.864 8.83723C245.455 8.75307 245.052 8.71099 244.655 8.71099C243.85 8.71099 243.195 8.8733 242.69 9.19792C242.197 9.51052 241.95 9.94335 241.95 10.4964C241.95 10.797 242.028 11.0915 242.185 11.3801C242.353 11.6566 242.593 11.8851 242.906 12.0654C243.231 12.2458 243.627 12.3359 244.096 12.3359C244.589 12.3359 245.058 12.2397 245.503 12.0474C245.948 11.843 246.303 11.5905 246.567 11.2899ZM254.389 13.5262C253.607 13.5262 252.874 13.4 252.189 13.1475C251.503 12.883 250.914 12.4922 250.421 11.9752L251.034 10.8571C251.575 11.3621 252.117 11.7228 252.658 11.9392C253.199 12.1556 253.752 12.2638 254.317 12.2638C254.966 12.2638 255.495 12.1436 255.904 11.9031C256.313 11.6506 256.517 11.2839 256.517 10.803C256.517 10.4543 256.409 10.1958 256.192 10.0275C255.988 9.85919 255.693 9.72092 255.309 9.61271C254.924 9.49248 254.467 9.36023 253.938 9.21596C253.289 9.02359 252.742 8.8192 252.297 8.60278C251.852 8.38637 251.515 8.11585 251.287 7.79123C251.058 7.46661 250.944 7.05782 250.944 6.56488C250.944 5.96373 251.101 5.45876 251.413 5.04998C251.726 4.62917 252.153 4.31056 252.694 4.09415C253.247 3.87774 253.872 3.76953 254.569 3.76953C255.267 3.76953 255.898 3.87774 256.463 4.09415C257.028 4.31056 257.515 4.62917 257.924 5.04998L257.202 6.15009C256.83 5.76535 256.421 5.48281 255.976 5.30246C255.531 5.1101 255.032 5.01391 254.479 5.01391C254.154 5.01391 253.836 5.05599 253.523 5.14015C253.211 5.21229 252.952 5.35056 252.748 5.55495C252.543 5.74732 252.441 6.02384 252.441 6.38454C252.441 6.68511 252.519 6.92557 252.676 7.10592C252.844 7.27424 253.084 7.41851 253.397 7.53874C253.722 7.65897 254.112 7.79123 254.569 7.9355C255.279 8.1399 255.892 8.34429 256.409 8.54868C256.938 8.75307 257.347 9.01758 257.635 9.3422C257.924 9.66682 258.068 10.1177 258.068 10.6948C258.068 11.5845 257.731 12.2818 257.058 12.7868C256.385 13.2797 255.495 13.5262 254.389 13.5262ZM267.756 13.5262C266.975 13.5262 266.241 13.4 265.556 13.1475C264.871 12.883 264.282 12.4922 263.789 11.9752L264.402 10.8571C264.943 11.3621 265.484 11.7228 266.025 11.9392C266.566 12.1556 267.119 12.2638 267.684 12.2638C268.333 12.2638 268.862 12.1436 269.271 11.9031C269.68 11.6506 269.884 11.2839 269.884 10.803C269.884 10.4543 269.776 10.1958 269.56 10.0275C269.355 9.85919 269.061 9.72092 268.676 9.61271C268.291 9.49248 267.834 9.36023 267.305 9.21596C266.656 9.02359 266.109 8.8192 265.664 8.60278C265.219 8.38637 264.883 8.11585 264.654 7.79123C264.426 7.46661 264.312 7.05782 264.312 6.56488C264.312 5.96373 264.468 5.45876 264.781 5.04998C265.093 4.62917 265.52 4.31056 266.061 4.09415C266.614 3.87774 267.239 3.76953 267.937 3.76953C268.634 3.76953 269.265 3.87774 269.83 4.09415C270.395 4.31056 270.882 4.62917 271.291 5.04998L270.57 6.15009C270.197 5.76535 269.788 5.48281 269.343 5.30246C268.898 5.1101 268.399 5.01391 267.846 5.01391C267.522 5.01391 267.203 5.05599 266.891 5.14015C266.578 5.21229 266.319 5.35056 266.115 5.55495C265.911 5.74732 265.809 6.02384 265.809 6.38454C265.809 6.68511 265.887 6.92557 266.043 7.10592C266.211 7.27424 266.452 7.41851 266.764 7.53874C267.089 7.65897 267.48 7.79123 267.937 7.9355C268.646 8.1399 269.259 8.34429 269.776 8.54868C270.305 8.75307 270.714 9.01758 271.002 9.3422C271.291 9.66682 271.435 10.1177 271.435 10.6948C271.435 11.5845 271.099 12.2818 270.425 12.7868C269.752 13.2797 268.862 13.5262 267.756 13.5262ZM277.446 13.5262C276.737 13.5262 276.093 13.4 275.516 13.1475C274.939 12.883 274.44 12.5283 274.019 12.0834C273.598 11.6266 273.274 11.1036 273.045 10.5144C272.817 9.92531 272.703 9.30613 272.703 8.65689C272.703 7.99562 272.817 7.37042 273.045 6.78129C273.274 6.19217 273.598 5.67518 274.019 5.23033C274.44 4.77345 274.939 4.41877 275.516 4.16629C276.105 3.90178 276.749 3.76953 277.446 3.76953C278.155 3.76953 278.798 3.90178 279.376 4.16629C279.953 4.41877 280.452 4.77345 280.872 5.23033C281.305 5.67518 281.636 6.19217 281.864 6.78129C282.093 7.37042 282.207 7.99562 282.207 8.65689C282.207 9.30613 282.093 9.92531 281.864 10.5144C281.636 11.1036 281.311 11.6266 280.89 12.0834C280.47 12.5283 279.965 12.883 279.376 13.1475C278.798 13.4 278.155 13.5262 277.446 13.5262ZM274.326 8.67492C274.326 9.32416 274.464 9.91329 274.741 10.4423C275.029 10.9713 275.408 11.3921 275.877 11.7047C276.346 12.0053 276.869 12.1556 277.446 12.1556C278.023 12.1556 278.546 11.9993 279.015 11.6867C279.496 11.3741 279.875 10.9533 280.151 10.4243C280.44 9.88323 280.584 9.28809 280.584 8.63885C280.584 7.98961 280.44 7.40048 280.151 6.87147C279.875 6.34245 279.496 5.92165 279.015 5.60905C278.546 5.29645 278.023 5.14015 277.446 5.14015C276.869 5.14015 276.346 5.30246 275.877 5.62708C275.408 5.93968 275.029 6.36049 274.741 6.8895C274.464 7.41851 274.326 8.01365 274.326 8.67492ZM288.242 13.5262C287.533 13.5262 286.889 13.4 286.312 13.1475C285.735 12.883 285.236 12.5283 284.815 12.0834C284.395 11.6266 284.07 11.1036 283.841 10.5144C283.613 9.92531 283.499 9.30613 283.499 8.65689C283.499 7.99562 283.613 7.37042 283.841 6.78129C284.07 6.19217 284.395 5.67518 284.815 5.23033C285.236 4.77345 285.735 4.41877 286.312 4.16629C286.901 3.90178 287.545 3.76953 288.242 3.76953C288.951 3.76953 289.595 3.90178 290.172 4.16629C290.749 4.41877 291.248 4.77345 291.668 5.23033C292.101 5.67518 292.432 6.19217 292.66 6.78129C292.889 7.37042 293.003 7.99562 293.003 8.65689C293.003 9.30613 292.889 9.92531 292.66 10.5144C292.432 11.1036 292.107 11.6266 291.687 12.0834C291.266 12.5283 290.761 12.883 290.172 13.1475C289.595 13.4 288.951 13.5262 288.242 13.5262ZM285.122 8.67492C285.122 9.32416 285.26 9.91329 285.537 10.4423C285.825 10.9713 286.204 11.3921 286.673 11.7047C287.142 12.0053 287.665 12.1556 288.242 12.1556C288.819 12.1556 289.342 11.9993 289.811 11.6867C290.292 11.3741 290.671 10.9533 290.947 10.4243C291.236 9.88323 291.38 9.28809 291.38 8.63885C291.38 7.98961 291.236 7.40048 290.947 6.87147C290.671 6.34245 290.292 5.92165 289.811 5.60905C289.342 5.29645 288.819 5.14015 288.242 5.14015C287.665 5.14015 287.142 5.30246 286.673 5.62708C286.204 5.93968 285.825 6.36049 285.537 6.8895C285.26 7.41851 285.122 8.01365 285.122 8.67492ZM303.096 13.3459H301.509V8.07978C301.509 7.08187 301.352 6.35448 301.04 5.8976C300.739 5.4287 300.276 5.19426 299.651 5.19426C299.218 5.19426 298.785 5.30246 298.353 5.51888C297.932 5.73529 297.553 6.02986 297.216 6.40257C296.892 6.76326 296.657 7.18407 296.513 7.66499V13.3459H294.926V3.93184H296.369V5.95171C296.621 5.50685 296.946 5.12212 297.343 4.7975C297.739 4.47287 298.19 4.22039 298.695 4.04005C299.2 3.8597 299.729 3.76953 300.282 3.76953C300.823 3.76953 301.274 3.87172 301.635 4.07612C302.008 4.26848 302.296 4.54501 302.501 4.9057C302.717 5.25437 302.867 5.66917 302.951 6.15009C303.048 6.63101 303.096 7.15401 303.096 7.71909V13.3459ZM309.386 10.6226C309.386 10.0215 309.554 9.50451 309.891 9.07168C310.239 8.62683 310.714 8.28417 311.315 8.04371C311.917 7.80325 312.614 7.68302 313.407 7.68302C313.828 7.68302 314.273 7.71909 314.742 7.79123C315.211 7.85134 315.626 7.94753 315.986 8.07978V7.39447C315.986 6.67309 315.77 6.10801 315.337 5.69922C314.904 5.27842 314.291 5.06801 313.498 5.06801C312.981 5.06801 312.482 5.1642 312.001 5.35657C311.532 5.53691 311.033 5.80142 310.504 6.15009L309.927 5.03195C310.54 4.61114 311.153 4.29854 311.766 4.09415C312.379 3.87774 313.017 3.76953 313.678 3.76953C314.88 3.76953 315.83 4.10617 316.527 4.77946C317.225 5.44073 317.573 6.3665 317.573 7.55678V11.5424C317.573 11.7348 317.609 11.8791 317.682 11.9752C317.766 12.0594 317.898 12.1075 318.078 12.1195V13.3459C317.922 13.3699 317.784 13.3879 317.664 13.4C317.555 13.412 317.465 13.418 317.393 13.418C317.02 13.418 316.738 13.3158 316.545 13.1114C316.365 12.907 316.263 12.6906 316.239 12.4622L316.203 11.867C315.794 12.396 315.259 12.8048 314.598 13.0934C313.936 13.3819 313.281 13.5262 312.632 13.5262C312.007 13.5262 311.448 13.4 310.955 13.1475C310.462 12.883 310.077 12.5343 309.801 12.1015C309.524 11.6566 309.386 11.1637 309.386 10.6226ZM315.517 11.2899C315.662 11.1216 315.776 10.9533 315.86 10.785C315.944 10.6046 315.986 10.4543 315.986 10.3341V9.16185C315.614 9.01758 315.223 8.90937 314.814 8.83723C314.405 8.75307 314.003 8.71099 313.606 8.71099C312.8 8.71099 312.145 8.8733 311.64 9.19792C311.147 9.51052 310.901 9.94335 310.901 10.4964C310.901 10.797 310.979 11.0915 311.135 11.3801C311.303 11.6566 311.544 11.8851 311.856 12.0654C312.181 12.2458 312.578 12.3359 313.047 12.3359C313.54 12.3359 314.009 12.2397 314.453 12.0474C314.898 11.843 315.253 11.5905 315.517 11.2899ZM323.339 13.5262C322.558 13.5262 321.824 13.4 321.139 13.1475C320.454 12.883 319.865 12.4922 319.372 11.9752L319.985 10.8571C320.526 11.3621 321.067 11.7228 321.608 11.9392C322.149 12.1556 322.702 12.2638 323.267 12.2638C323.916 12.2638 324.445 12.1436 324.854 11.9031C325.263 11.6506 325.467 11.2839 325.467 10.803C325.467 10.4543 325.359 10.1958 325.143 10.0275C324.938 9.85919 324.644 9.72092 324.259 9.61271C323.874 9.49248 323.417 9.36023 322.888 9.21596C322.239 9.02359 321.692 8.8192 321.247 8.60278C320.802 8.38637 320.466 8.11585 320.237 7.79123C320.009 7.46661 319.895 7.05782 319.895 6.56488C319.895 5.96373 320.051 5.45876 320.364 5.04998C320.676 4.62917 321.103 4.31056 321.644 4.09415C322.197 3.87774 322.822 3.76953 323.52 3.76953C324.217 3.76953 324.848 3.87774 325.413 4.09415C325.978 4.31056 326.465 4.62917 326.874 5.04998L326.153 6.15009C325.78 5.76535 325.371 5.48281 324.926 5.30246C324.481 5.1101 323.982 5.01391 323.429 5.01391C323.105 5.01391 322.786 5.05599 322.474 5.14015C322.161 5.21229 321.902 5.35056 321.698 5.55495C321.494 5.74732 321.391 6.02384 321.391 6.38454C321.391 6.68511 321.47 6.92557 321.626 7.10592C321.794 7.27424 322.035 7.41851 322.347 7.53874C322.672 7.65897 323.063 7.79123 323.52 7.9355C324.229 8.1399 324.842 8.34429 325.359 8.54868C325.888 8.75307 326.297 9.01758 326.585 9.3422C326.874 9.66682 327.018 10.1177 327.018 10.6948C327.018 11.5845 326.682 12.2818 326.008 12.7868C325.335 13.2797 324.445 13.5262 323.339 13.5262ZM333.478 13.3459V3.93184H335.065V13.3459H333.478ZM333.478 2.16446V0.180658H335.065V2.16446H333.478ZM342.504 12.877C342.372 12.9371 342.192 13.0152 341.963 13.1114C341.735 13.2076 341.47 13.2918 341.17 13.3639C340.869 13.436 340.55 13.4721 340.214 13.4721C339.829 13.4721 339.474 13.406 339.15 13.2737C338.825 13.1294 338.567 12.913 338.374 12.6245C338.182 12.3239 338.086 11.9512 338.086 11.5063V5.17622H336.805V3.93184H338.086V0.793832H339.673V3.93184H341.783V5.17622H339.673V11.0194C339.697 11.3561 339.811 11.6085 340.015 11.7769C340.22 11.9332 340.46 12.0113 340.737 12.0113C341.049 12.0113 341.338 11.9572 341.602 11.849C341.867 11.7408 342.041 11.6626 342.125 11.6145L342.504 12.877ZM352.703 13.5262C351.993 13.5262 351.344 13.4 350.755 13.1475C350.178 12.883 349.673 12.5223 349.24 12.0654C348.819 11.6085 348.488 11.0855 348.248 10.4964C348.02 9.90728 347.905 9.28208 347.905 8.62082C347.905 7.73111 348.104 6.91956 348.5 6.18616C348.897 5.45275 349.456 4.86963 350.178 4.43681C350.899 3.99195 351.735 3.76953 352.684 3.76953C353.61 3.76953 354.416 3.97993 355.101 4.40074C355.798 4.80952 356.315 5.36258 356.652 6.05991L355.101 6.54685C354.861 6.10199 354.524 5.75934 354.091 5.51888C353.658 5.26639 353.177 5.14015 352.648 5.14015C352.071 5.14015 351.542 5.29044 351.061 5.59102C350.592 5.89159 350.22 6.30639 349.943 6.8354C349.667 7.35239 349.528 7.94753 349.528 8.62082C349.528 9.28208 349.667 9.88323 349.943 10.4243C350.232 10.9533 350.611 11.3741 351.079 11.6867C351.56 11.9993 352.089 12.1556 352.666 12.1556C353.039 12.1556 353.394 12.0895 353.73 11.9572C354.079 11.825 354.38 11.6506 354.632 11.4342C354.897 11.2058 355.077 10.9593 355.173 10.6948L356.724 11.1637C356.532 11.6206 356.237 12.0293 355.841 12.39C355.456 12.7387 354.993 13.0152 354.452 13.2196C353.923 13.424 353.34 13.5262 352.703 13.5262ZM362.546 13.5262C361.837 13.5262 361.194 13.4 360.617 13.1475C360.039 12.883 359.541 12.5283 359.12 12.0834C358.699 11.6266 358.374 11.1036 358.146 10.5144C357.917 9.92531 357.803 9.30613 357.803 8.65689C357.803 7.99562 357.917 7.37042 358.146 6.78129C358.374 6.19217 358.699 5.67518 359.12 5.23033C359.541 4.77345 360.039 4.41877 360.617 4.16629C361.206 3.90178 361.849 3.76953 362.546 3.76953C363.256 3.76953 363.899 3.90178 364.476 4.16629C365.053 4.41877 365.552 4.77345 365.973 5.23033C366.406 5.67518 366.736 6.19217 366.965 6.78129C367.193 7.37042 367.307 7.99562 367.307 8.65689C367.307 9.30613 367.193 9.92531 366.965 10.5144C366.736 11.1036 366.412 11.6266 365.991 12.0834C365.57 12.5283 365.065 12.883 364.476 13.1475C363.899 13.4 363.256 13.5262 362.546 13.5262ZM359.426 8.67492C359.426 9.32416 359.565 9.91329 359.841 10.4423C360.13 10.9713 360.508 11.3921 360.977 11.7047C361.446 12.0053 361.969 12.1556 362.546 12.1556C363.123 12.1556 363.646 11.9993 364.115 11.6867C364.596 11.3741 364.975 10.9533 365.251 10.4243C365.54 9.88323 365.684 9.28809 365.684 8.63885C365.684 7.98961 365.54 7.40048 365.251 6.87147C364.975 6.34245 364.596 5.92165 364.115 5.60905C363.646 5.29645 363.123 5.14015 362.546 5.14015C361.969 5.14015 361.446 5.30246 360.977 5.62708C360.508 5.93968 360.13 6.36049 359.841 6.8895C359.565 7.41851 359.426 8.01365 359.426 8.67492ZM377.4 13.3459H375.813V8.07978C375.813 7.08187 375.657 6.35448 375.344 5.8976C375.044 5.4287 374.581 5.19426 373.956 5.19426C373.523 5.19426 373.09 5.30246 372.657 5.51888C372.236 5.73529 371.857 6.02986 371.521 6.40257C371.196 6.76326 370.962 7.18407 370.818 7.66499V13.3459H369.23V3.93184H370.673V5.95171C370.926 5.50685 371.25 5.12212 371.647 4.7975C372.044 4.47287 372.495 4.22039 373 4.04005C373.505 3.8597 374.034 3.76953 374.587 3.76953C375.128 3.76953 375.579 3.87172 375.939 4.07612C376.312 4.26848 376.601 4.54501 376.805 4.9057C377.021 5.25437 377.172 5.66917 377.256 6.15009C377.352 6.63101 377.4 7.15401 377.4 7.71909V13.3459ZM380.285 5.17622H379.004V3.93184H380.285V3.73346C380.285 3.26456 380.357 2.8137 380.501 2.38087C380.646 1.93602 380.862 1.53325 381.151 1.17256C381.439 0.811866 381.8 0.529325 382.233 0.324933C382.665 0.10852 383.176 0.000312927 383.766 0.000312927C384.21 0.000312927 384.619 0.0484047 384.992 0.144588C385.365 0.240773 385.695 0.361003 385.984 0.50528C386.284 0.649555 386.531 0.793832 386.723 0.938108L386.038 2.11035C385.81 1.90596 385.497 1.73163 385.1 1.58735C384.715 1.44307 384.301 1.37094 383.856 1.37094C383.399 1.37094 383.02 1.48516 382.72 1.71359C382.431 1.94203 382.215 2.23659 382.07 2.59728C381.938 2.94595 381.872 3.30664 381.872 3.67936V3.93184H386.687V13.3459H385.1V5.17622H381.872V13.3459H380.285V5.17622ZM394.233 5.3205C393.439 5.33252 392.736 5.53691 392.123 5.93367C391.521 6.31841 391.095 6.85343 390.842 7.53874V13.3459H389.255V3.93184H390.734V6.11402C391.059 5.46477 391.485 4.94177 392.014 4.54501C392.555 4.13623 393.121 3.90779 393.71 3.8597C393.83 3.8597 393.932 3.8597 394.016 3.8597C394.1 3.8597 394.173 3.86571 394.233 3.87774V5.3205ZM410 13.3459H408.413V8.07978C408.413 7.09389 408.251 6.3665 407.926 5.8976C407.613 5.4287 407.144 5.19426 406.519 5.19426C405.882 5.19426 405.305 5.4287 404.788 5.8976C404.271 6.35448 403.904 6.94962 403.688 7.68302V13.3459H402.101V8.07978C402.101 7.08187 401.944 6.35448 401.632 5.8976C401.319 5.4287 400.85 5.19426 400.225 5.19426C399.6 5.19426 399.023 5.42269 398.494 5.87957C397.977 6.32442 397.61 6.91956 397.394 7.66499V13.3459H395.807V3.93184H397.249V5.95171C397.634 5.25437 398.133 4.71935 398.746 4.34663C399.36 3.9619 400.051 3.76953 400.82 3.76953C401.602 3.76953 402.227 3.98594 402.696 4.41877C403.165 4.83958 403.453 5.38662 403.562 6.05991C403.982 5.31449 404.493 4.7494 405.095 4.36467C405.696 3.96791 406.381 3.76953 407.15 3.76953C407.691 3.76953 408.142 3.87172 408.503 4.07612C408.876 4.26848 409.17 4.54501 409.387 4.9057C409.603 5.25437 409.759 5.66917 409.856 6.15009C409.952 6.63101 410 7.15401 410 7.71909V13.3459Z" fill="#131313"/>
<mask id="mask0_0_8240" style="mask-type:luminance" maskUnits="userSpaceOnUse" x="0" y="0" width="410" height="14">
<path d="M5.46436 13.436C4.44241 13.436 3.58276 13.2617 2.88543 12.913C2.18809 12.5523 1.62902 12.0714 1.20822 11.4703C0.78741 10.8571 0.480823 10.1658 0.288455 9.3963C0.0960864 8.62683 -9.77898e-05 7.83331 -9.77898e-05 7.01574V0.541348H1.62301V7.01574C1.62301 7.64094 1.68312 8.25411 1.80335 8.85526C1.93561 9.44439 2.14601 9.97341 2.43456 10.4423C2.72312 10.9112 3.11386 11.2839 3.60681 11.5604C4.09975 11.837 4.71293 11.9752 5.44633 11.9752C6.19176 11.9752 6.81094 11.837 7.30389 11.5604C7.79683 11.2719 8.18758 10.8932 8.47613 10.4243C8.76468 9.94335 8.96907 9.40832 9.0893 8.8192C9.22156 8.23007 9.28768 7.62892 9.28768 7.01574V0.541348H10.9108V7.01574C10.9108 7.8814 10.8086 8.70498 10.6042 9.48647C10.4118 10.2559 10.0992 10.9352 9.66641 11.5244C9.23358 12.1135 8.6685 12.5824 7.97116 12.9311C7.28585 13.2677 6.45025 13.436 5.46436 13.436ZM16.5409 13.5262C15.7594 13.5262 15.026 13.4 14.3407 13.1475C13.6554 12.883 13.0663 12.4922 12.5733 11.9752L13.1865 10.8571C13.7276 11.3621 14.2686 11.7228 14.8096 11.9392C15.3507 12.1556 15.9037 12.2638 16.4688 12.2638C17.118 12.2638 17.6471 12.1436 18.0558 11.9031C18.4646 11.6506 18.669 11.2839 18.669 10.803C18.669 10.4543 18.5608 10.1958 18.3444 10.0275C18.14 9.85919 17.8454 9.72092 17.4607 9.61271C17.076 9.49248 16.6191 9.36023 16.0901 9.21596C15.4408 9.02359 14.8938 8.8192 14.4489 8.60278C14.0041 8.38637 13.6674 8.11585 13.439 7.79123C13.2106 7.46661 13.0963 7.05782 13.0963 6.56488C13.0963 5.96373 13.2526 5.45876 13.5652 5.04998C13.8778 4.62917 14.3047 4.31056 14.8457 4.09415C15.3988 3.87774 16.024 3.76953 16.7213 3.76953C17.4186 3.76953 18.0498 3.87774 18.6149 4.09415C19.18 4.31056 19.6669 4.62917 20.0757 5.04998L19.3543 6.15009C18.9816 5.76535 18.5728 5.48281 18.128 5.30246C17.6831 5.1101 17.1842 5.01391 16.6311 5.01391C16.3065 5.01391 15.9879 5.05599 15.6753 5.14015C15.3627 5.21229 15.1042 5.35056 14.8998 5.55495C14.6954 5.74732 14.5932 6.02384 14.5932 6.38454C14.5932 6.68511 14.6714 6.92557 14.8277 7.10592C14.996 7.27424 15.2364 7.41851 15.549 7.53874C15.8737 7.65897 16.2644 7.79123 16.7213 7.9355C17.4306 8.1399 18.0438 8.34429 18.5608 8.54868C19.0898 8.75307 19.4986 9.01758 19.7872 9.3422C20.0757 9.66682 20.22 10.1177 20.22 10.6948C20.22 11.5845 19.8833 12.2818 19.2101 12.7868C18.5368 13.2797 17.6471 13.5262 16.5409 13.5262ZM26.2847 13.5262C25.5753 13.5262 24.9261 13.4 24.3369 13.1475C23.7598 12.883 23.2549 12.5283 22.822 12.0834C22.4012 11.6266 22.0706 11.1036 21.8301 10.5144C21.6017 9.92531 21.4875 9.30012 21.4875 8.63885C21.4875 7.74915 21.6919 6.93759 22.1006 6.20419C22.5094 5.47079 23.0745 4.88166 23.7959 4.43681C24.5293 3.99195 25.3649 3.76953 26.3027 3.76953C27.2525 3.76953 28.0761 3.99797 28.7734 4.45484C29.4828 4.89969 30.0298 5.48882 30.4146 6.22222C30.8113 6.94361 31.0097 7.7251 31.0097 8.56671C31.0097 8.68694 31.0037 8.80717 30.9917 8.9274C30.9917 9.03561 30.9857 9.11977 30.9736 9.17989H23.1647C23.2128 9.79306 23.3811 10.3401 23.6697 10.821C23.9702 11.2899 24.355 11.6626 24.8239 11.9392C25.2928 12.2037 25.7977 12.3359 26.3388 12.3359C26.9159 12.3359 27.4569 12.1917 27.9619 11.9031C28.4789 11.6145 28.8335 11.2358 29.0259 10.7669L30.3965 11.1456C30.1921 11.6025 29.8856 12.0113 29.4768 12.372C29.08 12.7327 28.6051 13.0152 28.052 13.2196C27.511 13.424 26.9219 13.5262 26.2847 13.5262ZM23.1106 8.07978H29.5309C29.4828 7.46661 29.3084 6.92557 29.0079 6.45667C28.7073 5.98778 28.3226 5.62107 27.8537 5.35657C27.3848 5.09206 26.8678 4.95981 26.3027 4.95981C25.7496 4.95981 25.2387 5.09206 24.7698 5.35657C24.3009 5.62107 23.9161 5.98778 23.6156 6.45667C23.327 6.92557 23.1587 7.46661 23.1106 8.07978ZM37.7514 5.3205C36.9579 5.33252 36.2545 5.53691 35.6413 5.93367C35.0402 6.31841 34.6134 6.85343 34.3609 7.53874V13.3459H32.7738V3.93184H34.2527V6.11402C34.5773 5.46477 35.0041 4.94177 35.5331 4.54501C36.0742 4.13623 36.6392 3.90779 37.2284 3.8597C37.3486 3.8597 37.4508 3.8597 37.535 3.8597C37.6191 3.8597 37.6913 3.86571 37.7514 3.87774V5.3205ZM54.7481 3.93184H56.281L52.2773 13.3459H50.8887L49.0672 8.90937L47.2637 13.3459H45.8751L41.8714 3.93184H43.3863L46.6325 11.7769L48.1474 7.91747L46.5604 3.94987H47.9491L49.0672 6.94361L50.1853 3.94987H51.574L50.005 7.91747L51.5199 11.7769L54.7481 3.93184ZM57.7651 13.3459V3.93184H59.3521V13.3459H57.7651ZM57.7651 2.16446V0.180658H59.3521V2.16446H57.7651ZM61.9575 0.180658H63.5446V10.9112C63.5446 11.4282 63.6167 11.7468 63.761 11.867C63.9052 11.9873 64.0796 12.0474 64.284 12.0474C64.5365 12.0474 64.7769 12.0233 65.0054 11.9752C65.2338 11.9151 65.4262 11.855 65.5825 11.7949L65.8349 13.0934C65.5704 13.2016 65.2578 13.2918 64.8971 13.3639C64.5365 13.436 64.2178 13.4721 63.9413 13.4721C63.3281 13.4721 62.8412 13.2978 62.4805 12.9491C62.1318 12.6004 61.9575 12.1135 61.9575 11.4883V0.180658ZM67.1178 0.180658H68.7048V10.9112C68.7048 11.4282 68.777 11.7468 68.9212 11.867C69.0655 11.9873 69.2398 12.0474 69.4442 12.0474C69.6967 12.0474 69.9372 12.0233 70.1656 11.9752C70.3941 11.9151 70.5864 11.855 70.7427 11.7949L70.9952 13.0934C70.7307 13.2016 70.4181 13.2918 70.0574 13.3639C69.6967 13.436 69.3781 13.4721 69.1016 13.4721C68.4884 13.4721 68.0015 13.2978 67.6408 12.9491C67.2921 12.6004 67.1178 12.1135 67.1178 11.4883V0.180658ZM81.0907 13.5262C80.3573 13.5262 79.6901 13.3459 79.0889 12.9852C78.4878 12.6245 78.0128 12.1556 77.6642 11.5785V13.3459H76.2575V0.180658H77.8445V5.80743C78.2413 5.19426 78.7282 4.70131 79.3053 4.3286C79.8824 3.95589 80.5557 3.76953 81.3252 3.76953C81.9744 3.76953 82.5575 3.90779 83.0745 4.18432C83.5915 4.44883 84.0304 4.81553 84.3911 5.28443C84.7638 5.7413 85.0463 6.2643 85.2387 6.85343C85.4431 7.43054 85.5453 8.0377 85.5453 8.67492C85.5453 9.33619 85.431 9.96138 85.2026 10.5505C84.9862 11.1276 84.6736 11.6446 84.2648 12.1015C83.856 12.5463 83.3811 12.895 82.8401 13.1475C82.3111 13.4 81.728 13.5262 81.0907 13.5262ZM80.694 12.1556C81.1629 12.1556 81.5957 12.0594 81.9925 11.867C82.3892 11.6747 82.7319 11.4162 83.0204 11.0915C83.309 10.7669 83.5314 10.3942 83.6877 9.97341C83.844 9.5526 83.9222 9.11977 83.9222 8.67492C83.9222 8.06175 83.7899 7.48464 83.5254 6.94361C83.2729 6.40257 82.9122 5.96974 82.4433 5.64512C81.9865 5.30847 81.4514 5.14015 80.8383 5.14015C80.3934 5.14015 79.9786 5.24235 79.5939 5.44674C79.2091 5.65113 78.8665 5.92165 78.5659 6.25829C78.2774 6.58291 78.0369 6.94361 77.8445 7.34036V10.0636C77.9046 10.3642 78.0309 10.6407 78.2232 10.8932C78.4156 11.1456 78.6501 11.3681 78.9266 11.5604C79.2031 11.7408 79.4917 11.8851 79.7923 11.9933C80.1049 12.1015 80.4054 12.1556 80.694 12.1556ZM91.6598 13.5262C90.9505 13.5262 90.3012 13.4 89.7121 13.1475C89.135 12.883 88.63 12.5283 88.1972 12.0834C87.7764 11.6266 87.4457 11.1036 87.2053 10.5144C86.9769 9.92531 86.8626 9.30012 86.8626 8.63885C86.8626 7.74915 87.067 6.93759 87.4758 6.20419C87.8846 5.47079 88.4497 4.88166 89.1711 4.43681C89.9045 3.99195 90.7401 3.76953 91.6778 3.76953C92.6277 3.76953 93.4512 3.99797 94.1486 4.45484C94.8579 4.89969 95.405 5.48882 95.7897 6.22222C96.1865 6.94361 96.3849 7.7251 96.3849 8.56671C96.3849 8.68694 96.3788 8.80717 96.3668 8.9274C96.3668 9.03561 96.3608 9.11977 96.3488 9.17989H88.5398C88.5879 9.79306 88.7563 10.3401 89.0448 10.821C89.3454 11.2899 89.7301 11.6626 90.199 11.9392C90.6679 12.2037 91.1729 12.3359 91.7139 12.3359C92.291 12.3359 92.8321 12.1917 93.337 11.9031C93.854 11.6145 94.2087 11.2358 94.4011 10.7669L95.7717 11.1456C95.5673 11.6025 95.2607 12.0113 94.8519 12.372C94.4552 12.7327 93.9803 13.0152 93.4272 13.2196C92.8862 13.424 92.297 13.5262 91.6598 13.5262ZM88.4857 8.07978H94.906C94.8579 7.46661 94.6836 6.92557 94.383 6.45667C94.0825 5.98778 93.6977 5.62107 93.2288 5.35657C92.7599 5.09206 92.2429 4.95981 91.6778 4.95981C91.1248 4.95981 90.6138 5.09206 90.1449 5.35657C89.676 5.62107 89.2913 5.98778 88.9907 6.45667C88.7022 6.92557 88.5338 7.46661 88.4857 8.07978ZM101.971 10.6226C101.971 10.0215 102.139 9.50451 102.476 9.07168C102.825 8.62683 103.3 8.28417 103.901 8.04371C104.502 7.80325 105.199 7.68302 105.993 7.68302C106.414 7.68302 106.858 7.71909 107.327 7.79123C107.796 7.85134 108.211 7.94753 108.572 8.07978V7.39447C108.572 6.67309 108.355 6.10801 107.922 5.69922C107.49 5.27842 106.876 5.06801 106.083 5.06801C105.566 5.06801 105.067 5.1642 104.586 5.35657C104.117 5.53691 103.618 5.80142 103.089 6.15009L102.512 5.03195C103.125 4.61114 103.738 4.29854 104.352 4.09415C104.965 3.87774 105.602 3.76953 106.263 3.76953C107.466 3.76953 108.415 4.10617 109.113 4.77946C109.81 5.44073 110.159 6.3665 110.159 7.55678V11.5424C110.159 11.7348 110.195 11.8791 110.267 11.9752C110.351 12.0594 110.483 12.1075 110.664 12.1195V13.3459C110.507 13.3699 110.369 13.3879 110.249 13.4C110.141 13.412 110.051 13.418 109.978 13.418C109.606 13.418 109.323 13.3158 109.131 13.1114C108.95 12.907 108.848 12.6906 108.824 12.4622L108.788 11.867C108.379 12.396 107.844 12.8048 107.183 13.0934C106.522 13.3819 105.867 13.5262 105.217 13.5262C104.592 13.5262 104.033 13.4 103.54 13.1475C103.047 12.883 102.662 12.5343 102.386 12.1015C102.109 11.6566 101.971 11.1637 101.971 10.6226ZM108.103 11.2899C108.247 11.1216 108.361 10.9533 108.445 10.785C108.53 10.6046 108.572 10.4543 108.572 10.3341V9.16185C108.199 9.01758 107.808 8.90937 107.399 8.83723C106.991 8.75307 106.588 8.71099 106.191 8.71099C105.386 8.71099 104.73 8.8733 104.225 9.19792C103.732 9.51052 103.486 9.94335 103.486 10.4964C103.486 10.797 103.564 11.0915 103.72 11.3801C103.889 11.6566 104.129 11.8851 104.442 12.0654C104.766 12.2458 105.163 12.3359 105.632 12.3359C106.125 12.3359 106.594 12.2397 107.039 12.0474C107.484 11.843 107.838 11.5905 108.103 11.2899ZM117.53 13.5262C116.796 13.5262 116.129 13.3459 115.528 12.9852C114.927 12.6245 114.452 12.1556 114.103 11.5785V13.3459H112.696V0.180658H114.283V5.80743C114.68 5.19426 115.167 4.70131 115.744 4.3286C116.321 3.95589 116.995 3.76953 117.764 3.76953C118.413 3.76953 118.996 3.90779 119.513 4.18432C120.03 4.44883 120.469 4.81553 120.83 5.28443C121.203 5.7413 121.485 6.2643 121.678 6.85343C121.882 7.43054 121.984 8.0377 121.984 8.67492C121.984 9.33619 121.87 9.96138 121.642 10.5505C121.425 11.1276 121.112 11.6446 120.704 12.1015C120.295 12.5463 119.82 12.895 119.279 13.1475C118.75 13.4 118.167 13.5262 117.53 13.5262ZM117.133 12.1556C117.602 12.1556 118.035 12.0594 118.431 11.867C118.828 11.6747 119.171 11.4162 119.459 11.0915C119.748 10.7669 119.97 10.3942 120.127 9.97341C120.283 9.5526 120.361 9.11977 120.361 8.67492C120.361 8.06175 120.229 7.48464 119.964 6.94361C119.712 6.40257 119.351 5.96974 118.882 5.64512C118.425 5.30847 117.89 5.14015 117.277 5.14015C116.832 5.14015 116.418 5.24235 116.033 5.44674C115.648 5.65113 115.305 5.92165 115.005 6.25829C114.716 6.58291 114.476 6.94361 114.283 7.34036V10.0636C114.344 10.3642 114.47 10.6407 114.662 10.8932C114.855 11.1456 115.089 11.3681 115.365 11.5604C115.642 11.7408 115.931 11.8851 116.231 11.9933C116.544 12.1015 116.844 12.1556 117.133 12.1556ZM123.969 0.180658H125.556V10.9112C125.556 11.4282 125.628 11.7468 125.772 11.867C125.917 11.9873 126.091 12.0474 126.295 12.0474C126.548 12.0474 126.788 12.0233 127.017 11.9752C127.245 11.9151 127.437 11.855 127.594 11.7949L127.846 13.0934C127.582 13.2016 127.269 13.2918 126.908 13.3639C126.548 13.436 126.229 13.4721 125.953 13.4721C125.339 13.4721 124.853 13.2978 124.492 12.9491C124.143 12.6004 123.969 12.1135 123.969 11.4883V0.180658ZM133.259 13.5262C132.55 13.5262 131.9 13.4 131.311 13.1475C130.734 12.883 130.229 12.5283 129.796 12.0834C129.376 11.6266 129.045 11.1036 128.804 10.5144C128.576 9.92531 128.462 9.30012 128.462 8.63885C128.462 7.74915 128.666 6.93759 129.075 6.20419C129.484 5.47079 130.049 4.88166 130.77 4.43681C131.504 3.99195 132.339 3.76953 133.277 3.76953C134.227 3.76953 135.05 3.99797 135.748 4.45484C136.457 4.89969 137.004 5.48882 137.389 6.22222C137.786 6.94361 137.984 7.7251 137.984 8.56671C137.984 8.68694 137.978 8.80717 137.966 8.9274C137.966 9.03561 137.96 9.11977 137.948 9.17989H130.139C130.187 9.79306 130.355 10.3401 130.644 10.821C130.945 11.2899 131.329 11.6626 131.798 11.9392C132.267 12.2037 132.772 12.3359 133.313 12.3359C133.89 12.3359 134.431 12.1917 134.936 11.9031C135.453 11.6145 135.808 11.2358 136 10.7669L137.371 11.1456C137.166 11.6025 136.86 12.0113 136.451 12.372C136.054 12.7327 135.579 13.0152 135.026 13.2196C134.485 13.424 133.896 13.5262 133.259 13.5262ZM130.085 8.07978H136.505C136.457 7.46661 136.283 6.92557 135.982 6.45667C135.682 5.98778 135.297 5.62107 134.828 5.35657C134.359 5.09206 133.842 4.95981 133.277 4.95981C132.724 4.95981 132.213 5.09206 131.744 5.35657C131.275 5.62107 130.89 5.98778 130.59 6.45667C130.301 6.92557 130.133 7.46661 130.085 8.07978ZM149.179 12.877C149.047 12.9371 148.866 13.0152 148.638 13.1114C148.409 13.2076 148.145 13.2918 147.844 13.3639C147.544 13.436 147.225 13.4721 146.889 13.4721C146.504 13.4721 146.149 13.406 145.825 13.2737C145.5 13.1294 145.241 12.913 145.049 12.6245C144.857 12.3239 144.761 11.9512 144.761 11.5063V5.17622H143.48V3.93184H144.761V0.793832H146.348V3.93184H148.458V5.17622H146.348V11.0194C146.372 11.3561 146.486 11.6085 146.69 11.7769C146.895 11.9332 147.135 12.0113 147.412 12.0113C147.724 12.0113 148.013 11.9572 148.277 11.849C148.542 11.7408 148.716 11.6626 148.8 11.6145L149.179 12.877ZM154.638 13.5262C153.929 13.5262 153.286 13.4 152.709 13.1475C152.132 12.883 151.633 12.5283 151.212 12.0834C150.791 11.6266 150.467 11.1036 150.238 10.5144C150.01 9.92531 149.895 9.30613 149.895 8.65689C149.895 7.99562 150.01 7.37042 150.238 6.78129C150.467 6.19217 150.791 5.67518 151.212 5.23033C151.633 4.77345 152.132 4.41877 152.709 4.16629C153.298 3.90178 153.941 3.76953 154.638 3.76953C155.348 3.76953 155.991 3.90178 156.568 4.16629C157.145 4.41877 157.644 4.77345 158.065 5.23033C158.498 5.67518 158.829 6.19217 159.057 6.78129C159.285 7.37042 159.4 7.99562 159.4 8.65689C159.4 9.30613 159.285 9.92531 159.057 10.5144C158.829 11.1036 158.504 11.6266 158.083 12.0834C157.662 12.5283 157.157 12.883 156.568 13.1475C155.991 13.4 155.348 13.5262 154.638 13.5262ZM151.519 8.67492C151.519 9.32416 151.657 9.91329 151.933 10.4423C152.222 10.9713 152.601 11.3921 153.069 11.7047C153.538 12.0053 154.061 12.1556 154.638 12.1556C155.216 12.1556 155.739 11.9993 156.207 11.6867C156.688 11.3741 157.067 10.9533 157.344 10.4243C157.632 9.88323 157.777 9.28809 157.777 8.63885C157.777 7.98961 157.632 7.40048 157.344 6.87147C157.067 6.34245 156.688 5.92165 156.207 5.60905C155.739 5.29645 155.216 5.14015 154.638 5.14015C154.061 5.14015 153.538 5.30246 153.069 5.62708C152.601 5.93968 152.222 6.36049 151.933 6.8895C151.657 7.41851 151.519 8.01365 151.519 8.67492ZM170.05 13.5262C169.341 13.5262 168.692 13.4 168.102 13.1475C167.525 12.883 167.02 12.5283 166.587 12.0834C166.167 11.6266 165.836 11.1036 165.596 10.5144C165.367 9.92531 165.253 9.30012 165.253 8.63885C165.253 7.74915 165.457 6.93759 165.866 6.20419C166.275 5.47079 166.84 4.88166 167.561 4.43681C168.295 3.99195 169.13 3.76953 170.068 3.76953C171.018 3.76953 171.842 3.99797 172.539 4.45484C173.248 4.89969 173.795 5.48882 174.18 6.22222C174.577 6.94361 174.775 7.7251 174.775 8.56671C174.775 8.68694 174.769 8.80717 174.757 8.9274C174.757 9.03561 174.751 9.11977 174.739 9.17989H166.93C166.978 9.79306 167.147 10.3401 167.435 10.821C167.736 11.2899 168.12 11.6626 168.589 11.9392C169.058 12.2037 169.563 12.3359 170.104 12.3359C170.681 12.3359 171.222 12.1917 171.727 11.9031C172.244 11.6145 172.599 11.2358 172.791 10.7669L174.162 11.1456C173.958 11.6025 173.651 12.0113 173.242 12.372C172.845 12.7327 172.371 13.0152 171.818 13.2196C171.276 13.424 170.687 13.5262 170.05 13.5262ZM166.876 8.07978H173.296C173.248 7.46661 173.074 6.92557 172.773 6.45667C172.473 5.98778 172.088 5.62107 171.619 5.35657C171.15 5.09206 170.633 4.95981 170.068 4.95981C169.515 4.95981 169.004 5.09206 168.535 5.35657C168.066 5.62107 167.682 5.98778 167.381 6.45667C167.092 6.92557 166.924 7.46661 166.876 8.07978ZM184.709 13.3459H183.122V8.07978C183.122 7.08187 182.966 6.35448 182.653 5.8976C182.352 5.4287 181.89 5.19426 181.264 5.19426C180.832 5.19426 180.399 5.30246 179.966 5.51888C179.545 5.73529 179.166 6.02986 178.83 6.40257C178.505 6.76326 178.271 7.18407 178.126 7.66499V13.3459H176.539V3.93184H177.982V5.95171C178.235 5.50685 178.559 5.12212 178.956 4.7975C179.353 4.47287 179.804 4.22039 180.309 4.04005C180.813 3.8597 181.343 3.76953 181.896 3.76953C182.437 3.76953 182.887 3.87172 183.248 4.07612C183.621 4.26848 183.909 4.54501 184.114 4.9057C184.33 5.25437 184.481 5.66917 184.565 6.15009C184.661 6.63101 184.709 7.15401 184.709 7.71909V13.3459ZM192.154 5.3205C191.361 5.33252 190.658 5.53691 190.044 5.93367C189.443 6.31841 189.016 6.85343 188.764 7.53874V13.3459H187.177V3.93184H188.656V6.11402C188.98 5.46477 189.407 4.94177 189.936 4.54501C190.477 4.13623 191.042 3.90779 191.631 3.8597C191.752 3.8597 191.854 3.8597 191.938 3.8597C192.022 3.8597 192.094 3.86571 192.154 3.87774V5.3205ZM197.611 13.5262C196.902 13.5262 196.259 13.4 195.682 13.1475C195.105 12.883 194.606 12.5283 194.185 12.0834C193.764 11.6266 193.439 11.1036 193.211 10.5144C192.983 9.92531 192.868 9.30613 192.868 8.65689C192.868 7.99562 192.983 7.37042 193.211 6.78129C193.439 6.19217 193.764 5.67518 194.185 5.23033C194.606 4.77345 195.105 4.41877 195.682 4.16629C196.271 3.90178 196.914 3.76953 197.611 3.76953C198.321 3.76953 198.964 3.90178 199.541 4.16629C200.118 4.41877 200.617 4.77345 201.038 5.23033C201.471 5.67518 201.801 6.19217 202.03 6.78129C202.258 7.37042 202.373 7.99562 202.373 8.65689C202.373 9.30613 202.258 9.92531 202.03 10.5144C201.801 11.1036 201.477 11.6266 201.056 12.0834C200.635 12.5283 200.13 12.883 199.541 13.1475C198.964 13.4 198.321 13.5262 197.611 13.5262ZM194.491 8.67492C194.491 9.32416 194.63 9.91329 194.906 10.4423C195.195 10.9713 195.573 11.3921 196.042 11.7047C196.511 12.0053 197.034 12.1556 197.611 12.1556C198.188 12.1556 198.711 11.9993 199.18 11.6867C199.661 11.3741 200.04 10.9533 200.317 10.4243C200.605 9.88323 200.749 9.28809 200.749 8.63885C200.749 7.98961 200.605 7.40048 200.317 6.87147C200.04 6.34245 199.661 5.92165 199.18 5.60905C198.711 5.29645 198.188 5.14015 197.611 5.14015C197.034 5.14015 196.511 5.30246 196.042 5.62708C195.573 5.93968 195.195 6.36049 194.906 6.8895C194.63 7.41851 194.491 8.01365 194.491 8.67492ZM204.332 0.180658H205.919V10.9112C205.919 11.4282 205.991 11.7468 206.135 11.867C206.279 11.9873 206.454 12.0474 206.658 12.0474C206.911 12.0474 207.151 12.0233 207.379 11.9752C207.608 11.9151 207.8 11.855 207.957 11.7949L208.209 13.0934C207.945 13.2016 207.632 13.2918 207.271 13.3639C206.911 13.436 206.592 13.4721 206.315 13.4721C205.702 13.4721 205.215 13.2978 204.855 12.9491C204.506 12.6004 204.332 12.1135 204.332 11.4883V0.180658ZM209.492 0.180658H211.079V10.9112C211.079 11.4282 211.151 11.7468 211.295 11.867C211.44 11.9873 211.614 12.0474 211.818 12.0474C212.071 12.0474 212.311 12.0233 212.54 11.9752C212.768 11.9151 212.961 11.855 213.117 11.7949L213.369 13.0934C213.105 13.2016 212.792 13.2918 212.432 13.3639C212.071 13.436 211.752 13.4721 211.476 13.4721C210.863 13.4721 210.376 13.2978 210.015 12.9491C209.666 12.6004 209.492 12.1135 209.492 11.4883V0.180658ZM218.782 13.5262C218.073 13.5262 217.423 13.4 216.834 13.1475C216.257 12.883 215.752 12.5283 215.319 12.0834C214.899 11.6266 214.568 11.1036 214.328 10.5144C214.099 9.92531 213.985 9.30012 213.985 8.63885C213.985 7.74915 214.189 6.93759 214.598 6.20419C215.007 5.47079 215.572 4.88166 216.293 4.43681C217.027 3.99195 217.862 3.76953 218.8 3.76953C219.75 3.76953 220.574 3.99797 221.271 4.45484C221.98 4.89969 222.527 5.48882 222.912 6.22222C223.309 6.94361 223.507 7.7251 223.507 8.56671C223.507 8.68694 223.501 8.80717 223.489 8.9274C223.489 9.03561 223.483 9.11977 223.471 9.17989H215.662C215.71 9.79306 215.879 10.3401 216.167 10.821C216.468 11.2899 216.852 11.6626 217.321 11.9392C217.79 12.2037 218.295 12.3359 218.836 12.3359C219.413 12.3359 219.954 12.1917 220.459 11.9031C220.976 11.6145 221.331 11.2358 221.523 10.7669L222.894 11.1456C222.69 11.6025 222.383 12.0113 221.974 12.372C221.577 12.7327 221.103 13.0152 220.549 13.2196C220.008 13.424 219.419 13.5262 218.782 13.5262ZM215.608 8.07978H222.028C221.98 7.46661 221.806 6.92557 221.505 6.45667C221.205 5.98778 220.82 5.62107 220.351 5.35657C219.882 5.09206 219.365 4.95981 218.8 4.95981C218.247 4.95981 217.736 5.09206 217.267 5.35657C216.798 5.62107 216.414 5.98778 216.113 6.45667C215.824 6.92557 215.656 7.46661 215.608 8.07978ZM224.658 8.65689C224.658 7.76718 224.838 6.95563 225.199 6.22222C225.572 5.4768 226.077 4.88166 226.714 4.43681C227.363 3.99195 228.103 3.76953 228.932 3.76953C229.69 3.76953 230.369 3.96791 230.97 4.36467C231.571 4.76143 232.04 5.24235 232.377 5.80743V0.180658H233.964V11.5424C233.964 11.7348 234 11.8791 234.072 11.9752C234.156 12.0594 234.289 12.1075 234.469 12.1195V13.3459C234.168 13.394 233.934 13.418 233.766 13.418C233.453 13.418 233.176 13.3098 232.936 13.0934C232.708 12.877 232.593 12.6365 232.593 12.372V11.5785C232.221 12.1796 231.722 12.6545 231.096 13.0032C230.471 13.3519 229.822 13.5262 229.149 13.5262C228.499 13.5262 227.898 13.4 227.345 13.1475C226.804 12.883 226.329 12.5223 225.921 12.0654C225.524 11.6085 225.211 11.0915 224.983 10.5144C224.766 9.92531 224.658 9.30613 224.658 8.65689ZM232.377 10.0455V7.34036C232.233 6.93158 231.998 6.56488 231.674 6.24026C231.349 5.90361 230.982 5.63911 230.573 5.44674C230.177 5.24235 229.78 5.14015 229.383 5.14015C228.914 5.14015 228.487 5.24235 228.103 5.44674C227.73 5.63911 227.405 5.90361 227.129 6.24026C226.864 6.56488 226.66 6.93759 226.516 7.3584C226.371 7.7792 226.299 8.21805 226.299 8.67492C226.299 9.14382 226.377 9.58867 226.534 10.0095C226.702 10.4303 226.93 10.803 227.219 11.1276C227.52 11.4522 227.862 11.7047 228.247 11.8851C228.644 12.0654 229.071 12.1556 229.527 12.1556C229.816 12.1556 230.111 12.1015 230.411 11.9933C230.724 11.8851 231.018 11.7348 231.295 11.5424C231.571 11.35 231.806 11.1276 231.998 10.8751C232.191 10.6106 232.317 10.3341 232.377 10.0455ZM240.435 10.6226C240.435 10.0215 240.604 9.50451 240.94 9.07168C241.289 8.62683 241.764 8.28417 242.365 8.04371C242.966 7.80325 243.664 7.68302 244.457 7.68302C244.878 7.68302 245.323 7.71909 245.792 7.79123C246.261 7.85134 246.675 7.94753 247.036 8.07978V7.39447C247.036 6.67309 246.82 6.10801 246.387 5.69922C245.954 5.27842 245.341 5.06801 244.547 5.06801C244.03 5.06801 243.531 5.1642 243.05 5.35657C242.581 5.53691 242.083 5.80142 241.553 6.15009L240.976 5.03195C241.59 4.61114 242.203 4.29854 242.816 4.09415C243.429 3.87774 244.066 3.76953 244.728 3.76953C245.93 3.76953 246.88 4.10617 247.577 4.77946C248.274 5.44073 248.623 6.3665 248.623 7.55678V11.5424C248.623 11.7348 248.659 11.8791 248.731 11.9752C248.815 12.0594 248.948 12.1075 249.128 12.1195V13.3459C248.972 13.3699 248.833 13.3879 248.713 13.4C248.605 13.412 248.515 13.418 248.443 13.418C248.07 13.418 247.787 13.3158 247.595 13.1114C247.415 12.907 247.313 12.6906 247.288 12.4622L247.252 11.867C246.844 12.396 246.309 12.8048 245.647 13.0934C244.986 13.3819 244.331 13.5262 243.682 13.5262C243.056 13.5262 242.497 13.4 242.004 13.1475C241.511 12.883 241.127 12.5343 240.85 12.1015C240.574 11.6566 240.435 11.1637 240.435 10.6226ZM246.567 11.2899C246.711 11.1216 246.826 10.9533 246.91 10.785C246.994 10.6046 247.036 10.4543 247.036 10.3341V9.16185C246.663 9.01758 246.273 8.90937 245.864 8.83723C245.455 8.75307 245.052 8.71099 244.655 8.71099C243.85 8.71099 243.195 8.8733 242.69 9.19792C242.197 9.51052 241.95 9.94335 241.95 10.4964C241.95 10.797 242.028 11.0915 242.185 11.3801C242.353 11.6566 242.593 11.8851 242.906 12.0654C243.231 12.2458 243.627 12.3359 244.096 12.3359C244.589 12.3359 245.058 12.2397 245.503 12.0474C245.948 11.843 246.303 11.5905 246.567 11.2899ZM254.389 13.5262C253.607 13.5262 252.874 13.4 252.189 13.1475C251.503 12.883 250.914 12.4922 250.421 11.9752L251.034 10.8571C251.575 11.3621 252.117 11.7228 252.658 11.9392C253.199 12.1556 253.752 12.2638 254.317 12.2638C254.966 12.2638 255.495 12.1436 255.904 11.9031C256.313 11.6506 256.517 11.2839 256.517 10.803C256.517 10.4543 256.409 10.1958 256.192 10.0275C255.988 9.85919 255.693 9.72092 255.309 9.61271C254.924 9.49248 254.467 9.36023 253.938 9.21596C253.289 9.02359 252.742 8.8192 252.297 8.60278C251.852 8.38637 251.515 8.11585 251.287 7.79123C251.058 7.46661 250.944 7.05782 250.944 6.56488C250.944 5.96373 251.101 5.45876 251.413 5.04998C251.726 4.62917 252.153 4.31056 252.694 4.09415C253.247 3.87774 253.872 3.76953 254.569 3.76953C255.267 3.76953 255.898 3.87774 256.463 4.09415C257.028 4.31056 257.515 4.62917 257.924 5.04998L257.202 6.15009C256.83 5.76535 256.421 5.48281 255.976 5.30246C255.531 5.1101 255.032 5.01391 254.479 5.01391C254.154 5.01391 253.836 5.05599 253.523 5.14015C253.211 5.21229 252.952 5.35056 252.748 5.55495C252.543 5.74732 252.441 6.02384 252.441 6.38454C252.441 6.68511 252.519 6.92557 252.676 7.10592C252.844 7.27424 253.084 7.41851 253.397 7.53874C253.722 7.65897 254.112 7.79123 254.569 7.9355C255.279 8.1399 255.892 8.34429 256.409 8.54868C256.938 8.75307 257.347 9.01758 257.635 9.3422C257.924 9.66682 258.068 10.1177 258.068 10.6948C258.068 11.5845 257.731 12.2818 257.058 12.7868C256.385 13.2797 255.495 13.5262 254.389 13.5262ZM267.756 13.5262C266.975 13.5262 266.241 13.4 265.556 13.1475C264.871 12.883 264.282 12.4922 263.789 11.9752L264.402 10.8571C264.943 11.3621 265.484 11.7228 266.025 11.9392C266.566 12.1556 267.119 12.2638 267.684 12.2638C268.333 12.2638 268.862 12.1436 269.271 11.9031C269.68 11.6506 269.884 11.2839 269.884 10.803C269.884 10.4543 269.776 10.1958 269.56 10.0275C269.355 9.85919 269.061 9.72092 268.676 9.61271C268.291 9.49248 267.834 9.36023 267.305 9.21596C266.656 9.02359 266.109 8.8192 265.664 8.60278C265.219 8.38637 264.883 8.11585 264.654 7.79123C264.426 7.46661 264.312 7.05782 264.312 6.56488C264.312 5.96373 264.468 5.45876 264.781 5.04998C265.093 4.62917 265.52 4.31056 266.061 4.09415C266.614 3.87774 267.239 3.76953 267.937 3.76953C268.634 3.76953 269.265 3.87774 269.83 4.09415C270.395 4.31056 270.882 4.62917 271.291 5.04998L270.57 6.15009C270.197 5.76535 269.788 5.48281 269.343 5.30246C268.898 5.1101 268.399 5.01391 267.846 5.01391C267.522 5.01391 267.203 5.05599 266.891 5.14015C266.578 5.21229 266.319 5.35056 266.115 5.55495C265.911 5.74732 265.809 6.02384 265.809 6.38454C265.809 6.68511 265.887 6.92557 266.043 7.10592C266.211 7.27424 266.452 7.41851 266.764 7.53874C267.089 7.65897 267.48 7.79123 267.937 7.9355C268.646 8.1399 269.259 8.34429 269.776 8.54868C270.305 8.75307 270.714 9.01758 271.002 9.3422C271.291 9.66682 271.435 10.1177 271.435 10.6948C271.435 11.5845 271.099 12.2818 270.425 12.7868C269.752 13.2797 268.862 13.5262 267.756 13.5262ZM277.446 13.5262C276.737 13.5262 276.093 13.4 275.516 13.1475C274.939 12.883 274.44 12.5283 274.019 12.0834C273.598 11.6266 273.274 11.1036 273.045 10.5144C272.817 9.92531 272.703 9.30613 272.703 8.65689C272.703 7.99562 272.817 7.37042 273.045 6.78129C273.274 6.19217 273.598 5.67518 274.019 5.23033C274.44 4.77345 274.939 4.41877 275.516 4.16629C276.105 3.90178 276.749 3.76953 277.446 3.76953C278.155 3.76953 278.798 3.90178 279.376 4.16629C279.953 4.41877 280.452 4.77345 280.872 5.23033C281.305 5.67518 281.636 6.19217 281.864 6.78129C282.093 7.37042 282.207 7.99562 282.207 8.65689C282.207 9.30613 282.093 9.92531 281.864 10.5144C281.636 11.1036 281.311 11.6266 280.89 12.0834C280.47 12.5283 279.965 12.883 279.376 13.1475C278.798 13.4 278.155 13.5262 277.446 13.5262ZM274.326 8.67492C274.326 9.32416 274.464 9.91329 274.741 10.4423C275.029 10.9713 275.408 11.3921 275.877 11.7047C276.346 12.0053 276.869 12.1556 277.446 12.1556C278.023 12.1556 278.546 11.9993 279.015 11.6867C279.496 11.3741 279.875 10.9533 280.151 10.4243C280.44 9.88323 280.584 9.28809 280.584 8.63885C280.584 7.98961 280.44 7.40048 280.151 6.87147C279.875 6.34245 279.496 5.92165 279.015 5.60905C278.546 5.29645 278.023 5.14015 277.446 5.14015C276.869 5.14015 276.346 5.30246 275.877 5.62708C275.408 5.93968 275.029 6.36049 274.741 6.8895C274.464 7.41851 274.326 8.01365 274.326 8.67492ZM288.242 13.5262C287.533 13.5262 286.889 13.4 286.312 13.1475C285.735 12.883 285.236 12.5283 284.815 12.0834C284.395 11.6266 284.07 11.1036 283.841 10.5144C283.613 9.92531 283.499 9.30613 283.499 8.65689C283.499 7.99562 283.613 7.37042 283.841 6.78129C284.07 6.19217 284.395 5.67518 284.815 5.23033C285.236 4.77345 285.735 4.41877 286.312 4.16629C286.901 3.90178 287.545 3.76953 288.242 3.76953C288.951 3.76953 289.595 3.90178 290.172 4.16629C290.749 4.41877 291.248 4.77345 291.668 5.23033C292.101 5.67518 292.432 6.19217 292.66 6.78129C292.889 7.37042 293.003 7.99562 293.003 8.65689C293.003 9.30613 292.889 9.92531 292.66 10.5144C292.432 11.1036 292.107 11.6266 291.687 12.0834C291.266 12.5283 290.761 12.883 290.172 13.1475C289.595 13.4 288.951 13.5262 288.242 13.5262ZM285.122 8.67492C285.122 9.32416 285.26 9.91329 285.537 10.4423C285.825 10.9713 286.204 11.3921 286.673 11.7047C287.142 12.0053 287.665 12.1556 288.242 12.1556C288.819 12.1556 289.342 11.9993 289.811 11.6867C290.292 11.3741 290.671 10.9533 290.947 10.4243C291.236 9.88323 291.38 9.28809 291.38 8.63885C291.38 7.98961 291.236 7.40048 290.947 6.87147C290.671 6.34245 290.292 5.92165 289.811 5.60905C289.342 5.29645 288.819 5.14015 288.242 5.14015C287.665 5.14015 287.142 5.30246 286.673 5.62708C286.204 5.93968 285.825 6.36049 285.537 6.8895C285.26 7.41851 285.122 8.01365 285.122 8.67492ZM303.096 13.3459H301.509V8.07978C301.509 7.08187 301.352 6.35448 301.04 5.8976C300.739 5.4287 300.276 5.19426 299.651 5.19426C299.218 5.19426 298.785 5.30246 298.353 5.51888C297.932 5.73529 297.553 6.02986 297.216 6.40257C296.892 6.76326 296.657 7.18407 296.513 7.66499V13.3459H294.926V3.93184H296.369V5.95171C296.621 5.50685 296.946 5.12212 297.343 4.7975C297.739 4.47287 298.19 4.22039 298.695 4.04005C299.2 3.8597 299.729 3.76953 300.282 3.76953C300.823 3.76953 301.274 3.87172 301.635 4.07612C302.008 4.26848 302.296 4.54501 302.501 4.9057C302.717 5.25437 302.867 5.66917 302.951 6.15009C303.048 6.63101 303.096 7.15401 303.096 7.71909V13.3459ZM309.386 10.6226C309.386 10.0215 309.554 9.50451 309.891 9.07168C310.239 8.62683 310.714 8.28417 311.315 8.04371C311.917 7.80325 312.614 7.68302 313.407 7.68302C313.828 7.68302 314.273 7.71909 314.742 7.79123C315.211 7.85134 315.626 7.94753 315.986 8.07978V7.39447C315.986 6.67309 315.77 6.10801 315.337 5.69922C314.904 5.27842 314.291 5.06801 313.498 5.06801C312.981 5.06801 312.482 5.1642 312.001 5.35657C311.532 5.53691 311.033 5.80142 310.504 6.15009L309.927 5.03195C310.54 4.61114 311.153 4.29854 311.766 4.09415C312.379 3.87774 313.017 3.76953 313.678 3.76953C314.88 3.76953 315.83 4.10617 316.527 4.77946C317.225 5.44073 317.573 6.3665 317.573 7.55678V11.5424C317.573 11.7348 317.609 11.8791 317.682 11.9752C317.766 12.0594 317.898 12.1075 318.078 12.1195V13.3459C317.922 13.3699 317.784 13.3879 317.664 13.4C317.555 13.412 317.465 13.418 317.393 13.418C317.02 13.418 316.738 13.3158 316.545 13.1114C316.365 12.907 316.263 12.6906 316.239 12.4622L316.203 11.867C315.794 12.396 315.259 12.8048 314.598 13.0934C313.936 13.3819 313.281 13.5262 312.632 13.5262C312.007 13.5262 311.448 13.4 310.955 13.1475C310.462 12.883 310.077 12.5343 309.801 12.1015C309.524 11.6566 309.386 11.1637 309.386 10.6226ZM315.517 11.2899C315.662 11.1216 315.776 10.9533 315.86 10.785C315.944 10.6046 315.986 10.4543 315.986 10.3341V9.16185C315.614 9.01758 315.223 8.90937 314.814 8.83723C314.405 8.75307 314.003 8.71099 313.606 8.71099C312.8 8.71099 312.145 8.8733 311.64 9.19792C311.147 9.51052 310.901 9.94335 310.901 10.4964C310.901 10.797 310.979 11.0915 311.135 11.3801C311.303 11.6566 311.544 11.8851 311.856 12.0654C312.181 12.2458 312.578 12.3359 313.047 12.3359C313.54 12.3359 314.009 12.2397 314.453 12.0474C314.898 11.843 315.253 11.5905 315.517 11.2899ZM323.339 13.5262C322.558 13.5262 321.824 13.4 321.139 13.1475C320.454 12.883 319.865 12.4922 319.372 11.9752L319.985 10.8571C320.526 11.3621 321.067 11.7228 321.608 11.9392C322.149 12.1556 322.702 12.2638 323.267 12.2638C323.916 12.2638 324.445 12.1436 324.854 11.9031C325.263 11.6506 325.467 11.2839 325.467 10.803C325.467 10.4543 325.359 10.1958 325.143 10.0275C324.938 9.85919 324.644 9.72092 324.259 9.61271C323.874 9.49248 323.417 9.36023 322.888 9.21596C322.239 9.02359 321.692 8.8192 321.247 8.60278C320.802 8.38637 320.466 8.11585 320.237 7.79123C320.009 7.46661 319.895 7.05782 319.895 6.56488C319.895 5.96373 320.051 5.45876 320.364 5.04998C320.676 4.62917 321.103 4.31056 321.644 4.09415C322.197 3.87774 322.822 3.76953 323.52 3.76953C324.217 3.76953 324.848 3.87774 325.413 4.09415C325.978 4.31056 326.465 4.62917 326.874 5.04998L326.153 6.15009C325.78 5.76535 325.371 5.48281 324.926 5.30246C324.481 5.1101 323.982 5.01391 323.429 5.01391C323.105 5.01391 322.786 5.05599 322.474 5.14015C322.161 5.21229 321.902 5.35056 321.698 5.55495C321.494 5.74732 321.391 6.02384 321.391 6.38454C321.391 6.68511 321.47 6.92557 321.626 7.10592C321.794 7.27424 322.035 7.41851 322.347 7.53874C322.672 7.65897 323.063 7.79123 323.52 7.9355C324.229 8.1399 324.842 8.34429 325.359 8.54868C325.888 8.75307 326.297 9.01758 326.585 9.3422C326.874 9.66682 327.018 10.1177 327.018 10.6948C327.018 11.5845 326.682 12.2818 326.008 12.7868C325.335 13.2797 324.445 13.5262 323.339 13.5262ZM333.478 13.3459V3.93184H335.065V13.3459H333.478ZM333.478 2.16446V0.180658H335.065V2.16446H333.478ZM342.504 12.877C342.372 12.9371 342.192 13.0152 341.963 13.1114C341.735 13.2076 341.47 13.2918 341.17 13.3639C340.869 13.436 340.55 13.4721 340.214 13.4721C339.829 13.4721 339.474 13.406 339.15 13.2737C338.825 13.1294 338.567 12.913 338.374 12.6245C338.182 12.3239 338.086 11.9512 338.086 11.5063V5.17622H336.805V3.93184H338.086V0.793832H339.673V3.93184H341.783V5.17622H339.673V11.0194C339.697 11.3561 339.811 11.6085 340.015 11.7769C340.22 11.9332 340.46 12.0113 340.737 12.0113C341.049 12.0113 341.338 11.9572 341.602 11.849C341.867 11.7408 342.041 11.6626 342.125 11.6145L342.504 12.877ZM352.703 13.5262C351.993 13.5262 351.344 13.4 350.755 13.1475C350.178 12.883 349.673 12.5223 349.24 12.0654C348.819 11.6085 348.488 11.0855 348.248 10.4964C348.02 9.90728 347.905 9.28208 347.905 8.62082C347.905 7.73111 348.104 6.91956 348.5 6.18616C348.897 5.45275 349.456 4.86963 350.178 4.43681C350.899 3.99195 351.735 3.76953 352.684 3.76953C353.61 3.76953 354.416 3.97993 355.101 4.40074C355.798 4.80952 356.315 5.36258 356.652 6.05991L355.101 6.54685C354.861 6.10199 354.524 5.75934 354.091 5.51888C353.658 5.26639 353.177 5.14015 352.648 5.14015C352.071 5.14015 351.542 5.29044 351.061 5.59102C350.592 5.89159 350.22 6.30639 349.943 6.8354C349.667 7.35239 349.528 7.94753 349.528 8.62082C349.528 9.28208 349.667 9.88323 349.943 10.4243C350.232 10.9533 350.611 11.3741 351.079 11.6867C351.56 11.9993 352.089 12.1556 352.666 12.1556C353.039 12.1556 353.394 12.0895 353.73 11.9572C354.079 11.825 354.38 11.6506 354.632 11.4342C354.897 11.2058 355.077 10.9593 355.173 10.6948L356.724 11.1637C356.532 11.6206 356.237 12.0293 355.841 12.39C355.456 12.7387 354.993 13.0152 354.452 13.2196C353.923 13.424 353.34 13.5262 352.703 13.5262ZM362.546 13.5262C361.837 13.5262 361.194 13.4 360.617 13.1475C360.039 12.883 359.541 12.5283 359.12 12.0834C358.699 11.6266 358.374 11.1036 358.146 10.5144C357.917 9.92531 357.803 9.30613 357.803 8.65689C357.803 7.99562 357.917 7.37042 358.146 6.78129C358.374 6.19217 358.699 5.67518 359.12 5.23033C359.541 4.77345 360.039 4.41877 360.617 4.16629C361.206 3.90178 361.849 3.76953 362.546 3.76953C363.256 3.76953 363.899 3.90178 364.476 4.16629C365.053 4.41877 365.552 4.77345 365.973 5.23033C366.406 5.67518 366.736 6.19217 366.965 6.78129C367.193 7.37042 367.307 7.99562 367.307 8.65689C367.307 9.30613 367.193 9.92531 366.965 10.5144C366.736 11.1036 366.412 11.6266 365.991 12.0834C365.57 12.5283 365.065 12.883 364.476 13.1475C363.899 13.4 363.256 13.5262 362.546 13.5262ZM359.426 8.67492C359.426 9.32416 359.565 9.91329 359.841 10.4423C360.13 10.9713 360.508 11.3921 360.977 11.7047C361.446 12.0053 361.969 12.1556 362.546 12.1556C363.123 12.1556 363.646 11.9993 364.115 11.6867C364.596 11.3741 364.975 10.9533 365.251 10.4243C365.54 9.88323 365.684 9.28809 365.684 8.63885C365.684 7.98961 365.54 7.40048 365.251 6.87147C364.975 6.34245 364.596 5.92165 364.115 5.60905C363.646 5.29645 363.123 5.14015 362.546 5.14015C361.969 5.14015 361.446 5.30246 360.977 5.62708C360.508 5.93968 360.13 6.36049 359.841 6.8895C359.565 7.41851 359.426 8.01365 359.426 8.67492ZM377.4 13.3459H375.813V8.07978C375.813 7.08187 375.657 6.35448 375.344 5.8976C375.044 5.4287 374.581 5.19426 373.956 5.19426C373.523 5.19426 373.09 5.30246 372.657 5.51888C372.236 5.73529 371.857 6.02986 371.521 6.40257C371.196 6.76326 370.962 7.18407 370.818 7.66499V13.3459H369.23V3.93184H370.673V5.95171C370.926 5.50685 371.25 5.12212 371.647 4.7975C372.044 4.47287 372.495 4.22039 373 4.04005C373.505 3.8597 374.034 3.76953 374.587 3.76953C375.128 3.76953 375.579 3.87172 375.939 4.07612C376.312 4.26848 376.601 4.54501 376.805 4.9057C377.021 5.25437 377.172 5.66917 377.256 6.15009C377.352 6.63101 377.4 7.15401 377.4 7.71909V13.3459ZM380.285 5.17622H379.004V3.93184H380.285V3.73346C380.285 3.26456 380.357 2.8137 380.501 2.38087C380.646 1.93602 380.862 1.53325 381.151 1.17256C381.439 0.811866 381.8 0.529325 382.233 0.324933C382.665 0.10852 383.176 0.000312927 383.766 0.000312927C384.21 0.000312927 384.619 0.0484047 384.992 0.144588C385.365 0.240773 385.695 0.361003 385.984 0.50528C386.284 0.649555 386.531 0.793832 386.723 0.938108L386.038 2.11035C385.81 1.90596 385.497 1.73163 385.1 1.58735C384.715 1.44307 384.301 1.37094 383.856 1.37094C383.399 1.37094 383.02 1.48516 382.72 1.71359C382.431 1.94203 382.215 2.23659 382.07 2.59728C381.938 2.94595 381.872 3.30664 381.872 3.67936V3.93184H386.687V13.3459H385.1V5.17622H381.872V13.3459H380.285V5.17622ZM394.233 5.3205C393.439 5.33252 392.736 5.53691 392.123 5.93367C391.521 6.31841 391.095 6.85343 390.842 7.53874V13.3459H389.255V3.93184H390.734V6.11402C391.059 5.46477 391.485 4.94177 392.014 4.54501C392.555 4.13623 393.121 3.90779 393.71 3.8597C393.83 3.8597 393.932 3.8597 394.016 3.8597C394.1 3.8597 394.173 3.86571 394.233 3.87774V5.3205ZM410 13.3459H408.413V8.07978C408.413 7.09389 408.251 6.3665 407.926 5.8976C407.613 5.4287 407.144 5.19426 406.519 5.19426C405.882 5.19426 405.305 5.4287 404.788 5.8976C404.271 6.35448 403.904 6.94962 403.688 7.68302V13.3459H402.101V8.07978C402.101 7.08187 401.944 6.35448 401.632 5.8976C401.319 5.4287 400.85 5.19426 400.225 5.19426C399.6 5.19426 399.023 5.42269 398.494 5.87957C397.977 6.32442 397.61 6.91956 397.394 7.66499V13.3459H395.807V3.93184H397.249V5.95171C397.634 5.25437 398.133 4.71935 398.746 4.34663C399.36 3.9619 400.051 3.76953 400.82 3.76953C401.602 3.76953 402.227 3.98594 402.696 4.41877C403.165 4.83958 403.453 5.38662 403.562 6.05991C403.982 5.31449 404.493 4.7494 405.095 4.36467C405.696 3.96791 406.381 3.76953 407.15 3.76953C407.691 3.76953 408.142 3.87172 408.503 4.07612C408.876 4.26848 409.17 4.54501 409.387 4.9057C409.603 5.25437 409.759 5.66917 409.856 6.15009C409.952 6.63101 410 7.15401 410 7.71909V13.3459Z" fill="white"/>
</mask>
<g mask="url(#mask0_0_8240)">
</g>
</svg>
