<svg width="16" height="4" viewBox="0 0 16 4" fill="none" xmlns="http://www.w3.org/2000/svg">
<path d="M0 1.90124C0 1.3603 0.185948 0.908104 0.557845 0.544659C0.938193 0.181215 1.4411 -0.000507132 2.06656 -0.000507132C2.69202 -0.000507132 3.1907 0.181215 3.5626 0.544659C3.94295 0.908104 4.13312 1.3603 4.13312 1.90124C4.13312 2.44218 3.94295 2.89437 3.5626 3.25781C3.1907 3.62126 2.69202 3.80298 2.06656 3.80298C1.4411 3.80298 0.938193 3.62126 0.557845 3.25781C0.185948 2.89437 0 2.44218 0 1.90124ZM5.98415 1.90124C5.98415 1.3603 6.1701 0.908104 6.542 0.544659C6.92235 0.181215 7.42525 -0.000507132 8.05071 -0.000507132C8.67618 -0.000507132 9.17485 0.181215 9.54675 0.544659C9.9271 0.908104 10.1173 1.3603 10.1173 1.90124C10.1173 2.44218 9.9271 2.89437 9.54675 3.25781C9.17485 3.62126 8.67618 3.80298 8.05071 3.80298C7.42525 3.80298 6.92235 3.62126 6.542 3.25781C6.1701 2.89437 5.98415 2.44218 5.98415 1.90124ZM11.8669 1.90124C11.8669 1.3603 12.0528 0.908104 12.4247 0.544659C12.8051 0.181215 13.308 -0.000507132 13.9334 -0.000507132C14.5589 -0.000507132 15.0576 0.181215 15.4295 0.544659C15.8098 0.908104 16 1.3603 16 1.90124C16 2.44218 15.8098 2.89437 15.4295 3.25781C15.0576 3.62126 14.5589 3.80298 13.9334 3.80298C13.308 3.80298 12.8051 3.62126 12.4247 3.25781C12.0528 2.89437 11.8669 2.44218 11.8669 1.90124Z" fill="#454B42"/>
<mask id="mask0_0_8120" style="mask-type:luminance" maskUnits="userSpaceOnUse" x="0" y="0" width="16" height="4">
<path d="M0 1.90124C0 1.3603 0.185948 0.908104 0.557845 0.544659C0.938193 0.181215 1.4411 -0.000507132 2.06656 -0.000507132C2.69202 -0.000507132 3.1907 0.181215 3.5626 0.544659C3.94295 0.908104 4.13312 1.3603 4.13312 1.90124C4.13312 2.44218 3.94295 2.89437 3.5626 3.25781C3.1907 3.62126 2.69202 3.80298 2.06656 3.80298C1.4411 3.80298 0.938193 3.62126 0.557845 3.25781C0.185948 2.89437 0 2.44218 0 1.90124ZM5.98415 1.90124C5.98415 1.3603 6.1701 0.908104 6.542 0.544659C6.92235 0.181215 7.42525 -0.000507132 8.05071 -0.000507132C8.67618 -0.000507132 9.17485 0.181215 9.54675 0.544659C9.9271 0.908104 10.1173 1.3603 10.1173 1.90124C10.1173 2.44218 9.9271 2.89437 9.54675 3.25781C9.17485 3.62126 8.67618 3.80298 8.05071 3.80298C7.42525 3.80298 6.92235 3.62126 6.542 3.25781C6.1701 2.89437 5.98415 2.44218 5.98415 1.90124ZM11.8669 1.90124C11.8669 1.3603 12.0528 0.908104 12.4247 0.544659C12.8051 0.181215 13.308 -0.000507132 13.9334 -0.000507132C14.5589 -0.000507132 15.0576 0.181215 15.4295 0.544659C15.8098 0.908104 16 1.3603 16 1.90124C16 2.44218 15.8098 2.89437 15.4295 3.25781C15.0576 3.62126 14.5589 3.80298 13.9334 3.80298C13.308 3.80298 12.8051 3.62126 12.4247 3.25781C12.0528 2.89437 11.8669 2.44218 11.8669 1.90124Z" fill="white"/>
</mask>
<g mask="url(#mask0_0_8120)">
</g>
</svg>
