<svg width="38" height="41" viewBox="0 0 38 41" fill="none" xmlns="http://www.w3.org/2000/svg">
<mask id="mask0_0_743" style="mask-type:luminance" maskUnits="userSpaceOnUse" x="-3" y="-2" width="43" height="46">
<path fill-rule="evenodd" clip-rule="evenodd" d="M25.7513 3.95674L23.5068 9.00983L28.335 14.624L34.8467 14.0629L39.452 30.232V43.9313H-2.877V-1.28844H26.6086L25.7513 3.95674Z" fill="white"/>
</mask>
<g mask="url(#mask0_0_743)">
<mask id="path-2-outside-1_0_743" maskUnits="userSpaceOnUse" x="0" y="0" width="38.0394" height="41.0425" fill="black">
<rect fill="white" width="38.0394" height="41.0425"/>
<path fill-rule="evenodd" clip-rule="evenodd" d="M18.6592 38.998C21.2857 38.998 23.4162 36.9278 23.4162 34.3735H13.9023C13.9023 36.9278 16.0327 38.998 18.6592 38.998ZM34.676 28.1803C33.2394 26.6802 30.5512 24.4236 30.5512 17.0317C30.5512 11.4172 26.4999 6.92282 21.0373 5.82017V4.31432C21.0373 3.03753 19.9724 2.00207 18.6592 2.00207C17.346 2.00207 16.2811 3.03753 16.2811 4.31432V5.82017C10.8185 6.92282 6.76724 11.4172 6.76724 17.0317C6.76724 24.4236 4.07906 26.6802 2.64238 28.1803C2.19621 28.6464 1.9984 29.2035 2.00213 29.749C2.0103 30.934 2.96735 32.0613 4.38915 32.0613H32.9293C34.3511 32.0613 35.3089 30.934 35.3163 29.749C35.32 29.2035 35.1222 28.6456 34.6761 28.1803H34.676Z"/>
</mask>
<path d="M23.4162 34.3735H25.4182V32.3714H23.4162V34.3735ZM13.9023 34.3735V32.3714H11.9002V34.3735H13.9023ZM34.676 28.1803L33.2301 29.5651L33.8213 30.1824H34.676V28.1803ZM21.0373 5.82017H19.0352V7.4585L20.6412 7.78266L21.0373 5.82017ZM16.2811 5.82017L16.6773 7.78266L18.2832 7.4585V5.82017H16.2811ZM2.64238 28.1803L1.19648 26.7955L1.19617 26.7958L2.64238 28.1803ZM2.00213 29.749L9.8211e-05 29.7627L9.9285e-05 29.7628L2.00213 29.749ZM35.3163 29.749L33.3143 29.7354L33.3143 29.7364L35.3163 29.749ZM34.6761 28.1803L36.1212 26.7947L35.5301 26.1782H34.6761V28.1803ZM18.6592 41.0001C22.3374 41.0001 25.4182 38.0867 25.4182 34.3735H21.4141C21.4141 35.7689 20.2339 36.9959 18.6592 36.9959V41.0001ZM23.4162 32.3714H13.9023V36.3756H23.4162V32.3714ZM11.9002 34.3735C11.9002 38.0867 14.981 41.0001 18.6592 41.0001V36.9959C17.0845 36.9959 15.9044 35.7689 15.9044 34.3735H11.9002ZM36.122 26.7955C35.3384 25.9774 34.549 25.2646 33.8597 23.9083C33.1781 22.5673 32.5533 20.4785 32.5533 17.0317H28.5491C28.5491 20.9768 29.2684 23.7123 30.2901 25.7225C31.304 27.7176 32.577 28.8832 33.2301 29.5651L36.122 26.7955ZM32.5533 17.0317C32.5533 10.3741 27.7389 5.13046 21.4334 3.85768L20.6412 7.78266C25.261 8.71518 28.5491 12.4604 28.5491 17.0317H32.5533ZM23.0394 5.82017V4.31432H19.0352V5.82017H23.0394ZM23.0394 4.31432C23.0394 1.87923 21.0248 0 18.6592 0V4.00415C18.9201 4.00415 19.0352 4.19582 19.0352 4.31432H23.0394ZM18.6592 0C16.2936 0 14.279 1.87923 14.279 4.31432H18.2832C18.2832 4.19582 18.3984 4.00415 18.6592 4.00415V0ZM14.279 4.31432V5.82017H18.2832V4.31432H14.279ZM15.885 3.85768C9.57951 5.13046 4.76517 10.3741 4.76517 17.0317H8.76932C8.76932 12.4604 12.0575 8.71518 16.6773 7.78266L15.885 3.85768ZM4.76517 17.0317C4.76517 20.4785 4.14035 22.5673 3.45878 23.9083C2.76948 25.2646 1.98003 25.9774 1.19648 26.7955L4.08828 29.5651C4.74141 28.8832 6.01439 27.7176 7.02836 25.7225C8.05005 23.7123 8.76932 20.9768 8.76932 17.0317H4.76517ZM1.19617 26.7958C0.384307 27.6439 -0.00712274 28.7048 9.8211e-05 29.7627L4.00415 29.7353C4.00398 29.7105 4.00809 29.6894 4.0161 29.6691C4.02359 29.6501 4.04136 29.6141 4.08858 29.5648L1.19617 26.7958ZM9.9285e-05 29.7628C0.0154127 31.9817 1.80172 34.0633 4.38915 34.0633V30.0592C4.30213 30.0592 4.24426 30.0427 4.20614 30.0264C4.16614 30.0093 4.13118 29.9849 4.10098 29.9539C4.03394 29.8849 4.00459 29.7984 4.00415 29.7352L9.9285e-05 29.7628ZM4.38915 34.0633H32.9293V30.0592H4.38915V34.0633ZM32.9293 34.0633C35.5157 34.0633 37.3044 31.9825 37.3183 29.7616L33.3143 29.7364C33.3139 29.7987 33.2849 29.8848 33.2179 29.9537C33.1877 29.9848 33.1527 30.0092 33.1125 30.0264C33.0743 30.0427 33.0163 30.0592 32.9293 30.0592V34.0633ZM37.3183 29.7626C37.3255 28.7058 36.9347 27.6432 36.1212 26.7947L33.2309 29.5659C33.2772 29.6141 33.2947 29.6496 33.3022 29.6686C33.3103 29.6891 33.3145 29.7104 33.3143 29.7354L37.3183 29.7626ZM34.6761 26.1782H34.676V30.1824H34.6761V26.1782Z" fill="#737D6D" mask="url(#path-2-outside-1_0_743)"/>
</g>
</svg>
