<svg width="101" height="18" viewBox="0 0 101 18" fill="none" xmlns="http://www.w3.org/2000/svg">
<path d="M31.8886 6.04205L38.4449 6.60461L33.4714 10.9135L34.962 17.3221L29.3275 13.924L23.693 17.323L25.1837 10.9144L20.2102 6.60461L26.7665 6.04205L29.3275 0L31.8886 6.04205Z" fill="#DB4437"/>
<path d="M53.0611 6.04205L59.6174 6.60461L54.6439 10.9135L56.1345 17.3221L50.5 13.924L44.8655 17.323L46.3562 10.9144L41.3827 6.60461L47.939 6.04205L50.5 0L53.0611 6.04205Z" fill="#CFCFCF"/>
<path d="M73.2711 6.04205L79.8274 6.60461L74.8539 10.9135L76.3446 17.3221L70.71 13.924L65.0755 17.323L66.5662 10.9144L61.5927 6.60461L68.149 6.04205L70.71 0L73.2711 6.04205Z" fill="#CFCFCF"/>
<path d="M94.4437 6.04205L101 6.60461L96.0265 10.9135L97.5172 17.3221L91.8827 13.924L86.2482 17.323L87.7389 10.9144L82.7653 6.60461L89.3216 6.04205L91.8827 0L94.4437 6.04205Z" fill="#CFCFCF"/>
<path d="M11.6784 6.04205L18.2347 6.60461L13.2612 10.9135L14.7519 17.3221L9.11735 13.924L3.48283 17.323L4.97354 10.9144L0 6.60461L6.5563 6.04205L9.11734 0L11.6784 6.04205Z" fill="#DB4437"/>
</svg>
