<svg width="37" height="26" viewBox="0 0 37 26" fill="none" xmlns="http://www.w3.org/2000/svg">
<mask id="mask0_0_930" style="mask-type:luminance" maskUnits="userSpaceOnUse" x="-1" y="0" width="39" height="27">
<path fill-rule="evenodd" clip-rule="evenodd" d="M29.6411 26.052L29.3614 18.0398H37.7329V16.3047L37.378 10.7224L29.225 9.65838V0H10.262L9.46343 5.228L1.66516 7.17757L-0.726701 11.8738V19.1404L1.66516 22.8621L7.51436 25.166L12.2111 24.6347L15.2227 23.2169H18.0583L19.5646 25.166L22.4012 26.0521L29.6411 26.052Z" fill="white"/>
</mask>
<g mask="url(#mask0_0_930)">
<path fill-rule="evenodd" clip-rule="evenodd" d="M36.8969 13.7629C36.7054 12.8571 35.7259 12.128 33.951 11.5904C32.4634 11.1411 30.5927 10.876 28.5306 10.8318L28.3318 2.45083C28.0593 1.62599 27.0798 0.955829 25.4228 0.455034C23.7657 -0.0457802 21.6079 -0.318256 19.3322 -0.318256C17.0639 -0.318256 14.9208 -0.0457701 13.3005 0.455034C11.9675 0.867453 10.3694 1.63338 10.3694 2.95164C10.3694 3.03266 10.3768 3.11367 10.3915 3.19467L10.4725 6.55296C9.92754 6.44985 9.37519 6.39829 8.81548 6.39829C3.95482 6.39829 0 10.3531 0 15.2138C0 20.0818 3.94008 24.0292 8.80811 24.0292C10.8334 24.0292 12.7998 23.3296 14.3684 22.0555C15.753 22.3796 17.3806 22.5563 19.1039 22.5711C19.4795 24.6111 23.9056 25.5464 28.0298 25.5464C30.2981 25.5464 32.4339 25.2665 34.0688 24.7657C35.4166 24.3533 37 23.58 37 22.2617L36.8969 13.7629ZM13.713 1.86903C15.2006 1.41244 17.1964 1.15466 19.3175 1.15466C21.4164 1.15466 23.4858 1.41242 24.9882 1.86903C26.5937 2.35512 26.9399 2.85589 26.9399 2.95902C26.9399 3.06212 26.5937 3.5629 24.9882 4.04898C23.4932 4.49821 21.4237 4.76334 19.3248 4.76334C17.2922 4.76334 15.3626 4.52769 13.8971 4.10053C12.3137 3.64391 11.8644 3.13575 11.8276 2.97373C11.8276 2.96636 11.8202 2.95902 11.8129 2.95163C11.8129 2.79698 12.3063 2.30354 13.713 1.86903ZM27.0577 4.77806V6.61923C26.9767 6.74443 26.9399 6.88435 26.9399 7.03165C26.9399 7.1274 26.5937 7.63555 24.9956 8.12163C23.5006 8.57822 21.4311 8.83599 19.3322 8.83599C17.5131 8.83599 15.7309 8.64451 14.3169 8.28363C14.2948 8.27628 14.2727 8.27628 14.258 8.26891C13.5657 7.71656 12.785 7.27468 11.9602 6.96537L11.9086 4.88854C12.4168 5.14631 12.9471 5.35253 13.4994 5.49982C15.0975 5.96377 17.167 6.21417 19.3396 6.21417C21.6152 6.21417 23.7731 5.94169 25.4227 5.44089C25.9825 5.2936 26.5348 5.06531 27.0577 4.77807V4.77806ZM13.7498 20.6415C10.7524 23.3738 6.10529 23.1528 3.38036 20.1554C0.655442 17.158 0.869025 12.5109 3.86643 9.78603C5.22153 8.55612 6.98168 7.87121 8.8081 7.87121C9.54456 7.87121 10.2737 7.98169 10.9807 8.19526C11.9381 8.48984 12.8292 8.98328 13.5878 9.64611C14.825 10.6993 15.672 12.1427 16.0034 13.7335C16.0991 14.2195 16.1507 14.7204 16.1507 15.2138C16.158 17.2832 15.2816 19.257 13.7498 20.6415ZM15.6204 20.8035C16.2169 20.0744 16.6956 19.257 17.0344 18.3805C17.6678 18.4321 18.3306 18.4689 19.0155 18.4763C19.0008 18.5647 19.0008 18.6457 19.0155 18.7341L19.045 21.1055C17.9035 21.0907 16.7619 20.995 15.6204 20.8035V20.8035ZM17.5868 14.3374C18.0213 14.3668 18.4705 14.3816 18.9345 14.389C18.9419 14.4405 18.9566 14.4921 18.9713 14.5436L19.0008 16.996C18.4705 16.9887 17.9476 16.9666 17.4542 16.9297C17.5647 16.3627 17.6236 15.7809 17.6236 15.2064C17.6236 14.9192 17.6089 14.632 17.5868 14.3374H17.5868ZM19.3837 12.9234C19.3616 12.9234 19.3469 12.9234 19.3248 12.9234C18.6105 12.9234 17.9329 12.8939 17.2995 12.8424C17.027 11.8629 16.5778 10.9349 15.9886 10.1027C17.0933 10.2426 18.2128 10.3163 19.3248 10.3163C21.6005 10.3163 23.7583 10.0438 25.408 9.54298C25.9825 9.38098 26.5275 9.15267 27.0503 8.86543V10.8318C25.2092 10.8834 23.4785 11.119 22.1013 11.5093C20.8051 11.8776 19.8993 12.3489 19.3838 12.9234L19.3837 12.9234ZM20.4001 14.0207C20.5253 13.7924 21.0776 13.3432 22.5137 12.9455C23.9572 12.5404 25.8352 12.3195 27.8089 12.3195H27.8678C29.9741 12.3195 32.0362 12.5625 33.5312 13.0191C35.0778 13.4904 35.4534 13.9618 35.4755 14.087V14.0943C35.4681 14.2048 35.1072 14.713 33.4723 15.199C31.9626 15.6483 29.9667 15.8913 27.8678 15.8913C25.9162 15.8913 24.0382 15.6704 22.5947 15.28C21.2102 14.9044 20.6136 14.4699 20.4369 14.2195C20.4369 14.1533 20.4222 14.087 20.4001 14.0207V14.0207ZM35.527 22.2544C35.527 22.3575 35.203 22.8656 33.6343 23.3517C32.1319 23.8157 30.1435 24.0734 28.0225 24.0734C25.8941 24.0734 23.913 23.823 22.4327 23.3738C21.026 22.9393 20.5547 22.4532 20.5547 22.2912C20.5547 22.2838 20.5547 22.2838 20.5547 22.2765L20.5473 21.8272L20.5253 20.1628C21.1144 20.45 21.7257 20.671 22.359 20.8256C23.9056 21.2307 25.8572 21.4516 27.8678 21.4516C30.1435 21.4516 32.2792 21.1791 33.9289 20.6783C34.4665 20.5163 35.0851 20.2954 35.527 20.0081L35.527 22.2544ZM35.4313 18.1744C35.4313 18.2775 35.0925 18.7783 33.5091 19.2643C31.9994 19.7209 29.9962 19.9713 27.8605 19.9713C23.8541 19.9713 21.1292 19.0802 20.4958 18.3732L20.4663 16.046C22.2044 16.9518 25.1282 17.3642 27.8678 17.3642C30.1067 17.3642 32.2351 17.0991 33.8774 16.613C34.4518 16.451 35.0042 16.2301 35.5344 15.9429V17.784C35.5271 17.8945 35.4313 18.0271 35.4313 18.1743L35.4313 18.1744Z" fill="#737D6D"/>
<path fill-rule="evenodd" clip-rule="evenodd" d="M8.81588 10.3463C6.12778 10.3463 3.95522 12.5262 3.95522 15.2069C3.95522 17.8877 6.13515 20.0676 8.81588 20.0676C11.4966 20.0676 13.6765 17.8877 13.6765 15.2069C13.6692 12.5262 11.4966 10.3537 8.81588 10.3463ZM8.81588 18.602C6.94526 18.602 5.42814 17.0849 5.42814 15.2143C5.42814 13.3437 6.94526 11.8266 8.81588 11.8266C10.6865 11.8266 12.2036 13.3437 12.2036 15.2143C12.2036 17.0849 10.6865 18.602 8.81588 18.602Z" fill="#737D6D"/>
</g>
</svg>
