<svg width="30" height="40" viewBox="0 0 30 40" fill="none" xmlns="http://www.w3.org/2000/svg">
<mask id="mask0_0_737" style="mask-type:luminance" maskUnits="userSpaceOnUse" x="-2" y="-1" width="34" height="42">
<path fill-rule="evenodd" clip-rule="evenodd" d="M20.3755 40V32.1357L24.0786 28.4321H31.105V-0.96875H-1.31689V40.6621H20.3755L20.3755 40Z" fill="white"/>
</mask>
<g mask="url(#mask0_0_737)">
<path fill-rule="evenodd" clip-rule="evenodd" d="M18.3533 32.6586V28.9878H22.0241V21.6463H18.3533V17.9756H11.0118V21.6463H7.34106V28.9878H11.0118V32.6586H18.3533ZM9.13501 27.2993V23.5576H12.7629V19.8731H16.6174V23.5576H20.1321V27.2993H16.6174V30.9839H12.7629V27.2993H9.13501Z" fill="#737D6D"/>
<path fill-rule="evenodd" clip-rule="evenodd" d="M29.366 25.317V24.8289C29.366 21.6839 28.3832 18.6829 26.5233 16.1461L14.683 0L2.84267 16.1461C0.98279 18.6829 0 21.6839 0 24.8289V25.317C0 33.4137 6.58632 40 14.683 40C22.7797 40 29.366 33.4137 29.366 25.317H29.366ZM1.93458 25.317V24.8289C1.93458 22.2078 2.70841 19.7081 4.2588 17.5937L14.683 3.5479L25.0059 17.5937C26.5563 19.7069 27.3867 22.2078 27.3867 24.8289V25.317C27.3867 32.064 21.43 38.1744 14.683 38.1744C7.93596 38.1744 1.93458 32.064 1.93458 25.317Z" fill="#737D6D"/>
</g>
</svg>
