<svg width="38" height="38" viewBox="0 0 38 38" fill="none" xmlns="http://www.w3.org/2000/svg">
<path fill-rule="evenodd" clip-rule="evenodd" d="M31.1749 0H6.82508C3.0616 0 0 3.0616 0 6.82508V31.1748C0 34.9384 3.0616 38 6.82508 38H31.1749C34.9384 38 38 34.9384 38 31.1749V6.82509C38 3.06161 34.9384 1e-05 31.1749 1e-05V0ZM32.1137 29.6549H19.9351C18.8647 32.8233 14.3682 32.8281 13.2963 29.6549H5.88629C4.4077 29.6549 4.40733 27.4196 5.88629 27.4196H13.2963C14.3666 24.2512 18.8631 24.2464 19.9351 27.4196H32.1137C33.5923 27.4196 33.5927 29.6549 32.1137 29.6549ZM32.1137 20.1177H29.4723C28.402 23.2861 23.9055 23.2909 22.8335 20.1177H5.88629C4.4077 20.1177 4.40733 17.8823 5.88629 17.8823H22.8335C23.9039 14.7139 28.4004 14.7091 29.4724 17.8823H32.1138C33.5923 17.8823 33.5927 20.1177 32.1137 20.1177ZM32.1137 10.5804H15.1665C14.0961 13.7488 9.5996 13.7536 8.52766 10.5804H5.88629C4.4077 10.5804 4.40733 8.34508 5.88629 8.34508H8.52766C9.59797 5.17668 14.0945 5.17186 15.1665 8.34508H32.1137C33.5923 8.34508 33.5927 10.5804 32.1137 10.5804Z" fill="white"/>
<path fill-rule="evenodd" clip-rule="evenodd" d="M16.7402 25.835C13.8293 25.835 13.8309 30.2349 16.7402 30.2349C19.6509 30.235 19.6493 25.835 16.7402 25.835Z" fill="white"/>
<path fill-rule="evenodd" clip-rule="evenodd" d="M12.2206 7.76514C9.30979 7.76514 9.31135 12.1651 12.2206 12.1651C15.1313 12.1652 15.1298 7.76514 12.2206 7.76514Z" fill="white"/>
<path fill-rule="evenodd" clip-rule="evenodd" d="M25.7792 16.7998C22.8684 16.7998 22.8699 21.1998 25.7792 21.1998C28.6901 21.1999 28.6885 16.7998 25.7792 16.7998V16.7998Z" fill="white"/>
</svg>
