<svg width="36" height="36" viewBox="0 0 36 36" fill="none" xmlns="http://www.w3.org/2000/svg">
<mask id="mask0_0_4387" style="mask-type:luminance" maskUnits="userSpaceOnUse" x="-2" y="-2" width="40" height="40">
<path fill-rule="evenodd" clip-rule="evenodd" d="M23.2548 0.270433L22.0428 4.6888L24.9015 6.07411L27.587 1.48297L30.4448 3.38914L27.587 7.66377L29.0544 9.47729L33.3516 6.07412L35.2968 8.93289L30.4447 12.571L31.1379 14.6499L37.1159 12.571V23.4852L28.799 36.2189L8.61636 37.172L-1.17195 25.9112V10.4053L6.5369 1.48298L16.8982 -1.80501L16.4314 4.68881H18.8594L20.396 -1.36528L23.6885 -0.682133L23.2548 0.270433Z" fill="white"/>
</mask>
<g mask="url(#mask0_0_4387)">
<path fill-rule="evenodd" clip-rule="evenodd" d="M8.45923 33.2689C0.0397279 28.0078 -2.52928 16.8779 2.73141 8.45901C7.9925 0.0395043 19.1218 -2.5299 27.5413 2.73119C35.9602 7.99189 38.5302 19.1216 33.2691 27.5411C28.0084 35.96 16.8781 38.5296 8.45923 33.2689ZM26.8346 4.39249C19.8186 0.00838162 8.77682 2.14963 4.39272 9.16567C0.00860521 16.1817 2.14986 27.2235 9.16589 31.6076C16.1819 35.9917 27.2237 33.8505 31.6078 26.8344C35.9919 19.8184 33.8507 8.7766 26.8346 4.39249ZM24.6878 7.36154C24.6878 7.36154 15.407 12.2405 13.9444 14.581L13.1493 15.8534C11.6871 18.1934 11.284 28.8417 11.284 28.8417C11.284 28.8417 20.4922 23.9219 21.9544 21.5819L22.8536 20.1428C24.3162 17.8022 24.6878 7.36154 24.6878 7.36154L24.6878 7.36154ZM16.4101 20.5449C15.0046 19.6666 14.5772 17.8153 15.4555 16.4099C16.3337 15.0044 18.185 14.577 19.5904 15.4552C20.9959 16.3335 21.4233 18.1848 20.5451 19.5902C19.6669 20.9957 17.8156 21.4231 16.4101 20.5449L16.4101 20.5449Z" fill="#1C3947"/>
</g>
</svg>
