<svg width="17" height="20" viewBox="0 0 17 20" fill="none" xmlns="http://www.w3.org/2000/svg">
<g opacity="0.5">
<path fill-rule="evenodd" clip-rule="evenodd" d="M3.20398 6.39243C3.3092 6.28704 3.41943 6.1875 3.53467 6.0938C3.67224 5.97437 3.69141 5.76496 3.57752 5.62192C3.46387 5.47888 3.25867 5.45416 3.11536 5.5665C2.98182 5.67487 2.85413 5.79044 2.73267 5.91261C2.646 5.99774 2.61121 6.12401 2.64173 6.24244C2.67225 6.36112 2.76331 6.45395 2.87977 6.48502C2.99635 6.51609 3.12025 6.48068 3.20399 6.39244L3.20398 6.39243Z" fill="black"/>
<path fill-rule="evenodd" clip-rule="evenodd" d="M16.571 5.30253C15.7919 4.61308 14.7514 4.29655 13.7204 4.43583C14.2194 4.10831 14.8358 4.0131 15.4106 4.17448C15.585 4.23368 15.7743 4.1403 15.8334 3.96611C15.8926 3.79167 15.7993 3.60246 15.6249 3.54326C14.7668 3.29912 13.8437 3.48015 13.141 4.02983C13.0734 3.39848 12.7584 2.8195 12.2649 2.41997C12.1757 2.33464 12.0468 2.30559 11.9296 2.34441C11.8125 2.38335 11.7265 2.48369 11.7058 2.60527C11.6853 2.7271 11.7337 2.85002 11.8316 2.92534C12.2269 3.23699 12.4657 3.70635 12.4853 4.20964C12.3013 3.9218 12.0476 3.6851 11.7479 3.52129C10.612 2.89861 9.13296 3.47551 9.0707 3.5009C8.90444 3.57207 8.82522 3.76286 8.89223 3.93083C8.95937 4.0988 9.14809 4.18278 9.31765 4.11992C9.32998 4.11479 10.5636 3.63249 11.4275 4.10588C11.6543 4.23442 11.841 4.42351 11.9667 4.65178C10.4716 4.17216 9.08852 5.19487 8.49732 5.91411C8.42164 6.00615 8.40076 6.13164 8.44263 6.24309C8.4845 6.35466 8.58264 6.43535 8.70008 6.45488C8.81751 6.47441 8.93653 6.42986 9.01221 6.33781C9.07532 6.26115 10.5123 4.55546 12.1428 5.45377C11.8764 6.07194 11.4619 6.48026 10.7736 7.15677C10.3853 7.53885 9.90175 8.01419 9.32802 8.64823C8.31862 9.76847 7.60268 11.4279 7.16139 12.6947H6.69459C6.75196 11.7201 6.83192 8.86148 5.9784 6.87026C5.64136 6.08352 5.33765 5.47622 5.09376 4.98818C4.66139 4.1249 4.40431 3.60488 4.34913 2.93349C6.17396 2.61354 6.99037 4.6902 7.02564 4.7831C7.09278 4.95156 7.28223 5.03554 7.45191 4.97206C7.62171 4.90858 7.70984 4.72108 7.65003 4.54982C7.32264 3.67714 6.34363 2.25953 4.77002 2.2328C4.96387 2.05714 5.20251 1.93873 5.4596 1.89088C6.42469 1.72425 7.44434 2.57862 7.45472 2.5868C7.59486 2.70081 7.80055 2.68214 7.9181 2.54481C8.03553 2.40748 8.02235 2.20155 7.88807 2.08058C7.83704 2.03688 6.62367 1.01124 5.34803 1.23378C5.01148 1.29201 4.69495 1.43385 4.42762 1.64626C4.60877 1.17678 4.98646 0.810319 5.46095 0.643209C5.63209 0.574969 5.71534 0.380879 5.64699 0.209859C5.57875 0.0389588 5.38466 -0.0444112 5.21364 0.0238188C4.61745 0.242449 4.1321 0.688489 3.86403 1.26418C3.37697 0.516739 2.56203 0.0470188 1.67103 0.000138777C1.48707 -0.000231223 1.33729 0.148699 1.33692 0.332659C1.33643 0.516859 1.48536 0.666399 1.66932 0.666889C2.26588 0.699849 2.81886 0.989639 3.18507 1.46145C2.25392 0.996609 1.16664 0.960109 0.206426 1.3616C0.0953461 1.40738 0.0173361 1.50943 0.00256612 1.62869C-0.0123239 1.74807 0.0383361 1.86599 0.135016 1.93753C0.231576 2.00919 0.359256 2.02322 0.469126 1.97415C1.0724 1.73599 1.73427 1.68875 2.36537 1.83853C2.1725 1.85428 1.98329 1.89969 1.80446 1.97354C0.687756 2.44132 0.359146 3.86685 0.345716 3.92789C0.306046 4.10721 0.418836 4.28495 0.598036 4.32523C0.622086 4.3306 0.646616 4.33329 0.671036 4.33353C0.826916 4.33365 0.962176 4.22562 0.996476 4.07352C0.998796 4.06217 1.26638 2.91995 2.06301 2.58792C2.4164 2.45938 2.80544 2.46963 3.15175 2.61624C2.35902 3.00528 1.23439 3.9108 1.00636 5.96352C0.986096 6.1465 1.11805 6.3113 1.30104 6.33144C1.48402 6.3517 1.64882 6.21975 1.66908 6.03676C1.89442 4.00954 3.08473 3.31898 3.69398 3.09584C3.77674 3.84548 4.07594 4.4446 4.49635 5.28481C4.73634 5.76516 5.03493 6.36257 5.36476 7.13149C6.16469 8.99819 6.07643 11.8097 6.02467 12.6934H0.721066C0.687616 12.4181 0.670896 12.1409 0.671016 11.8634C0.668576 10.4172 1.09045 9.00208 1.8844 7.79347C1.92432 7.72682 1.97107 7.66017 2.01441 7.59681L2.06775 7.52003C2.15418 7.39369 2.14331 7.22486 2.04163 7.11036C1.93995 6.9961 1.77332 6.96571 1.63782 7.03687C1.58716 7.06128 1.54444 7.09937 1.51428 7.14686L1.46448 7.2201C1.41443 7.29017 1.36438 7.36353 1.32105 7.43336C0.460446 8.7505 0.00280612 10.2902 0.00439612 11.8634C0.00500612 12.2752 0.0362561 12.6863 0.0977761 13.0934V13.1C0.184816 13.6657 0.333496 14.2201 0.541136 14.7534C0.541746 14.7604 0.544066 14.7674 0.547726 14.7735C0.553706 14.7976 0.562616 14.8213 0.574456 14.8434C0.804066 15.4297 1.104 15.986 1.46777 16.5001C1.46777 16.5034 1.46777 16.5034 1.47094 16.5066C1.48681 16.5335 1.50475 16.5591 1.52441 16.5834C1.52771 16.5834 1.53112 16.5901 1.53112 16.5901C1.97167 17.2072 2.4967 17.7592 3.09106 18.23H3.09436C3.12183 18.2541 3.15088 18.2764 3.18103 18.2967L3.18445 18.3C6.12244 20.5667 10.2195 20.5667 13.1576 18.3L13.1609 18.2967C13.1912 18.2764 13.2201 18.2541 13.2476 18.23H13.251C13.8454 17.7592 14.3704 17.2072 14.8108 16.5901C14.8108 16.5901 14.8142 16.5834 14.8175 16.5834C14.8373 16.5591 14.8551 16.5335 14.871 16.5066C14.8742 16.5034 14.8742 16.5034 14.8742 16.5001C15.2379 15.986 15.538 15.4297 15.7676 14.8434C15.7793 14.8213 15.7883 14.7976 15.7943 14.7735C15.798 14.7674 15.8002 14.7604 15.8008 14.7534C16.0086 14.2201 16.1571 13.6657 16.2443 13.1V13.0934C16.3058 12.6863 16.337 12.2752 16.3377 11.8634C16.3394 11.0087 16.2042 10.159 15.9375 9.34682C15.8795 9.17177 15.6908 9.07704 15.516 9.13503C15.3411 9.19314 15.2462 9.38198 15.3042 9.55678C15.5483 10.3013 15.672 11.08 15.6708 11.8634C15.6705 12.1406 15.6549 12.4177 15.6243 12.6934H13.3042C13.3273 12.5748 13.3384 12.4542 13.3377 12.3334C13.3377 11.2289 12.4421 10.3335 11.3377 10.3335C10.2332 10.3335 9.33754 11.2289 9.33754 12.3334C9.33681 12.4542 9.34792 12.5748 9.37099 12.6934H7.86562C8.29067 11.5202 8.94191 10.0695 9.82155 9.09341C10.3816 8.47427 10.8573 8.00649 11.2396 7.6304C11.9107 6.9711 12.3891 6.50076 12.7096 5.81643C13.215 6.22549 14.1168 7.2637 13.6763 9.25456C13.6422 9.43168 13.7553 9.60393 13.9315 9.64287C14.1077 9.68193 14.2831 9.57366 14.3268 9.39849C14.7739 7.38323 14.0029 6.16289 13.3785 5.53789C13.7533 5.51128 14.1244 5.62725 14.4171 5.8626C15.0643 6.4345 14.9479 7.60186 14.9465 7.61345C14.9271 7.79595 15.0588 7.95989 15.2413 7.98015C15.2537 7.98186 15.266 7.98259 15.2786 7.98247C15.4483 7.9821 15.5906 7.85442 15.6091 7.68584C15.6162 7.62419 15.7665 6.1685 14.862 5.36516C14.7196 5.23943 14.5587 5.13616 14.3853 5.05889C15.0263 5.12469 15.6328 5.38189 16.1255 5.79729C16.2634 5.90789 16.4636 5.89153 16.5819 5.76018C16.7002 5.62883 16.6953 5.42803 16.5709 5.30254L16.571 5.30253ZM4.44108 18.6734C4.09709 18.3824 3.7703 18.048 3.46439 17.6734H12.8776C12.5717 18.048 12.245 18.3824 11.9009 18.6734H4.44108ZM2.44437 17.0133C2.26346 16.6944 2.09439 16.3604 1.93778 16.0133H14.4042C14.2497 16.3624 14.0805 16.6965 13.8976 17.0133H2.44437ZM1.37443 15.3533C1.27165 15.0276 1.18034 14.6937 1.10111 14.3533H15.2409C15.1617 14.6937 15.0705 15.0276 14.9676 15.3533H1.37443Z" fill="black"/>
</g>
</svg>
