<svg width="23" height="22" viewBox="0 0 23 22" fill="none" xmlns="http://www.w3.org/2000/svg">
<path fill-rule="evenodd" clip-rule="evenodd" d="M2.39128 9.56535C1.07321 9.56535 0 10.6386 0 11.9566V19.6088C0 20.9268 1.07321 22 2.39128 22H5.26082C5.79935 22 6.2948 21.8183 6.69559 21.516V9.56535H2.39128Z" fill="black"/>
<path fill-rule="evenodd" clip-rule="evenodd" d="M22.9567 13.1521C22.9567 12.5772 22.729 12.0416 22.334 11.6465C22.7807 11.1577 23.0083 10.5025 22.9462 9.82053C22.8342 8.60479 21.739 7.6521 20.4516 7.6521H14.5432C14.8359 6.76347 15.3046 5.13456 15.3046 3.82605C15.3046 1.75137 13.5417 0 12.435 0C11.4412 0 10.7314 0.559561 10.7009 0.582517C10.588 0.673397 10.522 0.811135 10.522 0.956504V4.20004L7.76724 10.1678L7.65248 10.2261V20.478C8.43108 20.8453 9.41625 21.0433 10.0437 21.0433H18.8236C19.8653 21.0433 20.7768 20.3412 20.9911 19.3723C21.101 18.8739 21.037 18.3718 20.818 17.9356C21.5248 17.5798 22.0002 16.8518 22.0002 16.0216C22.0002 15.683 21.9227 15.3587 21.7754 15.0651C22.4823 14.7093 22.9567 13.9814 22.9567 13.1521L22.9567 13.1521Z" fill="black"/>
</svg>
