<svg width="40" height="40" viewBox="0 0 40 40" fill="none" xmlns="http://www.w3.org/2000/svg">
<mask id="mask0_0_753" style="mask-type:luminance" maskUnits="userSpaceOnUse" x="-2" y="-2" width="43" height="45">
<path fill-rule="evenodd" clip-rule="evenodd" d="M26.1155 0.999511L20.926 5.14355L29.3723 10.9761L34.1907 7.18457L40.9358 10.9761V29.6572L19.7571 42.3638L-1.03394 28.6606V10.9761L19.7571 -1.78711L26.1155 0.999511Z" fill="white"/>
</mask>
<g mask="url(#mask0_0_753)">
<path fill-rule="evenodd" clip-rule="evenodd" d="M40 19.9975C39.9991 19.5918 39.7884 19.2154 39.443 19.0025L35.3779 16.4965L39.4473 13.9636C39.7905 13.7501 39.9994 13.3747 40 12.9705C40.0006 12.5663 39.7929 12.1903 39.4503 11.9757L20.6222 0.17883C20.2417 -0.05961 19.7583 -0.05961 19.3778 0.17883L0.549691 11.9757C0.207191 12.1903 -0.00053895 12.5663 1.05024e-06 12.9705C0.00062105 13.3747 0.209451 13.7501 0.552661 13.9636L4.59421 16.4791L0.550861 19.0064C0.207891 19.2207 -0.00030895 19.5968 8.10502e-05 20.0012C0.00047105 20.4056 0.209381 20.7813 0.552741 20.995L4.59429 23.5105L0.550861 26.0376C0.208441 26.2516 0.00031105 26.6269 8.10502e-05 27.0307C-0.00014895 27.4345 0.207581 27.81 0.549771 28.0244L19.3779 39.8212C19.5682 39.9405 19.7841 40.0001 20 40.0001C20.216 40.0001 20.432 39.9405 20.6222 39.8212L39.4503 28.0244C39.7936 27.8093 40.0015 27.4321 40 27.027C39.9985 26.622 39.7879 26.2463 39.443 26.0338L35.3779 23.5278L39.4473 20.9949C39.7918 20.7806 40.0009 20.4032 40 19.9975V19.9975ZM3.38437 12.9656L20 2.55491L36.6157 12.9656C36.456 13.065 20.4762 23.0109 20 23.3073L3.38437 12.9656ZM36.608 27.0395L20 37.4453L3.38108 27.0326L6.8099 24.8896L19.3808 32.7138C19.5703 32.8317 19.7852 32.8907 20 32.8907C20.2149 32.8907 20.4297 32.8317 20.6193 32.7138L33.1555 24.9111L36.608 27.0395ZM20 30.3385L3.38633 19.9981L6.80992 17.8583L19.3808 25.6825C19.5704 25.8005 19.7852 25.8595 20.0001 25.8595C20.2149 25.8595 20.4297 25.8005 20.6193 25.6825L33.1555 17.8799L36.6027 20.0049C36.5075 20.0642 20.4399 30.0647 20.0001 30.3385H20Z" fill="#737D6D"/>
</g>
</svg>
