<svg width="38" height="38" viewBox="0 0 38 38" fill="none" xmlns="http://www.w3.org/2000/svg">
<g opacity="0.5">
<path fill-rule="evenodd" clip-rule="evenodd" d="M19.0067 2.03872e-07C11.4044 -0.0011098 4.5335 4.53048 1.54122 11.5192L1.3044 11.5977L1.39621 11.8732C-2.54357 21.5901 2.13967 32.6611 11.8566 36.6009C14.1261 37.5211 16.5521 37.9934 19.0011 37.9921C29.4923 37.9937 37.9984 29.4901 38 18.9989C38.0016 8.50769 29.498 0.0015002 19.0067 2.03872e-07H19.0067ZM33.907 28.5735L32.9316 27.5987V25.3281C32.9327 25.2301 32.911 25.1332 32.8682 25.045L30.3987 20.113V17.7296C30.3987 17.518 30.2931 17.3203 30.117 17.2028L28.2174 15.9364C28.0685 15.837 27.8845 15.8053 27.7108 15.849L25.3844 16.4303L21.4769 14.7536L20.9394 10.9873L22.4293 9.49802H25.6276L26.704 11.1159C26.8012 11.2613 26.9544 11.3602 27.127 11.3888L30.9262 12.022C31.028 12.0391 31.1323 12.0308 31.2301 11.9979L34.7292 10.8315C37.664 16.4635 37.3501 23.2372 33.907 28.5735ZM31.2954 6.23957L30.2658 6.92596L27.3955 6.35165L25.5332 5.73175C25.4193 5.69305 25.2966 5.68814 25.1799 5.71782L22.8257 6.30606L21.7935 5.96223L22.5585 4.43242H24.6999C24.7982 4.4325 24.895 4.40978 24.983 4.36593L27.1739 3.27049C28.6826 4.05803 30.0706 5.05786 31.2954 6.23957H31.2954ZM12.0657 2.68034L13.5853 3.69346C13.6601 3.74317 13.7444 3.77641 13.8329 3.79097L16.9014 4.3026L16.6019 5.19858L15.0031 5.73237C14.8599 5.78002 14.7384 5.87722 14.6605 6.00655L12.842 9.03705L9.92102 10.7898L5.61525 11.4046C5.30316 11.4487 5.07109 11.7156 5.0707 12.0308V13.9304C5.0707 14.0984 5.1375 14.2594 5.25623 14.3781L6.3371 15.459V16.5468L3.70298 14.7903L2.74748 11.9238C4.5654 7.77002 7.89738 4.46471 12.0657 2.68034ZM10.2629 23.4411L7.40087 22.8681L6.33709 20.7462V19.2582L8.6964 16.8989L9.56959 18.6459C9.67684 18.8605 9.89632 18.9961 10.1363 18.996H14.2103L15.9257 21.8549C16.0401 22.0455 16.2461 22.162 16.4683 22.1621H18.2286L17.7854 24.3827L15.3881 26.78C15.2691 26.8986 15.2022 27.0596 15.2019 27.2277V28.8107L12.9224 30.5203C12.763 30.6399 12.6691 30.8276 12.6691 31.0269V33.314L11.8814 33.0531L10.7695 30.2721V24.0616C10.7696 23.7607 10.5578 23.5013 10.263 23.4411L10.2629 23.4411ZM8.35954 33.1751C2.38932 28.6961 -0.135492 20.9571 2.04462 13.819L2.57081 15.3969C2.61513 15.5305 2.70267 15.6455 2.81966 15.7237L5.97617 17.8278L5.25622 18.5484C5.13749 18.6671 5.07069 18.8281 5.07069 18.996V20.8957C5.07061 20.9939 5.09333 21.0908 5.13718 21.1787L6.40358 23.7115C6.49128 23.8864 6.65488 24.011 6.84682 24.049L9.50627 24.5803V30.3937C9.50619 30.4741 9.52147 30.5539 9.55123 30.6286L10.8176 33.7946C10.887 33.9675 11.029 34.1012 11.2058 34.16L13.1054 34.7932C13.1689 34.8147 13.2353 34.8258 13.3023 34.8261C13.652 34.8261 13.9355 34.5426 13.9355 34.1929V31.3435L16.215 29.6338C16.3744 29.5142 16.4683 29.3266 16.4683 29.1273V27.4898L18.8156 25.1425C18.9038 25.0541 18.964 24.9415 18.9885 24.819L19.6217 21.653C19.6902 21.31 19.4678 20.9765 19.1248 20.9079C19.0841 20.8998 19.0427 20.8957 19.0011 20.8957H16.8267L15.1114 18.0368C14.9969 17.8462 14.791 17.7297 14.5687 17.7297H10.5276L9.43978 15.547C9.34868 15.3648 9.1755 15.2375 8.97438 15.2051C8.77334 15.1703 8.5681 15.2367 8.42539 15.3824L7.60349 16.2011V15.1968C7.60349 15.0289 7.53669 14.8679 7.41796 14.7492L6.33709 13.6683V12.5798L10.2262 12.0245C10.3097 12.0124 10.39 11.9838 10.4624 11.9403L13.6284 10.0407C13.7172 9.98734 13.7916 9.91294 13.8449 9.82413L15.6242 6.85885L17.3016 6.2991C17.491 6.23697 17.6396 6.0884 17.7018 5.89892L18.335 3.99932C18.4447 3.66728 18.2645 3.30913 17.9324 3.19943C17.9018 3.1893 17.8704 3.18154 17.8385 3.17616L14.1736 2.56512L13.5296 2.13581C17.5143 0.83886 21.83 0.99937 25.7073 2.58855L24.5505 3.16603H22.1671C21.9259 3.16468 21.705 3.30051 21.5972 3.51619L20.3308 6.049C20.1748 6.36196 20.302 6.7422 20.615 6.8982C20.6416 6.9115 20.6692 6.92289 20.6974 6.93231L22.597 7.56551C22.711 7.60421 22.8337 7.60912 22.9504 7.57944L25.3046 6.9912L27.0295 7.56551C27.0541 7.57437 27.0796 7.58118 27.1054 7.58577L30.2714 8.21897C30.4361 8.25253 30.6074 8.21881 30.747 8.12526L32.1882 7.16406C32.8974 7.95406 33.5348 8.80571 34.0928 9.7089L30.9775 10.7473L27.6044 10.1851L26.49 8.51342C26.3732 8.33826 26.1769 8.23267 25.9663 8.23165H22.1671C21.9992 8.23165 21.8382 8.29845 21.7195 8.41718L19.8198 10.3168C19.6788 10.4578 19.6124 10.657 19.6406 10.8544L20.2738 15.2868C20.3057 15.5059 20.4498 15.6925 20.6538 15.7788L25.0862 17.6784C25.2131 17.7334 25.3548 17.7447 25.4889 17.7107L27.7501 17.1452L29.1323 18.0684V20.2625C29.1312 20.3605 29.1529 20.4573 29.1957 20.5455L31.6651 25.4775V27.8609C31.6651 28.0288 31.7319 28.1898 31.8507 28.3086L33.1753 29.6339C27.3006 37.4644 16.1901 39.0499 8.35955 33.1751L8.35954 33.1751Z" fill="#7A7A7A"/>
</g>
</svg>
