<svg width="24" height="23" viewBox="0 0 24 23" fill="none" xmlns="http://www.w3.org/2000/svg">
<path fill-rule="evenodd" clip-rule="evenodd" d="M2.90611 10.0678C1.59031 10.0678 0.518949 11.1392 0.518949 12.455V20.0939C0.518949 21.4097 1.59031 22.4811 2.90611 22.4811H5.77071C6.30831 22.4811 6.80291 22.2997 7.20301 21.9979V10.0678H2.90611Z" stroke="#707070"/>
<path fill-rule="evenodd" clip-rule="evenodd" d="M23.4361 13.6484C23.4361 13.0745 23.2088 12.5398 22.8145 12.1454C23.2604 11.6575 23.4876 11.0034 23.4256 10.3226C23.3139 9.10891 22.2205 8.15786 20.9353 8.15786H15.0371C15.3293 7.27077 15.7971 5.64466 15.7971 4.33841C15.7971 2.2673 14.0373 0.518949 12.9326 0.518949C11.9405 0.518949 11.2319 1.07755 11.2014 1.10046C11.0887 1.19119 11.0228 1.32869 11.0228 1.47381V4.71175L8.27281 10.6692L8.15825 10.7274V20.9617C8.9355 21.3284 9.91898 21.526 10.5454 21.526H19.3101C20.35 21.526 21.26 20.8251 21.4738 19.8579C21.5836 19.3604 21.5197 18.8591 21.301 18.4236C22.0067 18.0684 22.4813 17.3418 22.4813 16.5129C22.4813 16.1749 22.4039 15.8512 22.2569 15.5581C22.9625 15.2029 23.4361 14.4762 23.4361 13.6483L23.4361 13.6484Z" stroke="#707070"/>
</svg>
