<svg width="40" height="39" viewBox="0 0 40 39" fill="none" xmlns="http://www.w3.org/2000/svg">
<path d="M1.56931 9.01404C1.55091 9.14494 1.53566 9.27677 1.52351 9.40951L1.40573 10.4275H1.49001C1.51849 11.6608 1.78844 12.9636 2.26657 14.3226L2.26685 14.3234C2.91475 16.1609 3.68525 17.8209 4.58673 19.2928C5.46571 20.7281 6.50004 22.1917 7.68806 23.6838C8.8475 25.1401 9.69221 26.1509 10.1987 26.689C10.6703 27.1901 11.055 27.5886 11.3497 27.8833L11.3581 27.8917L11.3667 27.8999L12.4701 28.9622L12.479 28.9708L12.4881 28.9792C13.2882 29.7196 14.3373 30.5926 15.6251 31.5947L15.6257 31.5952C16.9296 32.6084 18.3385 33.6052 19.8513 34.5845C21.4284 35.6054 23.1356 36.421 24.9719 37.034L25.3685 35.846L24.9719 37.034C26.8354 37.6561 28.5947 37.8908 30.2203 37.661C30.9838 37.5699 31.6598 37.229 32.2356 36.7306L32.2697 36.7011L32.3016 36.6693L37.39 31.5808C37.391 31.5798 37.3921 31.5787 37.3932 31.5776C37.7992 31.1736 38.0077 30.6182 37.9166 30.0159C37.8181 29.3635 37.4036 28.9276 36.9703 28.6759C36.9685 28.6748 36.9667 28.6738 36.9648 28.6727L29.5591 24.3146C29.1516 24.0631 28.6479 23.8998 28.0879 23.9747C27.5289 24.0495 27.0848 24.339 26.7533 24.6705L24.5455 26.877L24.5452 26.8773C24.4214 27.0011 24.2901 27.0621 24.0729 27.0621C23.6513 27.0621 22.7947 26.7808 21.3918 25.8495C19.9754 24.9091 19.0211 24.1915 18.4774 23.6849L18.4755 23.6831C17.8626 23.1144 17.3686 22.6398 16.9869 22.2582L15.6927 20.9236C14.9005 20.0491 14.0806 18.9764 13.236 17.6949C12.4306 16.4728 12.1519 15.6599 12.1287 15.181C12.1661 14.9317 12.2527 14.7882 12.3544 14.6864L12.3544 14.6864L14.2217 12.8192L14.2536 12.7873L14.283 12.7532C14.5789 12.4115 14.8201 11.9885 14.9014 11.4862C14.9844 10.9726 14.8825 10.4846 14.6678 10.0565L14.6609 10.0426L14.6535 10.0289L10.556 2.34066C10.3865 1.9761 10.0197 1.42043 9.29557 1.28223C8.57269 1.14426 8.01126 1.52889 7.726 1.77312L7.68921 1.80463L7.65495 1.83888L2.5624 6.93143L2.53055 6.96328L2.50107 6.99734C2.00208 7.57378 1.66173 8.24853 1.56931 9.01404Z" stroke="#737D6D" stroke-width="2.5"/>
</svg>
