<svg width="424" height="122" viewBox="0 0 424 122" fill="none" xmlns="http://www.w3.org/2000/svg">
<path fill-rule="evenodd" clip-rule="evenodd" d="M396.565 1.52588e-05C401.536 1.52588e-05 405.565 4.02931 405.565 9.00002V103.423L424 121.908H397.855C397.434 121.968 397.003 122 396.565 122L9.00009 122C4.02939 122 9.15527e-05 117.97 9.15527e-05 113V9.00002C9.15527e-05 4.02931 4.02939 1.52588e-05 9.00009 1.52588e-05L396.565 1.52588e-05Z" fill="#1C3947"/>
<path d="M29.64 55V47.248H22.68V55H20.4V38.464H22.68V45.376H29.64V38.464H31.92V55H29.64ZM46.1445 48.304C46.1445 48.672 46.1285 49.048 46.0965 49.432H38.0325C38.1285 50.824 38.4805 51.848 39.0885 52.504C39.6965 53.16 40.4805 53.488 41.4405 53.488C42.0485 53.488 42.6085 53.4 43.1205 53.224C43.6325 53.048 44.1685 52.768 44.7285 52.384L45.6885 53.704C44.3445 54.76 42.8725 55.288 41.2725 55.288C39.5125 55.288 38.1365 54.712 37.1445 53.56C36.1685 52.408 35.6805 50.824 35.6805 48.808C35.6805 47.496 35.8885 46.336 36.3045 45.328C36.7365 44.304 37.3445 43.504 38.1285 42.928C38.9285 42.352 39.8645 42.064 40.9365 42.064C42.6165 42.064 43.9045 42.616 44.8005 43.72C45.6965 44.824 46.1445 46.352 46.1445 48.304ZM43.9605 47.656C43.9605 46.408 43.7125 45.456 43.2165 44.8C42.7205 44.144 41.9765 43.816 40.9845 43.816C39.1765 43.816 38.1925 45.144 38.0325 47.8H43.9605V47.656ZM52.1906 55.288C51.3746 55.288 50.7266 55.048 50.2466 54.568C49.7826 54.072 49.5506 53.384 49.5506 52.504V37.264L51.7586 37V52.456C51.7586 52.808 51.8146 53.064 51.9266 53.224C52.0546 53.384 52.2626 53.464 52.5506 53.464C52.8546 53.464 53.1266 53.416 53.3666 53.32L53.9426 54.856C53.4146 55.144 52.8306 55.288 52.1906 55.288ZM59.2219 55.288C58.4059 55.288 57.7579 55.048 57.2779 54.568C56.8139 54.072 56.5819 53.384 56.5819 52.504V37.264L58.7899 37V52.456C58.7899 52.808 58.8459 53.064 58.9579 53.224C59.0859 53.384 59.2939 53.464 59.5819 53.464C59.8859 53.464 60.1579 53.416 60.3979 53.32L60.9739 54.856C60.4459 55.144 59.8619 55.288 59.2219 55.288ZM68.3679 42.064C70.1439 42.064 71.5199 42.656 72.4959 43.84C73.4879 45.024 73.9839 46.632 73.9839 48.664C73.9839 49.976 73.7599 51.136 73.3119 52.144C72.8639 53.136 72.2159 53.912 71.3679 54.472C70.5199 55.016 69.5119 55.288 68.3439 55.288C66.5679 55.288 65.1839 54.696 64.1919 53.512C63.1999 52.328 62.7039 50.72 62.7039 48.688C62.7039 47.376 62.9279 46.224 63.3759 45.232C63.8239 44.224 64.4719 43.448 65.3199 42.904C66.1679 42.344 67.1839 42.064 68.3679 42.064ZM68.3679 43.84C66.1759 43.84 65.0799 45.456 65.0799 48.688C65.0799 51.904 66.1679 53.512 68.3439 53.512C70.5199 53.512 71.6079 51.896 71.6079 48.664C71.6079 45.448 70.5279 43.84 68.3679 43.84ZM90.1991 38.176C91.2391 38.176 92.1351 38.328 92.8871 38.632C93.6551 38.92 94.4151 39.376 95.1671 40L93.8231 41.392C93.2311 40.912 92.6631 40.568 92.1191 40.36C91.5751 40.152 90.9351 40.048 90.1991 40.048C89.3511 40.048 88.5671 40.28 87.8471 40.744C87.1431 41.192 86.5671 41.92 86.1191 42.928C85.6711 43.92 85.4471 45.184 85.4471 46.72C85.4471 49.04 85.8231 50.736 86.5751 51.808C87.3431 52.88 88.4711 53.416 89.9591 53.416C91.1751 53.416 92.2231 53.168 93.1031 52.672V47.68H90.1751L89.9111 45.832H95.3591V53.824C93.6471 54.8 91.8471 55.288 89.9591 55.288C87.7831 55.288 86.0791 54.56 84.8471 53.104C83.6311 51.648 83.0231 49.52 83.0231 46.72C83.0231 44.928 83.3431 43.392 83.9831 42.112C84.6391 40.816 85.5111 39.84 86.5991 39.184C87.7031 38.512 88.9031 38.176 90.1991 38.176ZM108.532 55H106.636L106.468 53.032C105.988 53.816 105.436 54.392 104.812 54.76C104.188 55.112 103.428 55.288 102.532 55.288C101.428 55.288 100.564 54.952 99.9398 54.28C99.3158 53.608 99.0038 52.656 99.0038 51.424V42.352H101.212V51.184C101.212 52.048 101.364 52.664 101.668 53.032C101.972 53.384 102.468 53.56 103.156 53.56C104.388 53.56 105.444 52.832 106.324 51.376V42.352H108.532V55ZM118.157 55.072C117.661 56.544 116.965 57.704 116.069 58.552C115.189 59.416 113.925 59.936 112.277 60.112L112.037 58.384C112.869 58.24 113.533 58.032 114.029 57.76C114.525 57.488 114.917 57.136 115.205 56.704C115.509 56.288 115.789 55.72 116.045 55H115.301L111.053 42.352H113.405L116.789 53.392L120.101 42.352H122.381L118.157 55.072ZM128.173 42.064C129.037 42.064 129.813 42.184 130.501 42.424C131.189 42.664 131.845 43.024 132.469 43.504L131.533 44.896C130.957 44.528 130.405 44.256 129.877 44.08C129.365 43.904 128.821 43.816 128.245 43.816C127.525 43.816 126.957 43.968 126.541 44.272C126.125 44.56 125.917 44.96 125.917 45.472C125.917 45.984 126.109 46.384 126.493 46.672C126.893 46.96 127.605 47.24 128.629 47.512C130.037 47.864 131.085 48.344 131.773 48.952C132.477 49.56 132.829 50.392 132.829 51.448C132.829 52.696 132.341 53.648 131.365 54.304C130.405 54.96 129.229 55.288 127.837 55.288C125.917 55.288 124.325 54.736 123.061 53.632L124.237 52.288C125.309 53.104 126.493 53.512 127.789 53.512C128.621 53.512 129.277 53.344 129.757 53.008C130.253 52.656 130.501 52.184 130.501 51.592C130.501 51.16 130.413 50.816 130.237 50.56C130.061 50.288 129.757 50.056 129.325 49.864C128.893 49.656 128.261 49.44 127.429 49.216C126.085 48.864 125.109 48.392 124.501 47.8C123.909 47.208 123.613 46.456 123.613 45.544C123.613 44.888 123.805 44.296 124.189 43.768C124.589 43.224 125.133 42.808 125.821 42.52C126.525 42.216 127.309 42.064 128.173 42.064ZM136.52 51.952C137 51.952 137.4 52.112 137.72 52.432C138.04 52.752 138.2 53.144 138.2 53.608C138.2 54.104 138.056 54.672 137.768 55.312L136.16 58.984H134.576L135.536 55C135.328 54.84 135.16 54.64 135.032 54.4C134.92 54.16 134.864 53.896 134.864 53.608C134.864 53.144 135.024 52.752 135.344 52.432C135.664 52.112 136.056 51.952 136.52 51.952ZM150.461 38.464V55H148.181V38.464H150.461ZM170.011 52.048C170.011 52.56 170.099 52.944 170.275 53.2C170.451 53.44 170.715 53.624 171.067 53.752L170.563 55.288C169.907 55.208 169.379 55.024 168.979 54.736C168.579 54.448 168.283 54 168.091 53.392C167.243 54.656 165.987 55.288 164.323 55.288C163.075 55.288 162.091 54.936 161.371 54.232C160.651 53.528 160.291 52.608 160.291 51.472C160.291 50.128 160.771 49.096 161.731 48.376C162.707 47.656 164.083 47.296 165.859 47.296H167.803V46.36C167.803 45.464 167.587 44.824 167.155 44.44C166.723 44.056 166.059 43.864 165.163 43.864C164.235 43.864 163.099 44.088 161.755 44.536L161.203 42.928C162.771 42.352 164.227 42.064 165.571 42.064C167.059 42.064 168.171 42.432 168.907 43.168C169.643 43.888 170.011 44.92 170.011 46.264V52.048ZM164.827 53.632C166.091 53.632 167.083 52.976 167.803 51.664V48.76H166.147C163.811 48.76 162.643 49.624 162.643 51.352C162.643 52.104 162.827 52.672 163.195 53.056C163.563 53.44 164.107 53.632 164.827 53.632ZM187.242 42.064C188.282 42.064 189.114 42.416 189.738 43.12C190.362 43.808 190.674 44.744 190.674 45.928V55H188.466V46.24C188.466 44.608 187.874 43.792 186.69 43.792C186.066 43.792 185.538 43.976 185.106 44.344C184.674 44.696 184.21 45.256 183.714 46.024V55H181.506V46.24C181.506 44.608 180.914 43.792 179.73 43.792C179.09 43.792 178.554 43.976 178.122 44.344C177.69 44.712 177.234 45.272 176.754 46.024V55H174.546V42.352H176.442L176.634 44.2C177.578 42.776 178.794 42.064 180.282 42.064C181.066 42.064 181.73 42.264 182.274 42.664C182.834 43.064 183.234 43.624 183.474 44.344C183.97 43.608 184.514 43.048 185.106 42.664C185.714 42.264 186.426 42.064 187.242 42.064ZM207.427 42.064C208.579 42.064 209.475 42.408 210.115 43.096C210.771 43.784 211.099 44.728 211.099 45.928V55H208.891V46.24C208.891 45.344 208.723 44.712 208.387 44.344C208.051 43.976 207.555 43.792 206.899 43.792C206.227 43.792 205.635 43.984 205.123 44.368C204.611 44.752 204.131 45.304 203.683 46.024V55H201.475V42.352H203.371L203.563 44.224C204.011 43.552 204.563 43.024 205.219 42.64C205.891 42.256 206.627 42.064 207.427 42.064ZM225.09 48.304C225.09 48.672 225.074 49.048 225.042 49.432H216.978C217.074 50.824 217.426 51.848 218.034 52.504C218.642 53.16 219.426 53.488 220.386 53.488C220.994 53.488 221.554 53.4 222.066 53.224C222.578 53.048 223.114 52.768 223.674 52.384L224.634 53.704C223.29 54.76 221.818 55.288 220.218 55.288C218.458 55.288 217.082 54.712 216.09 53.56C215.114 52.408 214.626 50.824 214.626 48.808C214.626 47.496 214.834 46.336 215.25 45.328C215.682 44.304 216.29 43.504 217.074 42.928C217.874 42.352 218.81 42.064 219.882 42.064C221.562 42.064 222.85 42.616 223.746 43.72C224.642 44.824 225.09 46.352 225.09 48.304ZM222.906 47.656C222.906 46.408 222.658 45.456 222.162 44.8C221.666 44.144 220.922 43.816 219.93 43.816C218.122 43.816 217.138 45.144 216.978 47.8H222.906V47.656ZM243.064 42.352L240.184 55H237.184L234.976 44.344L232.696 55H229.768L226.816 42.352H229.024L231.304 53.464L233.8 42.352H236.272L238.648 53.464L240.952 42.352H243.064ZM258.123 42.064C259.275 42.064 260.171 42.408 260.811 43.096C261.467 43.784 261.795 44.728 261.795 45.928V55H259.587V46.24C259.587 45.344 259.411 44.712 259.059 44.344C258.723 43.976 258.227 43.792 257.571 43.792C256.915 43.792 256.331 43.984 255.819 44.368C255.307 44.752 254.827 45.296 254.379 46V55H252.171V37.288L254.379 37.048V44.104C255.371 42.744 256.619 42.064 258.123 42.064ZM275.785 48.304C275.785 48.672 275.769 49.048 275.737 49.432H267.673C267.769 50.824 268.121 51.848 268.729 52.504C269.337 53.16 270.121 53.488 271.081 53.488C271.689 53.488 272.249 53.4 272.761 53.224C273.273 53.048 273.809 52.768 274.369 52.384L275.329 53.704C273.985 54.76 272.513 55.288 270.913 55.288C269.153 55.288 267.777 54.712 266.785 53.56C265.809 52.408 265.321 50.824 265.321 48.808C265.321 47.496 265.529 46.336 265.945 45.328C266.377 44.304 266.985 43.504 267.769 42.928C268.569 42.352 269.505 42.064 270.577 42.064C272.257 42.064 273.545 42.616 274.441 43.72C275.337 44.824 275.785 46.352 275.785 48.304ZM273.601 47.656C273.601 46.408 273.353 45.456 272.857 44.8C272.361 44.144 271.617 43.816 270.625 43.816C268.817 43.816 267.833 45.144 267.673 47.8H273.601V47.656ZM284.807 42.064C285.255 42.064 285.671 42.112 286.055 42.208L285.647 44.368C285.263 44.272 284.895 44.224 284.543 44.224C283.759 44.224 283.127 44.512 282.647 45.088C282.167 45.664 281.791 46.56 281.519 47.776V55H279.311V42.352H281.207L281.423 44.92C281.759 43.976 282.215 43.264 282.791 42.784C283.367 42.304 284.039 42.064 284.807 42.064ZM297.395 48.304C297.395 48.672 297.379 49.048 297.347 49.432H289.283C289.379 50.824 289.731 51.848 290.339 52.504C290.947 53.16 291.731 53.488 292.691 53.488C293.299 53.488 293.859 53.4 294.371 53.224C294.883 53.048 295.419 52.768 295.979 52.384L296.939 53.704C295.595 54.76 294.123 55.288 292.523 55.288C290.763 55.288 289.387 54.712 288.395 53.56C287.419 52.408 286.931 50.824 286.931 48.808C286.931 47.496 287.139 46.336 287.555 45.328C287.987 44.304 288.595 43.504 289.379 42.928C290.179 42.352 291.115 42.064 292.187 42.064C293.867 42.064 295.155 42.616 296.051 43.72C296.947 44.824 297.395 46.352 297.395 48.304ZM295.211 47.656C295.211 46.408 294.963 45.456 294.467 44.8C293.971 44.144 293.227 43.816 292.235 43.816C290.427 43.816 289.443 45.144 289.283 47.8H295.211V47.656ZM301.262 51.952C301.742 51.952 302.142 52.112 302.462 52.432C302.782 52.752 302.942 53.144 302.942 53.608C302.942 54.104 302.798 54.672 302.51 55.312L300.902 58.984H299.318L300.278 55C300.07 54.84 299.902 54.64 299.774 54.4C299.662 54.16 299.606 53.896 299.606 53.608C299.606 53.144 299.766 52.752 300.086 52.432C300.406 52.112 300.798 51.952 301.262 51.952ZM327.251 42.352L324.371 55H321.371L319.163 44.344L316.883 55H313.955L311.003 42.352H313.211L315.491 53.464L317.987 42.352H320.459L322.835 53.464L325.139 42.352H327.251ZM338.245 52.048C338.245 52.56 338.333 52.944 338.509 53.2C338.685 53.44 338.949 53.624 339.301 53.752L338.797 55.288C338.141 55.208 337.613 55.024 337.213 54.736C336.813 54.448 336.517 54 336.325 53.392C335.477 54.656 334.221 55.288 332.557 55.288C331.309 55.288 330.325 54.936 329.605 54.232C328.885 53.528 328.525 52.608 328.525 51.472C328.525 50.128 329.005 49.096 329.965 48.376C330.941 47.656 332.317 47.296 334.093 47.296H336.037V46.36C336.037 45.464 335.821 44.824 335.389 44.44C334.957 44.056 334.293 43.864 333.397 43.864C332.469 43.864 331.333 44.088 329.989 44.536L329.437 42.928C331.005 42.352 332.461 42.064 333.805 42.064C335.293 42.064 336.405 42.432 337.141 43.168C337.877 43.888 338.245 44.92 338.245 46.264V52.048ZM333.061 53.632C334.325 53.632 335.317 52.976 336.037 51.664V48.76H334.381C332.045 48.76 330.877 49.624 330.877 51.352C330.877 52.104 331.061 52.672 331.429 53.056C331.797 53.44 332.341 53.632 333.061 53.632ZM348.732 42.064C349.884 42.064 350.78 42.408 351.42 43.096C352.076 43.784 352.404 44.728 352.404 45.928V55H350.196V46.24C350.196 45.344 350.028 44.712 349.692 44.344C349.356 43.976 348.86 43.792 348.204 43.792C347.532 43.792 346.94 43.984 346.428 44.368C345.916 44.752 345.436 45.304 344.988 46.024V55H342.78V42.352H344.676L344.868 44.224C345.316 43.552 345.868 43.024 346.524 42.64C347.196 42.256 347.932 42.064 348.732 42.064ZM363.227 54.424C362.395 55 361.451 55.288 360.395 55.288C359.323 55.288 358.483 54.984 357.875 54.376C357.283 53.752 356.987 52.856 356.987 51.688V44.056H354.779V42.352H356.987V39.496L359.195 39.232V42.352H362.195L361.955 44.056H359.195V51.592C359.195 52.248 359.307 52.728 359.531 53.032C359.771 53.32 360.163 53.464 360.707 53.464C361.203 53.464 361.763 53.296 362.387 52.96L363.227 54.424ZM26.664 90.424C25.832 91 24.888 91.288 23.832 91.288C22.76 91.288 21.92 90.984 21.312 90.376C20.72 89.752 20.424 88.856 20.424 87.688V80.056H18.216V78.352H20.424V75.496L22.632 75.232V78.352H25.632L25.392 80.056H22.632V87.592C22.632 88.248 22.744 88.728 22.968 89.032C23.208 89.32 23.6 89.464 24.144 89.464C24.64 89.464 25.2 89.296 25.824 88.96L26.664 90.424ZM33.3523 78.064C35.1283 78.064 36.5043 78.656 37.4803 79.84C38.4723 81.024 38.9683 82.632 38.9683 84.664C38.9683 85.976 38.7443 87.136 38.2963 88.144C37.8483 89.136 37.2003 89.912 36.3523 90.472C35.5043 91.016 34.4963 91.288 33.3283 91.288C31.5523 91.288 30.1683 90.696 29.1763 89.512C28.1843 88.328 27.6883 86.72 27.6883 84.688C27.6883 83.376 27.9123 82.224 28.3603 81.232C28.8083 80.224 29.4563 79.448 30.3043 78.904C31.1523 78.344 32.1683 78.064 33.3523 78.064ZM33.3523 79.84C31.1603 79.84 30.0643 81.456 30.0643 84.688C30.0643 87.904 31.1523 89.512 33.3283 89.512C35.5043 89.512 36.5923 87.896 36.5923 84.664C36.5923 81.448 35.5123 79.84 33.3523 79.84ZM51.1755 73V91H48.9675V73.264L51.1755 73ZM58.4475 78.352L53.7915 83.944L58.9755 91H56.3355L51.3195 84.088L55.9755 78.352H58.4475ZM67.2008 78.064C68.3528 78.064 69.2488 78.408 69.8888 79.096C70.5448 79.784 70.8728 80.728 70.8728 81.928V91H68.6648V82.24C68.6648 81.344 68.4968 80.712 68.1608 80.344C67.8248 79.976 67.3288 79.792 66.6728 79.792C66.0008 79.792 65.4088 79.984 64.8968 80.368C64.3848 80.752 63.9048 81.304 63.4568 82.024V91H61.2488V78.352H63.1448L63.3368 80.224C63.7848 79.552 64.3368 79.024 64.9928 78.64C65.6648 78.256 66.4008 78.064 67.2008 78.064ZM80.0633 78.064C81.8393 78.064 83.2153 78.656 84.1913 79.84C85.1833 81.024 85.6793 82.632 85.6793 84.664C85.6793 85.976 85.4553 87.136 85.0073 88.144C84.5593 89.136 83.9113 89.912 83.0633 90.472C82.2153 91.016 81.2073 91.288 80.0393 91.288C78.2633 91.288 76.8793 90.696 75.8873 89.512C74.8953 88.328 74.3993 86.72 74.3993 84.688C74.3993 83.376 74.6233 82.224 75.0713 81.232C75.5193 80.224 76.1673 79.448 77.0153 78.904C77.8633 78.344 78.8793 78.064 80.0633 78.064ZM80.0633 79.84C77.8713 79.84 76.7753 81.456 76.7753 84.688C76.7753 87.904 77.8633 89.512 80.0393 89.512C82.2153 89.512 83.3033 87.896 83.3033 84.664C83.3033 81.448 82.2233 79.84 80.0633 79.84ZM103.775 78.352L100.895 91H97.8949L95.6869 80.344L93.4069 91H90.4789L87.5269 78.352H89.7349L92.0149 89.464L94.5109 78.352H96.9829L99.3589 89.464L101.663 78.352H103.775ZM121.402 88.048C121.402 88.56 121.49 88.944 121.666 89.2C121.842 89.44 122.106 89.624 122.458 89.752L121.954 91.288C121.298 91.208 120.77 91.024 120.37 90.736C119.97 90.448 119.674 90 119.482 89.392C118.634 90.656 117.378 91.288 115.714 91.288C114.466 91.288 113.482 90.936 112.762 90.232C112.042 89.528 111.682 88.608 111.682 87.472C111.682 86.128 112.162 85.096 113.122 84.376C114.098 83.656 115.474 83.296 117.25 83.296H119.194V82.36C119.194 81.464 118.978 80.824 118.546 80.44C118.114 80.056 117.45 79.864 116.554 79.864C115.626 79.864 114.49 80.088 113.146 80.536L112.594 78.928C114.162 78.352 115.618 78.064 116.962 78.064C118.45 78.064 119.562 78.432 120.298 79.168C121.034 79.888 121.402 80.92 121.402 82.264V88.048ZM116.218 89.632C117.482 89.632 118.474 88.976 119.194 87.664V84.76H117.538C115.202 84.76 114.034 85.624 114.034 87.352C114.034 88.104 114.218 88.672 114.586 89.056C114.954 89.44 115.498 89.632 116.218 89.632ZM131.72 78.064C133.16 78.064 134.304 78.648 135.152 79.816C136 80.968 136.424 82.584 136.424 84.664C136.424 85.976 136.224 87.136 135.824 88.144C135.424 89.136 134.848 89.912 134.096 90.472C133.344 91.016 132.464 91.288 131.456 91.288C130.128 91.288 129.008 90.728 128.096 89.608L127.88 91H125.936V73.264L128.144 73V79.936C129.056 78.688 130.248 78.064 131.72 78.064ZM130.928 89.536C131.904 89.536 132.664 89.144 133.208 88.36C133.768 87.56 134.048 86.328 134.048 84.664C134.048 82.952 133.792 81.72 133.28 80.968C132.768 80.2 132.04 79.816 131.096 79.816C129.976 79.816 128.992 80.472 128.144 81.784V87.832C128.48 88.36 128.888 88.776 129.368 89.08C129.864 89.384 130.384 89.536 130.928 89.536ZM144.938 78.064C146.714 78.064 148.09 78.656 149.066 79.84C150.058 81.024 150.554 82.632 150.554 84.664C150.554 85.976 150.33 87.136 149.882 88.144C149.434 89.136 148.786 89.912 147.938 90.472C147.09 91.016 146.082 91.288 144.914 91.288C143.138 91.288 141.754 90.696 140.762 89.512C139.77 88.328 139.274 86.72 139.274 84.688C139.274 83.376 139.498 82.224 139.946 81.232C140.394 80.224 141.042 79.448 141.89 78.904C142.738 78.344 143.754 78.064 144.938 78.064ZM144.938 79.84C142.746 79.84 141.65 81.456 141.65 84.688C141.65 87.904 142.738 89.512 144.914 89.512C147.09 89.512 148.178 87.896 148.178 84.664C148.178 81.448 147.098 79.84 144.938 79.84ZM163.61 91H161.714L161.546 89.032C161.066 89.816 160.514 90.392 159.89 90.76C159.266 91.112 158.506 91.288 157.61 91.288C156.506 91.288 155.642 90.952 155.018 90.28C154.394 89.608 154.082 88.656 154.082 87.424V78.352H156.29V87.184C156.29 88.048 156.442 88.664 156.746 89.032C157.05 89.384 157.546 89.56 158.234 89.56C159.466 89.56 160.522 88.832 161.402 87.376V78.352H163.61V91ZM174.555 90.424C173.723 91 172.779 91.288 171.723 91.288C170.651 91.288 169.811 90.984 169.203 90.376C168.611 89.752 168.315 88.856 168.315 87.688V80.056H166.107V78.352H168.315V75.496L170.523 75.232V78.352H173.523L173.283 80.056H170.523V87.592C170.523 88.248 170.635 88.728 170.859 89.032C171.099 89.32 171.491 89.464 172.035 89.464C172.531 89.464 173.091 89.296 173.715 88.96L174.555 90.424ZM188.162 83.992H185.594V91H183.314V74.464H187.658C189.722 74.464 191.282 74.856 192.338 75.64C193.41 76.424 193.946 77.592 193.946 79.144C193.946 80.296 193.65 81.232 193.058 81.952C192.466 82.672 191.57 83.216 190.37 83.584L194.834 91H192.122L188.162 83.992ZM187.898 82.24C189.098 82.24 190.002 82 190.61 81.52C191.218 81.024 191.522 80.232 191.522 79.144C191.522 78.12 191.21 77.384 190.586 76.936C189.978 76.472 188.994 76.24 187.634 76.24H185.594V82.24H187.898ZM199.933 78.352V91H197.725V78.352H199.933ZM198.805 72.28C199.269 72.28 199.645 72.424 199.933 72.712C200.221 73 200.365 73.36 200.365 73.792C200.365 74.224 200.221 74.584 199.933 74.872C199.645 75.144 199.269 75.28 198.805 75.28C198.357 75.28 197.989 75.144 197.701 74.872C197.413 74.584 197.269 74.224 197.269 73.792C197.269 73.36 197.413 73 197.701 72.712C197.989 72.424 198.357 72.28 198.805 72.28ZM213.787 78.352L209.491 91H206.827L202.459 78.352H204.859L208.171 89.032L211.459 78.352H213.787ZM225.77 84.304C225.77 84.672 225.754 85.048 225.722 85.432H217.658C217.754 86.824 218.106 87.848 218.714 88.504C219.322 89.16 220.106 89.488 221.066 89.488C221.674 89.488 222.234 89.4 222.746 89.224C223.258 89.048 223.794 88.768 224.354 88.384L225.314 89.704C223.97 90.76 222.498 91.288 220.898 91.288C219.138 91.288 217.762 90.712 216.77 89.56C215.794 88.408 215.306 86.824 215.306 84.808C215.306 83.496 215.514 82.336 215.93 81.328C216.362 80.304 216.97 79.504 217.754 78.928C218.554 78.352 219.49 78.064 220.562 78.064C222.242 78.064 223.53 78.616 224.426 79.72C225.322 80.824 225.77 82.352 225.77 84.304ZM223.586 83.656C223.586 82.408 223.338 81.456 222.842 80.8C222.346 80.144 221.602 79.816 220.61 79.816C218.802 79.816 217.818 81.144 217.658 83.8H223.586V83.656ZM234.792 78.064C235.24 78.064 235.656 78.112 236.04 78.208L235.632 80.368C235.248 80.272 234.88 80.224 234.528 80.224C233.744 80.224 233.112 80.512 232.632 81.088C232.152 81.664 231.776 82.56 231.504 83.776V91H229.296V78.352H231.192L231.408 80.92C231.744 79.976 232.2 79.264 232.776 78.784C233.352 78.304 234.024 78.064 234.792 78.064ZM249.873 83.992H247.305V91H245.025V74.464H249.369C251.433 74.464 252.993 74.856 254.049 75.64C255.121 76.424 255.657 77.592 255.657 79.144C255.657 80.296 255.361 81.232 254.769 81.952C254.177 82.672 253.281 83.216 252.081 83.584L256.545 91H253.833L249.873 83.992ZM249.609 82.24C250.809 82.24 251.713 82 252.321 81.52C252.929 81.024 253.233 80.232 253.233 79.144C253.233 78.12 252.921 77.384 252.297 76.936C251.689 76.472 250.705 76.24 249.345 76.24H247.305V82.24H249.609ZM267.722 88.048C267.722 88.56 267.81 88.944 267.986 89.2C268.162 89.44 268.426 89.624 268.778 89.752L268.274 91.288C267.618 91.208 267.09 91.024 266.69 90.736C266.29 90.448 265.994 90 265.802 89.392C264.954 90.656 263.698 91.288 262.034 91.288C260.786 91.288 259.802 90.936 259.082 90.232C258.362 89.528 258.002 88.608 258.002 87.472C258.002 86.128 258.482 85.096 259.442 84.376C260.418 83.656 261.794 83.296 263.57 83.296H265.514V82.36C265.514 81.464 265.298 80.824 264.866 80.44C264.434 80.056 263.77 79.864 262.874 79.864C261.946 79.864 260.81 80.088 259.466 80.536L258.914 78.928C260.482 78.352 261.938 78.064 263.282 78.064C264.77 78.064 265.882 78.432 266.618 79.168C267.354 79.888 267.722 80.92 267.722 82.264V88.048ZM262.538 89.632C263.802 89.632 264.794 88.976 265.514 87.664V84.76H263.858C261.522 84.76 260.354 85.624 260.354 87.352C260.354 88.104 260.538 88.672 260.906 89.056C261.274 89.44 261.818 89.632 262.538 89.632ZM276.553 74.776C275.881 74.776 275.401 74.928 275.113 75.232C274.825 75.52 274.681 75.976 274.681 76.6V78.352H277.753L277.513 80.056H274.681V91H272.473V80.056H270.217V78.352H272.473V76.624C272.473 75.536 272.817 74.664 273.505 74.008C274.209 73.336 275.185 73 276.433 73C277.009 73 277.521 73.056 277.969 73.168C278.433 73.264 278.929 73.424 279.457 73.648L278.761 75.256C278.041 74.936 277.305 74.776 276.553 74.776ZM286.68 90.424C285.848 91 284.904 91.288 283.848 91.288C282.776 91.288 281.936 90.984 281.328 90.376C280.736 89.752 280.44 88.856 280.44 87.688V80.056H278.232V78.352H280.44V75.496L282.648 75.232V78.352H285.648L285.408 80.056H282.648V87.592C282.648 88.248 282.76 88.728 282.984 89.032C283.224 89.32 283.616 89.464 284.16 89.464C284.656 89.464 285.216 89.296 285.84 88.96L286.68 90.424ZM295.352 90.424C294.52 91 293.576 91.288 292.52 91.288C291.448 91.288 290.608 90.984 290 90.376C289.408 89.752 289.112 88.856 289.112 87.688V80.056H286.904V78.352H289.112V75.496L291.32 75.232V78.352H294.32L294.08 80.056H291.32V87.592C291.32 88.248 291.432 88.728 291.656 89.032C291.896 89.32 292.288 89.464 292.832 89.464C293.328 89.464 293.888 89.296 294.512 88.96L295.352 90.424ZM299.847 78.352V91H297.639V78.352H299.847ZM298.719 72.28C299.183 72.28 299.559 72.424 299.847 72.712C300.135 73 300.279 73.36 300.279 73.792C300.279 74.224 300.135 74.584 299.847 74.872C299.559 75.144 299.183 75.28 298.719 75.28C298.271 75.28 297.903 75.144 297.615 74.872C297.327 74.584 297.183 74.224 297.183 73.792C297.183 73.36 297.327 73 297.615 72.712C297.903 72.424 298.271 72.28 298.719 72.28ZM310.365 78.064C311.517 78.064 312.413 78.408 313.053 79.096C313.709 79.784 314.037 80.728 314.037 81.928V91H311.829V82.24C311.829 81.344 311.661 80.712 311.325 80.344C310.989 79.976 310.493 79.792 309.837 79.792C309.165 79.792 308.573 79.984 308.061 80.368C307.549 80.752 307.069 81.304 306.621 82.024V91H304.413V78.352H306.309L306.501 80.224C306.949 79.552 307.501 79.024 308.157 78.64C308.829 78.256 309.565 78.064 310.365 78.064ZM328.675 78.928C328.195 79.088 327.667 79.192 327.091 79.24C326.515 79.288 325.811 79.312 324.979 79.312C326.467 79.984 327.211 81.048 327.211 82.504C327.211 83.768 326.779 84.8 325.915 85.6C325.051 86.4 323.875 86.8 322.387 86.8C321.811 86.8 321.275 86.72 320.779 86.56C320.587 86.688 320.435 86.864 320.323 87.088C320.211 87.296 320.155 87.512 320.155 87.736C320.155 88.424 320.707 88.768 321.811 88.768H323.827C324.675 88.768 325.427 88.92 326.083 89.224C326.739 89.528 327.243 89.944 327.595 90.472C327.963 91 328.147 91.6 328.147 92.272C328.147 93.504 327.643 94.448 326.635 95.104C325.627 95.776 324.155 96.112 322.219 96.112C320.859 96.112 319.779 95.968 318.979 95.68C318.195 95.408 317.635 94.992 317.299 94.432C316.963 93.872 316.795 93.152 316.795 92.272H318.787C318.787 92.784 318.883 93.184 319.075 93.472C319.267 93.776 319.611 94 320.107 94.144C320.603 94.304 321.307 94.384 322.219 94.384C323.547 94.384 324.491 94.216 325.051 93.88C325.627 93.56 325.915 93.072 325.915 92.416C325.915 91.824 325.691 91.376 325.243 91.072C324.795 90.768 324.171 90.616 323.371 90.616H321.379C320.307 90.616 319.491 90.392 318.931 89.944C318.387 89.48 318.115 88.904 318.115 88.216C318.115 87.8 318.235 87.4 318.475 87.016C318.715 86.632 319.059 86.288 319.507 85.984C318.771 85.6 318.227 85.128 317.875 84.568C317.539 83.992 317.371 83.296 317.371 82.48C317.371 81.632 317.579 80.872 317.995 80.2C318.427 79.528 319.011 79.008 319.747 78.64C320.499 78.256 321.331 78.064 322.243 78.064C323.235 78.08 324.067 78.048 324.739 77.968C325.411 77.872 325.963 77.752 326.395 77.608C326.843 77.448 327.387 77.224 328.027 76.936L328.675 78.928ZM322.243 79.648C321.411 79.648 320.763 79.912 320.299 80.44C319.851 80.952 319.627 81.632 319.627 82.48C319.627 83.344 319.859 84.04 320.323 84.568C320.787 85.08 321.443 85.336 322.291 85.336C323.155 85.336 323.811 85.088 324.259 84.592C324.723 84.08 324.955 83.368 324.955 82.456C324.955 80.584 324.051 79.648 322.243 79.648ZM331.52 87.952C332 87.952 332.4 88.112 332.72 88.432C333.04 88.752 333.2 89.144 333.2 89.608C333.2 90.072 333.04 90.472 332.72 90.808C332.4 91.128 332 91.288 331.52 91.288C331.056 91.288 330.664 91.128 330.344 90.808C330.024 90.472 329.864 90.072 329.864 89.608C329.864 89.144 330.024 88.752 330.344 88.432C330.664 88.112 331.056 87.952 331.52 87.952Z" fill="white"/>
<mask id="mask0_0_7127" style="mask-type:luminance" maskUnits="userSpaceOnUse" x="18" y="37" width="346" height="60">
<path d="M29.64 55V47.248H22.68V55H20.4V38.464H22.68V45.376H29.64V38.464H31.92V55H29.64ZM46.1445 48.304C46.1445 48.672 46.1285 49.048 46.0965 49.432H38.0325C38.1285 50.824 38.4805 51.848 39.0885 52.504C39.6965 53.16 40.4805 53.488 41.4405 53.488C42.0485 53.488 42.6085 53.4 43.1205 53.224C43.6325 53.048 44.1685 52.768 44.7285 52.384L45.6885 53.704C44.3445 54.76 42.8725 55.288 41.2725 55.288C39.5125 55.288 38.1365 54.712 37.1445 53.56C36.1685 52.408 35.6805 50.824 35.6805 48.808C35.6805 47.496 35.8885 46.336 36.3045 45.328C36.7365 44.304 37.3445 43.504 38.1285 42.928C38.9285 42.352 39.8645 42.064 40.9365 42.064C42.6165 42.064 43.9045 42.616 44.8005 43.72C45.6965 44.824 46.1445 46.352 46.1445 48.304ZM43.9605 47.656C43.9605 46.408 43.7125 45.456 43.2165 44.8C42.7205 44.144 41.9765 43.816 40.9845 43.816C39.1765 43.816 38.1925 45.144 38.0325 47.8H43.9605V47.656ZM52.1906 55.288C51.3746 55.288 50.7266 55.048 50.2466 54.568C49.7826 54.072 49.5506 53.384 49.5506 52.504V37.264L51.7586 37V52.456C51.7586 52.808 51.8146 53.064 51.9266 53.224C52.0546 53.384 52.2626 53.464 52.5506 53.464C52.8546 53.464 53.1266 53.416 53.3666 53.32L53.9426 54.856C53.4146 55.144 52.8306 55.288 52.1906 55.288ZM59.2219 55.288C58.4059 55.288 57.7579 55.048 57.2779 54.568C56.8139 54.072 56.5819 53.384 56.5819 52.504V37.264L58.7899 37V52.456C58.7899 52.808 58.8459 53.064 58.9579 53.224C59.0859 53.384 59.2939 53.464 59.5819 53.464C59.8859 53.464 60.1579 53.416 60.3979 53.32L60.9739 54.856C60.4459 55.144 59.8619 55.288 59.2219 55.288ZM68.3679 42.064C70.1439 42.064 71.5199 42.656 72.4959 43.84C73.4879 45.024 73.9839 46.632 73.9839 48.664C73.9839 49.976 73.7599 51.136 73.3119 52.144C72.8639 53.136 72.2159 53.912 71.3679 54.472C70.5199 55.016 69.5119 55.288 68.3439 55.288C66.5679 55.288 65.1839 54.696 64.1919 53.512C63.1999 52.328 62.7039 50.72 62.7039 48.688C62.7039 47.376 62.9279 46.224 63.3759 45.232C63.8239 44.224 64.4719 43.448 65.3199 42.904C66.1679 42.344 67.1839 42.064 68.3679 42.064ZM68.3679 43.84C66.1759 43.84 65.0799 45.456 65.0799 48.688C65.0799 51.904 66.1679 53.512 68.3439 53.512C70.5199 53.512 71.6079 51.896 71.6079 48.664C71.6079 45.448 70.5279 43.84 68.3679 43.84ZM90.1991 38.176C91.2391 38.176 92.1351 38.328 92.8871 38.632C93.6551 38.92 94.4151 39.376 95.1671 40L93.8231 41.392C93.2311 40.912 92.6631 40.568 92.1191 40.36C91.5751 40.152 90.9351 40.048 90.1991 40.048C89.3511 40.048 88.5671 40.28 87.8471 40.744C87.1431 41.192 86.5671 41.92 86.1191 42.928C85.6711 43.92 85.4471 45.184 85.4471 46.72C85.4471 49.04 85.8231 50.736 86.5751 51.808C87.3431 52.88 88.4711 53.416 89.9591 53.416C91.1751 53.416 92.2231 53.168 93.1031 52.672V47.68H90.1751L89.9111 45.832H95.3591V53.824C93.6471 54.8 91.8471 55.288 89.9591 55.288C87.7831 55.288 86.0791 54.56 84.8471 53.104C83.6311 51.648 83.0231 49.52 83.0231 46.72C83.0231 44.928 83.3431 43.392 83.9831 42.112C84.6391 40.816 85.5111 39.84 86.5991 39.184C87.7031 38.512 88.9031 38.176 90.1991 38.176ZM108.532 55H106.636L106.468 53.032C105.988 53.816 105.436 54.392 104.812 54.76C104.188 55.112 103.428 55.288 102.532 55.288C101.428 55.288 100.564 54.952 99.9398 54.28C99.3158 53.608 99.0038 52.656 99.0038 51.424V42.352H101.212V51.184C101.212 52.048 101.364 52.664 101.668 53.032C101.972 53.384 102.468 53.56 103.156 53.56C104.388 53.56 105.444 52.832 106.324 51.376V42.352H108.532V55ZM118.157 55.072C117.661 56.544 116.965 57.704 116.069 58.552C115.189 59.416 113.925 59.936 112.277 60.112L112.037 58.384C112.869 58.24 113.533 58.032 114.029 57.76C114.525 57.488 114.917 57.136 115.205 56.704C115.509 56.288 115.789 55.72 116.045 55H115.301L111.053 42.352H113.405L116.789 53.392L120.101 42.352H122.381L118.157 55.072ZM128.173 42.064C129.037 42.064 129.813 42.184 130.501 42.424C131.189 42.664 131.845 43.024 132.469 43.504L131.533 44.896C130.957 44.528 130.405 44.256 129.877 44.08C129.365 43.904 128.821 43.816 128.245 43.816C127.525 43.816 126.957 43.968 126.541 44.272C126.125 44.56 125.917 44.96 125.917 45.472C125.917 45.984 126.109 46.384 126.493 46.672C126.893 46.96 127.605 47.24 128.629 47.512C130.037 47.864 131.085 48.344 131.773 48.952C132.477 49.56 132.829 50.392 132.829 51.448C132.829 52.696 132.341 53.648 131.365 54.304C130.405 54.96 129.229 55.288 127.837 55.288C125.917 55.288 124.325 54.736 123.061 53.632L124.237 52.288C125.309 53.104 126.493 53.512 127.789 53.512C128.621 53.512 129.277 53.344 129.757 53.008C130.253 52.656 130.501 52.184 130.501 51.592C130.501 51.16 130.413 50.816 130.237 50.56C130.061 50.288 129.757 50.056 129.325 49.864C128.893 49.656 128.261 49.44 127.429 49.216C126.085 48.864 125.109 48.392 124.501 47.8C123.909 47.208 123.613 46.456 123.613 45.544C123.613 44.888 123.805 44.296 124.189 43.768C124.589 43.224 125.133 42.808 125.821 42.52C126.525 42.216 127.309 42.064 128.173 42.064ZM136.52 51.952C137 51.952 137.4 52.112 137.72 52.432C138.04 52.752 138.2 53.144 138.2 53.608C138.2 54.104 138.056 54.672 137.768 55.312L136.16 58.984H134.576L135.536 55C135.328 54.84 135.16 54.64 135.032 54.4C134.92 54.16 134.864 53.896 134.864 53.608C134.864 53.144 135.024 52.752 135.344 52.432C135.664 52.112 136.056 51.952 136.52 51.952ZM150.461 38.464V55H148.181V38.464H150.461ZM170.011 52.048C170.011 52.56 170.099 52.944 170.275 53.2C170.451 53.44 170.715 53.624 171.067 53.752L170.563 55.288C169.907 55.208 169.379 55.024 168.979 54.736C168.579 54.448 168.283 54 168.091 53.392C167.243 54.656 165.987 55.288 164.323 55.288C163.075 55.288 162.091 54.936 161.371 54.232C160.651 53.528 160.291 52.608 160.291 51.472C160.291 50.128 160.771 49.096 161.731 48.376C162.707 47.656 164.083 47.296 165.859 47.296H167.803V46.36C167.803 45.464 167.587 44.824 167.155 44.44C166.723 44.056 166.059 43.864 165.163 43.864C164.235 43.864 163.099 44.088 161.755 44.536L161.203 42.928C162.771 42.352 164.227 42.064 165.571 42.064C167.059 42.064 168.171 42.432 168.907 43.168C169.643 43.888 170.011 44.92 170.011 46.264V52.048ZM164.827 53.632C166.091 53.632 167.083 52.976 167.803 51.664V48.76H166.147C163.811 48.76 162.643 49.624 162.643 51.352C162.643 52.104 162.827 52.672 163.195 53.056C163.563 53.44 164.107 53.632 164.827 53.632ZM187.242 42.064C188.282 42.064 189.114 42.416 189.738 43.12C190.362 43.808 190.674 44.744 190.674 45.928V55H188.466V46.24C188.466 44.608 187.874 43.792 186.69 43.792C186.066 43.792 185.538 43.976 185.106 44.344C184.674 44.696 184.21 45.256 183.714 46.024V55H181.506V46.24C181.506 44.608 180.914 43.792 179.73 43.792C179.09 43.792 178.554 43.976 178.122 44.344C177.69 44.712 177.234 45.272 176.754 46.024V55H174.546V42.352H176.442L176.634 44.2C177.578 42.776 178.794 42.064 180.282 42.064C181.066 42.064 181.73 42.264 182.274 42.664C182.834 43.064 183.234 43.624 183.474 44.344C183.97 43.608 184.514 43.048 185.106 42.664C185.714 42.264 186.426 42.064 187.242 42.064ZM207.427 42.064C208.579 42.064 209.475 42.408 210.115 43.096C210.771 43.784 211.099 44.728 211.099 45.928V55H208.891V46.24C208.891 45.344 208.723 44.712 208.387 44.344C208.051 43.976 207.555 43.792 206.899 43.792C206.227 43.792 205.635 43.984 205.123 44.368C204.611 44.752 204.131 45.304 203.683 46.024V55H201.475V42.352H203.371L203.563 44.224C204.011 43.552 204.563 43.024 205.219 42.64C205.891 42.256 206.627 42.064 207.427 42.064ZM225.09 48.304C225.09 48.672 225.074 49.048 225.042 49.432H216.978C217.074 50.824 217.426 51.848 218.034 52.504C218.642 53.16 219.426 53.488 220.386 53.488C220.994 53.488 221.554 53.4 222.066 53.224C222.578 53.048 223.114 52.768 223.674 52.384L224.634 53.704C223.29 54.76 221.818 55.288 220.218 55.288C218.458 55.288 217.082 54.712 216.09 53.56C215.114 52.408 214.626 50.824 214.626 48.808C214.626 47.496 214.834 46.336 215.25 45.328C215.682 44.304 216.29 43.504 217.074 42.928C217.874 42.352 218.81 42.064 219.882 42.064C221.562 42.064 222.85 42.616 223.746 43.72C224.642 44.824 225.09 46.352 225.09 48.304ZM222.906 47.656C222.906 46.408 222.658 45.456 222.162 44.8C221.666 44.144 220.922 43.816 219.93 43.816C218.122 43.816 217.138 45.144 216.978 47.8H222.906V47.656ZM243.064 42.352L240.184 55H237.184L234.976 44.344L232.696 55H229.768L226.816 42.352H229.024L231.304 53.464L233.8 42.352H236.272L238.648 53.464L240.952 42.352H243.064ZM258.123 42.064C259.275 42.064 260.171 42.408 260.811 43.096C261.467 43.784 261.795 44.728 261.795 45.928V55H259.587V46.24C259.587 45.344 259.411 44.712 259.059 44.344C258.723 43.976 258.227 43.792 257.571 43.792C256.915 43.792 256.331 43.984 255.819 44.368C255.307 44.752 254.827 45.296 254.379 46V55H252.171V37.288L254.379 37.048V44.104C255.371 42.744 256.619 42.064 258.123 42.064ZM275.785 48.304C275.785 48.672 275.769 49.048 275.737 49.432H267.673C267.769 50.824 268.121 51.848 268.729 52.504C269.337 53.16 270.121 53.488 271.081 53.488C271.689 53.488 272.249 53.4 272.761 53.224C273.273 53.048 273.809 52.768 274.369 52.384L275.329 53.704C273.985 54.76 272.513 55.288 270.913 55.288C269.153 55.288 267.777 54.712 266.785 53.56C265.809 52.408 265.321 50.824 265.321 48.808C265.321 47.496 265.529 46.336 265.945 45.328C266.377 44.304 266.985 43.504 267.769 42.928C268.569 42.352 269.505 42.064 270.577 42.064C272.257 42.064 273.545 42.616 274.441 43.72C275.337 44.824 275.785 46.352 275.785 48.304ZM273.601 47.656C273.601 46.408 273.353 45.456 272.857 44.8C272.361 44.144 271.617 43.816 270.625 43.816C268.817 43.816 267.833 45.144 267.673 47.8H273.601V47.656ZM284.807 42.064C285.255 42.064 285.671 42.112 286.055 42.208L285.647 44.368C285.263 44.272 284.895 44.224 284.543 44.224C283.759 44.224 283.127 44.512 282.647 45.088C282.167 45.664 281.791 46.56 281.519 47.776V55H279.311V42.352H281.207L281.423 44.92C281.759 43.976 282.215 43.264 282.791 42.784C283.367 42.304 284.039 42.064 284.807 42.064ZM297.395 48.304C297.395 48.672 297.379 49.048 297.347 49.432H289.283C289.379 50.824 289.731 51.848 290.339 52.504C290.947 53.16 291.731 53.488 292.691 53.488C293.299 53.488 293.859 53.4 294.371 53.224C294.883 53.048 295.419 52.768 295.979 52.384L296.939 53.704C295.595 54.76 294.123 55.288 292.523 55.288C290.763 55.288 289.387 54.712 288.395 53.56C287.419 52.408 286.931 50.824 286.931 48.808C286.931 47.496 287.139 46.336 287.555 45.328C287.987 44.304 288.595 43.504 289.379 42.928C290.179 42.352 291.115 42.064 292.187 42.064C293.867 42.064 295.155 42.616 296.051 43.72C296.947 44.824 297.395 46.352 297.395 48.304ZM295.211 47.656C295.211 46.408 294.963 45.456 294.467 44.8C293.971 44.144 293.227 43.816 292.235 43.816C290.427 43.816 289.443 45.144 289.283 47.8H295.211V47.656ZM301.262 51.952C301.742 51.952 302.142 52.112 302.462 52.432C302.782 52.752 302.942 53.144 302.942 53.608C302.942 54.104 302.798 54.672 302.51 55.312L300.902 58.984H299.318L300.278 55C300.07 54.84 299.902 54.64 299.774 54.4C299.662 54.16 299.606 53.896 299.606 53.608C299.606 53.144 299.766 52.752 300.086 52.432C300.406 52.112 300.798 51.952 301.262 51.952ZM327.251 42.352L324.371 55H321.371L319.163 44.344L316.883 55H313.955L311.003 42.352H313.211L315.491 53.464L317.987 42.352H320.459L322.835 53.464L325.139 42.352H327.251ZM338.245 52.048C338.245 52.56 338.333 52.944 338.509 53.2C338.685 53.44 338.949 53.624 339.301 53.752L338.797 55.288C338.141 55.208 337.613 55.024 337.213 54.736C336.813 54.448 336.517 54 336.325 53.392C335.477 54.656 334.221 55.288 332.557 55.288C331.309 55.288 330.325 54.936 329.605 54.232C328.885 53.528 328.525 52.608 328.525 51.472C328.525 50.128 329.005 49.096 329.965 48.376C330.941 47.656 332.317 47.296 334.093 47.296H336.037V46.36C336.037 45.464 335.821 44.824 335.389 44.44C334.957 44.056 334.293 43.864 333.397 43.864C332.469 43.864 331.333 44.088 329.989 44.536L329.437 42.928C331.005 42.352 332.461 42.064 333.805 42.064C335.293 42.064 336.405 42.432 337.141 43.168C337.877 43.888 338.245 44.92 338.245 46.264V52.048ZM333.061 53.632C334.325 53.632 335.317 52.976 336.037 51.664V48.76H334.381C332.045 48.76 330.877 49.624 330.877 51.352C330.877 52.104 331.061 52.672 331.429 53.056C331.797 53.44 332.341 53.632 333.061 53.632ZM348.732 42.064C349.884 42.064 350.78 42.408 351.42 43.096C352.076 43.784 352.404 44.728 352.404 45.928V55H350.196V46.24C350.196 45.344 350.028 44.712 349.692 44.344C349.356 43.976 348.86 43.792 348.204 43.792C347.532 43.792 346.94 43.984 346.428 44.368C345.916 44.752 345.436 45.304 344.988 46.024V55H342.78V42.352H344.676L344.868 44.224C345.316 43.552 345.868 43.024 346.524 42.64C347.196 42.256 347.932 42.064 348.732 42.064ZM363.227 54.424C362.395 55 361.451 55.288 360.395 55.288C359.323 55.288 358.483 54.984 357.875 54.376C357.283 53.752 356.987 52.856 356.987 51.688V44.056H354.779V42.352H356.987V39.496L359.195 39.232V42.352H362.195L361.955 44.056H359.195V51.592C359.195 52.248 359.307 52.728 359.531 53.032C359.771 53.32 360.163 53.464 360.707 53.464C361.203 53.464 361.763 53.296 362.387 52.96L363.227 54.424ZM26.664 90.424C25.832 91 24.888 91.288 23.832 91.288C22.76 91.288 21.92 90.984 21.312 90.376C20.72 89.752 20.424 88.856 20.424 87.688V80.056H18.216V78.352H20.424V75.496L22.632 75.232V78.352H25.632L25.392 80.056H22.632V87.592C22.632 88.248 22.744 88.728 22.968 89.032C23.208 89.32 23.6 89.464 24.144 89.464C24.64 89.464 25.2 89.296 25.824 88.96L26.664 90.424ZM33.3523 78.064C35.1283 78.064 36.5043 78.656 37.4803 79.84C38.4723 81.024 38.9683 82.632 38.9683 84.664C38.9683 85.976 38.7443 87.136 38.2963 88.144C37.8483 89.136 37.2003 89.912 36.3523 90.472C35.5043 91.016 34.4963 91.288 33.3283 91.288C31.5523 91.288 30.1683 90.696 29.1763 89.512C28.1843 88.328 27.6883 86.72 27.6883 84.688C27.6883 83.376 27.9123 82.224 28.3603 81.232C28.8083 80.224 29.4563 79.448 30.3043 78.904C31.1523 78.344 32.1683 78.064 33.3523 78.064ZM33.3523 79.84C31.1603 79.84 30.0643 81.456 30.0643 84.688C30.0643 87.904 31.1523 89.512 33.3283 89.512C35.5043 89.512 36.5923 87.896 36.5923 84.664C36.5923 81.448 35.5123 79.84 33.3523 79.84ZM51.1755 73V91H48.9675V73.264L51.1755 73ZM58.4475 78.352L53.7915 83.944L58.9755 91H56.3355L51.3195 84.088L55.9755 78.352H58.4475ZM67.2008 78.064C68.3528 78.064 69.2488 78.408 69.8888 79.096C70.5448 79.784 70.8728 80.728 70.8728 81.928V91H68.6648V82.24C68.6648 81.344 68.4968 80.712 68.1608 80.344C67.8248 79.976 67.3288 79.792 66.6728 79.792C66.0008 79.792 65.4088 79.984 64.8968 80.368C64.3848 80.752 63.9048 81.304 63.4568 82.024V91H61.2488V78.352H63.1448L63.3368 80.224C63.7848 79.552 64.3368 79.024 64.9928 78.64C65.6648 78.256 66.4008 78.064 67.2008 78.064ZM80.0633 78.064C81.8393 78.064 83.2153 78.656 84.1913 79.84C85.1833 81.024 85.6793 82.632 85.6793 84.664C85.6793 85.976 85.4553 87.136 85.0073 88.144C84.5593 89.136 83.9113 89.912 83.0633 90.472C82.2153 91.016 81.2073 91.288 80.0393 91.288C78.2633 91.288 76.8793 90.696 75.8873 89.512C74.8953 88.328 74.3993 86.72 74.3993 84.688C74.3993 83.376 74.6233 82.224 75.0713 81.232C75.5193 80.224 76.1673 79.448 77.0153 78.904C77.8633 78.344 78.8793 78.064 80.0633 78.064ZM80.0633 79.84C77.8713 79.84 76.7753 81.456 76.7753 84.688C76.7753 87.904 77.8633 89.512 80.0393 89.512C82.2153 89.512 83.3033 87.896 83.3033 84.664C83.3033 81.448 82.2233 79.84 80.0633 79.84ZM103.775 78.352L100.895 91H97.8949L95.6869 80.344L93.4069 91H90.4789L87.5269 78.352H89.7349L92.0149 89.464L94.5109 78.352H96.9829L99.3589 89.464L101.663 78.352H103.775ZM121.402 88.048C121.402 88.56 121.49 88.944 121.666 89.2C121.842 89.44 122.106 89.624 122.458 89.752L121.954 91.288C121.298 91.208 120.77 91.024 120.37 90.736C119.97 90.448 119.674 90 119.482 89.392C118.634 90.656 117.378 91.288 115.714 91.288C114.466 91.288 113.482 90.936 112.762 90.232C112.042 89.528 111.682 88.608 111.682 87.472C111.682 86.128 112.162 85.096 113.122 84.376C114.098 83.656 115.474 83.296 117.25 83.296H119.194V82.36C119.194 81.464 118.978 80.824 118.546 80.44C118.114 80.056 117.45 79.864 116.554 79.864C115.626 79.864 114.49 80.088 113.146 80.536L112.594 78.928C114.162 78.352 115.618 78.064 116.962 78.064C118.45 78.064 119.562 78.432 120.298 79.168C121.034 79.888 121.402 80.92 121.402 82.264V88.048ZM116.218 89.632C117.482 89.632 118.474 88.976 119.194 87.664V84.76H117.538C115.202 84.76 114.034 85.624 114.034 87.352C114.034 88.104 114.218 88.672 114.586 89.056C114.954 89.44 115.498 89.632 116.218 89.632ZM131.72 78.064C133.16 78.064 134.304 78.648 135.152 79.816C136 80.968 136.424 82.584 136.424 84.664C136.424 85.976 136.224 87.136 135.824 88.144C135.424 89.136 134.848 89.912 134.096 90.472C133.344 91.016 132.464 91.288 131.456 91.288C130.128 91.288 129.008 90.728 128.096 89.608L127.88 91H125.936V73.264L128.144 73V79.936C129.056 78.688 130.248 78.064 131.72 78.064ZM130.928 89.536C131.904 89.536 132.664 89.144 133.208 88.36C133.768 87.56 134.048 86.328 134.048 84.664C134.048 82.952 133.792 81.72 133.28 80.968C132.768 80.2 132.04 79.816 131.096 79.816C129.976 79.816 128.992 80.472 128.144 81.784V87.832C128.48 88.36 128.888 88.776 129.368 89.08C129.864 89.384 130.384 89.536 130.928 89.536ZM144.938 78.064C146.714 78.064 148.09 78.656 149.066 79.84C150.058 81.024 150.554 82.632 150.554 84.664C150.554 85.976 150.33 87.136 149.882 88.144C149.434 89.136 148.786 89.912 147.938 90.472C147.09 91.016 146.082 91.288 144.914 91.288C143.138 91.288 141.754 90.696 140.762 89.512C139.77 88.328 139.274 86.72 139.274 84.688C139.274 83.376 139.498 82.224 139.946 81.232C140.394 80.224 141.042 79.448 141.89 78.904C142.738 78.344 143.754 78.064 144.938 78.064ZM144.938 79.84C142.746 79.84 141.65 81.456 141.65 84.688C141.65 87.904 142.738 89.512 144.914 89.512C147.09 89.512 148.178 87.896 148.178 84.664C148.178 81.448 147.098 79.84 144.938 79.84ZM163.61 91H161.714L161.546 89.032C161.066 89.816 160.514 90.392 159.89 90.76C159.266 91.112 158.506 91.288 157.61 91.288C156.506 91.288 155.642 90.952 155.018 90.28C154.394 89.608 154.082 88.656 154.082 87.424V78.352H156.29V87.184C156.29 88.048 156.442 88.664 156.746 89.032C157.05 89.384 157.546 89.56 158.234 89.56C159.466 89.56 160.522 88.832 161.402 87.376V78.352H163.61V91ZM174.555 90.424C173.723 91 172.779 91.288 171.723 91.288C170.651 91.288 169.811 90.984 169.203 90.376C168.611 89.752 168.315 88.856 168.315 87.688V80.056H166.107V78.352H168.315V75.496L170.523 75.232V78.352H173.523L173.283 80.056H170.523V87.592C170.523 88.248 170.635 88.728 170.859 89.032C171.099 89.32 171.491 89.464 172.035 89.464C172.531 89.464 173.091 89.296 173.715 88.96L174.555 90.424ZM188.162 83.992H185.594V91H183.314V74.464H187.658C189.722 74.464 191.282 74.856 192.338 75.64C193.41 76.424 193.946 77.592 193.946 79.144C193.946 80.296 193.65 81.232 193.058 81.952C192.466 82.672 191.57 83.216 190.37 83.584L194.834 91H192.122L188.162 83.992ZM187.898 82.24C189.098 82.24 190.002 82 190.61 81.52C191.218 81.024 191.522 80.232 191.522 79.144C191.522 78.12 191.21 77.384 190.586 76.936C189.978 76.472 188.994 76.24 187.634 76.24H185.594V82.24H187.898ZM199.933 78.352V91H197.725V78.352H199.933ZM198.805 72.28C199.269 72.28 199.645 72.424 199.933 72.712C200.221 73 200.365 73.36 200.365 73.792C200.365 74.224 200.221 74.584 199.933 74.872C199.645 75.144 199.269 75.28 198.805 75.28C198.357 75.28 197.989 75.144 197.701 74.872C197.413 74.584 197.269 74.224 197.269 73.792C197.269 73.36 197.413 73 197.701 72.712C197.989 72.424 198.357 72.28 198.805 72.28ZM213.787 78.352L209.491 91H206.827L202.459 78.352H204.859L208.171 89.032L211.459 78.352H213.787ZM225.77 84.304C225.77 84.672 225.754 85.048 225.722 85.432H217.658C217.754 86.824 218.106 87.848 218.714 88.504C219.322 89.16 220.106 89.488 221.066 89.488C221.674 89.488 222.234 89.4 222.746 89.224C223.258 89.048 223.794 88.768 224.354 88.384L225.314 89.704C223.97 90.76 222.498 91.288 220.898 91.288C219.138 91.288 217.762 90.712 216.77 89.56C215.794 88.408 215.306 86.824 215.306 84.808C215.306 83.496 215.514 82.336 215.93 81.328C216.362 80.304 216.97 79.504 217.754 78.928C218.554 78.352 219.49 78.064 220.562 78.064C222.242 78.064 223.53 78.616 224.426 79.72C225.322 80.824 225.77 82.352 225.77 84.304ZM223.586 83.656C223.586 82.408 223.338 81.456 222.842 80.8C222.346 80.144 221.602 79.816 220.61 79.816C218.802 79.816 217.818 81.144 217.658 83.8H223.586V83.656ZM234.792 78.064C235.24 78.064 235.656 78.112 236.04 78.208L235.632 80.368C235.248 80.272 234.88 80.224 234.528 80.224C233.744 80.224 233.112 80.512 232.632 81.088C232.152 81.664 231.776 82.56 231.504 83.776V91H229.296V78.352H231.192L231.408 80.92C231.744 79.976 232.2 79.264 232.776 78.784C233.352 78.304 234.024 78.064 234.792 78.064ZM249.873 83.992H247.305V91H245.025V74.464H249.369C251.433 74.464 252.993 74.856 254.049 75.64C255.121 76.424 255.657 77.592 255.657 79.144C255.657 80.296 255.361 81.232 254.769 81.952C254.177 82.672 253.281 83.216 252.081 83.584L256.545 91H253.833L249.873 83.992ZM249.609 82.24C250.809 82.24 251.713 82 252.321 81.52C252.929 81.024 253.233 80.232 253.233 79.144C253.233 78.12 252.921 77.384 252.297 76.936C251.689 76.472 250.705 76.24 249.345 76.24H247.305V82.24H249.609ZM267.722 88.048C267.722 88.56 267.81 88.944 267.986 89.2C268.162 89.44 268.426 89.624 268.778 89.752L268.274 91.288C267.618 91.208 267.09 91.024 266.69 90.736C266.29 90.448 265.994 90 265.802 89.392C264.954 90.656 263.698 91.288 262.034 91.288C260.786 91.288 259.802 90.936 259.082 90.232C258.362 89.528 258.002 88.608 258.002 87.472C258.002 86.128 258.482 85.096 259.442 84.376C260.418 83.656 261.794 83.296 263.57 83.296H265.514V82.36C265.514 81.464 265.298 80.824 264.866 80.44C264.434 80.056 263.77 79.864 262.874 79.864C261.946 79.864 260.81 80.088 259.466 80.536L258.914 78.928C260.482 78.352 261.938 78.064 263.282 78.064C264.77 78.064 265.882 78.432 266.618 79.168C267.354 79.888 267.722 80.92 267.722 82.264V88.048ZM262.538 89.632C263.802 89.632 264.794 88.976 265.514 87.664V84.76H263.858C261.522 84.76 260.354 85.624 260.354 87.352C260.354 88.104 260.538 88.672 260.906 89.056C261.274 89.44 261.818 89.632 262.538 89.632ZM276.553 74.776C275.881 74.776 275.401 74.928 275.113 75.232C274.825 75.52 274.681 75.976 274.681 76.6V78.352H277.753L277.513 80.056H274.681V91H272.473V80.056H270.217V78.352H272.473V76.624C272.473 75.536 272.817 74.664 273.505 74.008C274.209 73.336 275.185 73 276.433 73C277.009 73 277.521 73.056 277.969 73.168C278.433 73.264 278.929 73.424 279.457 73.648L278.761 75.256C278.041 74.936 277.305 74.776 276.553 74.776ZM286.68 90.424C285.848 91 284.904 91.288 283.848 91.288C282.776 91.288 281.936 90.984 281.328 90.376C280.736 89.752 280.44 88.856 280.44 87.688V80.056H278.232V78.352H280.44V75.496L282.648 75.232V78.352H285.648L285.408 80.056H282.648V87.592C282.648 88.248 282.76 88.728 282.984 89.032C283.224 89.32 283.616 89.464 284.16 89.464C284.656 89.464 285.216 89.296 285.84 88.96L286.68 90.424ZM295.352 90.424C294.52 91 293.576 91.288 292.52 91.288C291.448 91.288 290.608 90.984 290 90.376C289.408 89.752 289.112 88.856 289.112 87.688V80.056H286.904V78.352H289.112V75.496L291.32 75.232V78.352H294.32L294.08 80.056H291.32V87.592C291.32 88.248 291.432 88.728 291.656 89.032C291.896 89.32 292.288 89.464 292.832 89.464C293.328 89.464 293.888 89.296 294.512 88.96L295.352 90.424ZM299.847 78.352V91H297.639V78.352H299.847ZM298.719 72.28C299.183 72.28 299.559 72.424 299.847 72.712C300.135 73 300.279 73.36 300.279 73.792C300.279 74.224 300.135 74.584 299.847 74.872C299.559 75.144 299.183 75.28 298.719 75.28C298.271 75.28 297.903 75.144 297.615 74.872C297.327 74.584 297.183 74.224 297.183 73.792C297.183 73.36 297.327 73 297.615 72.712C297.903 72.424 298.271 72.28 298.719 72.28ZM310.365 78.064C311.517 78.064 312.413 78.408 313.053 79.096C313.709 79.784 314.037 80.728 314.037 81.928V91H311.829V82.24C311.829 81.344 311.661 80.712 311.325 80.344C310.989 79.976 310.493 79.792 309.837 79.792C309.165 79.792 308.573 79.984 308.061 80.368C307.549 80.752 307.069 81.304 306.621 82.024V91H304.413V78.352H306.309L306.501 80.224C306.949 79.552 307.501 79.024 308.157 78.64C308.829 78.256 309.565 78.064 310.365 78.064ZM328.675 78.928C328.195 79.088 327.667 79.192 327.091 79.24C326.515 79.288 325.811 79.312 324.979 79.312C326.467 79.984 327.211 81.048 327.211 82.504C327.211 83.768 326.779 84.8 325.915 85.6C325.051 86.4 323.875 86.8 322.387 86.8C321.811 86.8 321.275 86.72 320.779 86.56C320.587 86.688 320.435 86.864 320.323 87.088C320.211 87.296 320.155 87.512 320.155 87.736C320.155 88.424 320.707 88.768 321.811 88.768H323.827C324.675 88.768 325.427 88.92 326.083 89.224C326.739 89.528 327.243 89.944 327.595 90.472C327.963 91 328.147 91.6 328.147 92.272C328.147 93.504 327.643 94.448 326.635 95.104C325.627 95.776 324.155 96.112 322.219 96.112C320.859 96.112 319.779 95.968 318.979 95.68C318.195 95.408 317.635 94.992 317.299 94.432C316.963 93.872 316.795 93.152 316.795 92.272H318.787C318.787 92.784 318.883 93.184 319.075 93.472C319.267 93.776 319.611 94 320.107 94.144C320.603 94.304 321.307 94.384 322.219 94.384C323.547 94.384 324.491 94.216 325.051 93.88C325.627 93.56 325.915 93.072 325.915 92.416C325.915 91.824 325.691 91.376 325.243 91.072C324.795 90.768 324.171 90.616 323.371 90.616H321.379C320.307 90.616 319.491 90.392 318.931 89.944C318.387 89.48 318.115 88.904 318.115 88.216C318.115 87.8 318.235 87.4 318.475 87.016C318.715 86.632 319.059 86.288 319.507 85.984C318.771 85.6 318.227 85.128 317.875 84.568C317.539 83.992 317.371 83.296 317.371 82.48C317.371 81.632 317.579 80.872 317.995 80.2C318.427 79.528 319.011 79.008 319.747 78.64C320.499 78.256 321.331 78.064 322.243 78.064C323.235 78.08 324.067 78.048 324.739 77.968C325.411 77.872 325.963 77.752 326.395 77.608C326.843 77.448 327.387 77.224 328.027 76.936L328.675 78.928ZM322.243 79.648C321.411 79.648 320.763 79.912 320.299 80.44C319.851 80.952 319.627 81.632 319.627 82.48C319.627 83.344 319.859 84.04 320.323 84.568C320.787 85.08 321.443 85.336 322.291 85.336C323.155 85.336 323.811 85.088 324.259 84.592C324.723 84.08 324.955 83.368 324.955 82.456C324.955 80.584 324.051 79.648 322.243 79.648ZM331.52 87.952C332 87.952 332.4 88.112 332.72 88.432C333.04 88.752 333.2 89.144 333.2 89.608C333.2 90.072 333.04 90.472 332.72 90.808C332.4 91.128 332 91.288 331.52 91.288C331.056 91.288 330.664 91.128 330.344 90.808C330.024 90.472 329.864 90.072 329.864 89.608C329.864 89.144 330.024 88.752 330.344 88.432C330.664 88.112 331.056 87.952 331.52 87.952Z" fill="white"/>
</mask>
<g mask="url(#mask0_0_7127)">
</g>
</svg>
