<svg width="39" height="40" viewBox="0 0 39 40" fill="none" xmlns="http://www.w3.org/2000/svg">
<path fill-rule="evenodd" clip-rule="evenodd" d="M11.1147 40H6.00178C4.90804 40 4.21293 39.1183 4.46001 38.0333L4.70544 36.91H8.11678C9.21381 36.91 10.3174 36.0217 10.5579 34.94L12.3105 27.2867C12.5576 26.2067 13.6546 25.32 14.7484 25.32H16.2028C22.4441 25.32 27.295 24.0217 30.764 21.42C34.233 18.8183 35.9692 15.42 35.9692 11.195C35.9692 9.32 35.648 7.77 35.0006 6.54667C35.0006 6.52 34.9743 6.495 34.9743 6.47L35.1966 6.595C36.432 7.37 37.3709 8.36833 38.015 9.61833C38.6804 10.8683 39 12.4183 39 14.27C39 18.495 37.2721 21.8933 33.7883 24.495C30.3292 27.07 25.4617 28.3683 19.237 28.3683H17.7545C16.6673 28.3683 15.5571 29.2433 15.3101 30.345L13.5558 38.02C13.3104 39.095 12.2216 39.97 11.1344 39.97L11.1147 40ZM6.70513 35.5083H1.59059C0.498496 35.5083 -0.194974 34.6267 0.0488158 33.5417L7.252 1.97C7.50073 0.88167 8.59446 0 9.69149 0H20.3406C22.6384 0 24.6381 0.16333 26.3496 0.48167C28.0544 0.79667 29.5122 1.34667 30.7706 2.13167C31.983 2.90667 32.9482 3.91834 33.5659 5.16167C34.2067 6.40834 34.5279 7.96167 34.5279 9.82334C34.5279 14.0483 32.7967 17.4467 29.3162 20.0217C25.857 22.6233 20.9879 23.8983 14.7616 23.8983H13.3071C12.2199 23.8983 11.1196 24.7717 10.8725 25.8467L9.12487 33.495C8.87944 34.5717 7.77911 35.4483 6.67879 35.4483L6.70513 35.5083ZM18.9701 6.56H17.2999C16.2028 6.56 15.1058 7.44167 14.862 8.52333L13.3301 15.2233C13.0831 16.3033 13.7749 17.1883 14.862 17.1883H16.1238C18.8647 17.1883 21.0159 16.6167 22.5478 15.4867C24.0781 14.3433 24.8457 12.73 24.8457 10.6333C24.8457 9.25 24.3499 8.225 23.3632 7.56666C22.3749 6.89333 20.8924 6.55833 18.9388 6.55833L18.9701 6.56Z" fill="#1C3947"/>
</svg>
