<svg width="51" height="48" viewBox="0 0 51 48" fill="none" xmlns="http://www.w3.org/2000/svg">
<mask id="mask0_0_934" style="mask-type:luminance" maskUnits="userSpaceOnUse" x="-2" y="-1" width="57" height="49">
<path fill-rule="evenodd" clip-rule="evenodd" d="M32.6145 34.0874L33.9104 39.2686L50.4524 23.2114L54.5003 10.0977L43.6526 -0.10205H29.4055L25.844 5.07861L16.6155 -0.75H9.97779L1.72095 5.07861L-1.03198 13.3355L0.911378 20.9448L3.66333 26.2876L9.97778 33.0874L14.3489 37.1353L21.4719 44.5825L25.0413 47.7202L26.0608 39.6411L32.6145 34.0874Z" fill="white"/>
</mask>
<g mask="url(#mask0_0_934)">
<path fill-rule="evenodd" clip-rule="evenodd" d="M36.8994 1.5C31.8543 1.5 27.5123 5.60409 25.5011 9.89063C23.4884 5.60419 19.1459 1.5 14.1004 1.5C7.14502 1.5 1.5 7.14563 1.5 14.1015C1.5 28.2505 15.7734 31.9606 25.501 45.9492C34.6958 32.0472 49.5 27.799 49.5 14.1015C49.5 7.14563 43.8548 1.50001 36.8994 1.50001V1.5Z" stroke="#1C3947" stroke-width="3"/>
</g>
</svg>
