<svg width="33" height="37" viewBox="0 0 33 37" fill="none" xmlns="http://www.w3.org/2000/svg">
<mask id="mask0_0_5441" style="mask-type:luminance" maskUnits="userSpaceOnUse" x="-1" y="-1" width="35" height="39">
<path fill-rule="evenodd" clip-rule="evenodd" d="M19.4896 22.7944V37.3053H-0.66821V-0.717707H33.5675L33.6944 22.7944H19.4896Z" fill="white"/>
</mask>
<g mask="url(#mask0_0_5441)">
<path d="M1.82971 15.1421V14.1284H1.40845L1.11126 14.427L1.82971 15.1421ZM1.8297 15.1421V16.1558H2.25095L2.54814 15.8573L1.8297 15.1421ZM31.4777 11.123L32.1626 11.8702L32.4914 11.5689V11.123H31.4777ZM24.9497 5.38527H23.936V6.39897H24.9497V5.38527ZM20.5977 5.38527V6.39897H21.6114V5.38527H20.5977ZM11.8937 5.38527H10.88V6.39897H11.8937V5.38527ZM7.54171 5.38527V6.39897H8.5554V5.38527H7.54171ZM31.4776 11.123L30.7927 10.3757L30.4639 10.677V11.123H31.4776ZM1.82971 16.1558H30.6616V14.1284H1.82971V16.1558ZM30.6616 16.1558C30.5463 16.1558 30.4639 16.0665 30.4639 15.9618H32.4913C32.4913 14.9554 31.6746 14.1284 30.6616 14.1284V16.1558ZM30.4639 15.9618V32.7076H32.4913V15.9618H30.4639ZM30.4639 32.7076C30.4639 33.9622 29.4515 34.9726 28.2136 34.9726V37C30.5798 37 32.4913 35.0733 32.4913 32.7076H30.4639ZM28.2136 34.9726H4.2777V37H28.2136V34.9726ZM4.2777 34.9726C3.03983 34.9726 2.0274 33.9622 2.0274 32.7076H0C0 35.0733 1.91156 37 4.2777 37V34.9726ZM2.0274 32.7076V16.3771H0V32.7076H2.0274ZM2.0274 16.3771V15.9618H0V16.3771H2.0274ZM2.0274 15.9618C2.0274 16.0665 1.94503 16.1558 1.8297 16.1558V14.1284C0.816774 14.1284 0 14.9554 0 15.9618H2.0274ZM2.54814 15.8573L2.54815 15.8573L1.11126 14.427L1.11125 14.427L2.54814 15.8573ZM32.4914 11.123V8.66395H30.464V11.123H32.4914ZM32.4914 8.66395C32.4914 6.29829 30.5798 4.37158 28.2137 4.37158V6.39897C29.4515 6.39897 30.464 7.40941 30.464 8.66395H32.4914ZM28.2137 4.37158H24.9497V6.39897H28.2137V4.37158ZM25.9634 5.38527V1.83337H23.936V5.38527H25.9634ZM25.9634 1.83337C25.9634 0.826979 25.1466 0 24.1337 0V2.0274C24.0183 2.0274 23.936 1.93811 23.936 1.83337H25.9634ZM24.1337 0H21.4137V2.0274H24.1337V0ZM21.4137 0C20.4007 0 19.584 0.827005 19.584 1.83337H21.6114C21.6114 1.9381 21.529 2.0274 21.4137 2.0274V0ZM19.584 1.83337V5.38527H21.6114V1.83337H19.584ZM20.5977 4.37158H11.8937V6.39897H20.5977V4.37158ZM12.9074 5.38527V1.83337H10.88V5.38527H12.9074ZM12.9074 1.83337C12.9074 0.826979 12.0906 0 11.0777 0V2.0274C10.9624 2.0274 10.88 1.93811 10.88 1.83337H12.9074ZM11.0777 0H8.3577V2.0274H11.0777V0ZM8.3577 0C7.34477 0 6.52801 0.826997 6.52801 1.83337H8.5554C8.5554 1.93811 8.47304 2.0274 8.3577 2.0274V0ZM6.52801 1.83337V5.38527H8.5554V1.83337H6.52801ZM7.54171 4.37158H4.27771V6.39897H7.54171V4.37158ZM4.27771 4.37158C1.91157 4.37158 1.01508e-05 6.2983 1.01508e-05 8.66396H2.02741C2.02741 7.4094 3.03984 6.39897 4.27771 6.39897V4.37158ZM1.01508e-05 8.66396V11.123H2.02741V8.66396H1.01508e-05ZM1.01508e-05 11.123C1.01508e-05 12.1294 0.816785 12.9563 1.82971 12.9563V10.9289C1.94504 10.9289 2.02741 11.0182 2.02741 11.123H1.01508e-05ZM1.82971 12.9563H30.6616V10.9289H1.82971V12.9563ZM30.6616 12.9563C31.6746 12.9563 32.4913 12.1293 32.4913 11.123H30.4639C30.4639 11.0182 30.5463 10.9289 30.6616 10.9289V12.9563ZM32.1626 11.8702L32.1626 11.8702L30.7927 10.3757L30.7927 10.3757L32.1626 11.8702Z" fill="#1C3947"/>
</g>
</svg>
