<svg width="40" height="31" viewBox="0 0 40 31" fill="none" xmlns="http://www.w3.org/2000/svg">
<mask id="path-1-inside-1_0_810" fill="white">
<path fill-rule="evenodd" clip-rule="evenodd" d="M39.4464 16.5898L26.1124 29.9238C24.9219 31.1143 22.8583 30.281 22.8583 28.5745V20.9551H12.0641C11.0085 20.9551 10.1592 20.1059 10.1592 19.0502V11.4308C10.1592 10.3752 11.0085 9.52596 12.0641 9.52596H22.8583V1.90654C22.8583 0.208045 24.9139 -0.633265 26.1124 0.557275L39.4464 13.8913C40.1845 14.6373 40.1845 15.8437 39.4464 16.5898V16.5898ZM15.2389 29.5269V26.3522C15.2389 25.8284 14.8103 25.3998 14.2864 25.3998H7.61943C6.2146 25.3998 5.07962 24.2648 5.07962 22.8599V7.62109C5.07962 6.21626 6.2146 5.08128 7.61943 5.08128H14.2864C14.8103 5.08128 15.2389 4.65269 15.2389 4.12885V0.954095C15.2389 0.430255 14.8103 0.00166475 14.2864 0.00166475H7.61943C3.41287 0.00166475 0 3.41453 0 7.62109V22.8599C0 27.0665 3.41287 30.4794 7.61943 30.4794H14.2864C14.8103 30.4794 15.2389 30.0508 15.2389 29.5269V29.5269Z"/>
</mask>
<path d="M39.4464 16.5898H41.9464V10.5543L37.6786 14.822L39.4464 16.5898ZM26.1124 29.9238L27.8802 31.6916L27.8802 31.6916L26.1124 29.9238ZM22.8583 20.9551H25.3583V18.4551H22.8583V20.9551ZM22.8583 9.52596V12.026H25.3583V9.52596H22.8583ZM26.1124 0.557275L27.8802 -1.2105L27.8743 -1.21635L26.1124 0.557275ZM39.4464 13.8913L41.2236 12.133L41.2142 12.1235L39.4464 13.8913ZM39.4464 16.5898H36.9464V22.6713L41.2236 18.3481L39.4464 16.5898ZM37.6786 14.822L24.3447 28.156L27.8802 31.6916L41.2142 18.3576L37.6786 14.822ZM24.3447 28.156C24.418 28.0827 24.5366 28.0159 24.6742 27.992C24.7984 27.9705 24.9052 27.9887 24.9882 28.0228C25.0715 28.0569 25.1637 28.1207 25.2396 28.228C25.3239 28.3469 25.3583 28.4788 25.3583 28.5745H20.3583C20.3583 32.5363 25.1346 34.4371 27.8802 31.6916L24.3447 28.156ZM25.3583 28.5745V20.9551H20.3583V28.5745H25.3583ZM22.8583 18.4551H12.0641V23.4551H22.8583V18.4551ZM12.0641 18.4551C12.3892 18.4551 12.6592 18.7251 12.6592 19.0502H7.65924C7.65924 21.4866 9.62778 23.4551 12.0641 23.4551V18.4551ZM12.6592 19.0502V11.4308H7.65924V19.0502H12.6592ZM12.6592 11.4308C12.6592 11.7559 12.3892 12.026 12.0641 12.026V7.02596C9.62778 7.02596 7.65924 8.9945 7.65924 11.4308H12.6592ZM12.0641 12.026H22.8583V7.02596H12.0641V12.026ZM25.3583 9.52596V1.90654H20.3583V9.52596H25.3583ZM25.3583 1.90654C25.3583 2.00444 25.3233 2.13653 25.2397 2.25482C25.1642 2.36155 25.0726 2.42524 24.9894 2.45957C24.9063 2.49383 24.7994 2.51224 24.6754 2.49095C24.538 2.46736 24.4214 2.40125 24.3505 2.3309L27.8743 -1.21635C25.1175 -3.95493 20.3583 -2.04189 20.3583 1.90654H25.3583ZM24.3447 2.32504L37.6786 15.659L41.2142 12.1235L27.8802 -1.21049L24.3447 2.32504ZM37.6692 15.6495C37.4436 15.4215 37.4436 15.0596 37.6692 14.8315L41.2236 18.3481C42.9255 16.6279 42.9255 13.8532 41.2236 12.133L37.6692 15.6495ZM41.9464 16.5898V16.5898H36.9464V16.5898H41.9464ZM17.7389 29.5269V26.3522H12.7389V29.5269H17.7389ZM17.7389 26.3522C17.7389 24.4477 16.191 22.8998 14.2864 22.8998V27.8998C13.4295 27.8998 12.7389 27.2091 12.7389 26.3522H17.7389ZM14.2864 22.8998H7.61943V27.8998H14.2864V22.8998ZM7.61943 22.8998C7.61256 22.8998 7.60867 22.8991 7.60695 22.8988C7.6051 22.8984 7.60372 22.8979 7.60246 22.8974C7.59968 22.8962 7.59522 22.8936 7.59048 22.8889C7.58574 22.8842 7.58316 22.8797 7.58199 22.8769C7.58146 22.8757 7.581 22.8743 7.58062 22.8724C7.58027 22.8707 7.57962 22.8668 7.57962 22.8599H2.57962C2.57962 25.6455 4.83389 27.8998 7.61943 27.8998V22.8998ZM7.57962 22.8599V7.62109H2.57962V22.8599H7.57962ZM7.57962 7.62109C7.57962 7.61422 7.58027 7.61033 7.58062 7.60862C7.581 7.60677 7.58146 7.60539 7.58199 7.60413C7.58316 7.60134 7.58574 7.59689 7.59048 7.59215C7.59522 7.5874 7.59968 7.58483 7.60246 7.58365C7.60372 7.58312 7.6051 7.58267 7.60695 7.58229C7.60867 7.58194 7.61256 7.58128 7.61943 7.58128V2.58128C4.83389 2.58128 2.57962 4.83555 2.57962 7.62109H7.57962ZM7.61943 7.58128H14.2864V2.58128H7.61943V7.58128ZM14.2864 7.58128C16.191 7.58128 17.7389 6.03341 17.7389 4.12885H12.7389C12.7389 3.27198 13.4296 2.58128 14.2864 2.58128V7.58128ZM17.7389 4.12885V0.954095H12.7389V4.12885H17.7389ZM17.7389 0.954095C17.7389 -0.950456 16.191 -2.49834 14.2864 -2.49834V2.50166C13.4296 2.50166 12.7389 1.81097 12.7389 0.954095H17.7389ZM14.2864 -2.49834H7.61943V2.50166H14.2864V-2.49834ZM7.61943 -2.49834C2.03216 -2.49834 -2.5 2.03382 -2.5 7.62109H2.5C2.5 4.79525 4.79358 2.50166 7.61943 2.50166V-2.49834ZM-2.5 7.62109V22.8599H2.5V7.62109H-2.5ZM-2.5 22.8599C-2.5 28.4472 2.03216 32.9794 7.61943 32.9794V27.9794C4.79358 27.9794 2.5 25.6858 2.5 22.8599H-2.5ZM7.61943 32.9794H14.2864V27.9794H7.61943V32.9794ZM14.2864 32.9794C16.191 32.9794 17.7389 31.4315 17.7389 29.5269H12.7389C12.7389 28.6701 13.4296 27.9794 14.2864 27.9794V32.9794ZM12.7389 29.5269V29.5269H17.7389V29.5269H12.7389Z" fill="#737D6D" mask="url(#path-1-inside-1_0_810)"/>
</svg>
