<svg width="40" height="40" viewBox="0 0 40 40" fill="none" xmlns="http://www.w3.org/2000/svg">
<mask id="path-1-inside-1_0_802" fill="white">
<path fill-rule="evenodd" clip-rule="evenodd" d="M40 23.3073V16.6927L34.5766 15.6243C34.281 14.6411 33.8865 13.6916 33.3982 12.7877L36.4235 8.24962L31.7503 3.57657L27.2124 6.60188C26.3085 6.11352 25.3588 5.71907 24.3756 5.42352L23.3073 0H16.6928L15.6243 5.42344C14.6412 5.71899 13.6916 6.11344 12.7876 6.6018L8.2497 3.57657L3.57657 8.2497L6.60188 12.7878C6.1136 13.6917 5.71907 14.6412 5.42352 15.6244L0 16.6928V23.3074L5.42344 24.3758C5.71899 25.3589 6.11352 26.3085 6.6018 27.2124L3.57649 31.7505L8.24961 36.4236L12.7876 33.3983C13.6915 33.8867 14.6412 34.2811 15.6243 34.5767L16.6927 40H23.3073L24.3757 34.5766C25.3589 34.281 26.3084 33.8866 27.2124 33.3982L31.7504 36.4235L36.4235 31.7504L33.3982 27.2124C33.8865 26.3084 34.281 25.3589 34.5766 24.3757L40 23.3073ZM33.4076 31.4517L31.4517 33.4076L27.2894 30.6327C25.1774 31.9129 24.4774 32.1566 22.3606 32.6795L21.3802 37.6563H18.6198L17.6394 32.6795C15.2306 32.0845 14.5638 31.756 12.7106 30.6327L8.5483 33.4076L6.59244 31.4517L9.36736 27.2894C8.07838 25.163 7.83947 24.4603 7.32049 22.3606L2.34377 21.3802V18.6199L7.32041 17.6395C7.83229 15.5684 8.06682 14.856 9.36729 12.7107L6.59237 8.54837L8.54823 6.59251L12.7106 9.36735C14.8399 8.07673 15.5436 7.83829 17.6393 7.32048L18.6198 2.34376H21.3803L22.3606 7.32048C24.7742 7.91681 25.4402 8.24642 27.2894 9.36735L31.4518 6.59251L33.4076 8.54837L30.6327 12.7107C31.9103 14.8184 32.1553 15.5184 32.6796 17.6395L37.6563 18.6198V21.3802L32.6796 22.3605C32.0831 24.7742 31.7552 25.4376 30.6328 27.2893L33.4076 31.4517Z"/>
</mask>
<path d="M40 23.3073L40.3866 25.2696L42 24.9517V23.3073H40ZM40 16.6927H42V15.0482L40.3866 14.7304L40 16.6927ZM34.5766 15.6243L32.6612 16.2001L33.008 17.3538L34.19 17.5866L34.5766 15.6243ZM33.3982 12.7877L31.7341 11.6783L31.0666 12.6795L31.6385 13.7382L33.3982 12.7877ZM36.4235 8.24962L38.0876 9.35901L38.9971 7.99475L37.8377 6.83538L36.4235 8.24962ZM31.7503 3.57657L33.1645 2.16233L32.0051 1.00299L30.6409 1.91247L31.7503 3.57657ZM27.2124 6.60188L26.2616 8.36145L27.3204 8.93354L28.3218 8.26598L27.2124 6.60188ZM24.3756 5.42352L22.4134 5.81007L22.6462 6.99205L23.7999 7.33886L24.3756 5.42352ZM23.3073 0L25.2696 -0.386545L24.9517 -2H23.3073V0ZM16.6928 0V-2H15.0483L14.7305 -0.386578L16.6928 0ZM15.6243 5.42344L16.2001 7.33876L17.3537 6.99195L17.5866 5.81002L15.6243 5.42344ZM12.7876 6.6018L11.6782 8.26591L12.6795 8.9334L13.7382 8.36144L12.7876 6.6018ZM8.2497 3.57657L9.35909 1.91246L7.99486 1.00298L6.83549 2.16236L8.2497 3.57657ZM3.57657 8.2497L2.16236 6.83549L1.00299 7.99485L1.91246 9.35909L3.57657 8.2497ZM6.60188 12.7878L8.36155 13.7383L8.93346 12.6796L8.26599 11.6784L6.60188 12.7878ZM5.42352 15.6244L5.81007 17.5867L6.99205 17.3538L7.33886 16.2001L5.42352 15.6244ZM0 16.6928L-0.386545 14.7305L-2 15.0483V16.6928H0ZM0 23.3074H-2V24.9518L-0.386578 25.2696L0 23.3074ZM5.42344 24.3758L7.33876 23.8L6.99195 22.6464L5.81002 22.4135L5.42344 24.3758ZM6.6018 27.2124L8.26591 28.3218L8.93338 27.3206L8.36147 26.2619L6.6018 27.2124ZM3.57649 31.7505L1.91238 30.6411L1.00291 32.0053L2.16227 33.1647L3.57649 31.7505ZM8.24961 36.4236L6.83539 37.8378L7.99477 38.9972L9.35901 38.0877L8.24961 36.4236ZM12.7876 33.3983L13.7383 31.6387L12.6795 31.0667L11.6782 31.7342L12.7876 33.3983ZM15.6243 34.5767L17.5866 34.1901L17.3537 33.0081L16.2001 32.6613L15.6243 34.5767ZM16.6927 40L14.7305 40.3866L15.0483 42H16.6927V40ZM23.3073 40V42H24.9517L25.2696 40.3866L23.3073 40ZM24.3757 34.5766L23.8 32.6612L22.6463 33.008L22.4134 34.19L24.3757 34.5766ZM27.2124 33.3982L28.3218 31.7341L27.3206 31.0666L26.2618 31.6386L27.2124 33.3982ZM31.7504 36.4235L30.641 38.0876L32.0052 38.9971L33.1646 37.8377L31.7504 36.4235ZM36.4235 31.7504L37.8377 33.1646L38.9971 32.0052L38.0876 30.641L36.4235 31.7504ZM33.3982 27.2124L31.6385 26.2618L31.0666 27.3205L31.7341 28.3217L33.3982 27.2124ZM34.5766 24.3757L34.19 22.4134L33.008 22.6463L32.6612 23.8L34.5766 24.3757ZM33.4076 31.4517L34.8218 32.8659L35.9812 31.7066L35.0717 30.3424L33.4076 31.4517ZM31.4517 33.4076L30.3423 35.0717L31.7066 35.9812L32.866 34.8218L31.4517 33.4076ZM27.2894 30.6327L28.3988 28.9686L27.3404 28.263L26.2527 28.9223L27.2894 30.6327ZM22.3606 32.6795L21.8809 30.7379L20.6445 31.0434L20.3984 32.293L22.3606 32.6795ZM21.3802 37.6563V39.6563H23.0247L23.3425 38.0428L21.3802 37.6563ZM18.6198 37.6563L16.6575 38.0428L16.9753 39.6563H18.6198V37.6563ZM17.6394 32.6795L19.6017 32.293L19.3555 31.0434L18.119 30.7379L17.6394 32.6795ZM12.7106 30.6327L13.7473 28.9223L12.6596 28.263L11.6012 28.9686L12.7106 30.6327ZM8.5483 33.4076L7.13409 34.8218L8.29347 35.9812L9.65771 35.0717L8.5483 33.4076ZM6.59244 31.4517L4.92834 30.3423L4.01885 31.7066L5.17823 32.8659L6.59244 31.4517ZM9.36736 27.2894L11.0315 28.3988L11.7371 27.3404L11.0777 26.2526L9.36736 27.2894ZM7.32049 22.3606L9.26206 21.8807L8.95649 20.6445L7.70705 20.3983L7.32049 22.3606ZM2.34377 21.3802H0.34377V23.0247L1.95721 23.3425L2.34377 21.3802ZM2.34377 18.6199L1.9572 16.6576L0.34377 16.9754V18.6199H2.34377ZM7.32041 17.6395L7.70698 19.6017L8.95644 19.3556L9.26199 18.1193L7.32041 17.6395ZM9.36729 12.7107L11.0776 13.7475L11.737 12.6597L11.0314 11.6013L9.36729 12.7107ZM6.59237 8.54837L5.17816 7.13416L4.01877 8.29354L4.92827 9.65778L6.59237 8.54837ZM8.54823 6.59251L9.65762 4.9284L8.29338 4.01893L7.13402 5.1783L8.54823 6.59251ZM12.7106 9.36735L11.6012 11.0315L12.6595 11.737L13.7472 11.0777L12.7106 9.36735ZM17.6393 7.32048L18.1191 9.26209L19.3554 8.9566L19.6016 7.70707L17.6393 7.32048ZM18.6198 2.34376V0.34376H16.9754L16.6575 1.95717L18.6198 2.34376ZM21.3803 2.34376L23.3425 1.9572L23.0247 0.34376H21.3803V2.34376ZM22.3606 7.32048L20.3984 7.70704L20.6445 8.9566L21.8809 9.26209L22.3606 7.32048ZM27.2894 9.36735L26.2527 11.0777L27.3404 11.737L28.3988 11.0315L27.2894 9.36735ZM31.4518 6.59251L32.866 5.1783L31.7066 4.01893L30.3424 4.9284L31.4518 6.59251ZM33.4076 8.54837L35.0717 9.65778L35.9812 8.29354L34.8218 7.13416L33.4076 8.54837ZM30.6327 12.7107L28.9686 11.6013L28.263 12.6597L28.9224 13.7475L30.6327 12.7107ZM32.6796 17.6395L30.738 18.1193L31.0435 19.3556L32.293 19.6018L32.6796 17.6395ZM37.6563 18.6198H39.6563V16.9753L38.0428 16.6575L37.6563 18.6198ZM37.6563 21.3802L38.0429 23.3424L39.6563 23.0246V21.3802H37.6563ZM32.6796 22.3605L32.2931 20.3983L31.0436 20.6444L30.7381 21.8807L32.6796 22.3605ZM30.6328 27.2893L28.9224 26.2526L28.2631 27.3403L28.9686 28.3987L30.6328 27.2893ZM42 23.3073V16.6927H38V23.3073H42ZM40.3866 14.7304L34.9631 13.662L34.19 17.5866L39.6135 18.655L40.3866 14.7304ZM36.4919 15.0486C36.1572 13.9352 35.7105 12.8601 35.1579 11.8371L31.6385 13.7382C32.0625 14.523 32.4048 15.347 32.6612 16.2001L36.4919 15.0486ZM35.0623 13.8971L38.0876 9.35901L34.7594 7.14023L31.7341 11.6783L35.0623 13.8971ZM37.8377 6.83538L33.1645 2.16233L30.3361 4.99081L35.0093 9.66386L37.8377 6.83538ZM30.6409 1.91247L26.103 4.93778L28.3218 8.26598L32.8597 5.24067L30.6409 1.91247ZM28.1631 4.84231C27.1399 4.28944 26.0646 3.8428 24.9514 3.50818L23.7999 7.33886C24.6531 7.59534 25.4772 7.9376 26.2616 8.36145L28.1631 4.84231ZM26.3379 5.03697L25.2696 -0.386545L21.345 0.386545L22.4134 5.81007L26.3379 5.03697ZM23.3073 -2H16.6928V2H23.3073V-2ZM14.7305 -0.386578L13.662 5.03686L17.5866 5.81002L18.655 0.386578L14.7305 -0.386578ZM15.0485 3.50812C13.9354 3.84274 12.8602 4.28937 11.837 4.84216L13.7382 8.36144C14.5229 7.93751 15.347 7.59524 16.2001 7.33876L15.0485 3.50812ZM13.897 4.93769L9.35909 1.91246L7.14031 5.24068L11.6782 8.26591L13.897 4.93769ZM6.83549 2.16236L2.16236 6.83549L4.99078 9.66391L9.66391 4.99078L6.83549 2.16236ZM1.91246 9.35909L4.93777 13.8971L8.26599 11.6784L5.24068 7.14031L1.91246 9.35909ZM4.84221 11.8372C4.28959 12.8602 3.84285 13.9353 3.50818 15.0486L7.33886 16.2001C7.59529 15.3471 7.93761 14.5231 8.36155 13.7383L4.84221 11.8372ZM5.03697 13.6621L-0.386545 14.7305L0.386545 18.655L5.81007 17.5867L5.03697 13.6621ZM-2 16.6928V23.3074H2V16.6928H-2ZM-0.386578 25.2696L5.03686 26.3381L5.81002 22.4135L0.386578 21.3451L-0.386578 25.2696ZM3.50812 24.9516C3.84277 26.0648 4.28949 27.14 4.84213 28.163L8.36147 26.2619C7.93755 25.4771 7.59521 24.6531 7.33876 23.8L3.50812 24.9516ZM4.93769 26.1031L1.91238 30.6411L5.2406 32.8599L8.26591 28.3218L4.93769 26.1031ZM2.16227 33.1647L6.83539 37.8378L9.66383 35.0094L4.99071 30.3363L2.16227 33.1647ZM9.35901 38.0877L13.897 35.0624L11.6782 31.7342L7.14021 34.7595L9.35901 38.0877ZM11.8369 35.1579C12.8601 35.7107 13.9354 36.1574 15.0485 36.492L16.2001 32.6613C15.3469 32.4049 14.5228 32.0626 13.7383 31.6387L11.8369 35.1579ZM13.662 34.9632L14.7305 40.3866L18.655 39.6134L17.5866 34.1901L13.662 34.9632ZM16.6927 42H23.3073V38H16.6927V42ZM25.2696 40.3866L26.338 34.9632L22.4134 34.19L21.345 39.6134L25.2696 40.3866ZM24.9515 36.4919C26.0647 36.1573 27.1398 35.7106 28.163 35.1579L26.2618 31.6386C25.4771 32.0625 24.6531 32.4048 23.8 32.6612L24.9515 36.4919ZM26.103 35.0623L30.641 38.0876L32.8598 34.7594L28.3218 31.7341L26.103 35.0623ZM33.1646 37.8377L37.8377 33.1646L35.0093 30.3362L30.3362 35.0093L33.1646 37.8377ZM38.0876 30.641L35.0623 26.103L31.7341 28.3217L34.7594 32.8598L38.0876 30.641ZM35.1579 28.1629C35.7105 27.1399 36.1572 26.0648 36.4919 24.9515L32.6612 23.8C32.4048 24.653 32.0625 25.477 31.6385 26.2618L35.1579 28.1629ZM34.9632 26.338L40.3866 25.2696L39.6134 21.345L34.19 22.4134L34.9632 26.338ZM31.9934 30.0375L30.0375 31.9934L32.866 34.8218L34.8218 32.8659L31.9934 30.0375ZM32.5611 31.7435L28.3988 28.9686L26.18 32.2968L30.3423 35.0717L32.5611 31.7435ZM26.2527 28.9223C25.223 29.5465 24.6277 29.8618 24.073 30.0876C23.5154 30.3145 22.9351 30.4775 21.8809 30.7379L22.8403 34.6212C23.903 34.3586 24.731 34.1383 25.5807 33.7926C26.4331 33.4457 27.2437 32.9991 28.3261 32.343L26.2527 28.9223ZM20.3984 32.293L19.418 37.2697L23.3425 38.0428L24.3229 33.0661L20.3984 32.293ZM21.3802 35.6563H18.6198V39.6563H21.3802V35.6563ZM20.5821 37.2697L19.6017 32.293L15.6771 33.0661L16.6575 38.0428L20.5821 37.2697ZM18.119 30.7379C16.9459 30.4481 16.2995 30.2473 15.7482 30.0132C15.1936 29.7778 14.6715 29.4825 13.7473 28.9223L11.674 32.343C12.603 32.9061 13.3408 33.3367 14.1851 33.6952C15.0326 34.055 15.924 34.3159 17.1597 34.6212L18.119 30.7379ZM11.6012 28.9686L7.43889 31.7435L9.65771 35.0717L13.82 32.2968L11.6012 28.9686ZM9.96251 31.9934L8.00665 30.0375L5.17823 32.8659L7.13409 34.8218L9.96251 31.9934ZM8.25654 32.5611L11.0315 28.3988L7.70326 26.18L4.92834 30.3423L8.25654 32.5611ZM11.0777 26.2526C10.45 25.2171 10.1335 24.6176 9.90834 24.0628C9.68181 23.5047 9.52098 22.9283 9.26206 21.8807L5.37892 22.8405C5.63898 23.8927 5.85709 24.7174 6.20201 25.5672C6.54825 26.4202 6.99578 27.2352 7.65705 28.3261L11.0777 26.2526ZM7.70705 20.3983L2.73033 19.418L1.95721 23.3425L6.93393 24.3229L7.70705 20.3983ZM4.34377 21.3802V18.6199H0.34377V21.3802H4.34377ZM2.73034 20.5821L7.70698 19.6017L6.93384 15.6772L1.9572 16.6576L2.73034 20.5821ZM9.26199 18.1193C9.51787 17.084 9.67589 16.5124 9.90224 15.9528C10.1271 15.3968 10.4455 14.7902 11.0776 13.7475L7.65699 11.6739C6.98864 12.7765 6.53953 13.5987 6.19402 14.4531C5.85001 15.3037 5.63483 16.1238 5.37883 17.1596L9.26199 18.1193ZM11.0314 11.6013L8.25647 7.43896L4.92827 9.65778L7.70319 13.8201L11.0314 11.6013ZM8.00658 9.96258L9.96244 8.00672L7.13402 5.1783L5.17816 7.13416L8.00658 9.96258ZM7.43884 8.25662L11.6012 11.0315L13.82 7.70324L9.65762 4.9284L7.43884 8.25662ZM13.7472 11.0777C14.784 10.4493 15.3845 10.1326 15.9395 9.90737C16.4977 9.68089 17.0734 9.52046 18.1191 9.26209L17.1596 5.37887C16.1096 5.63831 15.2855 5.856 14.4356 6.20085C13.5825 6.547 12.7665 6.99479 11.6739 7.65699L13.7472 11.0777ZM19.6016 7.70707L20.5821 2.73035L16.6575 1.95717L15.677 6.93389L19.6016 7.70707ZM18.6198 4.34376H21.3803V0.34376H18.6198V4.34376ZM19.418 2.73032L20.3984 7.70704L24.3229 6.93392L23.3425 1.9572L19.418 2.73032ZM21.8809 9.26209C23.0561 9.55246 23.7035 9.75386 24.2547 9.988C24.8092 10.2235 25.3301 10.5185 26.2527 11.0777L28.3261 7.65703C27.3995 7.09531 26.6628 6.66497 25.8186 6.30638C24.9711 5.9464 24.0787 5.68483 22.8404 5.37887L21.8809 9.26209ZM28.3988 11.0315L32.5611 8.25662L30.3424 4.9284L26.18 7.70324L28.3988 11.0315ZM30.0375 8.00672L31.9934 9.96258L34.8218 7.13416L32.866 5.1783L30.0375 8.00672ZM31.7435 7.43896L28.9686 11.6013L32.2968 13.8201L35.0717 9.65778L31.7435 7.43896ZM28.9224 13.7475C29.5453 14.7751 29.8604 15.3695 30.0863 15.9243C30.3134 16.4819 30.477 17.0634 30.738 18.1193L34.6211 17.1596C34.3579 16.0944 34.1369 15.2654 33.791 14.4158C33.444 13.5635 32.9977 12.754 32.343 11.674L28.9224 13.7475ZM32.293 19.6018L37.2697 20.5821L38.0428 16.6575L33.0661 15.6772L32.293 19.6018ZM35.6563 18.6198V21.3802H39.6563V18.6198H35.6563ZM37.2697 19.4179L32.2931 20.3983L33.0662 24.3228L38.0429 23.3424L37.2697 19.4179ZM30.7381 21.8807C30.4475 23.0563 30.2464 23.703 30.0125 24.2539C29.7772 24.8079 29.4824 25.3287 28.9224 26.2526L32.3431 28.326C32.9055 27.3981 33.3359 26.6614 33.6943 25.8174C34.0541 24.9702 34.3152 24.0784 34.6212 22.8404L30.7381 21.8807ZM28.9686 28.3987L31.7435 32.5611L35.0717 30.3424L32.2969 26.1799L28.9686 28.3987Z" fill="#737D6D" mask="url(#path-1-inside-1_0_802)"/>
<mask id="path-3-inside-2_0_802" fill="white">
<path fill-rule="evenodd" clip-rule="evenodd" d="M20.0003 11.7969C15.477 11.7969 11.7971 15.4768 11.7971 20C11.7971 24.5232 15.477 28.2031 20.0003 28.2031C24.5234 28.2031 28.2034 24.5232 28.2034 20C28.2034 15.4768 24.5234 11.7969 20.0003 11.7969ZM20.0003 25.8594C16.7694 25.8594 14.1409 23.2309 14.1409 20C14.1409 16.7692 16.7694 14.1407 20.0003 14.1407C23.2311 14.1407 25.8596 16.7692 25.8596 20C25.8596 23.2309 23.2311 25.8594 20.0003 25.8594L20.0003 25.8594Z"/>
</mask>
<path d="M20.0003 25.8594L21.4802 24.514L20.885 23.8594H20.0003V25.8594ZM20.0003 25.8594L18.5204 27.2048L19.1155 27.8594H20.0003V25.8594ZM20.0003 9.79688C14.3725 9.79688 9.79712 14.3722 9.79712 20H13.7971C13.7971 16.5814 16.5816 13.7969 20.0003 13.7969V9.79688ZM9.79712 20C9.79712 25.6278 14.3725 30.2031 20.0003 30.2031V26.2031C16.5816 26.2031 13.7971 23.4186 13.7971 20H9.79712ZM20.0003 30.2031C25.628 30.2031 30.2034 25.6278 30.2034 20H26.2034C26.2034 23.4186 23.4189 26.2031 20.0003 26.2031V30.2031ZM30.2034 20C30.2034 14.3722 25.628 9.79688 20.0003 9.79688V13.7969C23.4189 13.7969 26.2034 16.5814 26.2034 20H30.2034ZM20.0003 23.8594C17.874 23.8594 16.1409 22.1263 16.1409 20H12.1409C12.1409 24.3354 15.6648 27.8594 20.0003 27.8594V23.8594ZM16.1409 20C16.1409 17.8737 17.874 16.1407 20.0003 16.1407V12.1407C15.6648 12.1407 12.1409 15.6646 12.1409 20H16.1409ZM20.0003 16.1407C22.1265 16.1407 23.8596 17.8737 23.8596 20H27.8596C27.8596 15.6646 24.3357 12.1407 20.0003 12.1407V16.1407ZM23.8596 20C23.8596 22.1263 22.1265 23.8594 20.0003 23.8594V27.8594C24.3357 27.8594 27.8596 24.3354 27.8596 20H23.8596ZM21.4802 24.5141L21.4802 24.514L18.5204 27.2047L18.5204 27.2048L21.4802 24.5141Z" fill="#737D6D" mask="url(#path-3-inside-2_0_802)"/>
</svg>
