<svg width="115" height="115" viewBox="0 0 115 115" fill="none" xmlns="http://www.w3.org/2000/svg">
<path fill-rule="evenodd" clip-rule="evenodd" d="M115 57.5C115 89.2564 89.2564 115 57.5 115C25.7435 115 0 89.2564 0 57.5C0 25.7435 25.7435 0 57.5 0C89.2564 0 115 25.7435 115 57.5ZM50.849 87.9458L93.5103 45.2845C94.9589 43.8359 94.9589 41.4869 93.5103 40.0383L88.2641 34.7921C86.8155 33.3433 84.4665 33.3433 83.0177 34.7921L48.2258 69.5838L31.9823 53.3403C30.5336 51.8917 28.1847 51.8917 26.7359 53.3403L21.4897 58.5865C20.041 60.0351 20.041 62.384 21.4897 63.8326L45.6026 87.9455C47.0514 89.3944 49.4001 89.3944 50.849 87.9458L50.849 87.9458Z" fill="#07A24B"/>
</svg>
