<svg width="16" height="22" viewBox="0 0 16 22" fill="none" xmlns="http://www.w3.org/2000/svg">
<path fill-rule="evenodd" clip-rule="evenodd" d="M7.96758 0C3.57424 0 0 3.57423 0 7.96753C0 13.4198 7.1302 21.4239 7.43376 21.762C7.71891 22.0796 8.21674 22.079 8.50137 21.762C8.80494 21.4239 15.9352 13.4198 15.9352 7.96753C15.9351 3.57423 12.3609 0 7.96757 0H7.96758ZM7.96758 11.9762C5.75718 11.9762 3.95894 10.1779 3.95894 7.96753C3.95894 5.75713 5.75723 3.95889 7.96758 3.95889C10.1779 3.95889 11.9762 5.75718 11.9762 7.96758C11.9762 10.178 10.1779 11.9762 7.96758 11.9762Z" fill="#DB4437"/>
</svg>
