<svg width="55" height="50" viewBox="0 0 55 50" fill="none" xmlns="http://www.w3.org/2000/svg">
<path fill-rule="evenodd" clip-rule="evenodd" d="M21.4844 35.1484H34.291V39.0547H21.4844V35.1484ZM13.4277 34.6719C11.9453 34.6719 10.7422 35.7656 10.7422 37.1016C10.7422 38.4531 11.9453 39.5469 13.4277 39.5469C14.9101 39.5469 16.1133 38.4531 16.1133 37.1016C16.1133 35.7656 14.9101 34.6719 13.4277 34.6719ZM43.1836 22.7578H21.4843V26.664H43.1836V22.7578ZM13.4277 22.2734C11.9453 22.2734 10.7422 23.3594 10.7422 24.7109C10.7422 26.0547 11.9453 27.1484 13.4277 27.1484C14.9101 27.1484 16.1133 26.0547 16.1133 24.7109C16.1133 23.3594 14.9101 22.2734 13.4277 22.2734ZM43.1836 11.0312H21.4843V14.9375H43.1836V11.0312ZM13.4277 10.5547C11.9453 10.5547 10.7422 11.6406 10.7422 12.9844C10.7422 14.3438 11.9453 15.4375 13.4277 15.4375C14.9101 15.4375 16.1133 14.3438 16.1133 12.9844C16.1133 11.6406 14.9101 10.5547 13.4277 10.5547V10.5547ZM4.29685 44.1406V5.85937C4.29685 4.78906 5.26169 3.91406 6.44529 3.91406H48.5547C49.7383 3.91406 50.7031 4.78906 50.7031 5.85937V27.9297H55V5.85937C55 2.63281 52.1094 0 48.5547 0H6.44531C2.89258 0 0 2.63281 0 5.85938V44.1406C0 47.3672 2.89258 50 6.44531 50H31.2598V46.0938H6.44531C5.26172 46.0938 4.29687 45.2109 4.29687 44.1406L4.29685 44.1406Z" fill="#1C3947"/>
</svg>
