<svg width="26" height="23" viewBox="0 0 26 23" fill="none" xmlns="http://www.w3.org/2000/svg">
<path d="M14.3949 2.44835C14.1685 1.87598 13.6155 1.49997 13 1.49997C12.3845 1.49997 11.8315 1.87598 11.6051 2.44835L9.47106 7.84502L2.96592 7.99366C2.3149 8.00854 1.74784 8.44177 1.56235 9.06599C1.37687 9.69021 1.61533 10.3628 2.15258 10.7308L7.17539 14.171L5.39629 19.5268C5.19754 20.1251 5.39413 20.7838 5.88826 21.1753C6.3824 21.5668 7.06862 21.6076 7.60561 21.2773L13 17.9594L18.3944 21.2773C18.9314 21.6076 19.6176 21.5668 20.1117 21.1753C20.6059 20.7838 20.8025 20.1251 20.6037 19.5268L18.8246 14.171L23.8474 10.7308C24.3847 10.3628 24.6231 9.69021 24.4376 9.06599C24.2522 8.44177 23.6851 8.00854 23.0341 7.99366L16.5289 7.84502L14.3949 2.44835Z" stroke="#E28B3C" stroke-width="3" stroke-linecap="square" stroke-linejoin="round"/>
</svg>
