<svg width="32" height="43" viewBox="0 0 32 43" fill="none" xmlns="http://www.w3.org/2000/svg">
<path fill-rule="evenodd" clip-rule="evenodd" d="M15.5 24C20.1944 24 24 20.1944 24 15.5C24 10.8056 20.1944 7 15.5 7C10.8056 7 7 10.8056 7 15.5C7 20.1944 10.8056 24 15.5 24Z" fill="white"/>
<path fill-rule="evenodd" clip-rule="evenodd" d="M15.573 0C6.98599 0 0 6.986 0 15.5729C0 26.2295 13.9363 41.8741 14.5296 42.5349C15.087 43.1556 16.06 43.1545 16.6163 42.5349C17.2097 41.8741 31.146 26.2295 31.146 15.5729C31.1458 6.986 24.1599 0 15.573 0H15.573ZM15.573 23.4081C11.2526 23.4081 7.73791 19.8932 7.73791 15.5729C7.73791 11.2526 11.2527 7.73783 15.573 7.73783C19.8932 7.73783 23.408 11.2527 23.408 15.573C23.408 19.8933 19.8932 23.4081 15.573 23.4081Z" fill="#FF3737"/>
<path fill-rule="evenodd" clip-rule="evenodd" d="M15.6781 11.3427V11.0495H15.9385C16.0977 11.0495 16.2267 10.9204 16.2267 10.7613C16.2267 10.6022 16.0977 10.4731 15.9385 10.4731H14.8414C14.6823 10.4731 14.5532 10.6022 14.5532 10.7613C14.5532 10.9204 14.6823 11.0495 14.8414 11.0495H15.1018V11.3427C13.3108 11.4827 11.8773 12.9161 11.7373 14.7071H19.0425C18.9026 12.9161 17.4691 11.4827 15.6781 11.3427ZM14.1178 13.0014C13.7628 13.2135 13.4813 13.5226 13.3039 13.8951C13.2546 13.9988 13.1512 14.0595 13.0436 14.0595C13.002 14.0595 12.9599 14.0505 12.9199 14.0314C12.7762 13.963 12.7152 13.791 12.7836 13.6473C13.0101 13.1718 13.3692 12.7773 13.8221 12.5066C13.9587 12.425 14.1357 12.4695 14.2173 12.6062C14.299 12.7428 14.2544 12.9197 14.1178 13.0014ZM15.2868 13.109C15.1959 13.109 15.1044 13.116 15.0147 13.1299C15.002 13.1318 14.9893 13.1328 14.9768 13.1328C14.803 13.1328 14.6534 12.9476 14.6341 12.6977C14.6134 12.4297 14.7502 12.1887 14.9397 12.1594C15.0542 12.1418 15.171 12.1328 15.2868 12.1328C15.4774 12.1328 15.632 12.3513 15.632 12.6209C15.632 12.8904 15.4774 13.109 15.2868 13.109V13.109Z" fill="#FF3737"/>
<path fill-rule="evenodd" clip-rule="evenodd" d="M20.1165 15.2832H10.6648C10.5587 15.2832 10.4727 15.3692 10.4727 15.4753C10.4727 16.0482 10.9371 16.5127 11.51 16.5127H13.1821C12.943 16.5811 12.7323 16.7328 12.5925 16.9462L11.9063 17.9936H10.4727V20.3088H15.6902C16.1331 20.3088 16.5549 20.1202 16.8502 19.7903L18.9433 17.4853C19.1862 17.2138 19.125 16.7887 18.8153 16.5968C18.739 16.5495 18.655 16.5219 18.5697 16.5127H19.2712C19.8442 16.5127 20.3086 16.0482 20.3086 15.4753C20.3086 15.3692 20.2226 15.2832 20.1165 15.2832V15.2832ZM18.1302 16.6461L15.9714 18.4585C15.8312 18.5762 15.654 18.6407 15.471 18.6407H14.6174C14.3179 18.6407 14.0752 18.3979 14.0752 18.0985C14.0752 17.799 14.318 17.5562 14.6174 17.5562H15.422C15.7214 17.5562 15.9642 17.3135 15.9642 17.014C15.9642 16.7877 15.8255 16.5939 15.6286 16.5127H18.4445C18.3314 16.5248 18.2216 16.5693 18.1302 16.6461L18.1302 16.6461Z" fill="#FF3737"/>
</svg>
