<svg width="42" height="43" viewBox="0 0 42 43" fill="none" xmlns="http://www.w3.org/2000/svg">
<path fill-rule="evenodd" clip-rule="evenodd" d="M20.9195 43C15.3315 43 10.0781 40.7636 6.12702 36.7028C2.17596 32.642 0 27.2429 0 21.5C0 15.7571 2.17596 10.358 6.12702 6.29721C10.0781 2.2364 15.3315 0 20.9195 0C26.5074 0 31.7608 2.2364 35.7119 6.29721C39.663 10.358 41.8389 15.7571 41.8389 21.5C41.8389 27.2429 39.663 32.642 35.7119 36.7028C31.7608 40.7636 26.5074 43 20.9195 43ZM9.19139 27.6059L9.1914 27.6059C9.94843 30.1258 11.5025 32.3894 13.5672 33.9797C15.7021 35.6239 18.2445 36.493 20.9195 36.493C23.5942 36.493 26.1364 35.6239 28.2711 33.9797C30.3353 32.3896 31.8896 30.1261 32.6475 27.6059H9.1914H9.19139ZM29.4776 12.7044C27.9043 12.7044 26.6243 14.0199 26.6243 15.6369C26.6243 17.2528 27.9043 18.5676 29.4776 18.5676C31.0499 18.5676 32.3291 17.2528 32.3291 15.6369C32.3291 14.0199 31.0499 12.7044 29.4776 12.7044ZM12.3613 12.7044C10.788 12.7044 9.50804 14.0199 9.50804 15.6369C9.50804 17.2528 10.788 18.5676 12.3613 18.5676C13.9347 18.5676 15.2146 17.2528 15.2146 15.6369C15.2146 14.0199 13.9347 12.7044 12.3613 12.7044Z" fill="#BFC4D3"/>
</svg>
