<svg width="35" height="36" viewBox="0 0 35 36" fill="none" xmlns="http://www.w3.org/2000/svg">
<path fill-rule="evenodd" clip-rule="evenodd" d="M22.1154 20.9239C22.1154 19.825 21.224 18.9346 20.1241 18.9346H13.1753C12.0766 18.9346 11.1851 19.825 11.1851 20.9239V27.8718C11.1851 28.9723 12.0766 29.863 13.1753 29.863H20.1241C21.224 29.863 22.1154 28.9723 22.1154 27.8718V20.9239Z" fill="#FFFCFC"/>
<path fill-rule="evenodd" clip-rule="evenodd" d="M31.8847 3.98528V8.3151C31.8847 10.2721 30.297 11.8492 28.3403 11.8492H26.1044C24.1475 11.8492 22.5389 10.2721 22.5389 8.3151V3.96973H12.4611V8.3151C12.4611 10.2721 10.8525 11.8492 8.89594 11.8492H6.65962C4.70296 11.8492 3.11541 10.2721 3.11541 8.3151V3.98528C1.40526 4.03683 0 5.45192 0 7.19125V32.566C0 34.338 1.43628 35.7934 3.20831 35.7934H31.7917C33.5611 35.7934 35 34.335 35 32.566V7.19125C35 5.45192 33.5948 4.03683 31.8847 3.98528ZM30.8462 30.9859C30.8462 31.7517 30.2252 32.3729 29.4592 32.3729H5.47976C4.71367 32.3729 4.09275 31.7517 4.09275 30.9859V17.8789C4.09275 17.1128 4.71359 16.4915 5.47976 16.4915H29.4591C30.2252 16.4915 30.8461 17.1128 30.8461 17.8789L30.8462 30.9859H30.8462Z" fill="#FFFCFC"/>
<path fill-rule="evenodd" clip-rule="evenodd" d="M6.65162 9.52816H8.86322C9.53452 9.52816 10.0788 8.98468 10.0788 8.31339V1.21521C10.0788 0.54385 9.53452 0 8.86322 0H6.65162C5.98026 0 5.43604 0.54385 5.43604 1.21521V8.31339C5.43604 8.98468 5.98025 9.52816 6.65162 9.52816Z" fill="#FFFCFC"/>
<path fill-rule="evenodd" clip-rule="evenodd" d="M26.0754 9.52816H28.287C28.9578 9.52816 29.5021 8.98468 29.5021 8.31339V1.21521C29.5022 0.54385 28.9579 0 28.287 0H26.0754C25.4042 0 24.8599 0.54385 24.8599 1.21521V8.31339C24.8599 8.98468 25.4041 9.52816 26.0754 9.52816Z" fill="#FFFCFC"/>
</svg>
