<svg width="32" height="32" viewBox="0 0 32 32" fill="none" xmlns="http://www.w3.org/2000/svg">
<g opacity="0.5">
<path fill-rule="evenodd" clip-rule="evenodd" d="M22.4858 19.849H21.0795L20.5521 19.3216C22.31 17.388 23.3646 14.7512 23.3646 11.9387C23.3646 5.62829 18.2491 0.512704 11.9387 0.512704C5.62829 0.512704 0.512704 5.62828 0.512704 11.9387C0.512704 18.2491 5.62828 23.3646 11.9387 23.3646C14.7512 23.3646 17.388 22.31 19.3216 20.5521L19.849 21.0795V22.4858L28.6382 31.275L31.275 28.6382L22.4858 19.849ZM11.9387 19.849C7.56993 19.849 4.02836 16.3074 4.02836 11.9387C4.02836 7.56992 7.56992 4.02835 11.9387 4.02836C16.3074 4.02836 19.849 7.56992 19.849 11.9387C19.8578 14.0393 19.0272 16.0564 17.5418 17.5418C16.0564 19.0272 14.0393 19.8578 11.9387 19.849Z" fill="black"/>
<path d="M22.4858 19.849L22.8483 19.4864L22.6981 19.3363H22.4858V19.849ZM21.0795 19.849L20.7169 20.2115L20.8671 20.3617H21.0795V19.849ZM20.5521 19.3216L20.1727 18.9767L19.8439 19.3385L20.1896 19.6841L20.5521 19.3216ZM19.3216 20.5521L19.6841 20.1896L19.3385 19.8439L18.9767 20.1727L19.3216 20.5521ZM19.849 21.0795H20.3617V20.8671L20.2115 20.7169L19.849 21.0795ZM19.849 22.4858H19.3363V22.6981L19.4865 22.8483L19.849 22.4858ZM28.6382 31.275L28.2757 31.6375L28.6382 32L29.0008 31.6375L28.6382 31.275ZM31.275 28.6382L31.6375 29.0008L32 28.6382L31.6375 28.2757L31.275 28.6382ZM11.9387 19.849L11.9408 19.3363H11.9387V19.849ZM11.9387 4.02836L11.9387 4.54106H11.9387V4.02836ZM19.849 11.9387L19.3363 11.9387L19.3363 11.9408L19.849 11.9387ZM17.5418 17.5418L17.9043 17.9043V17.9043L17.5418 17.5418ZM22.4858 19.3363H21.0795V20.3617H22.4858V19.3363ZM21.442 19.4864L20.9146 18.9591L20.1896 19.6841L20.7169 20.2115L21.442 19.4864ZM20.9315 19.6665C22.7754 17.6382 23.8773 14.8783 23.8773 11.9387H22.8519C22.8519 14.6241 21.8445 17.1378 20.1727 18.9767L20.9315 19.6665ZM23.8773 11.9387C23.8773 5.34513 18.5322 0 11.9387 0V1.02541C17.9659 1.02541 22.8519 5.91145 22.8519 11.9387H23.8773ZM11.9387 0C5.34513 0 0 5.34512 0 11.9387H1.02541C1.02541 5.91144 5.91145 1.02541 11.9387 1.02541V0ZM0 11.9387C0 18.5322 5.34512 23.8773 11.9387 23.8773V22.8519C5.91144 22.8519 1.02541 17.9659 1.02541 11.9387H0ZM11.9387 23.8773C14.8783 23.8773 17.6382 22.7754 19.6665 20.9315L18.9767 20.1727C17.1378 21.8445 14.6241 22.8519 11.9387 22.8519V23.8773ZM18.9591 20.9146L19.4865 21.442L20.2115 20.7169L19.6841 20.1896L18.9591 20.9146ZM19.3363 21.0795V22.4858H20.3617V21.0795H19.3363ZM19.4865 22.8483L28.2757 31.6375L29.0008 30.9124L20.2115 22.1232L19.4865 22.8483ZM29.0008 31.6375L31.6375 29.0008L30.9124 28.2757L28.2757 30.9124L29.0008 31.6375ZM31.6375 28.2757L22.8483 19.4864L22.1232 20.2115L30.9124 29.0008L31.6375 28.2757ZM11.9387 19.3363C7.85309 19.3363 4.54106 16.0243 4.54106 11.9387H3.51565C3.51565 16.5906 7.28677 20.3617 11.9387 20.3617V19.3363ZM4.54106 11.9387C4.54106 7.85308 7.85308 4.54105 11.9387 4.54106L11.9387 3.51565C7.28676 3.51564 3.51565 7.28676 3.51565 11.9387H4.54106ZM11.9387 4.54106C16.0243 4.54106 19.3363 7.85308 19.3363 11.9387L20.3617 11.9387C20.3617 7.28676 16.5906 3.51565 11.9387 3.51565V4.54106ZM19.3363 11.9408C19.3445 13.9047 18.568 15.7906 17.1793 17.1793L17.9043 17.9043C19.4864 16.3223 20.371 14.1739 20.3617 11.9365L19.3363 11.9408ZM17.1793 17.1793C15.7906 18.568 13.9047 19.3445 11.9408 19.3363L11.9365 20.3617C14.1739 20.371 16.3223 19.4864 17.9043 17.9043L17.1793 17.1793Z" fill="#707070"/>
</g>
</svg>
