<svg width="39" height="36" viewBox="0 0 39 36" fill="none" xmlns="http://www.w3.org/2000/svg">
<path fill-rule="evenodd" clip-rule="evenodd" d="M6.71723 35.9999C4.61357 35.9999 3.22688 35.999 3.22688 35.999C1.44758 35.999 0 34.543 0 32.7531V7.23311C0 5.50758 1.40572 4.06087 3.13369 4.00807V8.36284C3.13369 10.3229 4.73277 11.9174 6.69819 11.9174H8.9466C10.9241 11.9174 12.5328 10.3229 12.5328 8.36284V3.99274H22.6678V8.36284C22.6678 10.3229 24.2766 11.9174 26.2541 11.9174H28.5025C30.4679 11.9174 32.067 10.3229 32.067 8.36284V4.00807C33.7954 4.06086 35.2007 5.50808 35.2007 7.23311V20.2412C33.9752 19.3485 32.531 18.7974 31.0225 18.6482L31.0224 17.9818C31.0224 17.2122 30.3967 16.5861 29.6276 16.5861H5.51151C4.74236 16.5861 4.1166 17.2122 4.1166 17.9818V31.1636C4.1166 31.9328 4.74236 32.5585 5.51151 32.5585H23.5472C25.0149 34.356 27.1775 35.4924 29.4813 35.6764C28.4336 35.8727 27.4118 35.9821 26.6044 35.9864C24.2188 35.9989 10.7794 35.9999 6.71724 35.9999L6.71723 35.9999ZM19.0264 30.654H16.1743C15.7241 30.654 15.3578 30.2878 15.3578 29.8376V26.9872C15.3578 26.5365 15.7241 26.17 16.1743 26.17H19.0264C19.4766 26.17 19.8428 26.5365 19.8428 26.9872V29.8376C19.8428 30.2878 19.4766 30.654 19.0264 30.654ZM11.9001 30.654H9.04788C8.59769 30.654 8.23146 30.2878 8.23146 29.8376V26.9872C8.23146 26.5365 8.59769 26.17 9.04788 26.17H11.9001C12.3503 26.17 12.7165 26.5365 12.7165 26.9872V29.8376C12.7165 30.2878 12.3503 30.654 11.9001 30.654ZM19.0264 23.5287H16.1743C15.7241 23.5287 15.3578 23.162 15.3578 22.7113V19.8601C15.3578 19.4099 15.7241 19.0437 16.1743 19.0437H19.0264C19.4766 19.0437 19.8428 19.4099 19.8428 19.8601V22.7113C19.8428 23.162 19.4766 23.5287 19.0264 23.5287ZM11.9001 23.5287H9.04788C8.59769 23.5287 8.23146 23.162 8.23146 22.7113V19.8601C8.23146 19.4099 8.59769 19.0437 9.04788 19.0437H11.9001C12.3503 19.0437 12.7165 19.4099 12.7165 19.8601V22.7113C12.7165 23.162 12.3503 23.5287 11.9001 23.5287ZM22.6147 23.155L22.6138 23.1535C22.5289 23.0218 22.4841 22.8688 22.4841 22.7113V19.8601C22.4841 19.4099 22.8503 19.0437 23.3005 19.0437H26.1527C26.3839 19.0437 26.6052 19.1424 26.7599 19.3145C24.9927 20.0844 23.521 21.4471 22.6155 23.1535L22.6147 23.155ZM28.45 9.58292H26.2251C25.5513 9.58292 25.0032 9.03476 25.0032 8.36099V1.22205C25.0032 0.548173 25.5513 0 26.2251 0H28.45C29.1237 0 29.6719 0.548163 29.6719 1.22205V8.36099C29.6719 9.03475 29.1237 9.58292 28.45 9.58292ZM8.91395 9.58292H6.68998C6.01573 9.58292 5.46719 9.03476 5.46719 8.36099V1.22205C5.46719 0.548173 6.01573 0 6.68998 0H8.91395C9.58832 0 10.1369 0.548163 10.1369 1.22205V8.36099C10.1369 9.03475 9.58832 9.58292 8.91395 9.58292Z" fill="#FFFCFC"/>
<path fill-rule="evenodd" clip-rule="evenodd" d="M34.7825 34.3568C36.557 33.3323 37.8264 31.678 38.3567 29.6988C38.4846 29.2215 38.2013 28.7309 37.724 28.603C37.2467 28.4751 36.7561 28.7584 36.6282 29.2357C35.7888 32.3684 32.5573 34.234 29.4247 33.3946C26.292 32.5552 24.4263 29.3238 25.2657 26.1911C26.1051 23.0584 29.3366 21.1928 32.4692 22.0321C33.3175 22.2594 34.1027 22.6735 34.7647 23.2384L34.4483 23.4669C34.1717 23.6668 34.2152 24.0911 34.5265 24.2307L36.8674 25.2805C37.1787 25.4201 37.5244 25.1703 37.4897 24.8309L37.2288 22.2787C37.194 21.9392 36.8049 21.7646 36.5282 21.9645L36.2478 22.167C35.3213 21.2805 34.1784 20.6375 32.9324 20.3036C30.9532 19.7733 28.8859 20.0455 27.1114 21.07C25.3369 22.0945 24.0675 23.7487 23.5372 25.728C23.0069 27.7072 23.279 29.7744 24.3035 31.5489C25.3281 33.3235 26.9823 34.5928 28.9615 35.1231C30.9407 35.6535 33.008 35.3813 34.7825 34.3568L34.7825 34.3568Z" fill="white"/>
<path fill-rule="evenodd" clip-rule="evenodd" d="M30.174 27.5691L30.676 25.6953C30.7108 25.5656 30.9564 25.5187 31.2247 25.5906C31.4929 25.6625 31.6822 25.8259 31.6475 25.9556L31.1454 27.8294C31.1107 27.9591 30.9279 27.7711 30.6597 27.6992C30.3914 27.6274 30.3341 27.612 30.174 27.5691Z" fill="white"/>
<path fill-rule="evenodd" clip-rule="evenodd" d="M30.6093 27.9534C30.6812 27.6852 30.8446 27.4959 30.9743 27.5306L32.5913 27.9639C32.721 27.9987 32.7679 28.2443 32.696 28.5126C32.6241 28.7808 32.4607 28.9701 32.331 28.9354L30.714 28.5021C30.5843 28.4674 30.5374 28.2217 30.6093 27.9534Z" fill="white"/>
<path fill-rule="evenodd" clip-rule="evenodd" d="M33.866 28.7407C33.9379 28.4725 34.1113 28.2859 34.2535 28.324L35.1047 28.5521C35.2469 28.5902 35.3038 28.8385 35.2319 29.1068C35.1601 29.3751 34.9866 29.5616 34.8444 29.5236L33.9932 29.2955C33.851 29.2574 33.7941 29.0091 33.866 28.7407Z" fill="white"/>
<path fill-rule="evenodd" clip-rule="evenodd" d="M26.5381 26.7774C26.61 26.5091 26.7835 26.3226 26.9256 26.3607L27.7769 26.5888C27.919 26.6268 27.9759 26.8752 27.9041 27.1434C27.8322 27.4117 27.6587 27.5983 27.5166 27.5602L26.6653 27.3321C26.5232 27.294 26.4662 27.0458 26.5381 26.7774Z" fill="white"/>
<path fill-rule="evenodd" clip-rule="evenodd" d="M29.1366 31.6115L29.3647 30.7602C29.4028 30.618 29.6511 30.5611 29.9194 30.633C30.1876 30.7049 30.3743 30.8783 30.3362 31.0205L30.1081 31.8718C30.07 32.0139 29.8217 32.0709 29.5534 31.999C29.2852 31.9271 29.0985 31.7536 29.1366 31.6115Z" fill="white"/>
<path fill-rule="evenodd" clip-rule="evenodd" d="M31.1 24.2836L31.3281 23.4323C31.3661 23.2902 31.6144 23.2332 31.8827 23.3051C32.151 23.377 32.3376 23.5505 32.2995 23.6926L32.0714 24.5439C32.0333 24.6861 31.785 24.743 31.5167 24.6711C31.2485 24.5992 31.0619 24.4258 31.1 24.2836Z" fill="white"/>
<path fill-rule="evenodd" clip-rule="evenodd" d="M31.4428 31.1827C31.4672 31.0918 31.5494 31.019 31.6672 30.9983C31.8428 30.9675 32.0308 31.0641 32.0872 31.2141L32.2866 31.7445C32.3429 31.8945 32.2464 32.0412 32.0708 32.072C31.8952 32.1028 31.7072 32.0062 31.6508 31.8562L31.4514 31.3258C31.4328 31.2764 31.4309 31.2273 31.4428 31.1827L31.4428 31.1827Z" fill="white"/>
<path fill-rule="evenodd" clip-rule="evenodd" d="M29.3862 23.5062C29.4105 23.4153 29.4928 23.3425 29.6106 23.3218C29.7861 23.2909 29.9742 23.3875 30.0306 23.5376L30.2299 24.068C30.2863 24.2179 30.1897 24.3645 30.0142 24.3954C29.8385 24.4263 29.6505 24.3297 29.5941 24.1797L29.3948 23.6492C29.3762 23.5999 29.3742 23.5508 29.3862 23.5062L29.3862 23.5062Z" fill="white"/>
<path fill-rule="evenodd" clip-rule="evenodd" d="M33.2754 30.3339C33.2903 30.2786 33.3167 30.2255 33.3544 30.1805C33.4689 30.0439 33.6442 30.0335 33.7459 30.1574L34.1055 30.5953C34.2073 30.7192 34.1969 30.9303 34.0824 31.0669C33.9679 31.2035 33.7926 31.2139 33.6909 31.09L33.3312 30.6521C33.263 30.5691 33.2452 30.4467 33.2754 30.3339L33.2754 30.3339Z" fill="white"/>
<path fill-rule="evenodd" clip-rule="evenodd" d="M27.655 24.714C27.6699 24.6587 27.6962 24.6056 27.734 24.5606C27.8484 24.424 28.0237 24.4136 28.1255 24.5375L28.4851 24.9754C28.5869 25.0992 28.5765 25.3103 28.462 25.447C28.3475 25.5836 28.1722 25.594 28.0705 25.4701L27.7108 25.0322C27.6426 24.9492 27.6248 24.8268 27.655 24.714L27.655 24.714Z" fill="white"/>
<path fill-rule="evenodd" clip-rule="evenodd" d="M34.2182 26.8149C34.2484 26.7021 34.325 26.605 34.4257 26.5673L34.9561 26.3679C35.1061 26.3115 35.2527 26.4081 35.2836 26.5836C35.3144 26.7592 35.2178 26.9473 35.0678 27.0036L34.5373 27.203C34.3873 27.2594 34.2407 27.1628 34.2099 26.9872C34.1997 26.9294 34.2034 26.8702 34.2182 26.8149Z" fill="white"/>
<path fill-rule="evenodd" clip-rule="evenodd" d="M26.5412 28.8715C26.5714 28.7588 26.648 28.6617 26.7486 28.6239L27.279 28.4245C27.429 28.3681 27.5756 28.4647 27.6065 28.6403C27.6374 28.8158 27.5408 29.0038 27.3908 29.0602L26.8604 29.2596C26.7103 29.3161 26.5637 29.2195 26.5328 29.0439C26.5227 28.9861 26.5263 28.9269 26.5412 28.8715L26.5412 28.8715Z" fill="white"/>
<path fill-rule="evenodd" clip-rule="evenodd" d="M33.1053 24.9791C33.1173 24.9344 33.1435 24.8929 33.1843 24.8594L33.6222 24.4998C33.746 24.3981 33.9572 24.4084 34.0938 24.5229C34.2304 24.6374 34.2408 24.8128 34.1169 24.9144L33.679 25.2741C33.5552 25.3758 33.344 25.3654 33.2074 25.2509C33.1158 25.1742 33.0809 25.07 33.1053 24.9791Z" fill="white"/>
<path fill-rule="evenodd" clip-rule="evenodd" d="M27.4854 30.599C27.4974 30.5543 27.5236 30.5128 27.5644 30.4794L28.0023 30.1197C28.1261 30.018 28.3373 30.0283 28.4739 30.1428C28.6106 30.2573 28.6209 30.4326 28.497 30.5343L28.0591 30.894C27.9353 30.9957 27.7241 30.9853 27.5875 30.8709C27.4959 30.7941 27.461 30.6899 27.4854 30.599L27.4854 30.599Z" fill="white"/>
<path fill-rule="evenodd" clip-rule="evenodd" d="M26.4662 26.5134C27.1282 24.043 29.6765 22.5717 32.1469 23.2336C34.6173 23.8956 36.0886 26.4439 35.4266 28.9143C34.7647 31.3848 32.2163 32.856 29.746 32.1941C27.2756 31.5322 25.8043 28.9838 26.4662 26.5134ZM34.912 28.7764C35.4979 26.5898 34.1956 24.3342 32.009 23.7483C29.8224 23.1624 27.5668 24.4647 26.9809 26.6513C26.395 28.8379 27.6973 31.0935 29.8839 31.6794C32.0705 32.2653 34.3261 30.9631 34.912 28.7764Z" fill="white"/>
</svg>
