<svg width="101" height="18" viewBox="0 0 101 18" fill="none" xmlns="http://www.w3.org/2000/svg">
<path d="M31.8631 6.05035L38.4284 6.61368L33.4481 10.9285L34.9408 17.3459L29.2986 13.9431L23.6563 17.3468L25.149 10.9294L20.1687 6.61368L26.734 6.05035L29.2985 0L31.8631 6.05035Z" fill="#FFB04E"/>
<path d="M52.0316 6.05035L58.5968 6.61368L53.6165 10.9285L55.1092 17.3459L49.467 13.9431L43.8247 17.3468L45.3175 10.9294L40.3371 6.61368L46.9024 6.05035L49.467 0L52.0316 6.05035Z" fill="#FFB04E"/>
<path d="M94.4347 6.05035L101 6.61368L96.0197 10.9285L97.5124 17.3459L91.8702 13.9431L86.2279 17.3468L87.7206 10.9294L82.7403 6.61368L89.3056 6.05035L91.8701 0L94.4347 6.05035Z" fill="#CFCFCF"/>
<path d="M11.6945 6.05035L18.2597 6.61368L13.2794 10.9285L14.7721 17.3459L9.12987 13.9431L3.48761 17.3468L4.98037 10.9294L0 6.61368L6.5653 6.05035L9.12986 0L11.6945 6.05035Z" fill="#FFB04E"/>
<path fill-rule="evenodd" clip-rule="evenodd" d="M79.8868 6.61368L73.3215 6.05035L70.7569 0L68.1924 6.05035L61.627 6.61368L66.6074 10.9294L65.1147 17.3468L70.7569 13.9431L76.3992 17.3459L74.9065 10.9285L79.8868 6.61368ZM70.7569 3.73867V12.2304L74.1934 14.3029L73.284 10.3944L76.317 7.76677L72.3181 7.42349L70.7569 3.73867Z" fill="#FFB04E"/>
</svg>
