<svg width="38" height="32" viewBox="0 0 38 32" fill="none" xmlns="http://www.w3.org/2000/svg">
<mask id="mask0_0_4365" style="mask-type:luminance" maskUnits="userSpaceOnUse" x="-1" y="-2" width="41" height="35">
<path fill-rule="evenodd" clip-rule="evenodd" d="M15.0797 7.02912V3.35244L13.2988 1.91615V-1.93286H-0.718512V32.9381H39.3227V-1.93286H24.2138V1.91615L22.2606 4.50133V7.43118H15.0797V7.02912Z" fill="white"/>
</mask>
<g mask="url(#mask0_0_4365)">
<path opacity="0.52" d="M32.1197 9.62767L31.4046 9.88512L31.5855 10.3877H32.1197V9.62767ZM30.934 6.33399L30.2188 6.59134L30.2188 6.59145L30.934 6.33399ZM7.06484 6.33399L6.3497 6.07651L6.34969 6.07654L7.06484 6.33399ZM5.87912 9.62767V10.3877H6.41332L6.59427 9.88512L5.87912 9.62767ZM0.784205 10.8082L1.52575 10.6413L1.5256 10.6407L0.784205 10.8082ZM1.21175 12.7084L1.95343 12.5421L1.95329 12.5415L1.21175 12.7084ZM3.47133 13.4281L4.00067 13.9735L5.34593 12.668H3.47133V13.4281ZM3.03808 24.3487H3.79816V24.0856L3.63552 23.8788L3.03808 24.3487ZM9.87879 26.0961V25.336H9.11872V26.0961H9.87879ZM28.1207 26.0961H28.8808V25.336H28.1207V26.0961ZM34.9615 24.3487L34.3642 23.8785L34.2014 24.0854V24.3487H34.9615ZM34.5289 13.4281V12.668H32.6553L33.9994 13.9733L34.5289 13.4281ZM36.7885 12.7084L36.047 12.5415L36.0468 12.5421L36.7885 12.7084ZM37.2161 10.8082L37.9576 10.975L37.9576 10.9748L37.2161 10.8082ZM11.299 8.21598L10.5838 7.95846L10.5838 7.95855L11.299 8.21598ZM26.7006 8.21598L27.4157 7.95855L27.4157 7.95846L26.7006 8.21598ZM28.1207 12.1613V12.9213H29.2021L28.8359 11.9038L28.1207 12.1613ZM9.87877 12.1613L9.16362 11.9038L8.79734 12.9213H9.87877V12.1613ZM7.59855 21.013V21.7731H8.35863V21.013H7.59855ZM7.59855 21.013V20.2529H6.83847V21.013H7.59855ZM30.401 21.013H31.1611V20.2529H30.401V21.013ZM30.401 21.013H29.6409V21.7731H30.401V21.013ZM36.3859 8.86759H32.1197V10.3877H36.3859V8.86759ZM32.8349 9.37022L31.6491 6.07654L30.2188 6.59145L31.4046 9.88512L32.8349 9.37022ZM31.6492 6.07665C30.336 2.42717 27.167 0 23.5246 0V1.52016C26.4479 1.52016 29.095 3.46819 30.2188 6.59134L31.6492 6.07665ZM23.5246 0H14.4749V1.52016H23.5246V0ZM14.4749 0C10.8332 0 7.66363 2.42713 6.3497 6.07651L7.77998 6.59147C8.90448 3.46822 11.5524 1.52016 14.4749 1.52016V0ZM6.34969 6.07654L5.16397 9.37022L6.59427 9.88512L7.77999 6.59145L6.34969 6.07654ZM5.87912 8.86759H1.61364V10.3877H5.87912V8.86759ZM1.61364 8.86759C0.471938 8.86759 -0.17731 10.0012 0.0428052 10.9756L1.5256 10.6407C1.50604 10.5541 1.52778 10.4779 1.56138 10.4301C1.57757 10.4071 1.59271 10.396 1.60058 10.3916C1.6068 10.3881 1.60978 10.3877 1.61364 10.3877V8.86759ZM0.0426644 10.975L0.470214 12.8752L1.95329 12.5415L1.52574 10.6413L0.0426644 10.975ZM0.470081 12.8746C0.631147 13.5931 1.24272 14.1881 2.04119 14.1881V12.668C2.03969 12.668 2.03778 12.6678 2.03424 12.6665C2.0303 12.6649 2.02273 12.6612 2.01295 12.6527C1.99318 12.6355 1.96648 12.6003 1.95343 12.5421L0.470081 12.8746ZM2.04119 14.1881H3.47133V12.668H2.04119V14.1881ZM2.94199 12.8826C1.83894 13.9531 1.13788 15.4992 1.13788 17.2285H2.65804C2.65804 15.9143 3.18974 14.7605 4.00067 13.9735L2.94199 12.8826ZM1.13788 17.2285V21.0289H2.65804V17.2285H1.13788ZM1.13788 21.0289C1.13788 22.4822 1.63828 23.7984 2.44064 24.8185L3.63552 23.8788C3.03555 23.1159 2.65804 22.1281 2.65804 21.0289H1.13788ZM2.278 24.3487V28.6296H3.79816V24.3487H2.278ZM2.278 28.6296C2.278 30.3711 3.56607 31.9233 5.31832 31.9233V30.4032C4.55233 30.4032 3.79816 29.6862 3.79816 28.6296H2.278ZM5.31832 31.9233H7.59856V30.4032H5.31832V31.9233ZM7.59856 31.9233C9.3508 31.9233 10.6389 30.3711 10.6389 28.6296H9.11872C9.11872 29.6862 8.36454 30.4032 7.59856 30.4032V31.9233ZM10.6389 28.6296V26.0961H9.11872V28.6296H10.6389ZM9.87879 26.8561H28.1207V25.336H9.87879V26.8561ZM27.3607 26.0961V28.6296H28.8808V26.0961H27.3607ZM27.3607 28.6296C27.3607 30.3711 28.6487 31.9233 30.401 31.9233V30.4032C29.635 30.4032 28.8808 29.6862 28.8808 28.6296H27.3607ZM30.401 31.9233H32.6812V30.4032H30.401V31.9233ZM32.6812 31.9233C34.4335 31.9233 35.7215 30.3711 35.7215 28.6296H34.2014C34.2014 29.6862 33.4472 30.4032 32.6812 30.4032V31.9233ZM35.7215 28.6296V24.3487H34.2014V28.6296H35.7215ZM35.5587 24.8188C36.3614 23.7992 36.8617 22.4829 36.8617 21.0289H35.3415C35.3415 22.129 34.9639 23.1167 34.3642 23.8785L35.5587 24.8188ZM36.8617 21.0289V17.2285H35.3415V21.0289H36.8617ZM36.8617 17.2285C36.8617 15.4992 36.1606 13.9532 35.0585 12.8828L33.9994 13.9733C34.8098 14.7604 35.3415 15.9142 35.3415 17.2285H36.8617ZM34.5289 14.1881H35.9591V12.668H34.5289V14.1881ZM35.9591 14.1881C36.7575 14.1881 37.3691 13.5931 37.5302 12.8746L36.0468 12.5421C36.0338 12.6003 36.0071 12.6355 35.9873 12.6527C35.9775 12.6612 35.97 12.6649 35.966 12.6665C35.9625 12.6678 35.9606 12.668 35.9591 12.668V14.1881ZM37.53 12.8752L37.9576 10.975L36.4745 10.6413L36.047 12.5415L37.53 12.8752ZM37.9576 10.9748C38.1765 10.001 37.5276 8.86759 36.3859 8.86759V10.3877C36.3898 10.3877 36.3928 10.3881 36.399 10.3916C36.4069 10.396 36.4221 10.4072 36.4384 10.4303C36.4721 10.4783 36.494 10.5548 36.4745 10.6415L37.9576 10.9748ZM36.3859 8.86759H36.3859V10.3877H36.3859V8.86759ZM12.0141 8.4735C12.4388 7.29395 13.4357 6.58735 14.4749 6.58735V5.06719C12.7165 5.06719 11.198 6.25287 10.5838 7.95846L12.0141 8.4735ZM14.4749 6.58735H23.5246V5.06719H14.4749V6.58735ZM23.5246 6.58735C24.5638 6.58735 25.5607 7.29395 25.9854 8.4735L27.4157 7.95846C26.8015 6.25287 25.283 5.06719 23.5246 5.06719V6.58735ZM25.9854 8.47341L27.4056 12.4187L28.8359 11.9038L27.4157 7.95855L25.9854 8.47341ZM28.1207 11.4012H9.87877V12.9213H28.1207V11.4012ZM10.5939 12.4187L12.0141 8.47341L10.5838 7.95855L9.16362 11.9038L10.5939 12.4187ZM7.59855 20.2529C7.11207 20.2529 6.75317 20.079 6.50955 19.8091C6.25957 19.5322 6.07839 19.0942 6.07839 18.4873H4.55823C4.55823 19.3959 4.8331 20.2207 5.3812 20.8278C5.93567 21.4419 6.71688 21.7731 7.59855 21.7731V20.2529ZM6.07839 18.4873C6.07839 17.8805 6.25957 17.4425 6.50955 17.1656C6.75317 16.8957 7.11207 16.7217 7.59855 16.7217V15.2016C6.71688 15.2016 5.93567 15.5327 5.3812 16.1469C4.8331 16.754 4.55823 17.5788 4.55823 18.4873H6.07839ZM7.59855 16.7217C7.74415 16.7217 7.98822 16.7887 8.31182 16.9878C8.6242 17.1801 8.95465 17.4614 9.25761 17.797C9.55999 18.1319 9.81822 18.5023 9.99747 18.8597C10.1807 19.2249 10.2588 19.5312 10.2588 19.7502H11.779C11.779 19.2114 11.6006 18.6653 11.3563 18.1781C11.108 17.6831 10.7676 17.2011 10.386 16.7783C10.0048 16.3562 9.56571 15.9745 9.10851 15.6932C8.66252 15.4187 8.13702 15.2016 7.59855 15.2016V16.7217ZM10.2588 19.7502C10.2588 19.9348 10.2071 19.9875 10.1728 20.0179C10.1074 20.0759 9.96427 20.1506 9.68381 20.2024C9.09095 20.3119 8.37538 20.2529 7.59855 20.2529V21.7731C8.18986 21.7731 9.18448 21.8404 9.95977 21.6973C10.3634 21.6228 10.8188 21.4766 11.181 21.1557C11.5742 20.8073 11.779 20.3233 11.779 19.7502H10.2588ZM6.83847 21.013V21.013H8.35863V21.013H6.83847ZM30.401 20.2529C29.6241 20.2529 28.9086 20.3119 28.3157 20.2024C28.0353 20.1507 27.8921 20.0759 27.8267 20.0179C27.7924 19.9875 27.7407 19.9348 27.7407 19.7502H26.2205C26.2205 20.3233 26.4254 20.8073 26.8186 21.1557C27.1807 21.4766 27.6361 21.6228 28.0398 21.6973C28.815 21.8404 29.8097 21.7731 30.401 21.7731V20.2529ZM27.7407 19.7502C27.7407 19.5312 27.8189 19.2249 28.0021 18.8597C28.1813 18.5023 28.4395 18.1319 28.7419 17.797C29.0449 17.4614 29.3753 17.1801 29.6877 16.9879C30.0113 16.7887 30.2554 16.7217 30.401 16.7217V15.2016C29.8625 15.2016 29.337 15.4187 28.891 15.6932C28.4338 15.9745 27.9947 16.3562 27.6136 16.7783C27.2319 17.2011 26.8915 17.6831 26.6432 18.1781C26.3989 18.6653 26.2205 19.2114 26.2205 19.7502H27.7407ZM30.401 16.7217C30.8875 16.7217 31.2464 16.8957 31.49 17.1656C31.74 17.4425 31.9211 17.8805 31.9211 18.4873H33.4413C33.4413 17.5788 33.1664 16.754 32.6183 16.1469C32.0639 15.5327 31.2826 15.2016 30.401 15.2016V16.7217ZM31.9211 18.4873C31.9211 19.0942 31.74 19.5322 31.49 19.8091C31.2464 20.079 30.8875 20.2529 30.401 20.2529V21.7731C31.2826 21.7731 32.0639 21.442 32.6183 20.8278C33.1664 20.2207 33.4413 19.3959 33.4413 18.4873H31.9211ZM31.1611 21.013V21.013H29.6409V21.013H31.1611Z" fill="black"/>
</g>
</svg>
