<svg width="38" height="38" viewBox="0 0 38 38" fill="none" xmlns="http://www.w3.org/2000/svg">
<path fill-rule="evenodd" clip-rule="evenodd" d="M35.0726 23.7265C34.5498 23.7265 34.1262 24.1501 34.1262 24.6729V33.0759C34.1243 34.6433 32.8545 35.9136 31.287 35.9151H4.732C3.16452 35.9136 1.89465 34.6433 1.8928 33.0759V8.41365C1.89465 6.84655 3.16452 5.5763 4.732 5.57446H13.135C13.6577 5.57446 14.0814 5.1508 14.0814 4.62806C14.0814 4.10568 13.6577 3.68165 13.135 3.68165H4.732C2.11979 3.6846 0.00296001 5.80144 0 8.41364V33.0762C0.00296001 35.6884 2.11978 37.8053 4.732 37.8082H31.287C33.8992 37.8053 36.016 35.6884 36.019 33.0762V24.6729C36.019 24.1501 35.5953 23.7264 35.0726 23.7264L35.0726 23.7265Z" fill="#1C3947"/>
<path fill-rule="evenodd" clip-rule="evenodd" d="M35.6441 1.24741C33.9808 -0.415804 31.2843 -0.415804 29.6211 1.24741L12.7368 18.1317C12.6211 18.2474 12.5376 18.3909 12.4939 18.5484L10.2736 26.5643C10.1823 26.8929 10.2751 27.2449 10.5161 27.4863C10.7575 27.7273 11.1094 27.8201 11.4381 27.7292L19.454 25.5084C19.6115 25.4648 19.7549 25.3813 19.8706 25.2656L36.7546 8.38087C38.4152 6.71655 38.4152 4.02226 36.7546 2.35794L35.6441 1.24741ZM14.7989 18.7469L28.6174 4.92795L33.074 9.38453L19.2551 23.2035L14.7989 18.7469ZM13.9087 20.5332L17.4691 24.094L12.5441 25.4585L13.9087 20.5332ZM35.4163 7.04259L34.4126 8.04629L29.9557 3.58934L30.9598 2.58564C31.8836 1.66179 33.3816 1.66179 34.3054 2.58564L35.4163 3.69618C36.3387 4.62113 36.3387 6.118 35.4163 7.04259Z" fill="#1C3947"/>
</svg>
