<svg width="20" height="20" viewBox="0 0 20 20" fill="none" xmlns="http://www.w3.org/2000/svg">
<path fill-rule="evenodd" clip-rule="evenodd" d="M10.5863 1.76805V1.17188H11.1158C11.4394 1.17188 11.7017 0.90954 11.7017 0.58594C11.7017 0.26235 11.4394 0 11.1158 0H8.88495C8.56136 0 8.29901 0.26234 8.29901 0.58594C8.29901 0.90953 8.56135 1.17188 8.88495 1.17188H9.41441V1.76805C5.77266 2.05274 2.85792 4.96742 2.57324 8.60922H17.4274C17.1428 4.96742 14.2281 2.05274 10.5863 1.76805H10.5863ZM7.41366 5.14078C6.69179 5.57219 6.11952 6.20062 5.75874 6.95816C5.65835 7.16898 5.44828 7.2923 5.22933 7.2923C5.14487 7.2923 5.05913 7.27398 4.9778 7.23523C4.68566 7.09609 4.56159 6.74644 4.70073 6.45429C5.16124 5.48734 5.89147 4.68527 6.81249 4.13484C7.09018 3.96882 7.44995 4.05941 7.61604 4.33722C7.78202 4.61499 7.69143 4.97476 7.41366 5.14077V5.14078ZM9.57065 4.54652C9.41639 4.54652 9.26104 4.55496 9.10885 4.5716C9.08721 4.57398 9.06572 4.57512 9.04447 4.57512C8.74939 4.57512 8.49553 4.35285 8.46271 4.05278C8.42755 3.7311 8.65982 3.4418 8.9815 3.40665C9.17579 3.38544 9.374 3.37466 9.57064 3.37466C9.89423 3.37466 10.1566 3.637 10.1566 3.9606C10.1566 4.28419 9.89424 4.54654 9.57064 4.54654L9.57065 4.54652Z" fill="white"/>
<path fill-rule="evenodd" clip-rule="evenodd" d="M19.6094 9.78076H0.39062C0.17488 9.78076 0 9.95564 0 10.1714C0 11.3363 0.94441 12.2808 2.10938 12.2808H5.5093C5.02301 12.4198 4.59465 12.7283 4.31043 13.1622L2.91512 15.2919H0V19.9997H10.6092C11.5096 19.9997 12.3673 19.6162 12.9678 18.9452L17.2238 14.2583C17.7178 13.7063 17.5933 12.8419 16.9636 12.4517C16.8085 12.3556 16.6376 12.2994 16.4642 12.2807H17.8906C19.0556 12.2807 20 11.3363 20 10.1714C20 9.95566 19.8251 9.78078 19.6094 9.78078L19.6094 9.78076ZM15.5705 12.5519L11.1808 16.2373C10.8958 16.4765 10.5355 16.6077 10.1634 16.6077H8.42772C7.81881 16.6077 7.32522 16.1141 7.32522 15.5052C7.32522 14.8963 7.81885 14.4026 8.42772 14.4026H10.0637C10.6727 14.4026 11.1662 13.909 11.1662 13.3001C11.1662 12.84 10.8843 12.4459 10.4838 12.2807H16.2095C15.9796 12.3053 15.7564 12.3959 15.5705 12.5519V12.5519Z" fill="white"/>
</svg>
