<svg width="45" height="49" viewBox="0 0 45 49" fill="none" xmlns="http://www.w3.org/2000/svg">
<mask id="mask0_0_502" style="mask-type:luminance" maskUnits="userSpaceOnUse" x="-4" y="-3" width="52" height="56">
<path fill-rule="evenodd" clip-rule="evenodd" d="M30.8868 4.37717L28.1562 10.5235L34.0295 17.3524L41.9498 16.6698L47.5517 36.3368V52.9997H-3.93525V-2.00303H31.9288L30.8868 4.37717Z" fill="white"/>
</mask>
<g mask="url(#mask0_0_502)">
<mask id="path-2-outside-1_0_502" maskUnits="userSpaceOnUse" x="0" y="0" width="45.0022" height="49.0024" fill="black">
<rect fill="white" width="45.0022" height="49.0024"/>
<path fill-rule="evenodd" clip-rule="evenodd" d="M22.2609 46.9999C25.4556 46.9999 28.047 44.4818 28.047 41.3749H16.4748C16.4748 44.4819 19.0662 46.9999 22.2609 46.9999ZM41.7429 33.8419C39.9954 32.0173 36.7257 29.2724 36.7257 20.2813C36.7257 13.4522 31.798 7.98543 25.1535 6.64422V4.81259C25.1535 3.25957 23.8583 2.0001 22.2609 2.0001C20.6636 2.0001 19.3683 3.25956 19.3683 4.81259V6.64422C12.7239 7.98543 7.79618 13.4522 7.79618 20.2813C7.79618 29.2724 4.52642 32.0173 2.77893 33.8419C2.23623 34.4087 1.99563 35.0864 2.00016 35.75C2.01011 37.1914 3.1742 38.5624 4.90361 38.5624H39.6183C41.3477 38.5624 42.5127 37.1914 42.5217 35.75C42.5262 35.0864 42.2856 34.4079 41.7429 33.8419H41.7429Z"/>
</mask>
<path d="M28.047 41.3749H30.0471V39.3748H28.047V41.3749ZM16.4748 41.3749V39.3748H14.4747V41.3749H16.4748ZM41.7429 33.8419L40.2984 35.2253L40.889 35.842H41.7429V33.8419ZM25.1535 6.64422H23.1534V8.28093L24.7578 8.60478L25.1535 6.64422ZM19.3683 6.64422L19.7641 8.60478L21.3684 8.28093V6.64422H19.3683ZM2.77893 33.8419L1.33445 32.4584L1.33416 32.4587L2.77893 33.8419ZM2.00016 35.75L0.00010932 35.7636L0.000110393 35.7638L2.00016 35.75ZM42.5217 35.75L40.5216 35.7363L40.5216 35.7374L42.5217 35.75ZM41.7429 33.8419L43.1866 32.4576L42.5961 31.8418H41.7429V33.8419ZM22.2609 49C26.5063 49 30.0471 45.6396 30.0471 41.3749H26.0469C26.0469 43.3241 24.4049 44.9998 22.2609 44.9998V49ZM28.047 39.3748H16.4748V43.375H28.047V39.3748ZM14.4747 41.3749C14.4747 45.6396 18.0155 49 22.2609 49V44.9998C20.117 44.9998 18.4749 43.3241 18.4749 41.3749H14.4747ZM43.1874 32.4584C42.2485 31.4781 41.2357 30.5619 40.362 28.8428C39.496 27.1389 38.7258 24.528 38.7258 20.2813H34.7256C34.7256 25.0257 35.5902 28.2828 36.796 30.6552C37.994 33.0125 39.4898 34.381 40.2984 35.2253L43.1874 32.4584ZM38.7258 20.2813C38.7258 12.41 33.0357 6.19483 25.5493 4.68366L24.7578 8.60478C30.5602 9.77602 34.7256 14.4944 34.7256 20.2813H38.7258ZM27.1536 6.64422V4.81259H23.1534V6.64422H27.1536ZM27.1536 4.81259C27.1536 2.10242 24.9096 0 22.2609 0V4.0002C22.8069 4.0002 23.1534 4.41672 23.1534 4.81259H27.1536ZM22.2609 0C19.6122 0 17.3682 2.10241 17.3682 4.81259H21.3684C21.3684 4.41672 21.7149 4.0002 22.2609 4.0002V0ZM17.3682 4.81259V6.64422H21.3684V4.81259H17.3682ZM18.9726 4.68366C11.4861 6.19483 5.79608 12.41 5.79608 20.2813H9.79628C9.79628 14.4944 13.9617 9.77602 19.7641 8.60478L18.9726 4.68366ZM5.79608 20.2813C5.79608 24.528 5.02582 27.1389 4.15983 28.8428C3.28613 30.5619 2.27335 31.4781 1.33445 32.4584L4.22341 35.2253C5.032 34.381 6.52784 33.0125 7.72589 30.6552C8.93166 28.2828 9.79628 25.0257 9.79628 20.2813H5.79608ZM1.33416 32.4587C0.426124 33.4072 -0.00791494 34.5882 0.00010932 35.7636L4.00022 35.7363C3.99964 35.6522 4.01429 35.5712 4.04506 35.4932C4.0753 35.4165 4.12805 35.3249 4.22371 35.225L1.33416 32.4587ZM0.000110393 35.7638C0.0171907 38.238 2.00972 40.5625 4.90361 40.5625V36.5623C4.33868 36.5623 4.00304 36.1447 4.00021 35.7361L0.000110393 35.7638ZM4.90361 40.5625H39.6183V36.5623H4.90361V40.5625ZM39.6183 40.5625C42.5111 40.5625 44.5062 38.2388 44.5218 35.7625L40.5216 35.7374C40.5191 36.1439 40.1842 36.5623 39.6183 36.5623V40.5625ZM44.5217 35.7636C44.5297 34.5891 44.0963 33.4064 43.1866 32.4576L40.2992 35.2261C40.3939 35.3249 40.4464 35.4159 40.4767 35.4927C40.5075 35.5708 40.5222 35.6521 40.5216 35.7363L44.5217 35.7636ZM41.7429 31.8418H41.7429V35.842H41.7429V31.8418Z" fill="#1C3947" mask="url(#path-2-outside-1_0_502)"/>
</g>
</svg>
