<svg width="32" height="32" viewBox="0 0 32 32" fill="none" xmlns="http://www.w3.org/2000/svg">
<path opacity="0.5" fill-rule="evenodd" clip-rule="evenodd" d="M22.8572 20.1143H21.3943L20.8457 19.5657C22.6743 17.5543 23.7714 14.8114 23.7714 11.8857C23.7714 5.32141 18.45 0 11.8857 0C5.32141 0 0 5.32141 0 11.8857C0 18.45 5.32141 23.7714 11.8857 23.7714C14.8114 23.7714 17.5543 22.6743 19.5657 20.8457L20.1143 21.3943V22.8572L29.2572 32L32 29.2572L22.8572 20.1143ZM11.8857 20.1143C7.34117 20.1143 3.6571 16.4302 3.6571 11.8857C3.6571 7.34117 7.34117 3.65711 11.8857 3.65711C16.4302 3.65711 20.1143 7.34118 20.1143 11.8857C20.1234 14.0709 19.2594 16.1691 17.7143 17.7143C16.1691 19.2594 14.0708 20.1234 11.8857 20.1143H11.8857Z" fill="black"/>
</svg>
