<svg width="39" height="40" viewBox="0 0 39 40" fill="none" xmlns="http://www.w3.org/2000/svg">
<mask id="mask0_0_779" style="mask-type:luminance" maskUnits="userSpaceOnUse" x="-1" y="0" width="41" height="41">
<path fill-rule="evenodd" clip-rule="evenodd" d="M26.9851 40.3617V32.4465H39.4284V0H-0.460099V40.6375L26.9851 40.3617Z" fill="white"/>
</mask>
<g mask="url(#mask0_0_779)">
<path fill-rule="evenodd" clip-rule="evenodd" d="M11.093 15.6458V14.5012H18.9833V15.6458H11.093ZM11.093 12.6779V11.5357H27.9046V12.6779H11.093ZM11.093 9.71242V8.56801H27.9046V9.71242H11.093Z" fill="#737D6D"/>
<path d="M11.093 15.6458H10.839V15.8998H11.093V15.6458ZM11.093 14.5012V14.2472H10.839V14.5012H11.093ZM18.9833 14.5012H19.2373V14.2472H18.9833V14.5012ZM18.9833 15.6458V15.8998H19.2373V15.6458H18.9833ZM11.093 12.6779H10.839V12.9319H11.093V12.6779ZM11.093 11.5357V11.2817H10.839V11.5357H11.093ZM27.9046 11.5357H28.1585V11.2817H27.9046V11.5357ZM27.9046 12.6779V12.9319H28.1585V12.6779H27.9046ZM11.093 9.71242H10.839V9.9664H11.093V9.71242ZM11.093 8.56801V8.31402H10.839V8.56801H11.093ZM27.9046 8.56801H28.1585V8.31402H27.9046V8.56801ZM27.9046 9.71242V9.9664H28.1585V9.71242H27.9046ZM11.347 15.6458V14.5012H10.839V15.6458H11.347ZM11.093 14.7551H18.9833V14.2472H11.093V14.7551ZM18.7294 14.5012V15.6458H19.2373V14.5012H18.7294ZM18.9833 15.3918H11.093V15.8998H18.9833V15.3918ZM11.347 12.6779V11.5357H10.839V12.6779H11.347ZM11.093 11.7897H27.9046V11.2817H11.093V11.7897ZM27.6506 11.5357V12.6779H28.1585V11.5357H27.6506ZM27.9046 12.4239H11.093V12.9319H27.9046V12.4239ZM11.347 9.71242V8.56801H10.839V9.71242H11.347ZM11.093 8.82199H27.9046V8.31402H11.093V8.82199ZM27.6506 8.56801V9.71242H28.1585V8.56801H27.6506ZM27.9046 9.45843H11.093V9.9664H27.9046V9.45843Z" fill="#737D6D"/>
<path fill-rule="evenodd" clip-rule="evenodd" d="M37.0756 11.4332L33.8016 9.2039V8.36353C33.8016 6.32323 32.1416 4.66329 30.1013 4.66329H27.1327L21.5935 0.892011C20.3217 0.0260964 18.6783 0.0260964 17.4065 0.892011L11.8721 4.66009L11.8743 4.66337H8.8986C6.8583 4.66337 5.19836 6.32331 5.19836 8.36361V9.20391L1.9243 11.4331C1.03742 12.0369 0.507969 13.038 0.507969 14.1109V36.8407C0.507969 37.6323 0.827116 39.2693 2.93656 39.2693H36.0634C37.4026 39.2693 38.492 38.1799 38.492 36.8407V14.1109C38.4921 13.038 37.9624 12.0369 37.0756 11.4332H37.0756ZM18.0499 1.83689C18.9309 1.23731 20.0693 1.23731 20.9501 1.83689L25.1015 4.66337H13.8986L18.0499 1.83689ZM6.34166 8.36368C6.34166 6.95368 7.48868 5.80666 8.89861 5.80666H30.1013C31.5112 5.80666 32.6582 6.95368 32.6582 8.3636V15.3122H33.8014V10.5871C33.8014 10.5871 36.6254 12.5232 36.7111 12.6062L22.5432 21.1811C20.6661 22.3145 18.3339 22.3147 16.4598 21.1829L6.34166 14.9887V8.36368ZM5.19844 10.5869V14.2886L2.35261 12.5465C2.42022 12.4864 5.19844 10.5869 5.19844 10.5869ZM2.86841 38.1228L4.8956 35.795L4.03342 35.0441L1.85958 37.5402C1.72825 37.3386 1.65111 37.0987 1.65111 36.8407V14.1109C1.65111 13.9051 1.68191 13.7037 1.73922 13.5115L15.4672 21.9157L4.03342 35.0441L4.8956 35.795L16.4822 22.4912C17.4381 22.9468 18.4688 23.1749 19.4999 23.1749C20.5439 23.1749 21.5878 22.9405 22.5541 22.4733L36.1491 38.1219C36.1206 38.1238 2.89114 38.124 2.86842 38.1228L2.86841 38.1228ZM37.3488 36.8408C37.3488 37.0937 37.2743 37.329 37.1477 37.5281L23.5679 21.8972L37.2844 13.5955C37.3266 13.7621 37.3488 13.9349 37.3488 14.1109V36.8407L37.3488 36.8408Z" fill="#737D6D"/>
<path d="M37.0756 11.4332L36.7897 11.853L36.9191 11.9411H37.0756V11.4332ZM33.8016 9.2039H33.2936V9.47257L33.5157 9.62378L33.8016 9.2039ZM27.1327 4.66329L26.8468 5.08318L26.9762 5.17126H27.1327V4.66329ZM21.5935 0.892011L21.3076 1.31189L21.3076 1.3119L21.5935 0.892011ZM17.4065 0.892011L17.6923 1.3119V1.3119L17.4065 0.892011ZM11.8721 4.66009L11.5862 4.24021L11.168 4.52493L11.4511 4.94427L11.8721 4.66009ZM11.8743 4.66337V5.17134H12.83L12.2954 4.3792L11.8743 4.66337ZM5.19836 9.20391L5.48424 9.6238L5.70633 9.47259V9.20391H5.19836ZM1.9243 11.4331L2.21016 11.853L2.21018 11.853L1.9243 11.4331ZM38.492 14.1109L37.984 14.1109V14.1109H38.492ZM37.0756 11.4332L37.3615 11.0133L37.2322 10.9252H37.0756V11.4332ZM18.0499 1.83689L17.7641 1.41695L17.764 1.41701L18.0499 1.83689ZM20.9501 1.83689L21.2359 1.41701L21.2359 1.41699L20.9501 1.83689ZM25.1015 4.66337V5.17134H26.7501L25.3874 4.24349L25.1015 4.66337ZM13.8986 4.66337L13.6127 4.24349L12.25 5.17134H13.8986V4.66337ZM32.6582 15.3122H32.1503V15.8201H32.6582V15.3122ZM33.8014 15.3122V15.8201H34.3094V15.3122H33.8014ZM33.8014 10.5871L34.0887 10.1681L33.2935 9.6229V10.5871H33.8014ZM36.7111 12.6062L36.9741 13.0408L37.5378 12.6996L37.0644 12.2412L36.7111 12.6062ZM22.5432 21.1811L22.8057 21.616L22.8062 21.6157L22.5432 21.1811ZM16.4598 21.1829L16.1945 21.6161L16.1972 21.6177L16.4598 21.1829ZM6.34166 14.9887H5.83369V15.2733L6.07643 15.4219L6.34166 14.9887ZM5.19844 10.5869H5.70641V9.62429L4.91175 10.1676L5.19844 10.5869ZM5.19844 14.2886L4.93323 14.7218L5.70641 15.1952V14.2886H5.19844ZM2.35261 12.5465L2.01499 12.167L1.50328 12.6222L2.0874 12.9797L2.35261 12.5465ZM2.86841 38.1228L2.48534 37.7892L2.16627 38.1555L2.51809 38.4906L2.86841 38.1228ZM4.8956 35.795L5.27867 36.1286L5.61226 35.7456L5.22922 35.412L4.8956 35.795ZM4.03342 35.0441L4.36704 34.6611L3.98398 34.3275L3.65036 34.7105L4.03342 35.0441ZM1.85958 37.5402L1.434 37.8175L1.80107 38.3808L2.24264 37.8738L1.85958 37.5402ZM1.73922 13.5115L2.00445 13.0783L1.44121 12.7335L1.25245 13.3663L1.73922 13.5115ZM15.4672 21.9157L15.8503 22.2493L16.2449 21.7962L15.7325 21.4825L15.4672 21.9157ZM4.03342 35.0441L3.65037 34.7105L3.31675 35.0936L3.69981 35.4272L4.03342 35.0441ZM4.8956 35.795L4.56199 36.1781L4.94504 36.5117L5.27866 36.1287L4.8956 35.795ZM16.4822 22.4912L16.7007 22.0326L16.3525 21.8667L16.0991 22.1576L16.4822 22.4912ZM22.5541 22.4733L22.9375 22.1401L22.6827 21.8468L22.3329 22.016L22.5541 22.4733ZM36.1491 38.1219L36.1817 38.6289L37.2054 38.5632L36.5326 37.7888L36.1491 38.1219ZM2.86842 38.1228L2.5181 38.4906L2.65391 38.62L2.8412 38.63L2.86842 38.1228ZM37.3488 36.8408L37.2887 36.3363L36.8408 36.3897V36.8408H37.3488ZM37.1477 37.5281L36.7642 37.8612L37.2109 38.3753L37.5763 37.8006L37.1477 37.5281ZM23.5679 21.8972L23.3049 21.4626L22.7888 21.775L23.1845 22.2303L23.5679 21.8972ZM37.2844 13.5955L37.7768 13.4707L37.6082 12.8057L37.0213 13.1609L37.2844 13.5955ZM37.3488 36.8407L37.4089 37.3451L37.8568 37.2918V36.8407H37.3488ZM37.3615 11.0133L34.0875 8.78402L33.5157 9.62378L36.7897 11.853L37.3615 11.0133ZM34.3095 9.2039V8.36353H33.2936V9.2039H34.3095ZM34.3095 8.36353C34.3095 6.04269 32.4222 4.15532 30.1013 4.15532V5.17126C31.8611 5.17126 33.2936 6.60378 33.2936 8.36353H34.3095ZM30.1013 4.15532H27.1327V5.17126H30.1013V4.15532ZM27.4186 4.2434L21.8793 0.47212L21.3076 1.3119L26.8468 5.08318L27.4186 4.2434ZM21.8794 0.472132C20.4351 -0.511239 18.5649 -0.51123 17.1206 0.472125L17.6923 1.3119C18.7916 0.563423 20.2083 0.563432 21.3076 1.31189L21.8794 0.472132ZM17.1206 0.472124L11.5862 4.24021L12.158 5.07998L17.6923 1.3119L17.1206 0.472124ZM11.4511 4.94427L11.4533 4.94755L12.2954 4.3792L12.2931 4.37592L11.4511 4.94427ZM11.8743 4.15541H8.8986V5.17134H11.8743V4.15541ZM8.8986 4.15541C6.57776 4.15541 4.69039 6.04277 4.69039 8.36361H5.70633C5.70633 6.60386 7.13884 5.17134 8.8986 5.17134V4.15541ZM4.69039 8.36361V9.20391H5.70633V8.36361H4.69039ZM4.91248 8.78403L1.63841 11.0132L2.21018 11.853L5.48424 9.6238L4.91248 8.78403ZM1.63844 11.0132C0.612583 11.7116 0 12.8699 0 14.1109H1.01594C1.01594 13.2061 1.46227 12.3622 2.21016 11.853L1.63844 11.0132ZM0 14.1109V36.8407H1.01594V14.1109H0ZM0 36.8407C0 37.2878 0.0874054 38.0105 0.510357 38.6363C0.956024 39.2957 1.72743 39.7773 2.93656 39.7773V38.7614C2.03624 38.7614 1.59335 38.4244 1.35209 38.0674C1.08811 37.6768 1.01594 37.1852 1.01594 36.8407H0ZM2.93656 39.7773H36.0634V38.7614H2.93656V39.7773ZM36.0634 39.7773C37.6831 39.7773 38.9999 38.4604 38.9999 36.8407H37.984C37.984 37.8993 37.122 38.7614 36.0634 38.7614V39.7773ZM38.9999 36.8407V14.1109H37.984V36.8407H38.9999ZM38.9999 14.111C39 12.8699 38.3872 11.7116 37.3615 11.0133L36.7898 11.8531C37.5377 12.3623 37.9841 13.2061 37.984 14.1109L38.9999 14.111ZM37.0756 10.9252H37.0756V11.9411H37.0756V10.9252ZM18.3357 2.25683C19.0442 1.7746 19.956 1.77465 20.6642 2.2568L21.2359 1.41699C20.1826 0.699969 18.8175 0.700012 17.7641 1.41695L18.3357 2.25683ZM20.6642 2.25678L24.8156 5.08326L25.3874 4.24349L21.2359 1.41701L20.6642 2.25678ZM25.1015 4.15541H13.8986V5.17134H25.1015V4.15541ZM14.1845 5.08326L18.3358 2.25678L17.764 1.41701L13.6127 4.24349L14.1845 5.08326ZM6.84962 8.36368C6.84962 7.23422 7.76923 6.31463 8.89861 6.31463V5.29869C7.20813 5.29869 5.83369 6.67315 5.83369 8.36368H6.84962ZM8.89861 6.31463H30.1013V5.29869H8.89861V6.31463ZM30.1013 6.31463C31.2307 6.31463 32.1503 7.23423 32.1503 8.3636H33.1662C33.1662 6.67314 31.7917 5.29869 30.1013 5.29869V6.31463ZM32.1503 8.3636V15.3122H33.1662V8.3636H32.1503ZM32.6582 15.8201H33.8014V14.8042H32.6582V15.8201ZM34.3094 15.3122V10.5871H33.2935V15.3122H34.3094ZM33.8014 10.5871C33.5142 11.006 33.5142 11.006 33.5142 11.006C33.5142 11.0061 33.5143 11.0061 33.5143 11.0061C33.5144 11.0062 33.5145 11.0063 33.5147 11.0064C33.515 11.0066 33.5155 11.007 33.5162 11.0074C33.5176 11.0083 33.5196 11.0097 33.5223 11.0116C33.5276 11.0152 33.5355 11.0206 33.5458 11.0277C33.5665 11.0419 33.5969 11.0627 33.6355 11.0893C33.7128 11.1423 33.8234 11.2182 33.9564 11.3096C34.2223 11.4923 34.5777 11.7367 34.9357 11.9837C35.2938 12.2307 35.6539 12.4799 35.9296 12.6723C36.0676 12.7686 36.1833 12.8499 36.2666 12.9093C36.3085 12.9391 36.3406 12.9623 36.3626 12.9786C36.4005 13.0065 36.3828 12.9954 36.3577 12.9712L37.0644 12.2412C37.0287 12.2066 36.9788 12.1707 36.9659 12.1611C36.9372 12.1399 36.8998 12.113 36.8563 12.082C36.7688 12.0196 36.6498 11.936 36.511 11.8392C36.2331 11.6452 35.8711 11.3947 35.5126 11.1474C35.1539 10.8999 34.7979 10.6551 34.5317 10.4722C34.3985 10.3808 34.2878 10.3047 34.2104 10.2516C34.1716 10.225 34.1412 10.2042 34.1205 10.1899C34.1101 10.1828 34.1022 10.1774 34.0968 10.1737C34.0941 10.1719 34.0921 10.1705 34.0907 10.1695C34.0901 10.1691 34.0895 10.1687 34.0892 10.1685C34.089 10.1684 34.0889 10.1683 34.0888 10.1682C34.0888 10.1682 34.0887 10.1682 34.0887 10.1681C34.0887 10.1681 34.0887 10.1681 33.8014 10.5871ZM36.448 12.1716L22.2801 20.7466L22.8062 21.6157L36.9741 13.0408L36.448 12.1716ZM22.2806 20.7463C20.5649 21.7823 18.4348 21.7822 16.7224 20.7481L16.1972 21.6177C18.2329 22.8471 20.7674 22.8468 22.8057 21.616L22.2806 20.7463ZM16.725 20.7497L6.60688 14.5554L6.07643 15.4219L16.1945 21.6161L16.725 20.7497ZM6.84962 14.9887V8.36368H5.83369V14.9887H6.84962ZM4.69047 10.5869V14.2886H5.70641V10.5869H4.69047ZM5.46365 13.8554L2.61782 12.1133L2.0874 12.9797L4.93323 14.7218L5.46365 13.8554ZM2.69022 12.926C2.66885 12.9451 2.65439 12.9541 2.69128 12.9277C2.7132 12.912 2.74482 12.8897 2.78556 12.8612C2.86673 12.8044 2.9798 12.726 3.11455 12.6329C3.38382 12.4468 3.73689 12.2041 4.08828 11.963C4.43957 11.722 4.78879 11.4828 5.05022 11.3038C5.18092 11.2143 5.28967 11.1399 5.36573 11.0879C5.40376 11.0619 5.43362 11.0415 5.45396 11.0276C5.46414 11.0206 5.47193 11.0153 5.47718 11.0117C5.47981 11.0099 5.4818 11.0085 5.48313 11.0076C5.4838 11.0072 5.4843 11.0068 5.48463 11.0066C5.4848 11.0065 5.48493 11.0064 5.48501 11.0063C5.48505 11.0063 5.48508 11.0063 5.4851 11.0063C5.48512 11.0063 5.48513 11.0063 5.19844 10.5869C4.91175 10.1676 4.91174 10.1676 4.91172 10.1676C4.91169 10.1676 4.91166 10.1676 4.91162 10.1677C4.91153 10.1677 4.91141 10.1678 4.91124 10.1679C4.9109 10.1682 4.91039 10.1685 4.90972 10.169C4.90838 10.1699 4.90639 10.1713 4.90375 10.1731C4.89849 10.1767 4.89067 10.182 4.88048 10.189C4.8601 10.2029 4.83021 10.2234 4.79214 10.2494C4.716 10.3015 4.60717 10.3759 4.47636 10.4655C4.21475 10.6446 3.86519 10.884 3.51348 11.1253C3.16186 11.3666 2.8077 11.61 2.53704 11.797C2.40182 11.8905 2.28675 11.9703 2.20304 12.0289C2.16134 12.058 2.12634 12.0827 2.10014 12.1015C2.08891 12.1095 2.04482 12.1404 2.01499 12.167L2.69022 12.926ZM3.25147 38.4564L5.27867 36.1286L4.51253 35.4614L2.48534 37.7892L3.25147 38.4564ZM5.22922 35.412L4.36704 34.6611L3.69981 35.4272L4.56199 36.1781L5.22922 35.412ZM3.65036 34.7105L1.47652 37.2066L2.24264 37.8738L4.41648 35.3777L3.65036 34.7105ZM2.28517 37.2629C2.20511 37.14 2.15908 36.9958 2.15908 36.8407H1.14314C1.14314 37.2016 1.25139 37.5373 1.434 37.8175L2.28517 37.2629ZM2.15908 36.8407V14.1109H1.14314V36.8407H2.15908ZM2.15908 14.1109C2.15908 13.956 2.18225 13.8034 2.226 13.6567L1.25245 13.3663C1.18156 13.604 1.14314 13.8543 1.14314 14.1109H2.15908ZM1.474 13.9447L15.202 22.3489L15.7325 21.4825L2.00445 13.0783L1.474 13.9447ZM15.0842 21.5821L3.65037 34.7105L4.41648 35.3778L15.8503 22.2493L15.0842 21.5821ZM3.69981 35.4272L4.56199 36.1781L5.22921 35.412L4.36704 34.6611L3.69981 35.4272ZM5.27866 36.1287L16.8652 22.8248L16.0991 22.1576L4.51254 35.4614L5.27866 36.1287ZM16.2636 22.9498C17.2883 23.4381 18.3938 23.6829 19.4999 23.6829V22.667C18.5439 22.667 17.5879 22.4555 16.7007 22.0326L16.2636 22.9498ZM19.4999 23.6829C20.62 23.6829 21.7396 23.4313 22.7752 22.9306L22.3329 22.016C21.4361 22.4496 20.4677 22.667 19.4999 22.667V23.6829ZM22.1706 22.8064L35.7657 38.4551L36.5326 37.7888L22.9375 22.1401L22.1706 22.8064ZM36.1166 37.615C36.1371 37.6137 36.1348 37.6141 36.0508 37.6141C35.9872 37.6142 35.8932 37.6142 35.7707 37.6143C35.5258 37.6144 35.1674 37.6145 34.7118 37.6146C33.8004 37.6148 32.5 37.6149 30.9402 37.615C27.8205 37.6153 23.6635 37.6155 19.5066 37.6155C11.1747 37.6157 2.88886 37.6152 2.89564 37.6155L2.8412 38.63C2.8707 38.6316 11.2109 38.6316 19.5066 38.6315C23.6635 38.6314 27.8206 38.6312 30.9402 38.631C32.5001 38.6309 33.8005 38.6307 34.712 38.6305C35.1677 38.6304 35.5261 38.6303 35.7711 38.6302C35.8936 38.6302 35.9878 38.6301 36.0517 38.6301C36.0951 38.63 36.1594 38.6303 36.1817 38.6289L36.1166 37.615ZM3.21874 37.7549L3.21873 37.7549L2.51809 38.4906L2.5181 38.4906L3.21874 37.7549ZM36.8408 36.8408C36.8408 36.9922 36.7965 37.1336 36.719 37.2555L37.5763 37.8006C37.752 37.5243 37.8567 37.1951 37.8567 36.8408H36.8408ZM37.5311 37.1949L23.9514 21.564L23.1845 22.2303L36.7642 37.8612L37.5311 37.1949ZM23.8309 22.3318L37.5474 14.0301L37.0213 13.1609L23.3049 21.4626L23.8309 22.3318ZM36.7919 13.7203C36.824 13.847 36.8409 13.9779 36.8409 14.1109H37.8568C37.8568 13.892 37.8291 13.6773 37.7768 13.4707L36.7919 13.7203ZM36.8409 14.1109V36.8407H37.8568V14.1109H36.8409ZM37.2888 36.3363L37.2887 36.3363L37.4088 37.3452L37.4089 37.3451L37.2888 36.3363Z" fill="#737D6D"/>
</g>
</svg>
