<svg width="40" height="31" viewBox="0 0 40 31" fill="none" xmlns="http://www.w3.org/2000/svg">
<path fill-rule="evenodd" clip-rule="evenodd" d="M32.6458 13.7909C32.6458 13.7909 33.1736 16.365 33.2917 16.9047H30.9722C31.2014 16.2888 32.0833 13.8946 32.0833 13.8946C32.0694 13.9154 32.3125 13.2649 32.4514 12.8636L32.6458 13.7908L32.6458 13.7909ZM40 3.32143V27.6786C40 29.5123 38.5069 31 36.6667 31H3.33333C1.49305 31 0 29.5123 0 27.6786V3.32143C0 1.48772 1.49306 0 3.33333 0H36.6667C38.5069 0 40 1.48772 40 3.32143ZM10.5903 20.7036L14.9792 9.96428H12.0278L9.2986 17.2991L8.99999 15.8114L8.02777 10.8708C7.86805 10.1857 7.37499 9.99196 6.76388 9.96428H2.27082L2.22221 10.1788C3.31943 10.4556 4.2986 10.8569 5.15277 11.3621L7.63888 20.7036H10.5903ZM17.1458 20.7174L18.8958 9.96428H16.1041L14.3611 20.7174H17.1458H17.1458ZM26.8611 17.2022C26.875 15.9775 26.125 15.0433 24.5208 14.2752C23.5417 13.7839 22.9444 13.4518 22.9444 12.9466C22.9583 12.49 23.4514 12.0194 24.5486 12.0194C25.4583 11.9987 26.125 12.2132 26.625 12.4277L26.875 12.5453L27.2569 10.2203C26.7083 10.0058 25.8333 9.76361 24.7569 9.76361C22 9.76361 20.0625 11.2306 20.0486 13.3203C20.0278 14.8634 21.4375 15.7214 22.493 16.2404C23.5694 16.7663 23.9375 17.1123 23.9375 17.5759C23.9236 18.2955 23.0625 18.6277 22.2639 18.6277C21.1528 18.6277 20.5555 18.4547 19.6458 18.0533L19.2778 17.8804L18.8889 20.2953C19.5417 20.5929 20.75 20.8558 22 20.8696C24.9305 20.8766 26.8403 19.4304 26.8611 17.2022L26.8611 17.2022ZM36.6667 20.7174L34.4167 9.96428H32.2569C31.5903 9.96428 31.0833 10.158 30.7986 10.8569L26.6528 20.7174H29.5833C29.5833 20.7174 30.0625 19.3888 30.1667 19.1051H33.75C33.8333 19.4857 34.0833 20.7174 34.0833 20.7174L36.6667 20.7174Z" fill="#1C3947"/>
</svg>
