<svg width="80" height="56" viewBox="0 0 80 56" fill="none" xmlns="http://www.w3.org/2000/svg">
<path fill-rule="evenodd" clip-rule="evenodd" d="M5.75097 50.4836L70.3683 0L74.6775 5.51611L10.0611 55.9997L5.75097 50.4836ZM21.1689 51.1289L30.5622 43.7903C33.3747 45.4697 36.6372 46.3579 39.9996 46.3579C50.1948 46.3579 58.1814 38.3713 58.1814 28.1763C58.1814 26.3411 57.9203 24.5376 57.4056 22.8167L69.9481 13.0183C72.1349 15.1396 74.0943 17.4958 75.7746 20.0212C77.4756 22.5791 78.8976 25.3223 80.0001 28.1763C78.4701 32.1353 76.3497 35.8396 73.6983 39.1868C71.0748 42.4988 67.9806 45.4004 64.4994 47.8125C57.2886 52.8083 48.816 55.449 39.9996 55.449C33.3963 55.449 27.0612 53.9954 21.1689 51.1289H21.1689ZM10.0413 43.3242C7.85791 41.2046 5.89947 38.8501 4.22101 36.3257C2.52179 33.7698 1.10163 31.0273 0 28.1763C1.52997 24.2163 3.64948 20.5117 6.3009 17.1648C8.92437 13.8528 12.0186 10.9512 15.4998 8.54003C22.7106 3.54418 31.1823 0.90356 39.9996 0.90356C46.5956 0.90356 52.9272 2.35424 58.8177 5.21728L49.4254 12.5559C46.6156 10.8801 43.3566 9.99438 39.9996 9.99438C29.8035 9.99438 21.8169 17.9809 21.8169 28.1763C21.8169 30.0068 22.077 31.8059 22.5891 33.5222L10.0431 43.3242L10.0422 43.3249L10.0413 43.3242Z" fill="white"/>
</svg>
