<svg width="36" height="36" viewBox="0 0 36 36" fill="none" xmlns="http://www.w3.org/2000/svg">
<mask id="mask0_0_870" style="mask-type:luminance" maskUnits="userSpaceOnUse" x="-2" y="-2" width="40" height="40">
<path fill-rule="evenodd" clip-rule="evenodd" d="M23.2547 0.270432L22.0427 4.68878L24.9014 6.07409L27.5869 1.48296L30.4446 3.38913L27.5869 7.66374L29.0543 9.47726L33.3515 6.0741L35.2967 8.93286L30.4446 12.5709L31.1378 14.6499L37.1157 12.5709V23.4851L28.7989 36.2187L8.61633 37.1718L-1.17195 25.9111V10.4053L6.53688 1.48297L16.8981 -1.805L16.4313 4.68879H18.8594L20.3959 -1.36527L23.6884 -0.682131L23.2547 0.270432Z" fill="white"/>
</mask>
<g mask="url(#mask0_0_870)">
<path fill-rule="evenodd" clip-rule="evenodd" d="M8.45895 33.2688C0.0394773 28.0077 -2.52952 16.8778 2.73115 8.45898C7.99222 0.0395042 19.1215 -2.52989 27.541 2.73118C35.9598 7.99186 38.5298 19.1215 33.2688 27.541C28.0081 35.9598 16.8778 38.5295 8.45895 33.2688ZM26.8343 4.39248C19.8183 0.00838159 8.77654 2.14963 4.39245 9.16564C0.00835476 16.1817 2.1496 27.2234 9.16561 31.6075C16.1816 35.9916 27.2234 33.8503 31.6075 26.8343C35.9916 19.8183 33.8503 8.77657 26.8343 4.39248ZM24.6874 7.36152C24.6874 7.36152 15.4067 12.2404 13.9441 14.581L13.149 15.8534C11.6869 18.1933 11.2837 28.8416 11.2837 28.8416C11.2837 28.8416 20.4919 23.9218 21.9541 21.5818L22.8533 20.1428C24.3159 17.8022 24.6874 7.36151 24.6874 7.36151L24.6874 7.36152ZM16.4098 20.5448C15.0043 19.6666 14.5769 17.8153 15.4552 16.4098C16.3334 15.0044 18.1847 14.577 19.5901 15.4552C20.9956 16.3334 21.423 18.1847 20.5448 19.5902C19.6665 20.9956 17.8152 21.423 16.4098 20.5448L16.4098 20.5448Z" fill="#7A7A7A"/>
</g>
</svg>
