<svg width="14" height="16" viewBox="0 0 14 16" fill="none" xmlns="http://www.w3.org/2000/svg">
<path fill-rule="evenodd" clip-rule="evenodd" d="M6.5737 7.70722C7.63254 7.70722 8.54939 7.32746 9.29854 6.5782C10.0477 5.82906 10.4274 4.91244 10.4274 3.85349C10.4274 2.7949 10.0477 1.87816 9.29841 1.12878C8.54914 0.37976 7.63241 0 6.5737 0C5.51474 0 4.59812 0.37976 3.84898 1.1289C3.09985 1.87804 2.71997 2.79478 2.71997 3.85349C2.71997 4.91244 3.09985 5.82919 3.84911 6.57833C4.59839 7.32735 5.51513 7.70723 6.57371 7.70723L6.5737 7.70722Z" fill="#00840D"/>
<path fill-rule="evenodd" clip-rule="evenodd" d="M13.3164 12.3031C13.2948 11.9913 13.2511 11.6513 13.1868 11.2921C13.1219 10.9303 13.0382 10.5883 12.9381 10.2756C12.8348 9.95253 12.6941 9.63344 12.5203 9.32765C12.3399 9.01027 12.128 8.7339 11.8902 8.50648C11.6415 8.26856 11.3371 8.07728 10.985 7.93778C10.6342 7.79899 10.2454 7.72864 9.82953 7.72864C9.6662 7.72864 9.50824 7.79569 9.20319 7.9943C9.01545 8.11671 8.79584 8.25831 8.55073 8.41492C8.34114 8.5485 8.0572 8.67359 7.7065 8.78687C7.36434 8.89759 7.01693 8.95374 6.67403 8.95374C6.33114 8.95374 5.98385 8.89759 5.64132 8.78687C5.29098 8.67371 5.00705 8.54859 4.7977 8.41504C4.5549 8.25989 4.33518 8.11832 4.14463 7.99414C3.83994 7.79553 3.68186 7.72852 3.51853 7.72852C3.10252 7.72852 2.71385 7.79899 2.36314 7.93787C2.01134 8.07715 1.70677 8.26844 1.45787 8.5066C1.2202 8.73414 1.00817 9.01038 0.82799 9.32764C0.65429 9.63343 0.51366 9.9524 0.41015 10.2758C0.31018 10.5884 0.22656 10.9303 0.16162 11.2921C0.09729 11.6507 0.05359 11.9909 0.03198 12.3034C0.01074 12.6096 0 12.9273 0 13.2483C0 14.0835 0.2655 14.7596 0.78906 15.2583C1.30615 15.7503 1.99035 15.9999 2.82237 15.9999H10.5264C11.3584 15.9999 12.0424 15.7505 12.5596 15.2583C13.0833 14.76 13.3488 14.0837 13.3488 13.2481C13.3487 12.9257 13.3378 12.6078 13.3164 12.3031V12.3031Z" fill="#00840D"/>
</svg>
