<svg width="29" height="29" viewBox="0 0 29 29" fill="none" xmlns="http://www.w3.org/2000/svg">
<path fill-rule="evenodd" clip-rule="evenodd" d="M28.1945 0C28.0333 0 28.0333 0 27.8722 0L19.3333 3.38334L9.66667 0L0.644442 3.06111C0.322221 3.22223 0 3.38334 0 3.86667V28.1945C0 28.6778 0.322221 29 0.805557 29C0.966673 29 0.966673 29 1.12778 29L9.66667 25.6167L19.3333 29L28.3556 25.9389C28.6778 25.7778 29 25.4556 29 25.1333V0.805557C29 0.322221 28.6778 0 28.1944 0H28.1945ZM19.3333 25.7778L9.66668 22.3944V3.22222L19.3333 6.60556V25.7778Z" fill="#1C3947"/>
</svg>
