<svg width="15" height="20" viewBox="0 0 15 20" fill="none" xmlns="http://www.w3.org/2000/svg">
<g opacity="0.5">
<path fill-rule="evenodd" clip-rule="evenodd" d="M5.4794 12.2211C5.23991 11.8591 4.93353 11.5408 4.67542 11.1899C4.49509 10.9426 4.29899 10.689 4.19416 10.4062C3.8593 9.49929 4.01956 8.65555 4.65239 7.93624C4.95963 7.58772 5.32066 7.28861 5.65992 6.97029C6.13707 6.52401 6.4487 6.00202 6.47489 5.31455C6.50193 4.58281 6.14261 3.98516 5.48714 3.80569C5.15343 3.71462 4.45628 3.66455 4.45456 3.67945C3.45219 3.72895 2.48862 3.93804 1.60675 4.4452C0.802294 4.90754 0.22556 5.56425 0.065306 6.52353C-0.0700073 7.33028 0.00509456 8.13474 0.289311 8.89505C0.543318 9.57565 0.864226 10.2288 1.16477 10.8916C1.51798 11.6696 1.75106 12.4773 1.76998 13.3408C1.77495 13.5636 1.78307 13.7889 1.8256 14.0059C1.96493 14.7356 2.30504 15.3234 2.99225 15.6434C3.40633 15.8361 3.84296 15.7971 4.27567 15.7348C5.08796 15.6178 5.62073 15.1359 5.78339 14.3732C5.94613 13.6182 5.91431 12.881 5.4794 12.2212V12.2211Z" fill="black"/>
<path fill-rule="evenodd" clip-rule="evenodd" d="M6.64205 2.5694C6.94346 2.19872 7.06157 1.76226 7.07639 1.23686C7.06673 1.16003 7.05957 1.03092 7.0351 0.903723C7.01561 0.797841 6.98388 0.692818 6.94565 0.592086C6.70216 -0.0567 6.09552 -0.193733 5.60785 0.287718C5.12172 0.76841 4.96337 1.81847 5.28571 2.43199C5.60221 3.03462 6.21115 3.09779 6.64205 2.56941V2.5694Z" fill="black"/>
<path fill-rule="evenodd" clip-rule="evenodd" d="M4.32393 2.52169C4.6952 2.15214 4.78102 1.41372 4.50398 0.965041C4.25781 0.565871 3.82748 0.54322 3.53686 0.919359C3.34774 1.16343 3.27034 1.44945 3.27264 1.7587C3.26977 2.02523 3.33236 2.25276 3.45621 2.43577C3.68213 2.76899 4.04087 2.80388 4.32393 2.52168V2.52169Z" fill="black"/>
<path fill-rule="evenodd" clip-rule="evenodd" d="M2.69568 2.76631C2.85164 2.57336 2.89875 2.34324 2.90898 2.10204C2.89761 1.85357 2.84877 1.6182 2.68556 1.42439C2.48592 1.18845 2.204 1.19017 2.00447 1.42439C1.71729 1.76221 1.71261 2.4238 1.99548 2.76773C2.20056 3.01859 2.49318 3.01859 2.69568 2.76631Z" fill="black"/>
<path fill-rule="evenodd" clip-rule="evenodd" d="M1.67273 3.21113C1.85199 2.90742 1.74607 2.39243 1.45898 2.17683C1.24279 2.01419 0.987759 2.05872 0.867278 2.29523C0.813056 2.40437 0.795557 2.52946 0.760761 2.64758C0.789089 2.9188 0.869099 3.15532 1.08933 3.32552C1.29884 3.48788 1.54031 3.4358 1.67274 3.21113H1.67273Z" fill="black"/>
<path fill-rule="evenodd" clip-rule="evenodd" d="M0.910114 4.01566C1.01014 3.89583 1.05058 3.74503 1.12112 3.59786C1.05145 3.45738 1.012 3.31796 0.919566 3.20538C0.766535 3.01884 0.488086 3.02008 0.302831 3.19057C0.0747814 3.3989 0.058481 3.79578 0.27023 4.01681C0.455615 4.20938 0.742644 4.21817 0.910101 4.01567L0.910114 4.01566Z" fill="black"/>
<path fill-rule="evenodd" clip-rule="evenodd" d="M9.83711 8.05631C9.83882 8.04111 9.15391 7.90303 8.80711 7.90303C8.12689 7.90121 7.62288 8.38219 7.45421 9.09415C7.29415 9.76396 7.45833 10.35 7.79863 10.9074C8.04012 11.3048 8.30905 11.6896 8.51212 12.1084C8.9305 12.9685 8.86245 13.8245 8.29739 14.6095C8.12107 14.8544 7.86333 15.0465 7.6247 15.238C7.28316 15.5091 6.90406 15.7326 6.57552 16.0188C5.98024 16.5385 5.75442 17.2409 5.70989 18.0131C5.66392 18.7922 6.04829 19.3967 6.80037 19.7267C7.20155 19.9026 7.61123 20.0556 8.06162 19.9805C8.80932 19.8548 9.29459 19.3765 9.62228 18.7131C9.71994 18.5146 9.78924 18.2994 9.85269 18.0852C10.1006 17.2566 10.5399 16.5403 11.0881 15.8851C11.553 15.3264 12.0372 14.7818 12.4643 14.1947C12.9402 13.5366 13.2254 12.7818 13.3109 11.9684C13.4122 11.0006 13.0292 10.2144 12.3793 9.55423C11.6613 8.82794 10.7897 8.37085 9.83712 8.05635L9.83711 8.05631Z" fill="black"/>
<path fill-rule="evenodd" clip-rule="evenodd" d="M9.3698 6.63423C9.84284 6.1288 9.96975 5.07415 9.62878 4.48089C9.28838 3.88733 8.66798 3.8579 8.25896 4.41857C8.19607 4.50593 8.13673 4.59872 8.08905 4.6959C8.03257 4.81076 7.99071 4.933 7.961 5.00572C7.83591 5.51574 7.83361 5.96842 8.0256 6.40573C8.2991 7.02986 8.90251 7.13116 9.36981 6.63423H9.3698Z" fill="black"/>
<path fill-rule="evenodd" clip-rule="evenodd" d="M11.1317 7.12457C11.3005 6.98112 11.4204 6.77834 11.4883 6.5205C11.5739 6.22254 11.5757 5.92639 11.457 5.63978C11.2771 5.20076 10.8564 5.10826 10.5125 5.42773C10.1273 5.78704 10.012 6.52116 10.2716 6.97557C10.4683 7.32352 10.8244 7.38439 11.1317 7.12456V7.12457Z" fill="black"/>
<path fill-rule="evenodd" clip-rule="evenodd" d="M12.4505 7.83376C12.8148 7.57745 12.9863 6.93947 12.799 6.53705C12.6687 6.25742 12.398 6.18116 12.1432 6.35519C11.9325 6.49834 11.8243 6.71221 11.7469 6.94875C11.6933 7.18468 11.6777 7.41835 11.7761 7.64578C11.9047 7.9426 12.1845 8.02087 12.4505 7.83376H12.4505Z" fill="black"/>
<path fill-rule="evenodd" clip-rule="evenodd" d="M12.6911 8.3609C12.7522 8.60992 12.9587 8.72079 13.1927 8.61777C13.4382 8.50864 13.5744 8.30127 13.6715 8.04697C13.6715 7.92417 13.6896 7.79907 13.6681 7.68038C13.6221 7.42121 13.4022 7.31532 13.1612 7.41767C12.8423 7.55299 12.6078 8.02259 12.6911 8.36089L12.6911 8.3609Z" fill="black"/>
<path fill-rule="evenodd" clip-rule="evenodd" d="M14.2332 8.70142C14.1125 8.49986 13.8422 8.44024 13.6292 8.58912C13.5001 8.67935 13.4138 8.80502 13.2962 8.92666C13.3131 9.08318 13.3008 9.23619 13.3552 9.37246C13.4475 9.60163 13.7293 9.6517 13.9767 9.50396C14.2591 9.33394 14.3807 8.94844 14.2332 8.70141V8.70142Z" fill="black"/>
</g>
</svg>
