<svg width="38" height="39" viewBox="0 0 38 39" fill="none" xmlns="http://www.w3.org/2000/svg">
<path fill-rule="evenodd" clip-rule="evenodd" d="M14.6111 27.2381V24.9817C14.6111 24.3484 15.043 24.3528 15.5755 24.3528H16.5408V15.4373H15.5755C15.1507 15.4373 14.6111 15.5135 14.6111 15.0265V13.7213C14.6111 13.0635 15.1612 13.1493 15.5755 13.1493H19.032C19.5655 13.1493 19.9973 13.5812 19.9973 14.1146V24.3528H20.9618C21.2955 24.3528 21.9271 24.2871 21.9271 24.9817V27.2381C21.9271 27.6647 21.4952 27.6131 20.9618 27.6131H15.5755C15.3954 27.6131 15.2267 27.6278 15.0824 27.6278C14.8002 27.6278 14.6111 27.5714 14.6111 27.2381ZM15.5843 8.79148C15.5843 7.71669 16.4559 6.84512 17.5307 6.84512C18.6063 6.84512 19.4779 7.71669 19.4779 8.79148C19.4779 9.86715 18.6063 10.7378 17.5307 10.7378C16.4559 10.7378 15.5843 9.86715 15.5843 8.79148Z" fill="#737D6D"/>
<mask id="mask0_0_789" style="mask-type:luminance" maskUnits="userSpaceOnUse" x="-2" y="-2" width="42" height="41">
<path fill-rule="evenodd" clip-rule="evenodd" d="M18.2605 36.7881L18.8713 32.8554L35.1289 37.5749L37.928 38.9729L39.0607 34.1662L36.7014 18.9592L36.0017 13.5407C36.0017 13.5407 32.069 -1.31669 18.8713 -1.05452C5.67557 -0.792103 -2.27783 9.25837 -0.879289 19.4838C0.519249 29.7087 7.77289 33.6419 7.77289 33.6419L14.7646 36.1763L18.2605 36.7881Z" fill="white"/>
</mask>
<g mask="url(#mask0_0_789)">
<path d="M35.3329 38.288L35.3325 38.2882C35.2819 38.3228 35.0802 38.4155 34.5869 38.4299C34.1165 38.4436 33.5085 38.3831 32.7717 38.2477C31.2987 37.977 29.5007 37.4444 27.6078 36.8324C26.8805 36.5972 26.1323 36.348 25.3895 36.1005C24.2421 35.7183 23.1076 35.3403 22.0832 35.0254C20.4296 34.5171 18.8106 34.0884 17.6697 34.0884C8.60188 34.0884 1.25096 26.7375 1.25096 17.6697C1.25096 8.60188 8.60188 1.25096 17.6697 1.25096C26.7375 1.25096 34.0884 8.60188 34.0884 17.6697C34.0884 19.3353 34.4603 21.362 34.8989 23.4152C35.0474 24.1108 35.2039 24.8105 35.3606 25.5112C35.6788 26.9347 35.9981 28.3627 36.2545 29.7704C36.6366 31.8675 36.847 33.7647 36.7044 35.2971C36.5617 36.829 36.0916 37.7704 35.3329 38.288Z" stroke="#737D6D" stroke-width="2.5"/>
</g>
</svg>
