<svg width="31" height="38" viewBox="0 0 31 38" fill="none" xmlns="http://www.w3.org/2000/svg">
<path fill-rule="evenodd" clip-rule="evenodd" d="M20.6819 13.7679C20.1904 13.7679 19.792 14.1663 19.792 14.6579V31.4775C19.792 31.9687 20.1904 32.3674 20.6819 32.3674C21.1735 32.3674 21.5719 31.9687 21.5719 31.4775V14.6579C21.5719 14.1663 21.1735 13.7679 20.6819 13.7679Z" fill="#FF4343"/>
<path fill-rule="evenodd" clip-rule="evenodd" d="M10.1809 13.7679C9.68939 13.7679 9.29102 14.1663 9.29102 14.6579V31.4775C9.29102 31.9687 9.68939 32.3674 10.1809 32.3674C10.6725 32.3674 11.0709 31.9687 11.0709 31.4775V14.6579C11.0709 14.1663 10.6725 13.7679 10.1809 13.7679Z" fill="#FF4343"/>
<path fill-rule="evenodd" clip-rule="evenodd" d="M2.52753 11.313V33.2389C2.52753 34.5348 3.00274 35.7519 3.83287 36.6251C4.65918 37.5008 5.80913 37.9979 7.01262 38H23.8503C25.0541 37.9979 26.2041 37.5008 27.03 36.6251C27.8602 35.7519 28.3354 34.5348 28.3354 33.2389V11.313C29.9856 10.875 31.0549 9.28074 30.8341 7.58745C30.613 5.89451 29.1707 4.6281 27.4632 4.62775H22.9068V3.51534C22.9121 2.57988 22.5422 1.6816 21.88 1.02076C21.2177 0.360267 20.3181 -0.007523 19.3826 0.000116995H11.4803C10.5449 -0.007533 9.6452 0.360257 8.98297 1.02076C8.32074 1.6816 7.95086 2.57987 7.95608 3.51534V4.62775H3.39973C1.69218 4.6281 0.249879 5.89451 0.0287888 7.58745C-0.191951 9.28074 0.877349 10.875 2.52753 11.313ZM23.8503 36.2201H7.01266C5.49109 36.2201 4.30743 34.9131 4.30743 33.2389V11.3912H26.5556V33.2389C26.5556 34.9131 25.3719 36.2201 23.8504 36.2201H23.8503ZM9.73593 3.51535C9.73002 3.05196 9.91218 2.60595 10.241 2.27884C10.5695 1.95172 11.0166 1.772 11.4803 1.77999H19.3826C19.8463 1.77199 20.2934 1.95172 20.6219 2.27884C20.9507 2.60561 21.1329 3.05196 21.127 3.51535V4.62776H9.73593V3.51535ZM3.39972 6.40761H27.4632C28.3479 6.40761 29.065 7.12477 29.065 8.00948C29.065 8.89419 28.3479 9.61135 27.4632 9.61135H3.39972C2.51501 9.61135 1.79785 8.89419 1.79785 8.00948C1.79785 7.12477 2.51501 6.40761 3.39972 6.40761Z" fill="#FF4343"/>
<path fill-rule="evenodd" clip-rule="evenodd" d="M15.4309 13.7679C14.9394 13.7679 14.541 14.1663 14.541 14.6579V31.4775C14.541 31.9687 14.9394 32.3674 15.4309 32.3674C15.9225 32.3674 16.3209 31.9687 16.3209 31.4775V14.6579C16.3209 14.1663 15.9225 13.7679 15.4309 13.7679Z" fill="#FF4343"/>
</svg>
