<svg width="40" height="40" viewBox="0 0 40 40" fill="none" xmlns="http://www.w3.org/2000/svg">
<path fill-rule="evenodd" clip-rule="evenodd" d="M38.1651 36.345H1.81783C0.8136 36.345 0 37.1586 0 38.1637C0 39.167 0.8136 39.9806 1.81783 39.9806H38.1643C39.1685 39.9806 39.9821 39.167 39.9821 38.1637C39.9813 37.1586 39.1676 36.345 38.1651 36.345Z" fill="#1C3947"/>
<path fill-rule="evenodd" clip-rule="evenodd" d="M4.08931 31.6192C3.08508 31.6192 2.27148 32.4328 2.27148 33.4371C2.27148 34.4413 3.08508 35.2558 4.08931 35.2558H35.8929C36.8971 35.2558 37.7107 34.4413 37.7107 33.4371C37.7107 32.4329 36.8971 31.6192 35.8929 31.6192H35.4393V15.2622H35.8929C36.3958 15.2622 36.8009 14.8554 36.8009 14.3541C36.8009 13.8528 36.3941 13.446 35.8929 13.446H4.08931C3.58719 13.446 3.18125 13.8528 3.18125 14.3541C3.18125 14.8554 3.58805 15.2622 4.08931 15.2622H4.54377V31.6184H4.08931V31.6192ZM31.8036 15.2622V31.6184H26.3518V15.2622H31.8036ZM22.7161 15.2622V31.6184H17.2643V15.2622H22.7161ZM8.17773 15.2622H13.6295V31.6184H8.17773V15.2622Z" fill="#1C3947"/>
<path fill-rule="evenodd" clip-rule="evenodd" d="M1.81787 11.8121H38.1643C38.1703 11.8121 38.1771 11.8121 38.1822 11.8121C39.1872 11.8121 40 10.9985 40 9.99424C40 9.19596 39.486 8.51938 38.7719 8.27428L20.7383 0.15957C20.2643 -0.05319 19.7222 -0.05319 19.2473 0.15957L1.07235 8.33726C0.290244 8.68959 -0.139536 9.53894 0.0408839 10.3764C0.220454 11.2138 0.960864 11.8121 1.81786 11.8121H1.81787Z" fill="#1C3947"/>
</svg>
