<svg width="14" height="16" viewBox="0 0 14 16" fill="none" xmlns="http://www.w3.org/2000/svg">
<path fill-rule="evenodd" clip-rule="evenodd" d="M6.57353 7.70698C7.63234 7.70698 8.54916 7.32724 9.29829 6.578C10.0474 5.82888 10.4271 4.91229 10.4271 3.85337C10.4271 2.79481 10.0474 1.8781 9.29816 1.12875C8.54891 0.379748 7.63221 0 6.57353 0C5.5146 0 4.59801 0.379748 3.84889 1.12887C3.09979 1.87798 2.71992 2.79469 2.71992 3.85337C2.71992 4.91229 3.09979 5.82901 3.84902 6.57813C4.59828 7.32713 5.51499 7.70699 6.57354 7.70699L6.57353 7.70698Z" fill="#838582"/>
<path fill-rule="evenodd" clip-rule="evenodd" d="M13.316 12.3032C13.2944 11.9914 13.2507 11.6514 13.1864 11.2923C13.1215 10.9305 13.0378 10.5884 12.9377 10.2758C12.8344 9.95271 12.6937 9.63363 12.5199 9.32785C12.3395 9.01048 12.1276 8.73412 11.8898 8.5067C11.6412 8.26879 11.3367 8.07752 10.9847 7.93802C10.6339 7.79924 10.2451 7.72889 9.82923 7.72889C9.6659 7.72889 9.50795 7.79594 9.20291 7.99454C9.01517 8.11695 8.79557 8.25854 8.55047 8.41515C8.34089 8.54872 8.05695 8.67381 7.70626 8.78709C7.36412 8.8978 7.01672 8.95395 6.67383 8.95395C6.33095 8.95395 5.98367 8.8978 5.64115 8.78709C5.29082 8.67393 5.0069 8.54881 4.79755 8.41527C4.55476 8.26012 4.33505 8.11856 4.1445 7.99438C3.83982 7.79578 3.68175 7.72877 3.51842 7.72877C3.10243 7.72877 2.71377 7.79924 2.36307 7.93811C2.01128 8.07739 1.70672 8.26867 1.45783 8.50682C1.22016 8.73436 1.00814 9.01059 0.827965 9.32784C0.65427 9.63362 0.513644 9.95258 0.410137 10.2759C0.310171 10.5885 0.226553 10.9305 0.161615 11.2922C0.097287 11.6509 0.0535884 11.9911 0.031979 12.3035C0.0107397 12.6097 0 12.9274 0 13.2483C0 14.0835 0.265492 14.7596 0.789036 15.2583C1.30611 15.7503 1.99029 15.9999 2.82228 15.9999H10.5261C11.3581 15.9999 12.042 15.7505 12.5592 15.2583C13.0829 14.76 13.3484 14.0838 13.3484 13.2482C13.3483 12.9258 13.3374 12.6079 13.316 12.3032V12.3032Z" fill="#838582"/>
</svg>
