<svg width="38" height="34" viewBox="0 0 38 34" fill="none" xmlns="http://www.w3.org/2000/svg">
<path fill-rule="evenodd" clip-rule="evenodd" d="M3.4839 33.0111C1.5633 33.0111 0 31.4397 0 29.5074V4.9572C0 3.9105 0.2313 3.1257 0.7065 2.556C1.2573 1.899 2.1573 1.5354 3.3822 1.4769C3.6 1.467 3.9807 1.458 4.5126 1.449C4.5261 3.4011 6.1236 4.9878 8.0748 4.9878H29.925C31.8699 4.9878 33.4674 3.4056 33.4872 1.4607C34.065 1.467 34.4133 1.4724 34.6176 1.4769C37.5984 1.5471 37.9998 3.276 37.9998 4.9572V29.5074C37.9998 31.4397 36.4374 33.0111 34.5168 33.0111H3.4839ZM26.6004 22.7493V26.3493C26.6004 27.4527 27.4977 28.3491 28.6002 28.3491H32.2002C33.3036 28.3491 34.2009 27.4527 34.2009 26.3493V22.7493C34.2009 21.6468 33.3036 20.7495 32.2002 20.7495H28.6002C27.4977 20.7495 26.6004 21.6468 26.6004 22.7493ZM15.201 22.7493V26.3493C15.201 27.4527 16.0983 28.3491 17.2008 28.3491H20.8008C21.9033 28.3491 22.8006 27.4527 22.8006 26.3493V22.7493C22.8006 21.6468 21.9033 20.7495 20.8008 20.7495H17.2008C16.0983 20.7495 15.201 21.6468 15.201 22.7493ZM3.3255 22.7493V26.3493C3.3255 27.4527 4.2228 28.3491 5.3253 28.3491H8.9253C10.0287 28.3491 10.926 27.4527 10.926 26.3493V22.7493C10.926 21.6468 10.0287 20.7495 8.9253 20.7495H5.3253C4.2228 20.7495 3.3255 21.6468 3.3255 22.7493ZM26.6004 11.3499V14.9499C26.6004 16.0533 27.4977 16.9497 28.6002 16.9497H32.2002C33.3036 16.9497 34.2009 16.0533 34.2009 14.9499V11.3499C34.2009 10.2474 33.3036 9.3501 32.2002 9.3501H28.6002C27.4977 9.3501 26.6004 10.2474 26.6004 11.3499ZM15.201 11.3499V14.9499C15.201 16.0533 16.0983 16.9497 17.2008 16.9497H20.8008C21.9033 16.9497 22.8006 16.0533 22.8006 14.9499V11.3499C22.8006 10.2474 21.9033 9.3501 20.8008 9.3501H17.2008C16.0983 9.3501 15.201 10.2474 15.201 11.3499ZM3.3255 11.3499V14.9499C3.3255 16.0533 4.2228 16.9497 5.3253 16.9497H8.9253C10.0287 16.9497 10.926 16.0533 10.926 14.9499V11.3499C10.926 10.2474 10.0287 9.3501 8.9253 9.3501H5.3253C4.2228 9.3501 3.3255 10.2474 3.3255 11.3499ZM7.5996 3.8007C6.5502 3.8007 5.6997 2.9493 5.6997 1.8999C5.6997 0.8514 6.5502 0 7.5996 0H30.4002C31.4496 0 32.3001 0.8514 32.3001 1.8999C32.3001 2.9493 31.4496 3.8007 30.4002 3.8007H7.5996Z" fill="white"/>
</svg>
